<svg xmlns="http://www.w3.org/2000/svg" xmlns:xlink="http://www.w3.org/1999/xlink" viewBox="0 0 254.92 191.36"><defs><style>.cls-1{fill:#74a6f7;}.cls-1,.cls-10,.cls-12,.cls-18,.cls-19,.cls-2,.cls-20,.cls-21,.cls-22,.cls-23,.cls-24,.cls-25,.cls-26,.cls-27,.cls-28,.cls-29,.cls-3,.cls-30,.cls-31,.cls-32,.cls-33,.cls-34,.cls-35,.cls-36,.cls-37,.cls-38,.cls-39,.cls-4,.cls-40,.cls-42,.cls-43,.cls-44,.cls-45,.cls-46,.cls-47,.cls-48,.cls-49,.cls-5,.cls-52,.cls-53,.cls-54,.cls-55,.cls-56,.cls-57,.cls-6,.cls-7,.cls-9{fill-rule:evenodd;}.cls-2{fill:#2562c4;}.cls-3{fill:#427ede;}.cls-11,.cls-4{fill:#9da9cc;}.cls-14,.cls-5{fill:#d3daed;}.cls-17,.cls-6{fill:#f2f4fa;}.cls-7{fill:#2160c4;}.cls-10,.cls-8{fill:#8590b1;}.cls-13,.cls-9{fill:#bcc5e0;}.cls-12,.cls-16{fill:#ebf2ff;}.cls-15{fill:#e4e8f5;}.cls-18{fill:#2757b4;}.cls-19{fill:#286ed4;}.cls-20{fill:#1d60c4;}.cls-21{fill:#565d71;}.cls-22{fill:#393b4e;}.cls-23{fill:#eda070;}.cls-24{fill:#d7e3fa;}.cls-25{fill:#1fd6ff;}.cls-26{fill:#fff;}.cls-27{fill:#fcc39a;}.cls-28{fill:#04a3c8;}.cls-29{fill:#3f210a;}.cls-30{fill:#eaeef3;}.cls-31{fill:#d01a1e;}.cls-32{fill:#df322e;}.cls-33{fill:#331a06;}.cls-34,.cls-41{fill:#536997;}.cls-35{fill:#8999af;}.cls-36{fill:#a9b3c2;}.cls-37{fill:#cdd3dc;}.cls-38{fill:#f1f2f4;}.cls-39{fill:url(#GradientFill_1);}.cls-40{fill:#d9dee4;}.cls-42{fill:url(#GradientFill_1-2);}.cls-43{fill:#d8dce3;}.cls-44{fill:url(#GradientFill_1-3);}.cls-45{fill:url(#GradientFill_1-4);}.cls-46{fill:url(#GradientFill_1-5);}.cls-47{fill:url(#GradientFill_1-6);}.cls-48{fill:url(#GradientFill_1-7);}.cls-49{fill:url(#GradientFill_1-8);}.cls-50{fill:url(#GradientFill_1-10);}.cls-51{fill:url(#GradientFill_1-12);}.cls-52{fill:url(#GradientFill_1-13);}.cls-53{fill:#8b99ae;}.cls-54{fill:#d2d7df;}.cls-55{fill:#b5beda;}.cls-56{fill:#9dadcc;}.cls-57,.cls-58{fill:#53688f;}</style><linearGradient id="GradientFill_1" x1="201.07" y1="65.98" x2="178.3" y2="74.73" gradientUnits="userSpaceOnUse"><stop offset="0" stop-color="#a4b3c6"/><stop offset="1" stop-color="#fff"/></linearGradient><linearGradient id="GradientFill_1-2" x1="191.61" y1="63.29" x2="171.88" y2="90.44" xlink:href="#GradientFill_1"/><linearGradient id="GradientFill_1-3" x1="186.18" y1="72.92" x2="185.02" y2="74.25" xlink:href="#GradientFill_1"/><linearGradient id="GradientFill_1-4" x1="179.66" y1="75.75" x2="182.18" y2="82.66" xlink:href="#GradientFill_1"/><linearGradient id="GradientFill_1-5" x1="190.05" y1="72.13" x2="184.04" y2="79.05" xlink:href="#GradientFill_1"/><linearGradient id="GradientFill_1-6" x1="188.35" y1="71.46" x2="176.14" y2="88.27" xlink:href="#GradientFill_1"/><linearGradient id="GradientFill_1-7" x1="189.45" y1="62.55" x2="171.1" y2="87.81" xlink:href="#GradientFill_1"/><linearGradient id="GradientFill_1-8" x1="182.81" y1="71.38" x2="178.42" y2="77.43" xlink:href="#GradientFill_1"/><linearGradient id="GradientFill_1-10" x1="152.14" y1="-39.63" x2="208.85" y2="187.84" xlink:href="#GradientFill_1"/><linearGradient id="GradientFill_1-12" x1="170.18" y1="34.6" x2="190.29" y2="115.24" xlink:href="#GradientFill_1"/><linearGradient id="GradientFill_1-13" x1="178.09" y1="68.68" x2="187.76" y2="76.51" xlink:href="#GradientFill_1"/></defs><title>isometrico_dentist_2</title><g id="Layer_2" data-name="Layer 2"><g id="_1" data-name="1"><polygon class="cls-1" points="0 111.27 127.48 185.08 254.92 111.51 127.42 37.7 0 111.27"/><polygon class="cls-2" points="254.92 111.51 127.48 185.08 127.48 191.36 254.9 117.79 254.92 111.51"/><polygon class="cls-3" points="0 111.27 127.48 185.08 127.48 191.36 0.07 117.68 0 111.27"/><path class="cls-3" d="M135.13,84c-5.71,0-10.37,2.9-10.37,6.45a4.26,4.26,0,0,0,.45,1.88c-.48,0-1-.07-1.46-.07-4.26,0-7.84,1.85-8.79,4.31l-2.2-1.27-5.23,3-12.2,7,6.87,4L84,119.7l8.56,4.9,9.68-5.55,1,.58-9.88,5.67,8.57,4.91,5.57-3.2,13.53-7.77-7-4,16.61-9.54-4.25-2.46c3.66-.71,6.33-2.84,6.33-5.35a3.6,3.6,0,0,0-.2-1.17,16.39,16.39,0,0,0,2.56.2c5.71,0,10.37-2.9,10.37-6.44S140.84,84,135.13,84Zm-27.6,33.2L104.32,119l-1-.59,4.23-2.43,3.21-1.84,1,.59Z"/><polygon class="cls-4" points="131.38 12.36 113.66 22.59 113.65 34.43 131.37 24.18 131.38 12.36"/><polygon class="cls-5" points="112.33 21.82 113.66 22.59 113.64 34.43 112.34 33.64 112.33 21.82"/><polygon class="cls-6" points="131.38 12.36 113.66 22.59 112.33 21.82 130.3 11.73 131.38 12.36"/><polygon class="cls-7" points="130.67 13.24 114.36 22.66 114.35 33.55 130.67 24.12 130.67 13.24"/><path class="cls-8" d="M108.64,27.93a.59.59,0,0,1-.3-1.11l4.22-2.41a.59.59,0,0,1,.58,1l-4.21,2.41A.6.6,0,0,1,108.64,27.93Z"/><path class="cls-4" d="M126.48,46.68l-.32-4.92H144.1l-.53,5C143.57,54.2,126.48,54.11,126.48,46.68Z"/><path class="cls-9" d="M125.13,44.51l-.37-5.69H145.5l-.61,5.78C144.89,53.21,125.13,53.11,125.13,44.51Z"/><path class="cls-6" d="M135.13,45.26c-5.71,0-10.37-2.9-10.37-6.44s4.66-6.44,10.37-6.44,10.37,2.89,10.37,6.44S140.84,45.26,135.13,45.26Z"/><path class="cls-9" d="M135.13,44.17c-4.75,0-8.62-2.41-8.62-5.35s3.87-5.35,8.62-5.35,8.61,2.4,8.61,5.35S139.87,44.17,135.13,44.17Z"/><path class="cls-5" d="M127.05,40.68c1.23-2,4.39-3.49,8.08-3.49s6.85,1.46,8.07,3.49c-1.22,2-4.38,3.49-8.07,3.49S128.28,42.71,127.05,40.68Z"/><path class="cls-9" d="M135.13,44c-1.45,0-2.64-.74-2.64-1.64s1.19-1.64,2.64-1.64,2.64.74,2.64,1.64S136.58,44,135.13,44Z"/><path class="cls-10" d="M135.13,43.47c-1,0-1.78-.49-1.78-1.1s.8-1.1,1.78-1.1,1.77.49,1.77,1.1S136.11,43.47,135.13,43.47Z"/><path class="cls-9" d="M123.75,102.05c-3.8,0-6.9-1.93-6.9-4.29V45.36h13.79v52.4C130.64,100.12,127.54,102.05,123.75,102.05Z"/><path class="cls-6" d="M123.75,49.64c-3.8,0-6.9-1.93-6.9-4.28s3.1-4.29,6.9-4.29,6.89,1.93,6.89,4.29S127.54,49.64,123.75,49.64Z"/><polygon class="cls-9" points="96.08 61.74 110.47 70.05 113.41 80.75 113.42 113.86 99.02 105.53 99.01 72.43 96.08 61.74"/><polygon class="cls-4" points="96.08 61.74 110.47 70.06 113.41 80.75 113.41 80.75 99.01 72.44 99.01 72.43 96.08 61.74"/><polygon class="cls-5" points="127.49 60.27 110.47 70.05 113.41 80.71 113.42 113.86 127.49 105.7 127.49 60.27"/><polygon class="cls-6" points="96.08 61.74 110.47 70.05 127.49 60.27 113.18 52.29 96.08 61.74"/><path class="cls-11" d="M131.49,31.23a.6.6,0,1,0,1.19,0,5.07,5.07,0,0,0-.55-2.47,2.55,2.55,0,0,0-.79-.89,2,2,0,0,0-1.11-.34,2.39,2.39,0,0,0-1.21.35,5.81,5.81,0,0,0-2.21,2.65h0a9.29,9.29,0,0,0-.88,3.82v9.46a.6.6,0,0,0,1.2,0V34.35a8,8,0,0,1,.76-3.31h0a4.82,4.82,0,0,1,1.72-2.13,1.41,1.41,0,0,1,.63-.19.82.82,0,0,1,.45.14,1.42,1.42,0,0,1,.41.48A3.93,3.93,0,0,1,131.49,31.23Z"/><rect class="cls-8" x="104.33" y="80.45" width="1.18" height="8.38" transform="translate(-29.18 70.84) rotate(-33.02)"/><rect class="cls-8" x="88" y="67.21" width="12.64" height="1.18" transform="translate(26.36 162.01) rotate(-89.9)"/><polygon class="cls-9" points="84.03 79.58 90.76 83.78 93.85 88.69 84.03 83.01 84.03 79.58"/><polygon class="cls-5" points="110.96 72.12 90.76 83.78 93.85 88.69 114.03 77.01 110.96 72.12"/><polygon class="cls-12" points="84.03 79.58 90.76 83.78 110.96 72.12 104.01 68.03 84.03 79.58"/><path class="cls-13" d="M105.49,60.51c.27,2.06,4.7,2,4.75-.25V4.78a4.69,4.69,0,0,0-.64-2.38A4.61,4.61,0,0,0,107.86.66l-.18-.1A4.69,4.69,0,0,0,105.49,0V4.76h0Zm0-.25a2,2,0,0,0,0,.25V4.77h0V0h0a4.7,4.7,0,0,0-2.38.66L84.43,11.52v4.77a4.66,4.66,0,0,0,2.38-.65L105.47,4.77h0Zm-21-48.74h0v4.74h0Zm0,0Zm0,0h0v0Zm0,4.76h0V11.54h0Zm0-4.76h0V8.09c0-.08,0-.15,0-.22v3.65h0v4.76h0V11.53h0Zm0-3.65a2.39,2.39,0,0,0-4.76.24v3.41a4.66,4.66,0,0,0,.64,2.38h0a4.79,4.79,0,0,0,1.75,1.74h0a4.69,4.69,0,0,0,2.37.64V11.52h0Z"/><path class="cls-14" d="M111.08,64.28c.28,2,4.75,1.93,4.75-.2V43a4.8,4.8,0,0,0-2.38-4.12l-.18-.09a4.69,4.69,0,0,0-2.19-.56V43h0Zm0-.2a1.23,1.23,0,0,0,0,.2V43h0V38.25h0a4.86,4.86,0,0,0-2.38.64L84.43,52.77h0v4.76a4.75,4.75,0,0,0,2.38-.64L111.05,43h0V64.08ZM84.42,52.77v0Zm0,0h0V49.25s0-.09,0-.14v3.66h0v4.75h0V52.78Zm0-3.67a2.38,2.38,0,0,0-4.75.25v3.41a4.79,4.79,0,0,0,.63,2.39h0a4.82,4.82,0,0,0,4.11,2.38V52.79h0Z"/><path class="cls-15" d="M111.69,40.85a1.19,1.19,0,0,0,.44-1.62,1.21,1.21,0,0,0-1.63-.45L86.28,52.64a1.19,1.19,0,1,0,1.18,2.06Z"/><path class="cls-16" d="M83.76,44.86A2.37,2.37,0,0,0,80,47.73l12.19,16A2.37,2.37,0,1,0,96,60.9Z"/><polygon class="cls-4" points="83.49 25.08 96.25 32.45 96.26 35.96 83.49 28.59 83.49 25.08"/><polygon class="cls-5" points="103.23 29.74 96.25 32.45 96.26 35.96 101.76 34.6 103.23 29.74"/><polygon class="cls-6" points="83.49 25.09 96.25 32.45 103.23 29.74 88.51 21.43 83.49 25.09"/><path class="cls-8" d="M92.85,28h0a.59.59,0,0,1-.59-.59l0-7a.59.59,0,0,1,.59-.59h0a.59.59,0,0,1,.59.6l0,7A.58.58,0,0,1,92.85,28Z"/><path class="cls-14" d="M82.41,2.22a2.37,2.37,0,0,0-3.78,2.87l12.19,16a2.37,2.37,0,0,0,3.77-2.87Z"/><path class="cls-14" d="M106.26,2.33A1.19,1.19,0,0,0,105.07.27L86.36,11.07a1.19,1.19,0,1,0,1.19,2Z"/><path class="cls-17" d="M83.3,45.42a1.19,1.19,0,0,0-1.89,1.43l12.19,16a1.19,1.19,0,1,0,1.89-1.44Z"/><path class="cls-17" d="M81.93,2.76a1.17,1.17,0,0,0-1.66-.23A1.19,1.19,0,0,0,80,4.19l12.19,16a1.17,1.17,0,0,0,1.66.23,1.19,1.19,0,0,0,.23-1.66Z"/><path class="cls-13" d="M111.29,78.39a.29.29,0,0,1-.27-.17c-3.08-7-5.25-12.44-6.84-16.42-2.39-6-3.59-9-4.69-9.39a.85.85,0,0,0-.72.12c-.83.48,0,5.33,5,17.51a.3.3,0,0,1-.55.22c-6.91-17-5.28-17.94-4.75-18.24a1.37,1.37,0,0,1,1.21-.16c1.36.47,2.44,3.18,5,9.72,1.59,4,3.76,9.41,6.83,16.4a.29.29,0,0,1-.15.39A.25.25,0,0,1,111.29,78.39Z"/><path class="cls-8" d="M110.92,78.22c.31.71,1,.35.68-.36-.84-1.9-1.48-3.87-2.35-5.77a.59.59,0,0,0-.78-.29.6.6,0,0,0-.3.79C109,74.48,110.08,76.32,110.92,78.22Z"/><path class="cls-13" d="M107.18,80.76a.29.29,0,0,1-.27-.17c-3.07-7-5.25-12.44-6.83-16.42-2.4-6-3.6-9-4.7-9.39a.85.85,0,0,0-.72.12c-.83.48,0,5.33,5,17.51a.29.29,0,0,1-.54.22c-6.91-17-5.29-17.94-4.75-18.24a1.35,1.35,0,0,1,1.2-.16c1.36.47,2.44,3.18,5.06,9.72,1.58,4,3.75,9.41,6.83,16.4a.31.31,0,0,1-.16.39Z"/><path class="cls-8" d="M106.81,80.59c.31.71,1,.35.68-.36-.83-1.9-1.47-3.87-2.34-5.77a.6.6,0,0,0-.79-.29.59.59,0,0,0-.29.79C104.93,76.85,106,78.69,106.81,80.59Z"/><path class="cls-13" d="M103.08,83.13a.29.29,0,0,1-.27-.17C99.73,76,97.56,70.52,96,66.54c-2.39-6-3.59-9-4.69-9.39a.84.84,0,0,0-.72.12c-.83.47,0,5.33,5,17.51A.3.3,0,0,1,95,75c-6.91-17-5.28-17.94-4.75-18.24a1.41,1.41,0,0,1,1.21-.17c1.36.48,2.44,3.19,5,9.73,1.59,4,3.76,9.41,6.83,16.4a.29.29,0,0,1-.15.39Z"/><path class="cls-8" d="M102.71,83c.31.71,1,.35.68-.36-.84-1.9-1.48-3.87-2.35-5.77a.59.59,0,0,0-.78-.29.6.6,0,0,0-.3.79C100.83,79.22,101.87,81.06,102.71,83Z"/><path class="cls-13" d="M99,85.5a.29.29,0,0,1-.27-.17c-3.07-7-5.25-12.44-6.83-16.42-2.4-6-3.6-9-4.7-9.39a.85.85,0,0,0-.72.12c-.83.48,0,5.33,5,17.51a.29.29,0,1,1-.54.22c-6.91-17-5.29-17.94-4.75-18.24A1.4,1.4,0,0,1,87.37,59c1.35.48,2.43,3.19,5,9.73,1.58,4,3.75,9.41,6.83,16.4a.31.31,0,0,1-.16.39Z"/><path class="cls-8" d="M98.6,85.33c.31.71,1,.35.68-.36-.83-1.9-1.47-3.87-2.34-5.77a.6.6,0,0,0-.79-.29.59.59,0,0,0-.29.79C96.72,81.59,97.77,83.43,98.6,85.33Z"/><path class="cls-13" d="M94.87,87.87a.29.29,0,0,1-.27-.17c-3.08-7-5.25-12.44-6.84-16.42-2.39-6-3.59-9-4.69-9.39a.85.85,0,0,0-.72.12c-.83.48.05,5.33,5,17.51a.3.3,0,0,1-.55.22c-6.91-17-5.28-17.94-4.75-18.24a1.41,1.41,0,0,1,1.21-.17c1.36.48,2.44,3.19,5,9.73,1.59,4,3.76,9.41,6.83,16.4a.29.29,0,0,1-.15.39A.25.25,0,0,1,94.87,87.87Z"/><path class="cls-8" d="M94.5,87.7c.31.71,1,.35.68-.36-.84-1.9-1.48-3.87-2.35-5.77a.59.59,0,0,0-.78-.29.6.6,0,0,0-.3.79C92.62,84,93.66,85.8,94.5,87.7Z"/><path class="cls-9" d="M123.75,58.85c-3.8,0-6.9-1.92-6.9-4.28s3.1-4.28,6.9-4.28,6.89,1.92,6.89,4.28S127.54,58.85,123.75,58.85Z"/><polygon class="cls-12" points="125.19 67.74 115.03 73.54 115.04 106.4 125.19 100.52 125.19 67.74"/><polygon class="cls-5" points="125.47 67.94 115.31 73.74 115.32 106.61 125.47 100.72 125.47 67.94"/><polygon class="cls-5" points="96 92.56 106.23 98.47 106.25 99.39 96.01 93.47 96 92.56"/><polygon class="cls-9" points="124.34 88.02 106.23 98.47 106.25 99.39 124.33 88.92 124.34 88.02"/><polygon class="cls-12" points="96.01 92.56 106.23 98.47 124.34 88.02 114.19 82.44 96.01 92.56"/><path class="cls-3" d="M175.41,91.51l-3.55-2.05,3.28-1.93a.71.71,0,0,0,.35-.62.7.7,0,0,0-.36-.62l-5.46-3.15a1.4,1.4,0,0,0-1.45,0l-3.61,2.13-1.13-.65a3.08,3.08,0,0,0-3.17,0L151.17,90a4.12,4.12,0,0,0-1.31.5l-38,22.4a2,2,0,0,0-1,1.79,2,2,0,0,0,1,1.79l15.7,9a4,4,0,0,0,4.12,0l38-22.41a2.06,2.06,0,0,0,0-3.56l-1.68-1,7.41-4.37a1.51,1.51,0,0,0,.77-1.36A1.53,1.53,0,0,0,175.41,91.51Z"/><polygon class="cls-9" points="155.86 67.42 150.51 77.31 155.86 79.9 161.21 70.02 155.86 67.42"/><polygon class="cls-4" points="161.91 68.73 156.38 78.85 157.58 81.07 162.86 71.33 161.91 68.73"/><polygon class="cls-9" points="170.81 39.59 169.5 39.89 171.3 42.94 166.34 54.78 167.19 55.47 172.63 43.14 170.81 39.59"/><polygon class="cls-9" points="174.42 40.77 173.11 41.06 174.91 44.12 169.95 55.96 170.8 56.65 176.24 44.32 174.42 40.77"/><polygon class="cls-4" points="136.2 87.08 152.56 96.52 152.56 104.58 136.21 95.13 136.2 87.08"/><polygon class="cls-5" points="134.61 88.26 116.87 108.19 129.17 115.38 146.91 95.44 134.61 88.26"/><polygon class="cls-9" points="149.23 92.84 130.95 113.26 133.33 119.39 150.82 99.76 149.23 92.84"/><path class="cls-4" d="M159.15,87.75l-12.72,5c-1.31.52-.47,1.77.23,3l4.64,8.1,1.4.79,6.45-5.16Z"/><path class="cls-9" d="M160.48,88.42l-12.72,5c-1.31.51-.48,1.76.22,3l4.72,8.22,7.77-4.49Z"/><polygon class="cls-9" points="130.33 82.72 146.69 92.16 146.69 93.88 130.33 84.43 130.33 82.72"/><polygon class="cls-5" points="161.98 86.88 146.69 92.16 146.69 93.88 161.98 88.58 161.98 86.88"/><polygon class="cls-6" points="130.33 82.72 146.69 92.16 161.97 86.86 145.7 77.73 130.33 82.72"/><path class="cls-18" d="M151.48,69.37c1.44-9.77,1.7-13.64,3.14-16.77.5-1.1,2.53-8.42,5.8-9.63,1.05-.38,2.6.33,3.23.68l11.14,6.23c2.53,1.41,1.31,12.95.78,14.63-.91,2.86-2.69,6-7.77,13.59-1,1.56-4.57,1.9-5.86,1.17l-9-5.76C151.42,72.56,151.23,71.09,151.48,69.37Z"/><path class="cls-19" d="M149.11,68.83c1.44-9.78,1.7-13.65,3.14-16.77.67-1.47,6.53-10.36,9-9l11.14,6.23c2.53,1.42,1.31,13,.78,14.63-.91,2.86-2.91,6.31-8,13.92-.76,1.15-2.31,2.12-3.6,1.38L150.55,73C149,72.07,148.86,70.54,149.11,68.83Z"/><path class="cls-20" d="M152.25,66.9c1.07-7.3,1.26-10.19,2.34-12.52.5-1.09,4.88-7.73,6.74-6.69l8.32,4.65c1.89,1.06,1,9.68.58,10.93-.68,2.14-2.17,4.71-6,10.4-.57.85-1.73,1.58-2.69,1L153.32,70C152.15,69.33,152.06,68.19,152.25,66.9Z"/><path class="cls-18" d="M166.9,42.32c.16-1.13-.44-6.7,2.2-7.68.4-.15.44-.71.68-.57,2.4.18,5.77,1.68,6.81,3.37,1.7,2.79-.91,6.25-3,8.41-.53.56-2.36.41-2.86.13a6.08,6.08,0,0,0-3.33-2.07C166.69,43.73,166.8,43,166.9,42.32Z"/><path class="cls-19" d="M166,42.11c.86-5.87,2-8.41,3.92-8A9,9,0,0,1,175,36.86c2,2.45-.74,6-2.83,8.73a1.58,1.58,0,0,1-2.08.06,5.88,5.88,0,0,0-3.3-1.88C165.81,43.54,165.89,42.77,166,42.11Z"/><path class="cls-4" d="M126.42,101.85c-9.07-5.15-10,2.41-11.79,13l14.74,8.51,9-14.72Z"/><path class="cls-9" d="M143.58,112.33c-9.41-8.14-11.5-4.74-14.21,11l14.21-8.22Z"/><path class="cls-18" d="M130.88,104.32l15.58-12.71.25-.08L162,86.3a1.31,1.31,0,0,0,.9-1.19h0v-3l-3.13-.71-11.41-6.2c-1.93-1.05-3.68-1.81-5.4-1.22l-12.88,4.38-3.44-.78V79.9L111.36,94.44l-3.38,1c.19,1.13.16,3,1.3,3.93l11.11,5.87A9.32,9.32,0,0,0,130.88,104.32Z"/><path class="cls-19" d="M146.71,88.75,162,83.52a1.34,1.34,0,0,0,.91-1.36,2.29,2.29,0,0,0-.91-1.78l-13.63-8a5.64,5.64,0,0,0-5.4-1.22l-15.41,5.25a1.34,1.34,0,0,0-.91,1.37,2.3,2.3,0,0,0,.92,1.78l13.78,8C143.24,88.65,145,89.34,146.71,88.75Z"/><path class="cls-19" d="M130.81,101.54,146.14,89c.46-.38.91-.7.91-1.37a2.32,2.32,0,0,0-.91-1.78l-13.63-8a5.65,5.65,0,0,0-5.39-1.22L111.66,89.23c-.9.73-5.69,5.53-2.77,7.66L120,102.75C124.35,105.05,129.45,102.65,130.81,101.54Z"/><path class="cls-20" d="M147.05,85.88l11.09-3.79a1,1,0,0,0,.66-1,1.68,1.68,0,0,0-.66-1.29l-10.59-5.53a4.1,4.1,0,0,0-3.91-.89L132.47,77.2a1,1,0,0,0-.66,1,1.66,1.66,0,0,0,.67,1.29L143.17,85C144.57,85.74,145.82,86.31,147.05,85.88Z"/><path class="cls-20" d="M130.08,96.83l10.38-8.38a1.59,1.59,0,0,0,.72-1.24,1.38,1.38,0,0,0-.72-1.24l-8.75-5a4.19,4.19,0,0,0-4.27,0L117,89.37c-.81.65-4.51,5.4-2.19,6.55l6.75,3.8C124.59,101.45,128.87,97.81,130.08,96.83Z"/><path class="cls-4" d="M142.59,115.63c-6.59-5.69-8.4-3.85-10.26,6l10.26-5.93Z"/><path class="cls-9" d="M141.52,116.34c-2.87-2.48-4.78-3.45-6.19-2.89-1.18,1.2-2,3.87-2.75,8Z"/><polygon class="cls-3" points="168.7 106.09 193.06 120.1 211.53 109.42 187.23 95.38 168.7 106.09"/><path class="cls-21" d="M191.75,117.63l2.21-4.07-1.15-.63h0l-.09-.06c-.71-.36-1.75.27-2.33,1.41s-.48,2.34.21,2.71h0Z"/><path class="cls-22" d="M194.17,116.27c.58-1.14.48-2.36-.23-2.72s-1.75.27-2.33,1.41-.48,2.35.22,2.71S193.59,117.4,194.17,116.27Z"/><path class="cls-9" d="M193.91,116.14c.47-.92.39-1.89-.18-2.18s-1.4.21-1.87,1.13-.38,1.88.18,2.17S193.45,117.05,193.91,116.14Z"/><path class="cls-10" d="M193.52,115.93a1.6,1.6,0,0,0,0-1.85c-.5-.14-1.16.3-1.55,1a1.64,1.64,0,0,0,0,1.86C192.48,117.12,193.14,116.68,193.52,115.93Z"/><path class="cls-21" d="M206.76,108.94l2.22-4.07-1.16-.63h0l-.09-.06c-.71-.36-1.76.27-2.34,1.41s-.48,2.34.22,2.71h0Z"/><path class="cls-22" d="M209.18,107.58c.58-1.14.48-2.36-.23-2.72s-1.75.27-2.33,1.41-.48,2.35.23,2.71S208.6,108.71,209.18,107.58Z"/><path class="cls-9" d="M208.93,107.45c.46-.92.38-1.89-.18-2.18s-1.41.22-1.87,1.13-.39,1.89.18,2.17S208.46,108.36,208.93,107.45Z"/><path class="cls-10" d="M208.54,107.24a1.64,1.64,0,0,0,0-1.85c-.5-.14-1.17.3-1.55,1a1.62,1.62,0,0,0,0,1.86C207.49,108.43,208.15,108,208.54,107.24Z"/><path class="cls-21" d="M171.67,106.06l2.21-4.06-1.16-.63h0l-.09-.05c-.71-.36-1.75.27-2.33,1.4s-.48,2.34.21,2.71h0Z"/><path class="cls-22" d="M174.09,104.7c.58-1.14.48-2.35-.23-2.71s-1.75.27-2.33,1.4-.48,2.36.22,2.72S173.5,105.84,174.09,104.7Z"/><path class="cls-9" d="M173.83,104.57c.47-.91.39-1.89-.18-2.17s-1.4.21-1.87,1.12-.39,1.89.18,2.18S173.37,105.48,173.83,104.57Z"/><path class="cls-10" d="M173.44,104.36a1.61,1.61,0,0,0,0-1.85c-.5-.13-1.16.31-1.55,1.06a1.62,1.62,0,0,0,0,1.85C172.39,105.56,173.06,105.12,173.44,104.36Z"/><polygon class="cls-9" points="169.71 100.56 192.93 113.93 192.93 115.16 169.73 101.79 169.71 100.56"/><polygon class="cls-5" points="210.53 103.75 192.91 113.94 192.91 115.17 210.53 105.01 210.53 103.75"/><polygon class="cls-12" points="169.69 100.56 192.92 113.93 210.54 103.75 187.36 90.35 169.69 100.56"/><path class="cls-8" d="M192.86,113a.41.41,0,0,1-.42-.41V88.36a.41.41,0,0,1,.42-.41.41.41,0,0,1,.41.41v24.23A.41.41,0,0,1,192.86,113Z"/><path class="cls-8" d="M208.93,103.71a.41.41,0,0,1-.41-.41V79.46a.42.42,0,0,1,.83,0V103.3A.41.41,0,0,1,208.93,103.71Z"/><path class="cls-8" d="M171.68,100.81a.41.41,0,0,1-.41-.42V75.67a.41.41,0,0,1,.41-.41.41.41,0,0,1,.42.41v24.72A.42.42,0,0,1,171.68,100.81Z"/><path class="cls-8" d="M187.76,91.52a.41.41,0,0,1-.41-.42V67a.41.41,0,1,1,.82,0V91.1A.41.41,0,0,1,187.76,91.52Z"/><polygon class="cls-9" points="169.71 76.34 192.93 89.71 192.93 90.94 169.73 77.56 169.71 76.34"/><polygon class="cls-5" points="210.53 79.53 192.91 89.71 192.91 90.94 210.53 80.78 210.53 79.53"/><polygon class="cls-12" points="169.69 76.34 192.92 89.71 210.54 79.52 187.36 66.13 169.69 76.34"/><path class="cls-3" d="M72.81,126c10.64,0,19.27,4.58,19.27,10.22s-8.63,10.22-19.27,10.22-19.27-4.57-19.27-10.22S62.17,126,72.81,126Z"/><path class="cls-23" d="M69.25,87.87a1.87,1.87,0,0,1,1,1.06c.26.56.46,1.22.55,1.45.23.62.1.6.32,1.21-.34.15-.85.23-1.15-.9-.17-.19-.36-.15-.5-1C67.86,89.2,68.57,87.68,69.25,87.87Z"/><path class="cls-23" d="M69.34,87.44c.31.59.73.87.8,1.37a12,12,0,0,1-.43,3.6c-.07.47-2.83-.45-3.09-.88a7.22,7.22,0,0,1,.1-3.23c.28-.59.42-.69.46-1C67.21,87.14,68.21,85.26,69.34,87.44Z"/><path class="cls-23" d="M67.22,91.88l-.72,1.67c-.19.43-.66.16-.52-.28l.53-1.7C66.65,91.15,67.41,91.44,67.22,91.88Z"/><path class="cls-23" d="M67.71,91.58h0a.42.42,0,0,1,.26.52l-.7,2c-.18.51-.76.3-.63-.22l.55-2.09A.39.39,0,0,1,67.71,91.58Z"/><path class="cls-23" d="M68.48,91.77h0a.42.42,0,0,1,.24.56l-.89,2.19c-.22.55-.85.32-.65-.24l.76-2.22A.43.43,0,0,1,68.48,91.77Z"/><path class="cls-23" d="M69.69,92.54l-.82,2c-.21.5-.84.27-.66-.24l.7-2A.41.41,0,0,1,69.69,92.54Z"/><path class="cls-24" d="M61.73,61.33a67.41,67.41,0,0,0-1.06,13.14c-.06,1.88,4.22.83,4.68,0,.43-4.14,4.74-14.34,1.37-16.36C65.21,57.21,62.52,58,61.73,61.33Z"/><path class="cls-24" d="M65.24,74.27c1.42,2.25,2.81,9.34,4,12.12.11,1.52-2.89,2-3.49,1.15-1-1.47-2.7-5.53-4.58-9.89C59.14,72.94,63,70.75,65.24,74.27Z"/><path class="cls-25" d="M65.64,87.43c.17.45.32.88.47,1.29a2.44,2.44,0,0,0,3.42-1.13c-.09-.41-.18-.82-.26-1.21h0a2.49,2.49,0,0,1-3.49,1.15Z"/><path class="cls-25" d="M74.32,129.56c1.11.78.44,3.13-.73,3.53-2.66.9-4.66,2-6.41,2.58-.63.2-2.1.39-2.73-.76-.16-.45.82-2.08.82-2.08C68.39,133.16,72.94,128.79,74.32,129.56Z"/><path class="cls-26" d="M70.13,130.28c1.4.23,3.1-1.15,3.56-1.08a1.29,1.29,0,0,1,1,1,2.22,2.22,0,0,1-1.21,2.34c-.92.46-2,.25-3.51.88-.86.34-3,1.56-3.74,1.57a1.46,1.46,0,0,1-1.53-1.09C64.73,130.36,67.29,129.8,70.13,130.28Z"/><path class="cls-25" d="M80.08,136.41c1.11.78.44,3.14-.73,3.53-2.66.9-4.66,2-6.42,2.59-.62.2-2.1.38-2.72-.77-.16-.44.82-2.08.82-2.08C74.15,140,78.7,135.65,80.08,136.41Z"/><path class="cls-26" d="M76.09,136.93c1.4.23,2.9-1,3.35-.88a1.3,1.3,0,0,1,1,1,2.21,2.21,0,0,1-1.2,2.34c-.92.46-2,.25-3.52.87-.85.35-2.94,1.56-3.73,1.58a1.47,1.47,0,0,1-1.53-1.09C70.49,137.21,73.25,136.45,76.09,136.93Z"/><path class="cls-27" d="M80.34,99.84c.12,7.73-3,16.72-3.65,19.79-.67,1.58-4.15,2.6-5.4,0,2.47-9.16-6.65-19.67.29-29.8C78.41,85.69,79.58,91.25,80.34,99.84Z"/><path class="cls-27" d="M71.29,119.62a19.36,19.36,0,0,0-1.35,6.12c0,3.27,1.08,8.48,1.24,12.52.1,1.8,2.39,1.21,3.15.11.21-3.71,1.93-15,2.6-19.72,0-.57-.56-.63-1.12-.79C73,117.93,72.75,116.94,71.29,119.62Z"/><path class="cls-23" d="M71,88c1.38,3.86,1.23,19.73-.77,26.62-.26,1.7-2.77.34-4.77-1.52.4-3.54-2.09-18.72-1.66-20.27C65.64,91.6,68.81,83.76,71,88Z"/><path class="cls-23" d="M65.46,111.65a7.77,7.77,0,0,1-.26,3.1c-2.2,7,.45,11,.41,16.59,0,1.64,3,1.52,3,0,0-8.3,2-12.32,1.66-17.42Z"/><path class="cls-25" d="M81.15,103.31v0c-.11.6-.85,3.87-1.93,8.27C78.1,115,68.05,111,64,106.32c.07-.52.12-1,.17-1.51,4.26,4.4,13.3,8.08,15.31,5.63C80.56,105.74,81.06,103.61,81.15,103.31Z"/><path class="cls-26" d="M64.43,84.41a10.56,10.56,0,0,0-1.38,6.24c.27,1.68.63,3.51.82,5.65a33.84,33.84,0,0,1,.32,8.51c4.26,4.4,13.3,8.08,15.31,5.63C82.08,98.93,81,88,78.21,81.72,73.16,84.22,69.48,81.91,64.43,84.41Z"/><path class="cls-28" d="M71.59,109.74c0,.6.07,1.22.12,1.85A22.31,22.31,0,0,1,64,106.32c.07-.52.12-1,.17-1.51A24.37,24.37,0,0,0,71.59,109.74Z"/><path class="cls-12" d="M66.22,84.26c-1.62,4.93-.74,8.95,2.74,13,2.68,3.14,2.38,7.25,2.63,12.45a24.37,24.37,0,0,1-7.4-4.93,33.81,33.81,0,0,0-.31-8.45c-.19-2.13-.54-4-.82-5.63a11.41,11.41,0,0,1,1.37-6.32C65.07,84.09,65.62,84.46,66.22,84.26Z"/><path class="cls-27" d="M71,44.28c2.37.21,4.51.95,4.89,5.31.11,1.29-.54,1.45-.12,3.67C76,54.43,75,55.84,74.62,57c-.22.66-.21.85-1,1a4.6,4.6,0,0,1-2-.22,8.09,8.09,0,0,1-3.45-1.55c-1-1-1.13-2.39-1.41-3.63C64.63,46.87,66.53,44,71,44.28Z"/><path class="cls-23" d="M72.24,56.27A17,17,0,0,1,72,61.56c-1.25,1.53-5.64-.09-4.81-3.08.5-1.77-.2-5.15.14-5.5C68.42,51.84,71.51,49.62,72.24,56.27Z"/><path class="cls-27" d="M72.54,52.92s-.68-1.82-1.33-1,.6,4.55,1.13,3.84A3.5,3.5,0,0,0,72.54,52.92Z"/><path class="cls-12" d="M62.9,59.52c.89-1.65,3.43-1.3,5.09-.9,4.52,1.11,6.56,2.22,8.06,3.66,1.13,1.08,2.19,3.78,2.85,5.25A6,6,0,0,1,78,72.26c-2,2.45,1.32,10.38,2,13.13.49,1.85.37,3.71-1.28,4.51-4.08,2-13.31-.34-14.86-4.24.82-2.76,1.26-3.5.42-8.42C63.76,74.15,59.85,65.2,62.9,59.52Z"/><path class="cls-23" d="M83.52,91.31a1.84,1.84,0,0,1,1.21.84,14.79,14.79,0,0,1,.82,1.32c.34.56.21.56.54,1.12-.3.22-.79.39-1.3-.66-.2-.15-.38-.08-.69-.9C82.4,92.88,82.82,91.25,83.52,91.31Z"/><path class="cls-27" d="M83.52,90.87c.42.52.89.71,1,1.18a12.14,12.14,0,0,1,.27,3.63c0,.46-2.87.09-3.2-.28a7,7,0,0,1-.52-3.19,4.79,4.79,0,0,0,.26-1.07C81.37,91,82,89,83.52,90.87Z"/><path class="cls-27" d="M82.29,95.63l-.39,1.78c-.1.45-.61.28-.56-.18l.2-1.77C81.59,95,82.4,95.16,82.29,95.63Z"/><path class="cls-27" d="M82.71,95.24h0a.42.42,0,0,1,.35.47l-.3,2.13c-.08.53-.69.44-.65-.1l.13-2.15A.4.4,0,0,1,82.71,95.24Z"/><path class="cls-27" d="M83.51,95.28h0a.43.43,0,0,1,.34.5L83.4,98.1c-.12.58-.77.49-.69-.1L83,95.67A.43.43,0,0,1,83.51,95.28Z"/><path class="cls-27" d="M84.84,95.81l-.42,2.12a.36.36,0,1,1-.7-.11l.3-2.13A.41.41,0,0,1,84.84,95.81Z"/><path class="cls-29" d="M76.67,49.37a2.07,2.07,0,0,1-2.1,1.31,4.23,4.23,0,0,0,.79-3.39C76,47,76.61,47.94,76.67,49.37Z"/><path class="cls-12" d="M76,53.29,71,52.47a10,10,0,0,1,2.19.79c1.8,1.33,1.33,3.07.28,3.21s-2-.95-3-1.6a4,4,0,0,0,2.93,3.18C74.62,58.64,76.69,55.65,76,53.29Z"/><path class="cls-29" d="M70.15,44c-2.06.12-4.33,1.24-4.75,3.12-.83,3.71-1.35,6.39.59,8.05.24.28,2,1.73,7.07.83-1.35-.81-2-2.32-.52-3.11s2.53-3.86,3-5.48C75.26,44.9,72.8,43.87,70.15,44Z"/><path class="cls-28" d="M76.4,47.71c-1.88,3.55-9,5.88-11.74,4.11-.75-2.48-.33-2.37-1.08-4.85.16-3.31,6.73-5.85,10.2-4C75.11,45.08,75.5,45.18,76.4,47.71Z"/><path class="cls-25" d="M73.33,43.18c.59.53-1,2.24-3.43,3.23s-5.67,1.3-5.74.47C63.9,43.69,71.3,41.36,73.33,43.18Z"/><path class="cls-26" d="M68.65,58.79c-8.05,6.4-.17,17.68-1.33,24.15-.3,1.67-1.61,3.25-1.88,5.94,2.58,2.93,5.22,4.65,7.8,7.57l5.22-3.61c1.73-3.45.2-8.41-1.41-13.78-.62,1-4.69,2.77-5.14,0-.49-2.3-.86-5.73-1.17-8.48-1-1.4-1.19-7.73,2.92-8.49A9.9,9.9,0,0,0,68.65,58.79Z"/><path class="cls-12" d="M77,78.73c1.83,1.94,4.56,8.63,6.27,11.12.4,1.47-2.46,2.5-3.2,1.8-1.32-1.24-3.71-4.92-6.4-8.83C70.74,78.59,74.12,75.7,77,78.73Z"/><path class="cls-25" d="M79.89,91.56c.25.41.48.81.71,1.18A2.42,2.42,0,0,0,83.73,91q-.24-.58-.48-1.14h0a2.48,2.48,0,0,1-3.2,1.8Z"/><path class="cls-26" d="M71.05,66.69a68,68,0,0,0,1.48,13.1c.47,2.94,4.3,0,4.59-.89-.37-4.14,1.91-15-1.79-16.32C73.68,62,71.18,63.25,71.05,66.69Z"/><path class="cls-25" d="M67.1,57,66,58.3c3,3.24,6.25,1.9,9.08,3.2a10.75,10.75,0,0,0-2.06-1.83C70.7,58.94,68.68,58.88,67.1,57Z"/><path class="cls-23" d="M156,59.06c-2.09-1.75-9.84-3.87-12.74-5.79-1.71-1.27-2.27,2.08-1.16,2.11A101.46,101.46,0,0,0,152,62.32C156.56,65,159.32,61.8,156,59.06Z"/><path class="cls-23" d="M156.08,49.09a48.94,48.94,0,0,1-4.41,7.57c-.91,3.28,2.7,3.36,3.22,3A18.6,18.6,0,0,0,162,47.81c1.57-3.69-.63-3.79-2.32-4.4C157.36,43.6,157.65,45.4,156.08,49.09Z"/><path class="cls-30" d="M119.92,96.49c-.53.64-2.83-.66-3.73-.78-3-.4-6.09-1.92-6.16-4.64,0-.31.33-.6,1.09-.55C112.78,91.75,122.83,92.31,119.92,96.49Z"/><path class="cls-31" d="M121.94,93.26c-.67.64-.86,2.45-1.81,2.71s-2.47-.73-3.72-1a16.42,16.42,0,0,0-2.09-.16c-.82-.18-4.13-1.76-3.9-4.11.09-1,3.6.46,4.56.63,2.69.46,4.23.8,4.89-.1C122.31,90.27,122,93.16,121.94,93.26Z"/><path class="cls-30" d="M122.25,100c-.6.58-2.64-.74-3.52-1-2.77-.72-6-2.78-5.72-5.5,0-.3.39-.56,1.15-.42C115.66,94.53,125.59,96.19,122.25,100Z"/><path class="cls-32" d="M125.08,96.94c-.9.77-1.32,2.27-2.56,2.59-.93.24-1.72-.6-2.93-1s-1.83-.44-2.32-.6c-.8-.27-4.32-2.38-3.84-4.69.21-1,3.52.9,4.47,1.12,2.39.57,4.23.74,4.77.09C125.2,93.75,125.18,96.85,125.08,96.94Z"/><path class="cls-23" d="M154.62,66.45c-4.1.2-11.81,3.06-22.58,10.37-2.43,1.88.69,3.75,3.35,5,2.28-.71,18.39-3.42,18.5-5.64S159.45,66.92,154.62,66.45Z"/><path class="cls-23" d="M137,80.33a6.41,6.41,0,0,0-2.4,2.23c-3.83,6.51-8.7,7.26-12.91,11.13-1.23,1.14-3.18-1.2-2-2.23a177.89,177.89,0,0,0,11.81-13.92C132.23,76.41,134.27,77.63,137,80.33Z"/><path class="cls-27" d="M157.93,69.48c-4.1.2-11.81,3.07-22.58,10.38-3.13,3.15.88,3.35,3.54,4.55,2.36-1.69,13.05-.48,18.32-5.25C157.32,76.94,162.76,70,157.93,69.48Z"/><path class="cls-27" d="M138.89,84.41A16.64,16.64,0,0,1,135,90.28c-2.47,2.07-7.16,4.49-10.32,6.92-1.53,1-3.1-1.57-2.27-2.49,2.66-2.52,10-11.08,13.1-14.6C136.83,78.91,139.88,82.18,138.89,84.41Z"/><path class="cls-31" d="M160.46,77.33c1.72,7.49-11.07,4.5-18.72,8.46-.87-.73-.34-2.33-.77-3.32a11,11,0,0,0-8.24-6.11c6.72-5.36,12.38-8.42,16-8.73C152.94,71.55,156.2,73.41,160.46,77.33Z"/><path class="cls-33" d="M170.36,40.25c1.21,3.27-5.48,3.36-4.85,9.46.11,1.07,1.81,2.42,2.54,2.2,1.55-3.68,7.14-12.39,4.12-13.74C171.92,30,168.79,36,170.36,40.25Z"/><path class="cls-31" d="M169.43,54.24a13.82,13.82,0,0,0-4.09-7.1,15,15,0,0,0-6.18-2.59c-1.28.09-5.47,7.09-7.38,8.22a6.13,6.13,0,0,0-.45,4.93c1.24,3-2.86,7.9-3.09,10.29-3.53,5.88,8.35,16.42,12.28,10.92.53-4.44-.56-8.3,1.8-12.84C163.8,63.21,169.47,56,169.43,54.24Z"/><path class="cls-27" d="M161.13,46.15c-1.92,1.73-4,5.58-5.51,8.61A50.24,50.24,0,0,0,165,49.27C163.34,48.57,162.76,46.84,161.13,46.15Z"/><path class="cls-23" d="M161.57,43.59c-.34.39-1.45,4.8-1.24,5.3.79,1.86,5.59,1.52,5.63-1.66,0-1.89,1.29-4.16,1-4.6C166.23,41.18,163,42.27,161.57,43.59Z"/><path class="cls-27" d="M166.72,31.69c-2.4-.48-5.24.07-6.86,4.25-.48,1.24.11,1.59-.94,3.65-.55,1.1.06,2.78.11,4,0,.72,0,.9.67,1.22a4.74,4.74,0,0,0,2,.36c1.27,0,2.73.09,3.85-.54s1.8-2,2.42-3.17C171.78,36.5,171.25,32.69,166.72,31.69Z"/><path class="cls-29" d="M168.4,31.46a5.49,5.49,0,0,1,3.8,4.1c.72,3.93-2,6.71-5.28,7.78-.31.21.71-2.42.5-2.11.13-1.4-.55-1.95-.84-3.15-.83-3.3-3.93-5.23-5.69-4.13C161.86,31.51,165.83,30.54,168.4,31.46Z"/><path class="cls-27" d="M167.48,40.43s1.19-1.6,1.59-.56-1.9,4.31-2.22,3.47A3.59,3.59,0,0,1,167.48,40.43Z"/><path class="cls-23" d="M166.33,52.91c1.48.42,2.09,2.77,1.37,5.24s-2.49,4.12-4,3.69-2.08-2.78-1.36-5.24S164.86,52.48,166.33,52.91Z"/><path class="cls-27" d="M163.33,55.54c-.87,3.24-1,8.94-1.06,12.76-.13,2,1.37,5.86,3.43,3.08,1.67-2.36,6.25-16.78,2.86-19C167.05,51.43,164.26,52.13,163.33,55.54Z"/><path class="cls-29" d="M159.69,35.63a8.07,8.07,0,0,0,4.87,2.7,4,4,0,0,1,.78-2.45,4.63,4.63,0,0,0-3.92-2.25A3.33,3.33,0,0,0,159.69,35.63Z"/><path class="cls-27" d="M163.06,68.31c-2.73-.09-10.14,3-13.61,3.24-2.13,0-.52,3,.38,2.39a101.84,101.84,0,0,0,12.08-.61C167.15,72.71,167.34,68.46,163.06,68.31Z"/><path class="cls-27" d="M149.26,71.48c-.68,0-1.15-.19-1.62,0a12.42,12.42,0,0,0-3,2.24C144.29,74,146.53,76,147,76a7.34,7.34,0,0,0,2.81-1.76c.39-.55.41-.73.65-.93S151.78,71.36,149.26,71.48Z"/><path class="cls-23" d="M146.42,75.66l-1.1,1.51c-.29.38.19.66.51.31l1.23-1.35C147.37,75.79,146.72,75.26,146.42,75.66Z"/><path class="cls-23" d="M146.44,75.07h0a.44.44,0,0,0-.6,0l-1.44,1.68c-.37.42.12.83.51.43l1.57-1.55A.42.42,0,0,0,146.44,75.07Z"/><path class="cls-23" d="M145.87,74.48h0a.45.45,0,0,0-.62.08l-1.48,1.92c-.37.48.15.92.54.46l1.58-1.83A.44.44,0,0,0,145.87,74.48Z"/><path class="cls-23" d="M144.56,73.81l-1.36,1.77c-.34.44.2.88.56.46l1.44-1.67C145.58,73.93,144.89,73.38,144.56,73.81Z"/><path class="cls-27" d="M148.93,71.79a1.91,1.91,0,0,0-1.47-.37c-.63.06-1.32.22-1.58.26-.66.12-.57.23-1.23.34,0,.39.23.87,1.39.56.25,0,.32.24,1.16-.08C148.47,73.71,149.45,72.29,148.93,71.79Z"/><path class="cls-23" d="M143.68,53.88c-.22-.65-.12-1.16-.44-1.57a12.59,12.59,0,0,0-3-2.24c-.39-.28-1.67,2.42-1.54,2.92a7.28,7.28,0,0,0,2.46,2.22,5,5,0,0,1,1.08.37C142.39,55.67,144.49,56.26,143.68,53.88Z"/><path class="cls-23" d="M138.89,52.3l-1.76-.65c-.44-.17-.58.37-.16.58l1.64.81C139,53.25,139.35,52.47,138.89,52.3Z"/><path class="cls-23" d="M139.46,52.15h0a.42.42,0,0,0-.21-.56l-2-.93c-.51-.23-.77.35-.28.62l1.93,1.08A.42.42,0,0,0,139.46,52.15Z"/><path class="cls-23" d="M139.87,51.45h0a.45.45,0,0,0-.25-.58l-2.25-.9c-.57-.22-.85.4-.3.65l2.2,1A.46.46,0,0,0,139.87,51.45Z"/><path class="cls-23" d="M140.15,50l-2.07-.82c-.52-.2-.8.43-.29.66l2,.93C140.31,51,140.65,50.2,140.15,50Z"/><path class="cls-27" d="M143.3,53.64a1.94,1.94,0,0,0-.05-1.51c-.23-.59-.58-1.21-.69-1.45-.3-.6-.37-.49-.67-1.09-.35.15-.77.47-.15,1.5,0,.25-.14.37.4,1.09C141.33,53.73,143,54.28,143.3,53.64Z"/><path class="cls-9" d="M182.91,70.77a27.83,27.83,0,0,1,9,5.19c1.83,1.69,5.07.69,4.66-1.37a2.94,2.94,0,0,0-.45-.88c-1.65-2.26-4.37-4.18-9-5.19-2.32-.51-4.59.08-5.14.94C181.57,70.07,182.37,70.56,182.91,70.77Z"/><path class="cls-34" d="M182.51,67.64l.44,1.89c.07.32.31.68,1.12,1a28.15,28.15,0,0,1,8,4.63c1.37,1.13,3.34.89,3.64-.3l.6-2.42C191.32,72.43,188.3,67.64,182.51,67.64Z"/><path class="cls-35" d="M182.69,67.66l.43,1.83c.07.31.29.66,1.08,1a27.42,27.42,0,0,1,7.7,4.48c1.33,1.09,2.87.8,3.16-.35l.58-2.34C190.86,72.24,188.3,67.66,182.69,67.66Z"/><path class="cls-36" d="M183.37,68.13l.37,1.58c.06.27.25.57.93.83a25.69,25.69,0,0,1,6.88,3.9c.85.68,1.8-.47,2-1.47l.5-2C190,71,188.21,68.13,183.37,68.13Z"/><path class="cls-34" d="M196.11,71.67c-1.65-2.25-4.39-4.12-9-5.19-3.3-.76-7.17,1.29-4.15,2.44a27.94,27.94,0,0,1,9,5.19C194.07,76.07,198.1,74.4,196.11,71.67Z"/><path class="cls-37" d="M196.11,71.55c-1.65-2.26-4.37-4.19-9-5.2-3.73-.81-7.17,1.3-4.15,2.44A28.12,28.12,0,0,1,192,74C194.07,76,198.1,74.27,196.11,71.55Z"/><path class="cls-38" d="M182.91,68.6a28,28,0,0,1,9,5.19c1.83,1.7,5.07.69,4.66-1.36a2.83,2.83,0,0,0-.45-.88c-1.65-2.26-4.37-4.19-9-5.2-2.32-.5-4.59.08-5.14.94C181.57,67.91,182.37,68.4,182.91,68.6Z"/><path class="cls-39" d="M195.23,71.55c-1.6-2.06-4.14-3.73-8.17-4.71-3-.73-5.94.77-3.2,1.81A25.42,25.42,0,0,1,192,73.36C194,75.14,197.1,74,195.23,71.55Z"/><path class="cls-40" d="M194.92,74a14.19,14.19,0,0,0-9.33-4.75,25.58,25.58,0,0,1,6.43,4A2.94,2.94,0,0,0,194.92,74Z"/><path class="cls-26" d="M195.13,73.87c-2-2.49-6.37-4.73-9.49-4.75-.24,0-.12.09.48.13a14.52,14.52,0,0,1,8.8,4.72A.58.58,0,0,0,195.13,73.87Z"/><path class="cls-26" d="M182.37,67c-.15.21-1,.78,1.36,1.88C182.92,68.64,181,67.91,182.37,67Z"/><path class="cls-9" d="M185.82,74.32c.57,0,1,.25,1,.55s-.47.55-1,.55-1-.25-1-.55S185.26,74.32,185.82,74.32Z"/><path class="cls-9" d="M184.55,75.85,179,79.1c-.17.09-.53-.13-.3-.24l5.68-3.31a.11.11,0,0,1,.11,0l1.36-.79.1.17-1.35.78C184.59,75.79,184.59,75.83,184.55,75.85Z"/><path class="cls-41" d="M183.75,76a.16.16,0,0,1-.13-.08.15.15,0,0,1,.06-.21l1.28-.74c.43-.25.46-.93.48-1.54,0-.2,0-.38,0-.54a.14.14,0,0,1,.17-.13.16.16,0,0,1,.13.17c0,.15,0,.33,0,.51,0,.65-.06,1.46-.63,1.79l-1.29.75Z"/><path class="cls-34" d="M185.25,74.67c-.33-.2-.38-.83-.12-1.4s.76-.88,1.09-.68.38.82.12,1.4S185.58,74.87,185.25,74.67Z"/><path class="cls-42" d="M184.52,75.58l-5.67,3.3h0s0-.11,0-.18-.13-.14-.19-.12h0l5.68-3.3C184.45,75.23,184.62,75.5,184.52,75.58Z"/><path class="cls-34" d="M178.84,78.7c0,.08,0,.17,0,.19s-.14,0-.19-.12,0-.17,0-.19S178.79,78.61,178.84,78.7Z"/><path class="cls-43" d="M185.11,74.63c-.33-.2-.38-.83-.11-1.4s.75-.88,1.08-.69.38.83.12,1.4S185.44,74.82,185.11,74.63Z"/><path class="cls-44" d="M185.19,74.46c-.28-.16-.33-.69-.1-1.18s.63-.74.91-.57.33.69.1,1.18S185.47,74.63,185.19,74.46Z"/><path class="cls-26" d="M184.41,75.42,179,78.61h0a0,0,0,0,0,0,0,.05.05,0,0,0,0,0h0l5.45-3.19S184.43,75.4,184.41,75.42Z"/><path class="cls-9" d="M183.66,78.24l-1.27.73c-.23.13-.95.38-1.62.73l-1.34.71c-.2.11.13.28.28.43s0,.11,0,0c-.24-.17-.61-.39-.33-.57l1.29-.81c.65-.41,1.27-.94,1.42-1l3.8-2.19h0l.05,0c.29-.14.94-.37,1.54-.68l1.11-.58c.2-.11-.06-.26-.22-.42s0-.08,0,0c.24.16.54.36.26.54l-1.06.68c-.65.41-1.26.93-1.41,1l-2.52,1.44Z"/><path class="cls-34" d="M183.53,78.12l-1.27.73c-.23.13-.95.38-1.62.72l-1.11.58c-.2.11.07.49.18.69s0,.09,0,0c-.18-.27-.48-.62-.2-.8l1.05-.68c.65-.41,1.27-.93,1.42-1l3.8-2.18h0c.25-.14.95-.38,1.59-.72l1.11-.57c.2-.11-.07-.49-.17-.69s0-.09,0,0c.18.27.48.62.2.8l-1.06.68c-.64.41-1.26.93-1.41,1l-2.52,1.44Z"/><path class="cls-45" d="M181.74,78.54A15.93,15.93,0,0,1,180,79.78c-.17.11-.17.12,0,0,.61-.32,1.49-.77,2.09-1C181.9,78.81,181.71,78.66,181.74,78.54Z"/><path class="cls-46" d="M186.2,76.42A17.27,17.27,0,0,1,188,75.2c.16-.1.16-.11,0,0a22.88,22.88,0,0,1-2.1,1C186.08,76.13,186.23,76.29,186.2,76.42Z"/><path class="cls-47" d="M182.23,78.73c-.36.23-.82,0-.29-.37l3.81-2.18c.42-.24.85,0,.27.38Z"/><path class="cls-9" d="M184.72,73a5.76,5.76,0,0,1-1.56.82v-.56l.64-.38c.3-.19-.12-.4-.64-.51v-.21c.94-.06,2.11.34,1.56.84Zm-1.56,1,.23-.22-.23.09V74Zm0-.84h.05l.46-.27a.93.93,0,0,1-.51-.08Zm0,.66c-.85.32-1.8.61-2.37.87q-.39.18-.72.36v-.35l.57-.24a25.69,25.69,0,0,0,2.52-1.2v.56Zm0-1.45a2.72,2.72,0,0,0-.49,0c-.07,0,0-.07.12-.11l.37,0v.21Zm0,.45a1,1,0,0,1-.49-.48s0,0,0,0a.73.73,0,0,0,.52.79v-.34Zm0,1-.62.23c-.82.73-1.55,1.42-2.47,2.12v.54c1.12-.92,2.11-1.87,3.09-2.76ZM180.07,75a14.79,14.79,0,0,0-3.72,2.94.65.65,0,0,1,.07-.93,12.67,12.67,0,0,1,3.65-2.36V75Zm0,1.17a21.33,21.33,0,0,1-3.33,2.07,1.17,1.17,0,0,0,1.46-.12c.66-.45,1.28-.93,1.87-1.41Z"/><path class="cls-34" d="M184,72.55c-.1.09.11.25,0,.33a58.49,58.49,0,0,1-5.78,4.94,1.14,1.14,0,0,1-1.43.11v-.18c3.41-1.16,4.56-3.1,6.56-4.78.06,0-.18,0-.11,0a.79.79,0,0,1-.64-.82h0v-.2h0v.18s0,0,0,0a1,1,0,0,0,1,.37v.2A.9.9,0,0,0,184,72.55Z"/><path class="cls-34" d="M184.59,72.84c-.78.7-2.86,1.09-3.85,1.55a13.76,13.76,0,0,0-4.37,3.25.64.64,0,0,1,.06-.92,12.94,12.94,0,0,1,4.16-2.56,23.11,23.11,0,0,0,3.11-1.55c.38-.25-.41-.53-1.11-.56,0,0,0,0,0,0h0v-.18h.53v0a2.42,2.42,0,0,1,1.47.37h.18v.3h0A.36.36,0,0,1,184.59,72.84Z"/><path class="cls-48" d="M183.3,73.31a44.13,44.13,0,0,1-5.12,4.32,1.13,1.13,0,0,1-1.43.12,22.9,22.9,0,0,0,5.71-4.13c.29-.1.57-.2.84-.31Zm-.18-.6c-.43-.11-.55-.38-.56-.79,0,0,0,0,0,0a1,1,0,0,0,1,.55Z"/><path class="cls-49" d="M184.6,72.54c-.77.7-2.87,1.21-3.86,1.67a13.61,13.61,0,0,0-4.37,3.25.64.64,0,0,1,.06-.92A12.94,12.94,0,0,1,180.59,74a24.36,24.36,0,0,0,3.11-1.55c.38-.25-.41-.53-1.11-.56-.07,0,0-.07.12-.1C183.66,71.55,185.22,72,184.6,72.54Z"/><path class="cls-49" d="M184.6,72.54c-.77.7-2.87,1.21-3.86,1.67a13.61,13.61,0,0,0-4.37,3.25.64.64,0,0,1,.06-.92A12.94,12.94,0,0,1,180.59,74a24.36,24.36,0,0,0,3.11-1.55c.38-.25-.41-.53-1.11-.56-.07,0,0-.07.12-.1C183.66,71.55,185.22,72,184.6,72.54Z"/><path class="cls-50" d="M184.54,72.47A8.88,8.88,0,0,1,182,73.64a13.58,13.58,0,0,0-1.3.49,11.52,11.52,0,0,0-2.38,1.43,15.9,15.9,0,0,0-1.69,1.51c-.33-.52,1.26-1.6,1.74-1.89a14.87,14.87,0,0,1,2.26-1.12c.49-.2,1.13-.49,1.73-.79a15.19,15.19,0,0,0,1.39-.77.29.29,0,0,0,.12-.13.19.19,0,0,0,0-.22.54.54,0,0,0-.2-.14,2.62,2.62,0,0,0-.68-.2,3.07,3.07,0,0,1,1.3.15.87.87,0,0,1,.32.18.19.19,0,0,1,.08.17S184.61,72.41,184.54,72.47Z"/><path class="cls-48" d="M183.3,73.31a44.13,44.13,0,0,1-5.12,4.32,1.13,1.13,0,0,1-1.43.12,22.9,22.9,0,0,0,5.71-4.13c.29-.1.57-.2.84-.31Zm-.18-.6c-.43-.11-.55-.38-.56-.79,0,0,0,0,0,0a1,1,0,0,0,1,.55Z"/><path class="cls-51" d="M182.93,73.53l-.41.37A41.13,41.13,0,0,1,178.89,77c-.53.4-1.1.83-1.62.56a19.71,19.71,0,0,0,4.79-3.48l.48-.43.39-.14Zm.18-.91a.63.63,0,0,1-.35-.24.62.62,0,0,1-.07-.19,1,1,0,0,0,.27.23,1.54,1.54,0,0,0,.3.11A.85.85,0,0,0,183.11,72.62Z"/><path class="cls-52" d="M184,71.93c.67.38-.36.89-2,1.65a8.32,8.32,0,0,0,2.52-1.2C184.68,72.2,184.33,72,184,71.93Z"/><path class="cls-53" d="M183.59,72.78c-.08,0-.14,0-.14-.08s.06-.09.14-.09.14,0,.14.09S183.66,72.78,183.59,72.78Z"/><path class="cls-54" d="M183.59,72.76c-.05,0-.1,0-.1-.06s0-.06.1-.06.1,0,.1.06S183.64,72.76,183.59,72.76Z"/><polygon class="cls-3" points="52.85 112.6 31.36 124.96 12.39 114.17 33.9 102.07 52.85 112.6"/><path class="cls-21" d="M30.47,121.86l-2.27-4.17,1.19-.65h0l.09-.06c.73-.37,1.8.28,2.4,1.45s.49,2.4-.22,2.78h0Z"/><path class="cls-22" d="M28,120.46c-.6-1.17-.5-2.42.23-2.79s1.8.28,2.4,1.45.49,2.41-.24,2.79S28.58,121.63,28,120.46Z"/><path class="cls-55" d="M28.25,120.33c-.48-.94-.4-1.94.18-2.24s1.45.22,1.93,1.16.39,1.94-.19,2.24S28.73,121.26,28.25,120.33Z"/><path class="cls-10" d="M28.65,120.11a1.65,1.65,0,0,1,0-1.9c.51-.14,1.2.32,1.59,1.09a1.67,1.67,0,0,1,0,1.9C29.72,121.34,29,120.88,28.65,120.11Z"/><path class="cls-21" d="M16.94,114.28l-2.28-4.17,1.19-.65h0l.1,0c.73-.37,1.8.27,2.39,1.44s.5,2.4-.21,2.78h0Z"/><path class="cls-22" d="M14.45,112.88c-.59-1.17-.49-2.42.24-2.79s1.8.28,2.39,1.45.5,2.42-.23,2.79S15.05,114.05,14.45,112.88Z"/><path class="cls-55" d="M14.71,112.75c-.47-.94-.39-1.94.19-2.24s1.44.22,1.92,1.16.4,1.94-.18,2.24S15.19,113.69,14.71,112.75Z"/><path class="cls-10" d="M15.11,112.53a1.67,1.67,0,0,1,0-1.9c.51-.14,1.19.32,1.59,1.09a1.67,1.67,0,0,1,0,1.9C16.19,113.76,15.51,113.31,15.11,112.53Z"/><path class="cls-21" d="M47.16,112.17,44.89,108l1.19-.65h0l.1,0c.72-.37,1.79.27,2.39,1.44s.49,2.4-.22,2.78h0Z"/><path class="cls-22" d="M44.68,110.77c-.6-1.17-.49-2.41.23-2.78s1.8.27,2.4,1.44.49,2.42-.23,2.79S45.28,111.94,44.68,110.77Z"/><path class="cls-55" d="M44.94,110.64c-.48-.94-.39-1.94.19-2.24s1.44.23,1.92,1.16.39,1.94-.19,2.24S45.42,111.58,44.94,110.64Z"/><path class="cls-10" d="M45.34,110.43a1.68,1.68,0,0,1,0-1.9c.52-.14,1.2.31,1.59,1.08a1.65,1.65,0,0,1,0,1.9C46.42,111.65,45.73,111.2,45.34,110.43Z"/><polygon class="cls-6" points="49.95 30.71 32.34 40.84 32.34 119.41 32.89 119.7 49.93 109.77 49.95 30.71"/><polygon class="cls-5" points="14.27 30.54 32.36 40.84 32.36 119.42 14.27 109.12 14.27 30.54"/><polygon class="cls-6" points="49.97 30.71 32.36 40.84 14.27 30.54 31.89 20.65 49.97 30.71"/><polygon class="cls-9" points="49.93 31.45 49.94 109.86 32.89 119.7 32.89 41.28 49.93 31.45"/><polygon class="cls-56" points="48.03 37.46 48.04 106.05 34.8 113.69 34.8 45.1 48.03 37.46"/><polygon class="cls-57" points="47.42 37.81 47.43 105.68 34.8 112.97 34.8 45.1 47.42 37.81"/><polygon class="cls-5" points="47.43 97.69 34.8 104.67 34.8 91.27 37.84 89.51 47.42 94.52 47.43 97.69"/><polygon class="cls-56" points="47.42 96.74 34.8 103.72 34.8 87.02 47.42 94.39 47.42 96.74"/><path class="cls-58" d="M49,81.41h0a.3.3,0,1,1,0-.6h0c.46,0,.72-.5.86-.93.49-1.52.11-4.14-1-4.92a.3.3,0,0,1-.07-.41.29.29,0,0,1,.41-.07c1.36,1,1.78,3.84,1.22,5.58C50.16,80.93,49.66,81.41,49,81.41Z"/><polygon class="cls-5" points="47.43 82.39 34.8 89.38 34.8 75.97 37.84 74.22 47.42 79.22 47.43 82.39"/><polygon class="cls-56" points="47.42 81.44 34.8 88.43 34.8 71.72 47.42 79.1 47.42 81.44"/><polygon class="cls-5" points="47.43 67.1 34.8 74.08 34.8 60.68 37.84 58.92 47.42 63.92 47.43 67.1"/><polygon class="cls-56" points="47.42 66.15 34.8 73.13 34.8 56.42 47.42 63.8 47.42 66.15"/><polygon class="cls-5" points="47.42 51.8 34.8 58.78 34.8 45.38 37.84 43.62 47.42 48.63 47.42 51.8"/><polygon class="cls-56" points="47.42 50.85 34.8 57.84 34.8 45.1 38.22 43.12 47.42 48.5 47.42 50.85"/><path class="cls-3" d="M162.74,108.76c10.64,0,19.28,4.58,19.28,10.22s-8.64,10.22-19.28,10.22-19.27-4.58-19.27-10.22S152.1,108.76,162.74,108.76Z"/><path class="cls-25" d="M172.75,108.19c1.1.78.43,3.13-.74,3.53-2.66.9-4.66,2-6.41,2.58-.62.2-2.1.39-2.73-.76-.15-.45.82-2.08.82-2.08C166.82,111.8,171.36,107.43,172.75,108.19Z"/><path class="cls-26" d="M168.55,108.91c1.4.24,3.1-1.15,3.56-1.08a1.31,1.31,0,0,1,1,1,2.21,2.21,0,0,1-1.21,2.34c-.91.45-2,.24-3.51.87-.86.34-3,1.56-3.73,1.57a1.47,1.47,0,0,1-1.54-1.09C163.16,109,165.71,108.44,168.55,108.91Z"/><path class="cls-25" d="M180.42,111.79c1.11.78.44,3.13-.73,3.53-2.66.9-4.66,2-6.42,2.58-.62.2-2.1.39-2.72-.76-.16-.45.82-2.08.82-2.08C174.49,115.39,179,111,180.42,111.79Z"/><path class="cls-26" d="M176.43,112.3c1.4.24,2.9-.94,3.35-.87a1.27,1.27,0,0,1,1,1,2.22,2.22,0,0,1-1.2,2.35c-.92.45-2,.24-3.52.87-.85.34-2.94,1.56-3.73,1.57a1.46,1.46,0,0,1-1.53-1.09C170.83,112.59,173.59,111.83,176.43,112.3Z"/><path class="cls-27" d="M172.07,95.38c-2.44,7.34.09,11.84-.55,18.26.1,1.8,2.39,1.21,3.15.11a172.14,172.14,0,0,1,3.15-21.19C176.29,89.2,172.78,94.08,172.07,95.38Z"/><path class="cls-23" d="M163.88,90.28a7.77,7.77,0,0,1-.26,3.1c-2.19,7,.45,11,.41,16.6,0,1.63,2.95,1.51,2.95,0,0-8.31,2-12.33,1.66-17.43Z"/><path class="cls-21" d="M164.63,116.87l1.89-3.48-1-.54h0l-.08,0c-.6-.31-1.5.23-2,1.2s-.41,2,.19,2.32h0Z"/><path class="cls-22" d="M166.7,115.7c.49-1,.41-2-.2-2.32s-1.5.23-2,1.21-.41,2,.19,2.32S166.2,116.68,166.7,115.7Z"/><path class="cls-9" d="M166.48,115.59c.4-.78.33-1.61-.16-1.86s-1.2.19-1.6,1-.33,1.61.16,1.86S166.08,116.37,166.48,115.59Z"/><path class="cls-10" d="M166.15,115.42a1.4,1.4,0,0,0,0-1.59c-.43-.11-1,.26-1.33.91a1.39,1.39,0,0,0,0,1.58C165.25,116.44,165.82,116.06,166.15,115.42Z"/><path class="cls-21" d="M151.45,124.54l1.9-3.48-1-.54h0l-.08,0c-.61-.31-1.5.23-2,1.2s-.41,2,.18,2.32h0Z"/><path class="cls-22" d="M153.52,123.38c.5-1,.41-2-.19-2.33s-1.5.23-2,1.21-.41,2,.2,2.32S153,124.35,153.52,123.38Z"/><path class="cls-9" d="M153.31,123.26c.4-.78.33-1.61-.16-1.86s-1.2.19-1.6,1-.33,1.61.16,1.86S152.91,124,153.31,123.26Z"/><path class="cls-10" d="M153,123.09a1.39,1.39,0,0,0,0-1.59c-.42-.11-1,.26-1.32.91a1.39,1.39,0,0,0,0,1.58C152.08,124.11,152.64,123.73,153,123.09Z"/><polygon class="cls-12" points="165.68 111.09 157.95 114.25 150.92 119.62 150.92 121.26 151.18 121.41 151.18 119.77 159.63 115.18 165.94 111.24 165.68 111.09"/><polygon class="cls-9" points="165.94 111.24 159.63 115.18 151.18 119.77 151.18 121.41 159.64 116.95 165.94 112.88 165.94 111.24"/><path class="cls-21" d="M152.35,116.87l-1.89-3.48,1-.54h0l.08,0c.6-.31,1.5.23,2,1.2s.41,2-.18,2.32h0Z"/><path class="cls-22" d="M150.28,115.7c-.5-1-.41-2,.2-2.32s1.49.23,2,1.21.41,2-.19,2.32S150.78,116.68,150.28,115.7Z"/><path class="cls-9" d="M150.5,115.59c-.4-.78-.33-1.61.15-1.86s1.21.19,1.6,1,.33,1.61-.15,1.86S150.9,116.37,150.5,115.59Z"/><path class="cls-10" d="M150.83,115.42a1.4,1.4,0,0,1,0-1.59c.43-.11,1,.26,1.33.91a1.39,1.39,0,0,1,0,1.58C151.73,116.44,151.16,116.06,150.83,115.42Z"/><path class="cls-21" d="M165.52,124.54l-1.89-3.48,1-.54h0l.08,0c.6-.31,1.5.23,2,1.2s.41,2-.19,2.32h0Z"/><path class="cls-22" d="M163.45,123.38c-.49-1-.41-2,.2-2.33s1.5.23,2,1.21.41,2-.19,2.32S164,124.35,163.45,123.38Z"/><path class="cls-9" d="M163.67,123.26c-.4-.78-.33-1.61.16-1.86s1.2.19,1.6,1,.33,1.61-.16,1.86S164.07,124,163.67,123.26Z"/><path class="cls-10" d="M164,123.09a1.4,1.4,0,0,1,0-1.59c.43-.11,1,.26,1.33.91a1.39,1.39,0,0,1,0,1.58C164.9,124.11,164.33,123.73,164,123.09Z"/><polygon class="cls-12" points="151.3 111.09 159.02 114.25 166.06 119.62 166.06 121.26 165.8 121.41 165.8 119.77 158.49 115.8 157.35 115.66 156.71 115.21 157.02 114.97 151.04 111.24 151.3 111.09"/><path class="cls-4" d="M151,111.24l6,3.73-1.26,1L151,112.88v-1.64Zm7.45,4.56,7.31,4v1.64l-7.31-3.85Z"/><path class="cls-10" d="M158.49,97.89h0a.92.92,0,0,0-.87,1v15.69c0,.8,1.74.78,1.74,0V98.84A.92.92,0,0,0,158.49,97.89Z"/><path class="cls-18" d="M148.21,99.76V96.27h20.52l0,3.58C168.77,108.36,148.21,108.27,148.21,99.76Z"/><path class="cls-19" d="M158.47,102.65c-5.65,0-10.26-2.87-10.26-6.38s4.61-6.37,10.26-6.37,10.26,2.87,10.26,6.37S164.12,102.65,158.47,102.65Z"/><path class="cls-20" d="M158.47,101.17c-4.34,0-7.89-2.2-7.89-4.9s3.55-4.89,7.89-4.89,7.88,2.2,7.88,4.89S162.81,101.17,158.47,101.17Z"/><path class="cls-12" d="M172.21,99.36c1.85-1,7.44-5.83,5.95-8-.86-1-5.84-3.77-8.75-4.7-4.36-.33-11.92.84-15.19,3.15l-3.94-.53c-.86,3.8-2.45,7.7,1.35,10.31a12,12,0,0,0,10.23,1.51c3.13-.84,5.32-2.67,7-2.85C169.71,98.15,170.9,100.12,172.21,99.36Z"/><path class="cls-24" d="M147.15,67.43A68.46,68.46,0,0,0,146,80.61c-.06,1.89,4.34.79,4.81,0,.42-4.14,4.73-14.34,1.36-16.36C150.63,63.31,147.94,64.08,147.15,67.43Z"/><path class="cls-24" d="M149.56,78.64c2.59.59,8.58,4.62,11.4,5.74,1.15,1-.65,3.45-1.65,3.28-1.79-.3-5.83-2-10.24-3.77C144.3,82,145.49,77.72,149.56,78.64Z"/><path class="cls-27" d="M156.75,50.42c2.38.21,4.52,1,4.9,5.31.11,1.29-.54,1.46-.13,3.67.22,1.17-.8,2.58-1.18,3.69-.23.66-.21.85-1,1a4.6,4.6,0,0,1-2-.22,8.13,8.13,0,0,1-3.46-1.55c-1-1-1.12-2.39-1.4-3.62C150.34,53,152.24,50.12,156.75,50.42Z"/><path class="cls-23" d="M158,62.42a17.38,17.38,0,0,1-.28,5.29c-1.25,1.52-5.64-.1-4.81-3.08.5-1.78-.2-5.15.14-5.5C154.14,58,157.23,55.77,158,62.42Z"/><path class="cls-27" d="M158.25,59.07s-.68-1.82-1.33-1,.61,4.54,1.13,3.84A3.46,3.46,0,0,0,158.25,59.07Z"/><path class="cls-12" d="M148.62,65.66c.89-1.64,3.43-1.3,5.09-.89,4.51,1.11,5.63,1.44,7.13,2.87,1.13,1.08,2.81,4.58,3.78,6a5.45,5.45,0,0,1-.92,4.74c-2,2.45.15,11.09,0,13.61.49,1.85,2.37,3.23.73,4-4.09,2-13.22-.37-14.77-4.26.81-2.76.81-3.93.33-8.41C149.67,80.27,145.56,71.34,148.62,65.66Z"/><path class="cls-23" d="M171.92,80.19a1.91,1.91,0,0,1,1-1.07c.55-.28,1.2-.5,1.43-.6.61-.25.59-.11,1.2-.36.16.34.25.84-.86,1.19-.18.17-.14.36-1,.53C173.3,81.53,171.76,80.87,171.92,80.19Z"/><path class="cls-27" d="M171.49,80.11c.58-.33.85-.76,1.34-.85a12.08,12.08,0,0,1,3.62.31c.46.06-.36,2.85-.78,3.12a7.14,7.14,0,0,1-3.23,0,4.47,4.47,0,0,0-1-.43C171.26,82.25,169.35,81.31,171.49,80.11Z"/><path class="cls-27" d="M176,82.08l1.69.67c.43.17.19.65-.26.53l-1.72-.48C175.28,82.68,175.55,81.9,176,82.08Z"/><path class="cls-27" d="M175.68,81.6h0a.41.41,0,0,1,.52-.27l2.05.63c.52.16.33.75-.2.63l-2.1-.47A.4.4,0,0,1,175.68,81.6Z"/><path class="cls-27" d="M175.84,80.83h0a.44.44,0,0,1,.56-.27l2.21.82c.56.21.36.84-.21.67l-2.25-.7A.44.44,0,0,1,175.84,80.83Z"/><path class="cls-27" d="M176.58,79.59l2,.76c.51.19.3.83-.22.67l-2.06-.64A.41.41,0,0,1,176.58,79.59Z"/><path class="cls-29" d="M162.39,55.52a2.11,2.11,0,0,1-2.1,1.31,4.18,4.18,0,0,0,.78-3.39C161.66,53.09,162.33,54.08,162.39,55.52Z"/><path class="cls-12" d="M161.69,59.43l-4.94-.82a10.19,10.19,0,0,1,2.18.79c1.8,1.34,1.34,3.08.28,3.21s-2-.94-2.94-1.6a4,4,0,0,0,2.93,3.19C160.33,64.79,162.41,61.8,161.69,59.43Z"/><path class="cls-29" d="M155.87,50.17c-2.06.13-4.33,1.24-4.75,3.12-.84,3.72-1.35,6.4.59,8.06.23.28,2,1.73,7.07.82-1.35-.81-2-2.32-.53-3.1s2.54-3.86,3-5.49C161,51.05,158.51,50,155.87,50.17Z"/><path class="cls-28" d="M162.11,53.85c-1.87,3.56-9,5.88-11.74,4.12-.74-2.49-.33-2.38-1.08-4.86.16-3.31,6.73-5.84,10.21-4C160.83,51.23,161.22,51.32,162.11,53.85Z"/><path class="cls-25" d="M159.05,49.32c.59.53-1.06,2.25-3.44,3.24s-5.66,1.3-5.73.47C149.61,49.84,157,47.5,159.05,49.32Z"/><path class="cls-26" d="M154.37,64.94c-8.06,6.4-.17,17.67-1.34,24.14-.84,4.67-2.08,8.67,1.54,10.5,2.64,1.33,5.94,1,7.44-2.22,1-2.25-1.24-2.73-3.11-8-.22-.64-1.07-3.14-1.27-4.14-.46-2.31-.86-5.73-1.17-8.49-1-1.4-1.19-7.72,2.92-8.48A9.94,9.94,0,0,0,154.37,64.94Z"/><path class="cls-26" d="M158.16,84.72c2.21-1.49,9.55-3.2,12.29-4.49,1.51-.16,2.07,2.82,1.26,3.44-1.43,1.1-5.44,2.88-9.73,4.91C159.12,89.92,158,86.54,158.16,84.72Z"/><path class="cls-25" d="M171.6,83.81l1.28-.51a2.44,2.44,0,0,0-1.24-3.38l-1.21.3h0a2.47,2.47,0,0,1,1.26,3.44Z"/><path class="cls-26" d="M156.77,72.84a65.71,65.71,0,0,0,1.59,13.61c.46,2.94,4.18-.5,4.48-1.41-.38-4.14,1.9-15-1.79-16.31C159.4,68.13,156.9,69.4,156.77,72.84Z"/><path class="cls-25" d="M152.82,63.12l-1.07,1.33c3,3.23,6.26,1.89,9.09,3.19a10.4,10.4,0,0,0-2.07-1.82C156.42,65.08,154.39,65,152.82,63.12Z"/><path class="cls-26" d="M177.47,91.86c-2.14,3.62-4.15,4.84-8.75,6-2.71.69-7.45,2.57-11.38,2.48.66-4,.44-7.26,1.1-11.24,2.2,2.87,10.85-1.43,17.88,1.83Z"/><path class="cls-26" d="M169.18,87.26l2.31,1.15c-3.08,0-12.82,4.68-12.59.93C159.77,91.45,165.94,86.78,169.18,87.26Z"/></g></g></svg>