<svg id="Capa_1" enable-background="new 0 0 512 512" height="512" viewBox="0 0 512 512" width="512" xmlns="http://www.w3.org/2000/svg"><g><g><path d="m426 30c0-11.05-8.95-20-20-20h-340c-11.05 0-20 8.95-20 20v452c0 11.05 8.95 20 20 20h361z" fill="#ff7b79"/><path d="m466 256c-9.679 0-70.258 0-80 0v-209h-300v418h280v-92.43c0-10.61 4.21-20.78 11.72-28.29l8.28-8.28h80v-40c11.05 0 20-8.95 20-20s-8.95-20-20-20z" fill="#eefaff"/><path d="m486 372.57v109.43c0 11.05-8.95 20-20 20h-80c-11.05 0-20-8.95-20-20 0-22.621 0-86.559 0-109.43 0-10.61 4.21-20.78 11.72-28.29l8.28-8.28h80l8.28 8.28c7.51 7.51 11.72 17.68 11.72 28.29z" fill="#ffda8f"/><g fill="#c6ef9a"><path d="m146 336h80v80h-80z"/><path d="m146 216h80v80h-80z"/><path d="m146 96h80v80h-80z"/></g><path d="m86 116c11.05 0 20 8.95 20 20s-8.95 20-20 20h-40c-11.05 0-20-8.95-20-20s8.95-20 20-20z" fill="#8690a6"/><path d="m86 236c11.05 0 20 8.95 20 20s-8.95 20-20 20h-40c-11.05 0-20-8.95-20-20s8.95-20 20-20z" fill="#8690a6"/><path d="m86 356c11.05 0 20 8.95 20 20s-8.95 20-20 20h-40c-11.05 0-20-8.95-20-20s8.95-20 20-20z" fill="#8690a6"/></g><g><path d="m446 409h-10v-10c0-5.522-4.477-10-10-10s-10 4.478-10 10v10h-10c-5.523 0-10 4.478-10 10s4.477 10 10 10h10v10c0 5.522 4.477 10 10 10s10-4.478 10-10v-10h10c5.523 0 10-4.478 10-10s-4.477-10-10-10z"/><path d="m16 376c0 13.036 8.361 24.152 20 28.28v77.72c0 16.542 13.458 30 30 30h400c16.542 0 30-13.458 30-30v-109.43c0-13.356-5.203-25.915-14.649-35.361l-5.351-5.351v-27.572c11.641-4.127 20-15.249 20-28.286 0-16.542-13.458-30-30-30h-30v-216c0-16.542-13.458-30-30-30h-125c-5.523 0-10 4.478-10 10s4.477 10 10 10h125c5.514 0 10 4.486 10 10v216h-20v-199c0-5.522-4.477-10-10-10h-300c-5.523 0-10 4.478-10 10v59h-20v-76c0-5.514 4.486-10 10-10h125c5.523 0 10-4.478 10-10s-4.477-10-10-10h-125c-16.542 0-30 13.458-30 30v77.72c-11.639 4.128-20 15.243-20 28.28s8.361 24.152 20 28.28v63.44c-11.639 4.128-20 15.243-20 28.28s8.361 24.152 20 28.28v63.44c-11.639 4.128-20 15.244-20 28.28zm30-10h40c5.514 0 10 4.486 10 10s-4.486 10-10 10h-40c-5.514 0-10-4.486-10-10s4.486-10 10-10zm30-80v60h-20v-60zm-20 196v-76h20v59c0 5.522 4.477 10 10 10h270v7c0 3.506.61 6.87 1.72 10h-291.72c-5.514 0-10-4.486-10-10zm420 0c0 5.514-4.486 10-10 10h-80c-5.514 0-10-4.486-10-10v-109.43c0-8.015 3.122-15.55 8.792-21.219l5.351-5.352h71.715l5.352 5.352c5.669 5.669 8.791 13.204 8.791 21.219v109.43zm0-206c0 5.514-4.486 10-10 10-5.523 0-10 4.478-10 10v30h-60v-30c0-5.522-4.477-10-10-10-5.514 0-10-4.486-10-10s4.486-10 10-10h80c5.514 0 10 4.486 10 10zm-100-219v190.72c-11.639 4.128-20 15.243-20 28.28s8.359 24.159 20 28.286v27.572l-5.351 5.351c-9.446 9.446-14.649 22.005-14.649 35.361v82.43h-260v-50.72c11.639-4.128 20-15.243 20-28.28s-8.361-24.152-20-28.28v-63.44c11.639-4.128 20-15.243 20-28.28s-8.361-24.152-20-28.28v-63.44c11.639-4.128 20-15.243 20-28.28s-8.361-24.152-20-28.28v-50.72zm-320 169v-60h20v60zm-10-100h40c5.514 0 10 4.486 10 10s-4.486 10-10 10h-40c-5.514 0-10-4.486-10-10s4.486-10 10-10zm0 120h40c5.514 0 10 4.486 10 10s-4.486 10-10 10h-40c-5.514 0-10-4.486-10-10s4.486-10 10-10z"/><path d="m146 186h80c5.523 0 10-4.478 10-10v-80c0-5.522-4.477-10-10-10h-80c-5.523 0-10 4.478-10 10v80c0 5.522 4.477 10 10 10zm10-80h60v60h-60z"/><path d="m146 306h80c5.523 0 10-4.478 10-10v-80c0-5.522-4.477-10-10-10h-80c-5.523 0-10 4.478-10 10v80c0 5.522 4.477 10 10 10zm10-80h60v60h-60z"/><path d="m146 426h80c5.523 0 10-4.478 10-10v-80c0-5.522-4.477-10-10-10h-80c-5.523 0-10 4.478-10 10v80c0 5.522 4.477 10 10 10zm10-80h60v60h-60z"/><path d="m278.929 163.071c1.885 1.885 4.432 2.929 7.071 2.929.327 0 .657-.016.986-.049 2.981-.295 5.673-1.911 7.335-4.404l40-60c3.064-4.595 1.822-10.804-2.773-13.867s-10.803-1.822-13.867 2.773l-33.234 49.851-11.375-11.375c-3.905-3.904-10.237-3.904-14.143 0-3.905 3.905-3.905 10.237 0 14.143z"/><path d="m278.929 283.071c1.885 1.885 4.432 2.929 7.071 2.929.327 0 .657-.016.986-.049 2.981-.295 5.673-1.911 7.335-4.404l40-60c3.064-4.595 1.822-10.804-2.773-13.867s-10.803-1.822-13.867 2.773l-33.234 49.851-11.375-11.375c-3.905-3.904-10.237-3.904-14.143 0-3.905 3.905-3.905 10.237 0 14.143z"/><path d="m278.929 403.071c1.885 1.885 4.432 2.929 7.071 2.929.327 0 .657-.016.986-.049 2.981-.295 5.673-1.911 7.335-4.404l40-60c3.064-4.595 1.822-10.804-2.773-13.867s-10.803-1.822-13.867 2.773l-33.234 49.851-11.375-11.375c-3.905-3.904-10.237-3.904-14.143 0-3.905 3.905-3.905 10.237 0 14.143z"/><circle cx="236" cy="10" r="10"/></g></g></svg>