<svg id="Capa_1" enable-background="new 0 0 512.024 512.024" height="512" viewBox="0 0 512.024 512.024" width="512" xmlns="http://www.w3.org/2000/svg"><g><g><g><path d="m312.128 501.964h-302.128v-108.762c0-22.808 18.49-41.298 41.298-41.298h219.532c22.808 0 41.298 18.49 41.298 41.298z" fill="#b8ecbc"/></g><path d="m161.061 10.06h.006c78.272 0 141.724 63.452 141.724 141.723v113.338c0 47.929-38.854 86.783-86.784 86.783h-109.886c-47.929 0-86.783-38.854-86.783-86.783v-113.338c-.001-78.272 63.451-141.723 141.723-141.723z" fill="#d1a184"/><path d="m232.29 136.935-13.067-21.781c-16.761 23.049-43.54 36.687-72.039 36.687h-83.671v62.092c0 45.947 31.768 84.474 74.539 94.816v43.155h46.024v-43.155c42.771-10.343 74.539-48.869 74.539-94.816v-62.093c-10.784 0-20.778-5.658-26.325-14.905z" fill="#ffdcd5"/><path d="m161.064 417.098-44.632-65.194h89.264z" fill="#faf7f5"/><g><path d="m494.393 397.135c-5.185 11.119-11.035 21.924-17.51 32.349-6.28 11.233-15.516 33.884-18.9 47.285-2.586 9.839-6.901 25.195-19.241 25.195-12.076 0-20.1-7.598-24.155-36.759-2.156-15.016-8.456-19.242-14.15-20.446-.656-.159-1.316-.271-1.985-.346h-.086c-6.043.688-13.717 4.052-16.048 20.792-4.055 29.161-12.08 36.759-24.158 36.759-12.425 0-16.651-15.357-19.238-25.195-3.383-13.4-12.654-36.033-18.896-47.285-6.474-10.444-12.351-21.245-17.602-32.349-10.18-26.232-12.506-61.348 9.147-82.314 22.95-22.258 64.02-20.53 86.881.603 15.633-13.559 36.599-19.245 56.944-15.438 11.233 1.864 21.657 7.03 29.937 14.836 21.744 20.965 19.329 56.08 9.06 82.313z" fill="#faf7f5"/></g></g><g><g><g><g><path d="m202.742 212.359c-5.523 0-10-4.477-10-10v-6.002c0-9.9 8.056-17.955 17.959-17.955h11.503c5.523 0 10 4.477 10 10s-4.477 10-10 10h-9.462v3.957c0 5.523-4.477 10-10 10z"/></g></g><g><g><path d="m119.019 212.359c-5.523 0-10-4.477-10-10v-3.957h-9.462c-5.523 0-10-4.477-10-10s4.477-10 10-10h11.503c9.903 0 17.959 8.054 17.959 17.955v6.002c0 5.523-4.477 10-10 10z"/></g></g></g><g><path d="m160.88 273.231c-7.347 0-14.694-2.795-20.288-8.386-3.906-3.904-3.908-10.236-.003-14.142 3.903-3.907 10.235-3.908 14.142-.003 3.391 3.389 8.908 3.389 12.299 0 3.907-3.905 10.238-3.902 14.142.003 3.904 3.906 3.903 10.238-.003 14.142-5.594 5.591-12.942 8.386-20.289 8.386z"/></g><path d="m492.276 307.622-.082-.078c-9.736-9.178-21.856-15.196-35.058-17.407-20.648-3.836-41.549.715-58.551 12.534-27.991-19.956-69.931-18.346-93.968 4.966-1.313 1.272-2.552 2.583-3.717 3.93 7.578-13.795 11.891-29.626 11.891-46.446v-113.339c0-83.66-68.063-151.723-151.724-151.723h-.006c-83.661.001-151.724 68.063-151.724 151.723v113.338c0 31.327 14.962 59.226 38.114 76.926-26.496 1.974-47.451 24.163-47.451 51.155v108.763c0 5.523 4.477 10 10 10h105.866c5.523 0 10-4.477 10-10s-4.477-10-10-10h-95.866v-98.763c0-17.257 14.04-31.297 31.298-31.297h59.861l41.654 60.842c1.864 2.723 4.952 4.351 8.251 4.351 3.3 0 6.387-1.628 8.251-4.351l41.653-60.842h59.861c4.988 0 9.89 1.185 14.285 3.441.81 12.416 3.82 24.662 7.989 35.407.086.223.181.442.283.657 2.738 5.789 5.659 11.531 8.741 17.184v73.371h-95.866c-5.523 0-10 4.477-10 10s4.477 10 10 10h105.866c5.523 0 10-4.477 10-10v-43.763c2.984 7.568 5.64 15.229 7.125 21.111 2.787 10.598 8.587 32.652 28.909 32.652 24.456 0 30.942-22.941 34.063-45.38 1.329-9.542 4.155-11.523 6.138-12.042l.007.001c1.17.247 4.729 1 6.314 12.039 3.121 22.441 9.607 45.382 34.06 45.382 20.328 0 26.343-22.882 28.936-32.747 3.006-11.907 11.638-33.522 17.824-44.659 6.617-10.671 12.656-21.838 17.952-33.196.089-.191.172-.385.249-.58 11.285-28.828 14.209-68.439-11.428-93.16zm-351.874-8.592c-39.384-9.524-66.89-44.517-66.89-85.097v-52.093h73.671c26.658 0 52.149-10.861 70.625-29.605l5.906 9.844c5.561 9.27 14.625 15.869 24.9 18.499v53.355c0 40.58-27.506 75.573-66.889 85.097-4.488 1.085-7.649 5.102-7.649 9.72v33.155h-26.024v-33.155c0-4.618-3.162-8.636-7.65-9.72zm20.662 100.365-25.667-37.491h51.334zm33.012-57.491v-25.594c19.992-6.464 37.932-18.832 51.127-35.384 15.097-18.937 23.411-42.729 23.411-66.994v-62.092c0-5.523-4.477-10-10-10-7.229 0-14.031-3.851-17.75-10.051l-13.067-21.78c-1.727-2.878-4.781-4.698-8.133-4.846-3.362-.141-6.556 1.395-8.53 4.109-14.829 20.393-38.736 32.568-63.951 32.568h-83.67c-5.523 0-10 4.477-10 10v62.092c0 24.265 8.314 48.057 23.412 66.994 13.196 16.552 31.135 28.919 51.128 35.384v25.594h-21.931c-42.338 0-76.783-34.445-76.783-76.783v-113.339c0-72.632 59.091-131.723 131.724-131.723h.006c72.633 0 131.724 59.09 131.724 131.723v113.338c0 42.338-34.445 76.783-76.784 76.783h-21.933zm98.122-17.165c-3.02 6.159-5.006 12.726-6.134 19.474-3.692-1.146-7.513-1.875-11.39-2.165 6.548-5.005 12.44-10.826 17.524-17.309zm192.996 68.461c-4.961 10.61-10.615 21.041-16.805 31.008-.081.13-.159.262-.234.396-6.296 11.261-16.13 34.915-19.842 49.622-1.275 4.851-4.663 17.738-9.569 17.738-3.867 0-10.338 0-14.256-28.18-2.939-20.478-13.465-26.96-21.838-28.778-.994-.234-2.031-.413-3.083-.531-.369-.042-.825-.062-1.197-.062-.378 0-.755.022-1.131.064-9.612 1.094-21.72 7.074-24.822 29.35-3.912 28.137-10.386 28.137-14.253 28.137-4.901 0-8.171-12.431-9.542-17.643-3.689-14.613-13.52-38.285-19.847-49.689-.079-.141-.16-.28-.245-.417-6.186-9.979-11.873-20.417-16.906-31.026-8.357-21.768-11.526-53.335 6.913-71.189 17.352-16.828 49.174-17.52 69.385-2.352-2.167 9.382-10.59 16.397-20.621 16.397-5.523 0-10 4.477-10 10s4.477 10 10 10c20.796 0 38.039-15.502 40.781-35.557 12.977-9.811 29.335-13.693 45.477-10.673.067.012.135.024.202.036 9.289 1.542 17.821 5.763 24.674 12.208 18.447 17.84 15.194 49.39 6.759 71.141z"/><g><path d="m160.88 511.962c-4.177 0-7.985-2.69-9.402-6.614-1.379-3.817-.248-8.225 2.809-10.901 3.231-2.828 8.048-3.255 11.73-1.054 3.553 2.124 5.47 6.379 4.682 10.449-.9 4.651-5.075 8.12-9.819 8.12z"/></g></g></g></svg>