<?xml version="1.0" encoding="iso-8859-1"?>
<!-- Generator: Adobe Illustrator 19.0.0, SVG Export Plug-In . SVG Version: 6.00 Build 0)  -->
<svg version="1.1" id="Capa_1" xmlns="http://www.w3.org/2000/svg" xmlns:xlink="http://www.w3.org/1999/xlink" x="0px" y="0px"
	 viewBox="0 0 512 512" style="enable-background:new 0 0 512 512;" xml:space="preserve">
<rect x="104" y="119.97" style="fill:#A0E557;" width="344" height="184.05"/>
<g>
	<circle style="fill:#00A570;" cx="275.55" cy="212.07" r="60"/>
	<path style="fill:#00A570;" d="M448,164.279v-44.31h-44.31C403.69,144.441,423.528,164.279,448,164.279z"/>
	<path style="fill:#00A570;" d="M448,259.704v44.31h-44.31C403.69,279.542,423.528,259.704,448,259.704z"/>
	<path style="fill:#00A570;" d="M104,259.704v44.31h44.31C148.31,279.542,128.472,259.704,104,259.704z"/>
</g>
<path style="fill:#FFCDAC;" d="M377.583,348.587c-28.304-9.68-59.236-8.188-86.477,4.171l-67.19,30.484
	c-12.698,5.761-18.192,20.826-12.183,33.409c2.666,5.582,7.176,9.742,12.485,12.068l-1.718,0.443h-20.354
	c-4.53,0-8.992-1.091-13.011-3.18l-84.25-43.8c-14.042-7.3-31.342-1.601-38.294,12.617l0,0
	c-6.521,13.333-1.576,29.438,11.303,36.814l101.311,58.031c13.953,7.992,30.234,10.932,46.101,8.323L438,463v-93.75L377.583,348.587
	z"/>
<rect x="438" y="335" style="fill:#4DBAF6;" width="64" height="167"/>
<path style="fill:#FFCDAC;" d="M74,30h176.93c11.206,0,22.238,2.773,32.113,8.071l152.703,81.931h-190.19
	c-6.336,0-11.472,5.136-11.472,11.472l0,0c0,4.046,2.132,7.794,5.61,9.861l40.545,24.105c9.961,5.922,13.554,18.6,8.179,28.868l0,0
	c-5.246,10.022-17.282,14.372-27.722,10.018l-93.99-39.19c-21.589-9.002-44.747-13.636-68.138-13.636H74V30z"/>
<rect x="10" y="10" style="fill:#FEA02C;" width="64" height="167"/>
<path d="M84,177v-15.5h10v142.515c0,5.522,4.478,10,10,10h344c5.522,0,10-4.478,10-10V119.969c0-5.523-4.478-10-10-10h-9.803
	L298.128,34.816C280.062,25.124,259.676,20,239.175,20H84V10c0-5.523-4.478-10-10-10H10C4.478,0,0,4.477,0,10v167
	c0,5.523,4.478,10,10,10h64C79.522,187,84,182.523,84,177z M269.203,216.049c1.447,0,2.884-0.101,4.304-0.296
	c0.661,0.137,1.344,0.211,2.046,0.211c5.053,0,9.321,3.451,9.321,7.535s-4.269,7.535-9.321,7.535c-3.024,0-5.884-1.221-7.648-3.265
	c-3.608-4.18-9.924-4.645-14.104-1.035c-4.18,3.609-4.644,9.924-1.034,14.104c3.418,3.959,7.851,6.879,12.807,8.558
	c0.21,5.337,4.592,9.603,9.98,9.603c5.391,0,9.774-4.269,9.98-9.61c11.269-3.843,19.341-13.997,19.341-25.891
	c0-8.231-3.871-15.625-9.987-20.675c0.873-1.218,1.673-2.512,2.389-3.88c5.631-10.757,4.512-23.331-1.953-32.762
	c17.724,7.696,30.155,25.361,30.155,45.883c0,27.57-22.43,50-50,50s-50-22.43-50-50c0-3.767,0.426-7.465,1.241-11.072l30.127,12.562
	C260.896,215.244,265.086,216.049,269.203,216.049z M275.479,282.066c38.598,0,70-31.402,70-70s-31.402-70-70-70
	c-4.348,0-8.686,0.427-12.934,1.221l-17.74-10.547c-0.444-0.264-0.721-0.75-0.721-1.266c0-0.812,0.66-1.472,1.473-1.472h149.078
	c4.114,21.925,21.436,39.239,43.366,43.339v77.302c-21.941,4.102-39.27,21.431-43.372,43.372H157.372
	c-4.102-21.941-21.431-39.27-43.372-43.372v-88.155c17.95,1.848,35.469,6.297,52.287,13.309l41.78,17.42
	c-1.706,6.102-2.588,12.408-2.588,18.849C205.479,250.665,236.881,282.066,275.479,282.066z M438,129.969v22.82
	c-10.879-3.322-19.479-11.912-22.811-22.787h20.556c0.26,0,0.517-0.013,0.773-0.033H438z M114,271.195
	c10.89,3.325,19.495,11.93,22.82,22.82H114V271.195z M415.18,294.015c3.325-10.89,11.93-19.495,22.82-22.82v22.82H415.18z
	 M239.175,40c17.213,0,34.329,4.302,49.498,12.44l107.222,57.529H267.139c-0.219,0-0.433,0.019-0.648,0.033h-20.935
	c-11.84,0-21.473,9.632-21.473,21.472c0,7.534,4.022,14.606,10.499,18.457l40.546,24.105c5.395,3.207,7.34,10.075,4.429,15.635
	c-2.861,5.468-9.315,7.802-15.013,5.426l-90.56-37.759c-25.205-10.509-51.83-15.837-79.136-15.837H84V40H239.175z M64,167H20V20h44
	V167z"/>
<path d="M42.065,131.667h-0.131c-5.522,0-10,4.477-10,10s4.478,10,10,10h0.131c5.522,0,10-4.477,10-10
	S47.588,131.667,42.065,131.667z"/>
<path d="M502,325h-64c-5.522,0-10,4.478-10,10v20.261l-47.181-16.135c-30.837-10.547-64.165-8.94-93.846,4.526l-67.189,30.484
	c-8.607,3.905-15.132,10.946-18.37,19.827c-3.012,8.26-2.82,17.13,0.498,25.191c-2.832-0.037-5.651-0.739-8.165-2.046
	l-84.249-43.799c-9.202-4.786-19.696-5.632-29.547-2.388c-9.852,3.246-17.787,10.165-22.344,19.482
	c-8.807,18.009-2.08,39.921,15.315,49.886l101.312,58.03c12.136,6.952,25.907,10.565,39.788,10.565
	c4.306,0,8.625-0.349,12.905-1.053L428,474.778V502c0,5.522,4.478,10,10,10h64c5.522,0,10-4.478,10-10V335
	C512,329.478,507.522,325,502,325z M223.683,488.1c-13.558,2.228-27.587-0.304-39.507-7.133L82.864,422.936
	c-8.28-4.742-11.482-15.172-7.29-23.743c2.169-4.436,5.945-7.729,10.635-9.273c4.688-1.545,9.682-1.142,14.063,1.137l84.251,43.8
	c5.421,2.817,11.515,4.307,17.623,4.307H222.5c0.336,0,0.668-0.018,0.996-0.05c3.439,1.112,7.053,1.714,10.726,1.714
	c3.714,0,7.481-0.596,11.17-1.844l67.145-22.719c5.231-1.771,8.037-7.446,6.268-12.678c-1.771-5.23-7.445-8.037-12.678-6.268
	l-67.145,22.719c-7.143,2.417-14.976-0.891-18.225-7.694c-1.739-3.642-1.936-7.735-0.553-11.527s4.168-6.798,7.844-8.466
	l67.189-30.484c25.02-11.351,53.114-12.707,79.109-3.815L428,376.399v78.111L223.683,488.1z M492,492h-44V345h44V492z"/>
<path d="M469.935,380.333h0.131c5.522,0,10-4.478,10-10s-4.478-10-10-10h-0.131c-5.522,0-10,4.478-10,10
	S464.412,380.333,469.935,380.333z"/>
<path d="M182.641,202.112h-21.136c-5.522,0-10,4.477-10,10s4.478,10,10,10h21.136c5.522,0,10-4.477,10-10
	S188.163,202.112,182.641,202.112z"/>
<path d="M368.354,222.112h21.136c5.522,0,10-4.477,10-10s-4.478-10-10-10h-21.136c-5.522,0-10,4.477-10,10
	S362.831,222.112,368.354,222.112z"/>
<path d="M153.563,80h74.141c5.522,0,10-4.477,10-10s-4.478-10-10-10h-74.141c-5.522,0-10,4.477-10,10S148.041,80,153.563,80z"/>
<path d="M118.33,80c2.63,0,5.21-1.07,7.069-2.93c1.87-1.86,2.931-4.44,2.931-7.07s-1.061-5.21-2.931-7.07
	c-1.859-1.86-4.43-2.93-7.069-2.93c-2.63,0-5.21,1.07-7.07,2.93s-2.93,4.44-2.93,7.07s1.069,5.21,2.93,7.07S115.7,80,118.33,80z"/>
<g>
</g>
<g>
</g>
<g>
</g>
<g>
</g>
<g>
</g>
<g>
</g>
<g>
</g>
<g>
</g>
<g>
</g>
<g>
</g>
<g>
</g>
<g>
</g>
<g>
</g>
<g>
</g>
<g>
</g>
</svg>
