<svg height="512" viewBox="0 0 64 64" width="512" xmlns="http://www.w3.org/2000/svg"><g id="braces"><path d="m5 33h54a2 2 0 0 1 2 2v20a0 0 0 0 1 0 0h-58a0 0 0 0 1 0 0v-20a2 2 0 0 1 2-2z" fill="#ff7956"/><path d="m61 35v20h-4v-20a2.006 2.006 0 0 0 -2-2h4a2.006 2.006 0 0 1 2 2z" fill="#ff5023"/><path d="m31 15v.88a23.94 23.94 0 0 1 -1.37 8l-4.19 11.83a1.907 1.907 0 0 1 -3.69-.33l-2.88-7.52a2 2 0 0 0 -3.74 0l-2.88 7.52a1.907 1.907 0 0 1 -3.69.33l-4.19-11.83a23.94 23.94 0 0 1 -1.37-8v-.88a6 6 0 0 1 6-6h4c2.21 0 4 4 4 4s1.79-4 4-4h4a6 6 0 0 1 6 6z" fill="#ebe5dd"/><path d="m31 15v.88a23.94 23.94 0 0 1 -1.37 8l-4.19 11.83a1.907 1.907 0 0 1 -3.69-.33l-.1-.26 3.98-11.24a23.94 23.94 0 0 0 1.37-8v-.88a6.009 6.009 0 0 0 -6-6h4a6.009 6.009 0 0 1 6 6z" fill="#c0ab91"/><path d="m61 15v.88a23.94 23.94 0 0 1 -1.37 8l-4.19 11.83a1.907 1.907 0 0 1 -3.69-.33l-2.88-7.52a2 2 0 0 0 -3.74 0l-2.88 7.52a1.907 1.907 0 0 1 -3.69.33l-4.19-11.83a23.94 23.94 0 0 1 -1.37-8v-.88a6 6 0 0 1 6-6h4c2.21 0 4 4 4 4s1.79-4 4-4h4a6 6 0 0 1 6 6z" fill="#ebe5dd"/><path d="m61 15v.88a23.94 23.94 0 0 1 -1.37 8l-4.19 11.83a1.907 1.907 0 0 1 -3.69-.33l-.1-.26 3.98-11.24a23.94 23.94 0 0 0 1.37-8v-.88a6.009 6.009 0 0 0 -6-6h4a6.009 6.009 0 0 1 6 6z" fill="#c0ab91"/><path d="m53 20v3h-12v-3-3h12z" fill="#57a4ff"/><path d="m23 20v3h-12v-3-3h12z" fill="#00b6bd"/><path d="m49 17h4v6h-4z" fill="#2488ff"/><path d="m19 17h4v6h-4z" fill="#009698"/><path d="m26 15v1h2v-1a3 3 0 0 0 -3-3h-1v2h1a1 1 0 0 1 1 1z"/><path d="m62 15.88v-.88a7.008 7.008 0 0 0 -7-7h-4c-1.74 0-3.14 1.61-4 2.94-.86-1.33-2.26-2.94-4-2.94h-4a7.008 7.008 0 0 0 -7 7 7.008 7.008 0 0 0 -7-7h-4c-1.74 0-3.14 1.61-4 2.94-.86-1.33-2.26-2.94-4-2.94h-4a7.008 7.008 0 0 0 -7 7v.88a24.955 24.955 0 0 0 1.43 8.34l2.75 7.78h-1.18a3.009 3.009 0 0 0 -3 3v20a1 1 0 0 0 1 1h58a1 1 0 0 0 1-1v-20a3.009 3.009 0 0 0 -3-3h-1.18l2.75-7.78a24.955 24.955 0 0 0 1.43-8.34zm-30 0a24.9 24.9 0 0 0 .22 3.12h-.44a24.9 24.9 0 0 0 .22-3.12zm-.55 5.12h1.1a26.009 26.009 0 0 0 .88 3.22l2.75 7.78h-8.36l2.75-7.78a26.009 26.009 0 0 0 .88-3.22zm-27.45-5.12v-.88a5 5 0 0 1 5-5h4c1.06 0 2.47 2.03 3.09 3.41a1 1 0 0 0 1.82 0c.62-1.38 2.03-3.41 3.09-3.41h4a5 5 0 0 1 5 5v.88a23.149 23.149 0 0 1 -.23 3.12h-5.77v-2a1 1 0 0 0 -1-1h-12a1 1 0 0 0 -1 1v2h-5.77a23.149 23.149 0 0 1 -.23-3.12zm18 2.12v4h-10v-4zm-16.68 5.55a21.048 21.048 0 0 1 -.72-2.55h5.4v2a1 1 0 0 0 1 1h12a1 1 0 0 0 1-1v-2h5.4a21.048 21.048 0 0 1 -.72 2.55l-4.18 11.84a.918.918 0 0 1 -.86.61.9.9 0 0 1 -.9-.77 1.6 1.6 0 0 0 -.05-.21l-2.89-7.52a3 3 0 0 0 -5.6 0l-2.89 7.52a1.6 1.6 0 0 0 -.05.21.909.909 0 0 1 -1.76.15zm14.06 8.45h-4.76l1.45-3.78a1 1 0 0 1 1.86 0zm39.62 2a1 1 0 0 1 1 1v19h-56v-19a1 1 0 0 1 1-1h1.89l.72 2.04a2.912 2.912 0 0 0 5.61-.39l.63-1.65h6.3l.63 1.65a2.915 2.915 0 0 0 5.61.4l.72-2.05h9.78l.72 2.04a2.912 2.912 0 0 0 5.61-.39l.63-1.65h6.3l.63 1.65a2.915 2.915 0 0 0 5.61.4l.72-2.05zm-14.38-2 1.45-3.78a1 1 0 0 1 1.86 0l1.45 3.78zm14.06-8.45-4.18 11.84a.918.918 0 0 1 -.86.61.9.9 0 0 1 -.9-.77 1.6 1.6 0 0 0 -.05-.21l-2.89-7.52a3 3 0 0 0 -5.6 0l-2.89 7.52a1.6 1.6 0 0 0 -.05.21.909.909 0 0 1 -1.76.15l-4.18-11.83a21.048 21.048 0 0 1 -.72-2.55h5.4v2a1 1 0 0 0 1 1h12a1 1 0 0 0 1-1v-2h5.4a21.048 21.048 0 0 1 -.72 2.55zm-16.68-1.55v-4h10v4zm18-6.12a23.149 23.149 0 0 1 -.23 3.12h-5.77v-2a1 1 0 0 0 -1-1h-12a1 1 0 0 0 -1 1v2h-5.77a23.149 23.149 0 0 1 -.23-3.12v-.88a5 5 0 0 1 5-5h4c1.06 0 2.47 2.03 3.09 3.41a1 1 0 0 0 1.82 0c.62-1.38 2.03-3.41 3.09-3.41h4a5 5 0 0 1 5 5z"/><path d="m56 15v1h2v-1a3 3 0 0 0 -3-3h-1v2h1a1 1 0 0 1 1 1z"/></g></svg>