<svg id="Layer_3" enable-background="new 0 0 64 64" height="512" viewBox="0 0 64 64" width="512" xmlns="http://www.w3.org/2000/svg"><path d="m56 54v4c0 2.21-1.79 4-4 4h-46c-2.21 0-4-1.79-4-4v-4h2 17c0 2.21 1.79 4 4 4h8c2.21 0 4-1.79 4-4h17z" fill="#969faa"/><path d="m21 54h16c0 2.21-1.79 4-4 4h-8c-2.21 0-4-1.79-4-4z" fill="#e6e9ed"/><path d="m8 16c-2.21 0-4 1.79-4 4v34h17 16 17v-38z" fill="#ccd1d9"/><path d="m9 20c-.55 0-1 .45-1 1v28c0 .55.45 1 1 1h40c.55 0 1-.45 1-1v-29z" fill="#69d6f4"/><path d="m24 24v4h-4v8h-4v-4h-4v14h4 4 4 4v-22z" fill="#ff826e"/><path d="m62 25v8c0 1.92-3.24 3.58-8 4.42v.01c-1.24.21-2.58.37-4 .47-.97.07-1.97.1-3 .1-8.28 0-15-2.24-15-5v-8c0 2.76 6.72 5 15 5s15-2.24 15-5z" fill="#ffeaa7"/><path d="m62 8v9c0 2.76-6.72 5-15 5s-15-2.24-15-5v-1-8c0 3.31 6.72 6 15 6s15-2.69 15-6z" fill="#ffeaa7"/><path d="m32 17c0 2.76 6.72 5 15 5s15-2.24 15-5v8c0 2.76-6.72 5-15 5s-15-2.24-15-5v-5z" fill="#fcd770"/><path d="m32 8c0-3.31 6.72-6 15-6s15 2.69 15 6-6.72 6-15 6c4.97 0 9-1.79 9-4s-4.03-4-9-4-9 1.79-9 4 4.03 4 9 4c-8.28 0-15-2.69-15-6z" fill="#fcd770"/><ellipse cx="47" cy="10" fill="#e6e9ed" rx="9" ry="4"/><path d="m9 57h2v2h-2z"/><path d="m13 57h2v2h-2z"/><path d="m47 1c-9.121 0-16 3.009-16 7v7h-23c-2.757 0-5 2.243-5 5v33h-2v5c0 2.757 2.243 5 5 5h46c2.757 0 5-2.243 5-5v-5h-2v-14.75c4.578-.922 8-2.685 8-5.25v-25c0-3.991-6.879-7-16-7zm0 2c8.25 0 14 2.635 14 5 0 1.27-1.67 2.615-4.484 3.591.312-.497.484-1.029.484-1.591 0-2.851-4.299-5-10-5s-10 2.149-10 5c0 .562.172 1.094.484 1.591-2.814-.976-4.484-2.321-4.484-3.591 0-2.365 5.75-5 14-5zm-8 7c0-1.223 3.116-3 8-3s8 1.777 8 3-3.116 3-8 3-8-1.777-8-3zm8 29c.668 0 1.335-.02 2-.049v10.049h-40v-28h22v12c0 3.939 8.049 6 16 6zm8 19c0 1.654-1.346 3-3 3h-46c-1.654 0-3-1.346-3-3v-3h17.101c.465 2.279 2.484 4 4.899 4h8c2.414 0 4.434-1.721 4.899-4h17.101zm-32.816-3h13.631c-.414 1.161-1.514 2-2.816 2h-8c-1.301 0-2.401-.839-2.815-2zm30.816-2h-48v-33c0-1.654 1.346-3 3-3h23v2h-22c-1.103 0-2 .897-2 2v28c0 1.103.897 2 2 2h40c1.103 0 2-.897 2-2v-10.181c.678-.061 1.347-.134 2-.225zm-6-16c-8.546 0-14-2.369-14-4v-4.944c2.879 1.94 8.459 2.944 14 2.944s11.121-1.004 14-2.944v4.944c0 1.631-5.454 4-14 4zm0-8c-8.546 0-14-2.369-14-4v-4.944c2.879 1.94 8.459 2.944 14 2.944s11.121-1.004 14-2.944v4.944c0 1.631-5.454 4-14 4zm0-8c-8.546 0-14-2.369-14-4v-5.515c2.679 2.131 7.821 3.515 14 3.515s11.321-1.384 14-3.515v5.515c0 1.631-5.454 4-14 4z"/><path d="m37 16h2v2h-2z"/><path d="m41 17h2v2h-2z"/><path d="m37 32h2v2h-2z"/><path d="m41 33h2v2h-2z"/><path d="m55 24h2v2h-2z"/><path d="m51 25h2v2h-2z"/><path d="m23 27h-4v8h-2v-4h-6v16h18v-24h-6zm-8 18h-2v-12h2zm2-8h2v8h-2zm4 8v-16h2v16zm4-20h2v20h-2z"/><path d="m31 41h16v2h-16z"/><path d="m31 45h10v2h-10z"/><path d="m43 45h4v2h-4z"/></svg>