<svg id="Capa_1" enable-background="new 0 0 512.066 512.066" height="512" viewBox="0 0 512.066 512.066" width="512" xmlns="http://www.w3.org/2000/svg"><g><path d="m397.397 333.571-3.73-33.81c-11.33-11.34-60.68-60.7-69.4-69.41l-68.27-116.03-84.16-16.16-40.16-40.18c-5.81-5.81-15.32-5.88-21.22 0l-106.07 106.07c-5.84 5.86-5.86 15.34 0 21.22 26.16 26.15 45.57 59.77 54.67 94.64.72 1.676 14.46 70.674 76.83 123.27l46.26 39.03c20.87 17.61 49.11 22.17 73.85 13.22 5.41-1.95 10.66-4.56 15.62-7.82l105.97-69.47c15.14-9.91 22.44-27.45 19.81-44.57z" fill="#ffbfab"/><g fill="#f89580"><path d="m507.657 183.871-42.16 42.01c-11.68 41.52-34.88 78.44-67.3 106.98l-.8.71c-1.45-9.33-5.81-18.03-12.66-24.88-11.31-11.31-60.72-60.73-69.4-69.41-18 3.55-37.13.46-53.48-9.49l-15.41 15.41c-29.23 29.23-76.81 29.24-106.06 0-5.85-5.86-5.85-15.36 0-21.22l105-105c3.49-3.49 7.03-6.55 10.61-9.24 39.25-29.52 82.09-14 85.13-14.05l39.28-39.14c5.86-5.84 15.34-5.84 21.2.01 10.22 10.22 94.42 94.42 106.07 106.07 5.831 5.85 5.881 15.34-.02 21.24z"/><path d="m507.657 183.871-42.16 42.01c-11.68 41.52-34.88 78.44-67.3 106.98l-.8.71c-1.45-9.33-5.81-18.03-12.66-24.88-11.31-11.31-60.72-60.73-69.4-69.41-18 3.55-37.13.46-53.48-9.49l-5.86 5.86v-125.91c39.25-29.52 82.09-14 85.13-14.05l39.28-39.14c5.86-5.84 15.34-5.84 21.2.01 10.22 10.22 94.42 94.42 106.07 106.07 5.831 5.85 5.881 15.34-.02 21.24z"/></g></g></svg>