<svg id="Capa_1" enable-background="new 0 0 511.994 511.994" height="512" viewBox="0 0 511.994 511.994" width="512" xmlns="http://www.w3.org/2000/svg"><g><g fill="#fed843"><path d="m109.062 360.997h-69.306c-8.291 0-15-6.709-15-15s6.709-15 15-15h69.306c8.291 0 15 6.709 15 15s-6.709 15-15 15z"/><path d="m76 270.997h-61c-8.291 0-15-6.709-15-15s6.709-15 15-15h61c8.291 0 15 6.709 15 15s-6.709 15-15 15z"/><path d="m83.354 180.997h-63.52c-8.291 0-15-6.709-15-15s6.709-15 15-15h63.52c8.291 0 15 6.709 15 15s-6.709 15-15 15z"/></g><path d="m509.654 253.873c-17.564-122.886-130.68-222.876-253.654-222.876-125.158 0-212.721 101.904-194.854 227.124 17.564 122.886 131.88 222.876 254.854 222.876 125.158 0 211.521-101.906 193.654-227.124z" fill="#ff641a"/><path d="m509.654 253.873c-17.564-122.886-130.68-222.876-253.654-222.876l60 450c125.158 0 211.521-101.906 193.654-227.124z" fill="#f03800"/><path d="m421 255.997 27.36-15c-17.637-79.492-90.234-143.011-170.676-149.341l-9.871 27.938-20.407-27.687c-77.021 8.146-130.9 70.82-127.817 149.09l31.412 15-27.36 15c17.637 79.492 90.234 143.011 170.676 149.341l10.291-24.785 19.988 24.534c77.021-8.146 130.9-70.82 127.817-149.09z" fill="#edf5ff"/><path d="m452.412 270.997-31.412-15 27.36-15c-17.637-79.492-90.234-143.011-170.676-149.341l-9.871 27.938 36.795 275.958 19.988 24.534c77.02-8.146 130.899-70.819 127.816-149.089z" fill="#d5e8fe"/><path d="m181 255.997c0-8.291-6.709-15-15-15h-46.412c.222 5.632.734 11.345 1.558 17.124.623 4.347 1.549 8.615 2.494 12.876h42.36c8.291 0 15-6.709 15-15z" fill="#5b362a"/><path d="m450.854 253.873c-.623-4.347-1.549-8.615-2.494-12.876h-42.36c-8.291 0-15 6.709-15 15s6.709 15 15 15h46.412c-.222-5.632-.735-11.345-1.558-17.124z" fill="#38211a"/><path d="m277.683 91.656c-4.356-.342-8.719-.659-13.114-.659-.192 0-.374.029-.566.029-5.638.022-11.179.308-16.599.881l6.603 46.214c1.137 7.961 8.61 14.366 17.928 12.393 7.646-1.635 12.902-8.785 11.779-16.641z" fill="#5b362a"/><path d="m283.715 133.873-6.031-42.217c-4.356-.342-8.719-.659-13.114-.659-.192 0-.374.029-.566.029l7.932 59.487c7.646-1.635 12.901-8.785 11.779-16.64z" fill="#38211a"/><path d="m317.992 373.873c-1.124-7.872-8.425-14.407-17.928-12.393-7.646 1.635-12.902 8.785-11.779 16.641l6.031 42.217c4.356.342 8.719.659 13.114.659.192 0 .374-.029.566-.029 5.638-.022 11.179-.308 16.599-.881z" fill="#5b362a"/><path d="m317.992 373.873c-1.125-7.872-8.425-14.407-17.928-12.393l7.932 59.487c5.638-.022 11.179-.308 16.599-.881z" fill="#38211a"/><path d="m364.442 304.703-64.38-56.338-7.778-54.492c-1.137-7.954-8.434-13.436-16.26-12.689-9.23.895-14.584 8.979-13.447 16.937l8.569 60c.513 3.545 2.271 6.797 4.98 9.17l12.881 11.272 55.688 48.728c6.194 5.427 15.685 4.845 21.167-1.421 5.451-6.226 4.821-15.703-1.42-21.167z" fill="#5b362a"/><path d="m365.863 325.87c5.449-6.226 4.819-15.703-1.421-21.167l-64.38-56.338-7.778-54.492c-1.137-7.954-8.434-13.436-16.26-12.689l12.984 97.379 55.688 48.728c6.195 5.427 15.685 4.845 21.167-1.421z" fill="#38211a"/></g></svg>