<svg id="Capa_1" enable-background="new 0 0 510 510" height="512" viewBox="0 0 510 510" width="512" xmlns="http://www.w3.org/2000/svg"><g><path d="m374 383v96c0 8.28-6.72 15-15 15h-208c-8.28 0-15-6.72-15-15v-96c0-8.28 6.72-15 15-15h208c8.28 0 15 6.72 15 15z" fill="#404a4a"/><path d="m374 383v96c0 8.28-6.72 15-15 15h-104v-126h104c8.28 0 15 6.72 15 15z" fill="#323c3c"/><path d="m15 31h480v352h-480z" fill="#dcf0ff"/><path d="m255 31h240v352h-240z" fill="#bee6fa"/><path d="m480 16h-450c-16.54 0-30 13.46-30 30v322c0 16.54 13.46 30 30 30h450c16.54 0 30-13.46 30-30v-322c0-16.54-13.46-30-30-30zm0 352h-450v-322h450z" fill="#55696e"/><path d="m510 46v322c0 16.54-13.46 30-30 30h-225v-30h225v-322h-225v-30h225c16.54 0 30 13.46 30 30z" fill="#404a4a"/><path d="m486 479c0 8.28-6.72 15-15 15h-432c-8.28 0-15-6.72-15-15s6.72-15 15-15h432c8.28 0 15 6.72 15 15z" fill="#55696e"/><path d="m486 479c0 8.28-6.72 15-15 15h-216v-30h216c8.28 0 15 6.72 15 15z" fill="#404a4a"/><path d="m431 110h-48c-8.284 0-15-6.716-15-15s6.716-15 15-15h48c8.284 0 15 6.716 15 15s-6.716 15-15 15z" fill="#9bdc05"/><path d="m334 95c0 8.28-6.72 15-15 15h-153l.08 42.36 8.96 14.64-24.11 40h-47.56l-20.63-34.39c-2.08-3.45-2.08-7.77 0-11.22l17.45-29.09c1.97-3.29 5.52-5.3 9.36-5.3h26.45v-32c0-8.28 6.72-15 15-15h168c8.28 0 15 6.72 15 15z" fill="#ade232"/><path d="m319 110h-64v-30h64c8.28 0 15 6.72 15 15s-6.72 15-15 15z" fill="#9bdc05"/><path d="m431 334h-48c-8.284 0-15-6.716-15-15s6.716-15 15-15h48c8.284 0 15 6.716 15 15s-6.716 15-15 15z" fill="#ff435b"/><path d="m334 319c0 8.28-6.72 15-15 15h-168c-8.28 0-15-6.72-15-15v-31h-26.67c-3.88 0-7.48-2.04-9.47-5.36l-17.68-29.46c-2.1-3.49-2.1-7.87 0-11.36l20.89-34.82h47.86l24.07 40-8.74 14.92-.26 42.08h153c8.28 0 15 6.72 15 15z" fill="#ff7b4a"/><path d="m334 319c0 8.28-6.72 15-15 15h-64v-30h64c8.28 0 15 6.72 15 15z" fill="#ff435b"/><path d="m431 222h-48c-8.284 0-15-6.716-15-15s6.716-15 15-15h48c8.284 0 15 6.716 15 15s-6.716 15-15 15z" fill="#fabe2c"/><path d="m334 207c0 8.28-6.72 15-15 15h-81.37l-11.82 19.7c-1.97 3.29-5.52 5.3-9.36 5.3h-41.45l-24.07-40 24.11-40h41.41c3.84 0 7.39 2.01 9.36 5.3l11.82 19.7h81.37c8.28 0 15 6.72 15 15z" fill="#ffe470"/><path d="m334 207c0 8.28-6.72 15-15 15h-64v-30h64c8.28 0 15 6.72 15 15z" fill="#fabe2c"/></g></svg>