<?xml version="1.0" encoding="iso-8859-1"?>
<!-- Generator: Adobe Illustrator 19.0.0, SVG Export Plug-In . SVG Version: 6.00 Build 0)  -->
<svg version="1.1" id="Capa_1" xmlns="http://www.w3.org/2000/svg" xmlns:xlink="http://www.w3.org/1999/xlink" x="0px" y="0px"
	 viewBox="0 0 496 496" style="enable-background:new 0 0 496 496;" xml:space="preserve">
<polygon style="fill:#F9E0A6;" points="160,360 120,120 152,104 200,288 296,288 344,104 376,120 336,360 "/>
<g>
	<path style="fill:#EABD8C;" d="M152,104l-32,16l3.928,23.592c1.36,0.136,2.68,0.408,4.072,0.408
		c12.36,0,23.288-5.752,30.632-14.584L152,104z"/>
	<path style="fill:#EABD8C;" d="M337.368,129.416C344.712,138.248,355.64,144,368,144c1.392,0,2.712-0.272,4.072-0.408L376,120
		l-32-16L337.368,129.416z"/>
</g>
<rect x="56" y="88" style="fill:#ECECEC;" width="384" height="32"/>
<g>
	<rect x="408" y="88" style="fill:#B6C1CE;" width="24" height="32"/>
	<rect x="64" y="88" style="fill:#B6C1CE;" width="24" height="32"/>
</g>
<g>
	<circle style="fill:#F9E0A6;" cx="128" cy="104" r="24"/>
	<circle style="fill:#F9E0A6;" cx="368" cy="104" r="24"/>
	<path style="fill:#F9E0A6;" d="M248,288L248,288c-30.928,0-56-25.072-56-56v-16c0-30.928,25.072-56,56-56l0,0
		c30.928,0,56,25.072,56,56v16C304,262.928,278.928,288,248,288z"/>
</g>
<path style="fill:#48C397;" d="M224,288L224,288c0,9.992,4.992,19.328,13.312,24.872L248,320l10.688-7.128
	C267.008,307.328,272,297.992,272,288l0,0h24l40,72l-24,128H184l-24-128l40-72H224z"/>
<g>
	<rect x="424" y="8" style="fill:#8C95A4;" width="64" height="192"/>
	<rect x="8" y="8" style="fill:#8C95A4;" width="64" height="192"/>
</g>
<polygon style="fill:#798699;" points="178,456 184,488 312,488 318,456 "/>
<path d="M416,0v80h-27.056c-5.624-4.92-12.896-8-20.944-8s-15.32,3.08-20.944,8H148.944c-5.624-4.92-12.896-8-20.944-8
	s-15.32,3.08-20.944,8H80V0H0v208h80v-80h27.056c1.688,1.472,3.52,2.752,5.488,3.848l39.088,226.728l-0.032,0.064L177.36,496h141.28
	l25.76-137.36l-0.032-0.064l39.088-226.728c1.968-1.096,3.8-2.376,5.488-3.848H416v80h80V0H416z M368,88c8.824,0,16,7.176,16,16
	s-7.176,16-16,16s-16-7.176-16-16S359.176,88,368,88z M248,280c-26.472,0-48-21.528-48-48v-16c0-26.472,21.528-48,48-48
	s48,21.528,48,48v16C296,258.472,274.472,280,248,280z M263.032,294.144c-1.432,4.872-4.448,9.184-8.784,12.08l-6.248,4.16
	l-6.248-4.168c-4.336-2.896-7.36-7.208-8.784-12.08C237.8,295.312,242.816,296,248,296C253.184,296,258.2,295.312,263.032,294.144z
	 M310.288,201.536C303.712,173.2,278.312,152,248,152s-55.712,21.2-62.288,49.536L166.528,128h162.944L310.288,201.536z
	 M336.168,102.32l-2.52,9.68H162.352l-2.52-9.68c-0.112-2.176-0.44-4.28-0.968-6.32h178.272
	C336.608,98.04,336.288,100.144,336.168,102.32z M64,192H48v-80H32v80H16V16h16v80h16V16h16V192z M80,96h17.136
	C96.464,98.576,96,101.224,96,104s0.464,5.424,1.136,8H80V96z M128,88c8.824,0,16,7.176,16,16s-7.176,16-16,16s-16-7.176-16-16
	S119.176,88,128,88z M129.472,135.848c7.856-0.368,14.952-3.52,20.336-8.56l41.648,159.624l-27.424,49.36L129.472,135.848z
	 M305.36,480H190.64L168.4,361.36l40.152-72.272l-2.256-8.648c3.328,2.872,6.928,5.416,10.792,7.56H216
	c0,12.704,6.304,24.488,16.872,31.528L248,329.616l15.128-10.088C273.696,312.488,280,300.704,280,288h-1.088
	c3.864-2.144,7.464-4.696,10.792-7.56l-2.256,8.648L327.6,361.36L305.36,480z M304.544,286.912l41.648-159.624
	c5.384,5.04,12.48,8.2,20.336,8.56l-34.56,200.424L304.544,286.912z M398.864,112c0.672-2.576,1.136-5.224,1.136-8
	s-0.464-5.424-1.136-8H416v16H398.864z M480,192h-16v-80h-16v80h-16V16h16v80h16V16h16V192z"/>
<g>
</g>
<g>
</g>
<g>
</g>
<g>
</g>
<g>
</g>
<g>
</g>
<g>
</g>
<g>
</g>
<g>
</g>
<g>
</g>
<g>
</g>
<g>
</g>
<g>
</g>
<g>
</g>
<g>
</g>
</svg>
