<?xml version="1.0" encoding="iso-8859-1"?>
<!-- Generator: Adobe Illustrator 19.0.0, SVG Export Plug-In . SVG Version: 6.00 Build 0)  -->
<svg version="1.1" id="Capa_1" xmlns="http://www.w3.org/2000/svg" xmlns:xlink="http://www.w3.org/1999/xlink" x="0px" y="0px"
	 viewBox="0 0 480 480" style="enable-background:new 0 0 480 480;" xml:space="preserve">
<path style="fill:#FFD782;" d="M8,136h464v64H8V136z"/>
<g>
	<path style="fill:#195C85;" d="M96,88h48c13.255,0,24,10.745,24,24l0,0c0,13.255-10.745,24-24,24H96c-13.255,0-24-10.745-24-24l0,0
		C72,98.745,82.745,88,96,88z"/>
	<path style="fill:#195C85;" d="M96,280h48c13.255,0,24,10.745,24,24l0,0c0,13.255-10.745,24-24,24H96c-13.255,0-24-10.745-24-24
		l0,0C72,290.745,82.745,280,96,280z"/>
</g>
<path style="fill:#FFD782;" d="M8,328h464v64H8V328z"/>
<g>
	<path style="fill:#D3843D;" d="M8,40h32v96H8V40z"/>
	<path style="fill:#D3843D;" d="M8,200h32v128H8V200z"/>
	<path style="fill:#D3843D;" d="M8,392h32v48H8V392z"/>
	<path style="fill:#D3843D;" d="M440,40h32v96h-32V40z"/>
	<path style="fill:#D3843D;" d="M440,200h32v128h-32V200z"/>
	<path style="fill:#D3843D;" d="M440,392h32v48h-32V392z"/>
</g>
<g>
	<path style="fill:#7FCAC9;" d="M360,88H200v80h208v-32C408,109.49,386.51,88,360,88z"/>
	<path style="fill:#7FCAC9;" d="M360,280H200v80h208v-32C408,301.49,386.51,280,360,280z"/>
</g>
<path style="fill:#231F20;" d="M432,128h-16.64c-3.992-27.517-27.555-47.947-55.36-48H192v48h-20.448
	c2.879-4.843,4.415-10.366,4.448-16c0-17.673-14.327-32-32-32H96c-17.673,0-32,14.327-32,32c0.033,5.634,1.569,11.157,4.448,16H48
	V32H0v416h48v-48h384v48h48V32h-48V128z M208,96h152c22.08,0.026,39.974,17.92,40,40v24H208V96z M96,96h48c8.837,0,16,7.163,16,16
	s-7.163,16-16,16H96c-8.837,0-16-7.163-16-16S87.163,96,96,96z M16,48h16v80H16V48z M16,208h16v112H16V208z M32,432H16v-32h16V432z
	 M464,432h-16v-32h16V432z M464,384H16v-48h176v32h224v-32h48V384z M360,272H192v48h-20.448c2.879-4.843,4.415-10.366,4.448-16
	c0-17.673-14.327-32-32-32H96c-17.673,0-32,14.327-32,32c0.033,5.634,1.569,11.157,4.448,16H48V208h384v112h-16.64
	C411.367,292.483,387.805,272.053,360,272z M400,328v24H208v-64h152C382.08,288.026,399.974,305.92,400,328z M160,304
	c0,8.837-7.163,16-16,16H96c-8.837,0-16-7.163-16-16s7.163-16,16-16h48C152.837,288,160,295.163,160,304z M464,320h-16V208h16V320z
	 M464,192H16v-48h176v32h224v-32h48V192z M448,48h16v80h-16V48z"/>
<g>
</g>
<g>
</g>
<g>
</g>
<g>
</g>
<g>
</g>
<g>
</g>
<g>
</g>
<g>
</g>
<g>
</g>
<g>
</g>
<g>
</g>
<g>
</g>
<g>
</g>
<g>
</g>
<g>
</g>
</svg>
