<svg id="Capa_1" enable-background="new 0 0 512 512" height="512" viewBox="0 0 512 512" width="512" xmlns="http://www.w3.org/2000/svg"><path id="XMLID_1255_" d="m30 10h288v452h-288z" fill="#ffd89e"/><path id="XMLID_1256_" d="m10 462h328v40h-328z" fill="#ffcb7c"/><circle id="XMLID_1254_" cx="430" cy="124" fill="#91def5" r="72"/><path id="XMLID_1311_" d="m114 294h120v168h-120z" fill="#91def5"/><path id="XMLID_1646_" d="m174 294h60v168h-60z" fill="#dff6fc"/><path id="XMLID_1637_" d="m70 64h44v64h-44z" fill="#91def5"/><path id="XMLID_1636_" d="m152 64h44v64h-44z" fill="#fff"/><path id="XMLID_1635_" d="m234 64h44v64h-44z" fill="#91def5"/><path id="XMLID_1634_" d="m70 184h44v64h-44z" fill="#fff"/><path id="XMLID_1633_" d="m152 184h44v64h-44z" fill="#91def5"/><path id="XMLID_1632_" d="m234 184h44v64h-44z" fill="#fff"/><path id="XMLID_478_" d="m450 86c-5.522 0-10 4.477-10 10v18h-20v-18c0-5.523-4.478-10-10-10s-10 4.477-10 10v56c0 5.523 4.478 10 10 10s10-4.477 10-10v-18h20v18c0 5.523 4.478 10 10 10s10-4.477 10-10v-56c0-5.523-4.478-10-10-10z"/><path id="XMLID_865_" d="m430 42c-29.873 0-56.057 16.063-70.393 40h-31.607v-72c0-5.523-4.478-10-10-10h-288c-5.522 0-10 4.477-10 10v442h-10c-5.522 0-10 4.477-10 10v40c0 5.523 4.478 10 10 10h328c5.522 0 10-4.477 10-10v-40c0-5.523-4.478-10-10-10h-10v-65c0-5.523-4.478-10-10-10s-10 4.477-10 10v65h-64v-81.414c0-.003 0-.007 0-.01v-76.576c0-5.523-4.478-10-10-10h-120c-5.522 0-10 4.477-10 10v158h-64v-432h268v72 64 141c0 5.523 4.478 10 10 10s10-4.477 10-10v-131h31.607c14.336 23.937 40.52 40 70.393 40 45.215 0 82-36.785 82-82s-36.785-82-82-82zm-246 392.723 40-40v57.277h-40zm40-68.285-40 40v-102.438h40zm-60-62.438v28.392l-40 40v-68.392zm-40 96.677 40-40v91.323h-40zm-10 71.323h120 84 10v20h-308v-20h10zm214-326v-44h23.022c-1.955 7.006-3.022 14.379-3.022 22s1.067 14.994 3.022 22zm102 40c-34.187 0-62-27.813-62-62s27.813-62 62-62 62 27.813 62 62-27.813 62-62 62z"/><path id="XMLID_1106_" d="m124 64c0-5.523-4.478-10-10-10h-44c-5.522 0-10 4.477-10 10v64c0 5.523 4.478 10 10 10h44c5.522 0 10-4.477 10-10zm-20 54h-24v-44h24z"/><path id="XMLID_1117_" d="m206 64c0-5.523-4.478-10-10-10h-44c-5.522 0-10 4.477-10 10v64c0 5.523 4.478 10 10 10h44c5.522 0 10-4.477 10-10zm-20 54h-24v-44h24z"/><path id="XMLID_1121_" d="m288 64c0-5.523-4.478-10-10-10h-44c-5.522 0-10 4.477-10 10v64c0 5.523 4.478 10 10 10h44c5.522 0 10-4.477 10-10zm-20 54h-24v-44h24z"/><path id="XMLID_1146_" d="m114 174h-44c-5.522 0-10 4.477-10 10v64c0 5.523 4.478 10 10 10h44c5.522 0 10-4.477 10-10v-64c0-5.523-4.478-10-10-10zm-10 64h-24v-44h24z"/><path id="XMLID_1149_" d="m196 174h-44c-5.522 0-10 4.477-10 10v64c0 5.523 4.478 10 10 10h44c5.522 0 10-4.477 10-10v-64c0-5.523-4.478-10-10-10zm-10 64h-24v-44h24z"/><path id="XMLID_1153_" d="m278 174h-44c-5.522 0-10 4.477-10 10v64c0 5.523 4.478 10 10 10h44c5.522 0 10-4.477 10-10v-64c0-5.523-4.478-10-10-10zm-10 64h-24v-44h24z"/><path id="XMLID_1154_" d="m318 332c-2.63 0-5.21 1.07-7.07 2.93s-2.93 4.44-2.93 7.07 1.069 5.21 2.93 7.07 4.44 2.93 7.07 2.93 5.21-1.07 7.069-2.93c1.86-1.86 2.931-4.44 2.931-7.07s-1.07-5.21-2.931-7.07c-1.859-1.86-4.439-2.93-7.069-2.93z"/></svg>