<svg id="Capa_1" enable-background="new 0 0 512 512" height="512" viewBox="0 0 512 512" width="512" xmlns="http://www.w3.org/2000/svg" xmlns:xlink="http://www.w3.org/1999/xlink"><linearGradient id="SVGID_1_" gradientUnits="userSpaceOnUse" x1="514.782" x2="-122.413" y1="-43.218" y2="593.978"><stop offset=".0023" stop-color="#ff9494"/><stop offset=".992" stop-color="#ffe8dc" stop-opacity="0"/></linearGradient><g><path d="m428.41 171.888c-8.356-8.356-18.026-14.923-28.717-19.765-28.021-12.69-50.051-35.407-62.434-63.565-22.917-52.113-74.975-88.512-135.546-88.558-79.311-.06-145.162 63.163-148.147 142.418-1.277 33.922 8.857 65.421 26.87 90.969 22.877 32.448 28.821 73.782 17.021 111.69-16.764 53.857-10.919 104.898 20.973 136.791 55.888 55.888 170.586 31.804 256.185-53.795 85.598-85.599 109.683-200.296 53.795-256.185z" fill="url(#SVGID_1_)"/><g><g><g><path d="m425.5 440.428c0 25.129-75.888 45.5-169.5 45.5s-169.5-20.371-169.5-45.5v-49h339z" fill="#00c" opacity=".1"/><path d="m425.5 413.428c0 25.129-75.888 45.5-169.5 45.5s-169.5-20.371-169.5-45.5v-49h339z" fill="#ff9d33"/><ellipse cx="256" cy="364.428" fill="#ffc599" rx="169.5" ry="45.5"/><ellipse cx="256" cy="361.886" fill="#ffab66" rx="130.855" ry="29.01"/><g><g><path d="m351.805 42.204v303.834c0 8.906-7.225 16.131-16.139 16.131h-159.623c-8.914 0-16.139-7.225-16.139-16.131v-303.834c0-8.906 7.225-16.131 16.139-16.131h159.622c8.914-.001 16.14 7.225 16.14 16.131z" fill="#b3b3ff"/><path d="m159.905 220.333v125.704c0 8.906 7.225 16.131 16.139 16.131h159.622c8.914 0 16.139-7.225 16.139-16.131v-125.704z" fill="#9494ff"/><path d="m159.905 285v61.037c0 8.906 7.225 16.131 16.139 16.131h159.622c8.914 0 16.139-7.225 16.139-16.131v-61.037z" fill="#8383ff"/><path d="m338.479 26.333c-.915-.161-1.852-.261-2.814-.261h-159.622c-.962 0-1.898.1-2.814.261z" fill="#b3b3ff"/><path d="m308.164 47.76 6.546-21.689h-117.711l6.546 21.689c.987 3.269 3.999 5.506 7.414 5.506h89.791c3.415.001 6.427-2.236 7.414-5.506z" fill="#ffab66"/><path d="m386.714 330.21c-2.634-.833-5.443.628-6.273 3.262-.832 2.633.629 5.442 3.262 6.274 23.042 7.277 36.798 16.504 36.798 24.683 0 11.068-23.732 21.382-45.941 27.344-31.604 8.484-73.709 13.156-118.559 13.156s-86.955-4.672-118.558-13.156c-22.21-5.962-45.942-16.276-45.942-27.344 0-9.402 19.673-22.539 63.406-31.418v13.026c0 11.654 9.481 21.135 21.135 21.135h159.627c11.654 0 21.136-9.481 21.136-21.135v-303.83c0-11.654-9.481-21.135-21.136-21.135h-159.628c-11.654 0-21.135 9.481-21.135 21.135v16.293c0 2.761 2.239 5 5 5s5-2.239 5-5v-16.293c0-6.14 4.995-11.135 11.135-11.135h17.244l5.473 18.133c1.636 5.42 6.539 9.062 12.201 9.062h89.791c5.661 0 10.563-3.642 12.201-9.062l5.473-18.133h17.244c6.141 0 11.136 4.995 11.136 11.135v303.829c0 6.14-4.995 11.135-11.136 11.135h-159.627c-6.14 0-11.135-4.995-11.135-11.135v-253.536c0-2.761-2.239-5-5-5s-5 2.239-5 5v230.307c-63.751 12.503-73.406 31.367-73.406 41.621v49c0 32.801 89.907 50.5 174.5 50.5 84.594 0 174.5-17.699 174.5-50.5v-49c0-13.339-15.141-25.171-43.786-34.218zm-83.336-283.895c-.353 1.167-1.409 1.952-2.628 1.952h-89.791c-1.219 0-2.275-.784-2.627-1.952l-4.601-15.244h104.247zm71.181 394.457c-31.604 8.484-73.709 13.156-118.559 13.156s-86.955-4.672-118.558-13.156c-22.21-5.962-45.942-16.276-45.942-27.344v-31.184c25.693 21.344 96.794 32.684 164.5 32.684 67.707 0 138.807-11.34 164.5-32.684v31.184c0 11.069-23.732 21.383-45.941 27.344z" fill="#00c"/></g></g><path d="m285.658 110.769-24.077 57.786h37.825c3.841 0 5.87 4.546 3.305 7.405l-72.299 95.105c-4.505 5.926-13.725.364-10.583-6.385l33.585-72.15h-41.114c-3.168 0-5.317-3.223-4.098-6.147l32.929-79.029c.689-1.654 2.306-2.732 4.098-2.732h36.332c3.167 0 5.316 3.223 4.097 6.147z" fill="#ffc599"/><g><g><path d="m201.254 317.685h109.202c2.573 0 4.659 2.086 4.659 4.659s-2.086 4.659-4.659 4.659h-109.202c-2.573 0-4.659-2.086-4.659-4.659s2.085-4.659 4.659-4.659z" fill="#fff"/></g><g><path d="m220.206 299.798h71.297c2.573 0 4.659 2.086 4.659 4.659s-2.086 4.659-4.659 4.659h-71.297c-2.573 0-4.659-2.086-4.659-4.659s2.086-4.659 4.659-4.659z" fill="#fff"/></g></g></g><g><path d="m79.041 289.867c-1.28 0-2.559-.488-3.536-1.464l-11.292-11.293c-1.953-1.953-1.953-5.119 0-7.071l11.292-11.292c1.953-1.952 5.118-1.952 7.071 0l11.292 11.292c1.953 1.953 1.953 5.119 0 7.071l-11.292 11.292c-.976.977-2.255 1.465-3.535 1.465zm-4.221-16.292 4.221 4.221 4.221-4.221-4.221-4.221z" fill="#ff9d33"/></g><g><path d="m404 119.084c-1.279 0-2.56-.488-3.535-1.464l-11.292-11.292c-1.953-1.953-1.953-5.119 0-7.071l11.292-11.292c.938-.938 2.209-1.464 3.535-1.464s2.598.527 3.535 1.464l11.292 11.292c1.953 1.953 1.953 5.119 0 7.071l-11.292 11.292c-.975.976-2.256 1.464-3.535 1.464zm-4.221-16.292 4.221 4.221 4.221-4.221-4.221-4.221z" fill="#ff9d33"/></g><path d="" fill="#8383ff"/><g><path d="m123.327 202.11c-7.175 0-13.012-5.837-13.012-13.012s5.837-13.012 13.012-13.012 13.012 5.837 13.012 13.012-5.838 13.012-13.012 13.012zm0-16.024c-1.661 0-3.012 1.351-3.012 3.012s1.351 3.012 3.012 3.012 3.012-1.351 3.012-3.012-1.352-3.012-3.012-3.012z" fill="#ff6c6c"/></g><g><path d="m384.988 76.208c-7.175 0-13.012-5.837-13.012-13.012s5.837-13.012 13.012-13.012 13.012 5.837 13.012 13.012-5.837 13.012-13.012 13.012zm0-16.024c-1.661 0-3.012 1.351-3.012 3.012s1.351 3.012 3.012 3.012 3.012-1.352 3.012-3.012-1.351-3.012-3.012-3.012z" fill="#6c6cff"/></g><path d="" fill="#8383ff"/><g><path d="m410 325.48c-7.175 0-13.012-5.837-13.012-13.012s5.837-13.012 13.012-13.012 13.012 5.837 13.012 13.012-5.837 13.012-13.012 13.012zm0-16.023c-1.661 0-3.012 1.351-3.012 3.012s1.351 3.012 3.012 3.012 3.012-1.351 3.012-3.012-1.351-3.012-3.012-3.012z" fill="#ff6c6c"/></g></g><path d="m210.889 111.441h-3.99v-3.99c0-2.573-2.086-4.659-4.659-4.659s-4.659 2.086-4.659 4.659v3.99h-3.99c-2.573 0-4.659 2.086-4.659 4.659s2.086 4.659 4.659 4.659h3.99v3.99c0 2.573 2.086 4.659 4.659 4.659s4.659-2.086 4.659-4.659v-3.99h3.99c2.573 0 4.659-2.086 4.659-4.659-.001-2.573-2.086-4.659-4.659-4.659z" fill="#fff"/></g></g></svg>