<?xml version="1.0" encoding="iso-8859-1"?>
<!-- Generator: Adobe Illustrator 19.0.0, SVG Export Plug-In . SVG Version: 6.00 Build 0)  -->
<svg version="1.1" id="Layer_1" xmlns="http://www.w3.org/2000/svg" xmlns:xlink="http://www.w3.org/1999/xlink" x="0px" y="0px"
	 viewBox="0 0 511.999 511.999" style="enable-background:new 0 0 511.999 511.999;" xml:space="preserve">
<path style="fill:#0B2A96;" d="M471.347,0H40.653C20.294,0,3.73,16.563,3.73,36.921v50.895c0,20.359,16.563,36.922,36.922,36.922
	h430.695c20.359,0,36.921-16.563,36.921-36.922V36.921C508.268,16.563,491.705,0,471.347,0z"/>
<path style="fill:#044FC7;" d="M255.999,0H40.653C20.294,0,3.73,16.563,3.73,36.921v50.895c0,20.359,16.563,36.922,36.922,36.922
	h215.347V0z"/>
<path style="fill:#F22F0A;" d="M471.347,387.261H40.653c-20.359,0-36.922,16.563-36.922,36.922v50.895
	c0,20.359,16.563,36.921,36.922,36.921h430.695c20.359,0,36.921-16.563,36.921-36.921v-50.895
	C508.268,403.824,491.705,387.261,471.347,387.261z"/>
<path style="fill:#FF7F28;" d="M255.999,387.261H40.653c-20.359,0-36.922,16.563-36.922,36.922v50.895
	c0,20.359,16.563,36.921,36.922,36.921h215.347V387.261z"/>
<path style="fill:#6AB4F0;" d="M40.653,357.345h85.678c20.359,0,36.922-16.563,36.922-36.921V187.007
	c0-20.359-16.563-36.921-36.922-36.921H40.653c-20.359,0-36.922,16.563-36.922,36.921v133.417
	C3.73,340.782,20.294,357.345,40.653,357.345z"/>
<path style="fill:#9EDFFA;" d="M40.653,357.345h42.839v-207.26H40.653c-20.359,0-36.922,16.563-36.922,36.921v133.417
	C3.73,340.782,20.294,357.345,40.653,357.345z"/>
<path style="fill:#81C642;" d="M471.347,150.085H231.559c-20.359,0-36.922,16.563-36.922,36.921v133.417
	c0,20.359,16.563,36.921,36.922,36.921h239.787c20.359,0,36.921-16.563,36.921-36.921V187.006
	C508.268,166.648,491.705,150.085,471.347,150.085z"/>
<path style="fill:#9EE554;" d="M351.454,150.085H231.559c-20.359,0-36.922,16.563-36.922,36.921v133.417
	c0,20.359,16.563,36.921,36.922,36.921h119.893V150.085H351.454z"/>
<g>
</g>
<g>
</g>
<g>
</g>
<g>
</g>
<g>
</g>
<g>
</g>
<g>
</g>
<g>
</g>
<g>
</g>
<g>
</g>
<g>
</g>
<g>
</g>
<g>
</g>
<g>
</g>
<g>
</g>
</svg>
