<svg xmlns="http://www.w3.org/2000/svg" viewBox="0 0 254.92 218.04"><defs><style>.cls-1{fill:#81d3d1;}.cls-1,.cls-10,.cls-12,.cls-18,.cls-19,.cls-2,.cls-20,.cls-21,.cls-22,.cls-23,.cls-24,.cls-25,.cls-27,.cls-28,.cls-29,.cls-3,.cls-30,.cls-31,.cls-32,.cls-33,.cls-34,.cls-35,.cls-36,.cls-37,.cls-38,.cls-39,.cls-4,.cls-40,.cls-41,.cls-42,.cls-43,.cls-44,.cls-5,.cls-6,.cls-7,.cls-9{fill-rule:evenodd;}.cls-2{fill:#199185;}.cls-3{fill:#37afa6;}.cls-11,.cls-4{fill:#9da9cc;}.cls-14,.cls-5{fill:#d3daed;}.cls-17,.cls-6{fill:#f2f4fa;}.cls-7{fill:#536997;}.cls-10,.cls-8{fill:#8590b1;}.cls-13,.cls-9{fill:#bcc5e0;}.cls-12,.cls-16{fill:#ebf2ff;}.cls-15{fill:#e4e8f5;}.cls-18{fill:#2757b4;}.cls-19{fill:#286ed4;}.cls-20{fill:#1d60c4;}.cls-21{fill:#565d71;}.cls-22{fill:#393b4e;}.cls-23{fill:#b5beda;}.cls-24{fill:#9dadcc;}.cls-25,.cls-26{fill:#53688f;}.cls-27{fill:#eda070;}.cls-28{fill:#fcc39a;}.cls-29{fill:#1fd6ff;}.cls-30{fill:#fff;}.cls-31{fill:#d7e3fa;}.cls-32{fill:#04a3c8;}.cls-33{fill:#3f210a;}.cls-34{fill:#9d9d9c;}.cls-35{fill:#3b1e05;}.cls-36{fill:#283c42;}.cls-37{fill:#f2b387;}.cls-38{fill:#db9669;}.cls-39{fill:#eeecf3;}.cls-40{fill:#384d54;}.cls-41{fill:#4f2b0c;}.cls-42{fill:#982725;}.cls-43{fill:#b41f21;}.cls-44{fill:#ca2c2a;}</style></defs><title>isometrico_dentist_1</title><g id="Layer_2" data-name="Layer 2"><g id="_1" data-name="1"><polygon class="cls-1" points="0 137.95 127.48 211.76 254.92 138.19 127.42 64.39 0 137.95"/><polygon class="cls-2" points="254.92 138.19 127.48 211.76 127.48 218.04 254.9 144.47 254.92 138.19"/><polygon class="cls-3" points="0 137.95 127.48 211.76 127.48 218.04 0.07 144.36 0 137.95"/><path class="cls-3" d="M105.73,96.87c-5.72,0-10.38-2.9-10.38-6.44S100,84,105.73,84s10.37,2.9,10.37,6.45S111.44,96.87,105.73,96.87Z"/><path class="cls-3" d="M94.34,103.45c-5,0-9-2.52-9-5.61s4.05-5.6,9-5.6,9,2.52,9,5.6S99.31,103.45,94.34,103.45Z"/><path class="cls-3" d="M101.29,105.65,83.36,95.28l-17.43,10,6.87,4L54.61,119.7l8.56,4.9,9.68-5.55,1,.58L64,125.3l8.57,4.91,19.1-11-7-4ZM73.9,118.44l7.44-4.27,1,.59L74.92,119Z"/><polygon class="cls-4" points="101.98 12.36 84.26 22.59 84.25 34.43 101.97 24.18 101.98 12.36"/><polygon class="cls-5" points="82.93 21.82 84.26 22.59 84.24 34.43 82.94 33.64 82.93 21.82"/><polygon class="cls-6" points="101.97 12.36 84.26 22.59 82.93 21.82 100.9 11.73 101.97 12.36"/><polygon class="cls-7" points="101.27 13.24 84.96 22.66 84.95 33.55 101.27 24.12 101.27 13.24"/><path class="cls-8" d="M79.24,27.93a.59.59,0,0,1-.3-1.11l4.21-2.41a.59.59,0,1,1,.59,1l-4.21,2.41A.63.63,0,0,1,79.24,27.93Z"/><path class="cls-4" d="M97.08,46.68l-.32-4.92H114.7l-.54,5C114.16,54.2,97.08,54.11,97.08,46.68Z"/><path class="cls-9" d="M95.73,44.51l-.38-5.69H116.1l-.61,5.78C115.49,53.21,95.73,53.11,95.73,44.51Z"/><path class="cls-6" d="M105.73,45.26c-5.72,0-10.38-2.9-10.38-6.44s4.66-6.44,10.38-6.44,10.37,2.89,10.37,6.44S111.44,45.26,105.73,45.26Z"/><path class="cls-9" d="M105.73,44.17c-4.75,0-8.62-2.41-8.62-5.35s3.87-5.35,8.62-5.35,8.61,2.4,8.61,5.35S110.47,44.17,105.73,44.17Z"/><path class="cls-5" d="M97.65,40.68c1.23-2,4.39-3.49,8.08-3.49s6.85,1.46,8.07,3.49c-1.22,2-4.38,3.49-8.07,3.49S98.88,42.71,97.65,40.68Z"/><path class="cls-9" d="M105.73,44c-1.45,0-2.64-.74-2.64-1.64s1.19-1.64,2.64-1.64,2.63.74,2.63,1.64S107.18,44,105.73,44Z"/><path class="cls-10" d="M105.73,43.47c-1,0-1.78-.49-1.78-1.1s.8-1.1,1.78-1.1,1.77.49,1.77,1.1S106.7,43.47,105.73,43.47Z"/><path class="cls-9" d="M94.34,102.05c-3.79,0-6.89-1.93-6.89-4.29V45.36h13.79v52.4C101.24,100.12,98.14,102.05,94.34,102.05Z"/><path class="cls-6" d="M94.34,49.64c-3.79,0-6.89-1.93-6.89-4.28s3.1-4.29,6.89-4.29,6.9,1.93,6.9,4.29S98.14,49.64,94.34,49.64Z"/><polygon class="cls-9" points="66.68 61.74 81.07 70.05 84.01 80.75 84.02 113.86 69.61 105.53 69.61 72.43 66.68 61.74"/><polygon class="cls-4" points="66.68 61.74 81.07 70.06 84.01 80.75 84.01 80.75 69.61 72.44 69.61 72.43 66.68 61.74"/><polygon class="cls-5" points="98.09 60.27 81.07 70.05 84.01 80.71 84.02 113.86 98.08 105.7 98.09 60.27"/><polygon class="cls-6" points="66.68 61.74 81.07 70.05 98.09 60.27 83.78 52.29 66.68 61.74"/><path class="cls-11" d="M102.09,31.23a.59.59,0,0,0,.59.6.6.6,0,0,0,.6-.6,5.07,5.07,0,0,0-.55-2.47,2.55,2.55,0,0,0-.79-.89,2,2,0,0,0-1.11-.34,2.39,2.39,0,0,0-1.21.35,5.81,5.81,0,0,0-2.21,2.65h0a9.44,9.44,0,0,0-.87,3.82v9.46a.59.59,0,0,0,.6.59.58.58,0,0,0,.59-.59V34.35A8.18,8.18,0,0,1,98.48,31h0a4.75,4.75,0,0,1,1.72-2.13,1.41,1.41,0,0,1,.63-.19.82.82,0,0,1,.45.14,1.42,1.42,0,0,1,.41.48A3.93,3.93,0,0,1,102.09,31.23Z"/><rect class="cls-8" x="74.93" y="80.45" width="1.18" height="8.38" transform="translate(-33.92 54.81) rotate(-33.01)"/><rect class="cls-8" x="58.6" y="67.21" width="12.64" height="1.18" transform="translate(-3.04 132.55) rotate(-89.86)"/><polygon class="cls-9" points="54.63 79.58 61.36 83.78 64.45 88.69 54.63 83.01 54.63 79.58"/><polygon class="cls-5" points="81.56 72.12 61.36 83.78 64.45 88.69 84.63 77.01 81.56 72.12"/><polygon class="cls-12" points="54.63 79.58 61.36 83.78 81.56 72.12 74.61 68.03 54.63 79.58"/><path class="cls-13" d="M76.09,60.51c.27,2.06,4.7,2,4.75-.25V4.78A4.69,4.69,0,0,0,80.2,2.4,4.61,4.61,0,0,0,78.46.66l-.18-.1A4.69,4.69,0,0,0,76.09,0V4.76h0Zm0-.25a2,2,0,0,0,0,.25V4.77h0V0h0a4.67,4.67,0,0,0-2.38.66L55,11.52h0v4.74h0a4.66,4.66,0,0,0,2.38-.65L76.07,4.77h0ZM55,11.52Zm0,0h0v0Zm0,4.76h0V11.54h0Zm0-4.76h0V8.08c0-.07,0-.14,0-.21v3.65h0v4.76h0V11.54h0Zm0-3.65a2.39,2.39,0,0,0-4.76.24v3.41a4.66,4.66,0,0,0,.64,2.38h0a4.84,4.84,0,0,0,1.74,1.74h0a4.69,4.69,0,0,0,2.37.64V11.52h0Z"/><path class="cls-14" d="M81.68,64.28c.28,2,4.75,1.93,4.75-.2V43a4.8,4.8,0,0,0-2.38-4.12l-.18-.09a4.72,4.72,0,0,0-2.19-.56V43h0Zm0-.2a1.23,1.23,0,0,0,0,.2V43h0V38.25h0a4.86,4.86,0,0,0-2.38.64L55,52.77h0v4.76a4.69,4.69,0,0,0,2.37-.64L81.65,43h0V64.08ZM55,52.77v0Zm0,0h0V49.25s0-.09,0-.14v3.66h0v4.75h0V52.78Zm0-3.67a2.39,2.39,0,0,0-4.76.25v3.41a4.8,4.8,0,0,0,.64,2.39h0A4.82,4.82,0,0,0,55,57.54V52.79h0Z"/><path class="cls-15" d="M82.28,40.85a1.19,1.19,0,1,0-1.18-2.07L56.88,52.64a1.19,1.19,0,0,0,1.18,2.06Z"/><path class="cls-16" d="M54.36,44.86a2.37,2.37,0,0,0-3.78,2.87l12.19,16a2.37,2.37,0,0,0,3.78-2.86Z"/><polygon class="cls-4" points="54.09 25.08 66.85 32.45 66.86 35.96 54.09 28.59 54.09 25.08"/><polygon class="cls-5" points="73.83 29.74 66.85 32.45 66.86 35.96 72.36 34.6 73.83 29.74"/><polygon class="cls-6" points="54.09 25.09 66.85 32.45 73.83 29.74 59.11 21.43 54.09 25.09"/><path class="cls-8" d="M63.45,28h0a.59.59,0,0,1-.59-.59l0-7a.58.58,0,0,1,.59-.59.59.59,0,0,1,.59.59l0,7A.58.58,0,0,1,63.45,28Z"/><path class="cls-14" d="M53,2.22a2.37,2.37,0,0,0-3.78,2.87l12.18,16a2.37,2.37,0,0,0,3.78-2.87Z"/><path class="cls-14" d="M76.86,2.33A1.19,1.19,0,0,0,75.66.27L57,11.07a1.19,1.19,0,0,0,1.19,2Z"/><path class="cls-17" d="M53.9,45.42A1.19,1.19,0,1,0,52,46.85l12.19,16a1.19,1.19,0,0,0,1.66.23,1.2,1.2,0,0,0,.23-1.67Z"/><path class="cls-17" d="M52.53,2.76a1.17,1.17,0,0,0-1.66-.23,1.19,1.19,0,0,0-.23,1.66l12.19,16a1.17,1.17,0,0,0,1.66.23,1.19,1.19,0,0,0,.23-1.66Z"/><path class="cls-13" d="M81.89,78.39a.28.28,0,0,1-.27-.17c-3.08-7-5.25-12.44-6.84-16.42-2.39-6-3.59-9-4.7-9.39a.83.83,0,0,0-.71.12c-.83.48,0,5.33,5,17.51a.31.31,0,0,1-.16.39.32.32,0,0,1-.39-.17c-6.91-17-5.28-17.94-4.75-18.24a1.37,1.37,0,0,1,1.21-.16c1.36.47,2.44,3.18,5,9.73,1.58,4,3.76,9.4,6.83,16.39a.3.3,0,0,1-.15.39A.25.25,0,0,1,81.89,78.39Z"/><path class="cls-8" d="M81.51,78.22c.32.71,1,.35.68-.36-.83-1.9-1.47-3.87-2.34-5.77a.59.59,0,0,0-.78-.29.6.6,0,0,0-.3.79C79.64,74.48,80.68,76.32,81.51,78.22Z"/><path class="cls-13" d="M77.78,80.76a.29.29,0,0,1-.27-.17c-3.07-7-5.25-12.44-6.83-16.41-2.4-6-3.6-9-4.7-9.4a.85.85,0,0,0-.72.12c-.83.48,0,5.33,5,17.51a.29.29,0,1,1-.54.22c-6.92-17-5.29-17.94-4.75-18.24a1.38,1.38,0,0,1,1.2-.17c1.36.48,2.44,3.19,5.06,9.74,1.58,4,3.75,9.4,6.82,16.39a.29.29,0,0,1-.15.39A.25.25,0,0,1,77.78,80.76Z"/><path class="cls-8" d="M77.41,80.59c.31.71,1,.35.68-.36-.83-1.9-1.48-3.87-2.34-5.77a.6.6,0,0,0-.79-.29.59.59,0,0,0-.29.79C75.53,76.85,76.58,78.69,77.41,80.59Z"/><path class="cls-13" d="M73.68,83.13a.29.29,0,0,1-.27-.17c-3.08-7-5.25-12.45-6.84-16.42-2.39-6-3.59-9-4.69-9.39a.84.84,0,0,0-.72.12c-.83.47.05,5.33,5,17.51a.29.29,0,0,1-.16.38.3.3,0,0,1-.39-.16c-6.91-17-5.28-17.94-4.75-18.24a1.4,1.4,0,0,1,1.21-.17c1.36.48,2.44,3.19,5.05,9.73,1.58,4,3.75,9.41,6.83,16.4a.3.3,0,0,1-.15.39A.25.25,0,0,1,73.68,83.13Z"/><path class="cls-8" d="M73.3,83c.32.71,1,.35.68-.36-.83-1.9-1.47-3.87-2.34-5.77a.59.59,0,0,0-.78-.29.6.6,0,0,0-.3.79C71.43,79.22,72.47,81.06,73.3,83Z"/><path class="cls-13" d="M69.57,85.5a.29.29,0,0,1-.27-.17c-3.07-7-5.25-12.44-6.83-16.42-2.4-6-3.6-9-4.7-9.39a.85.85,0,0,0-.72.12c-.83.47.05,5.33,5,17.51a.29.29,0,1,1-.54.22c-6.92-17-5.29-17.94-4.75-18.24A1.38,1.38,0,0,1,58,59c1.36.48,2.44,3.19,5.06,9.74,1.58,4,3.75,9.4,6.82,16.39a.29.29,0,0,1-.15.39A.25.25,0,0,1,69.57,85.5Z"/><path class="cls-8" d="M69.2,85.33c.31.71,1,.35.68-.36-.83-1.9-1.48-3.87-2.34-5.77a.6.6,0,0,0-.79-.29.59.59,0,0,0-.29.79C67.32,81.59,68.37,83.43,69.2,85.33Z"/><path class="cls-13" d="M65.47,87.87a.29.29,0,0,1-.27-.17c-3.08-7-5.25-12.44-6.84-16.42-2.39-6-3.59-9-4.69-9.39A.84.84,0,0,0,53,62c-.83.47,0,5.32,5,17.51a.29.29,0,0,1-.16.38.3.3,0,0,1-.39-.16c-6.91-17-5.28-17.94-4.75-18.24a1.4,1.4,0,0,1,1.21-.17c1.36.48,2.44,3.19,5,9.74,1.59,4,3.76,9.4,6.83,16.39a.3.3,0,0,1-.15.39Z"/><path class="cls-8" d="M65.1,87.7c.31.71,1,.35.68-.36-.84-1.9-1.48-3.87-2.35-5.77a.59.59,0,0,0-.78-.29.6.6,0,0,0-.3.79C63.22,84,64.26,85.8,65.1,87.7Z"/><path class="cls-9" d="M94.34,58.85c-3.79,0-6.89-1.92-6.89-4.28s3.1-4.28,6.89-4.28,6.9,1.92,6.9,4.28S98.14,58.85,94.34,58.85Z"/><polygon class="cls-12" points="95.79 67.74 85.63 73.54 85.64 106.4 95.79 100.52 95.79 67.74"/><polygon class="cls-5" points="96.07 67.94 85.91 73.74 85.92 106.61 96.07 100.72 96.07 67.94"/><polygon class="cls-5" points="66.6 92.56 76.83 98.47 76.85 99.39 66.61 93.47 66.6 92.56"/><polygon class="cls-9" points="94.94 88.02 76.83 98.47 76.85 99.39 94.93 88.92 94.94 88.02"/><polygon class="cls-12" points="66.61 92.56 76.83 98.47 94.94 88.02 84.79 82.44 66.61 92.56"/><path class="cls-3" d="M151.08,99.11l-3.55-2,3.28-1.93a.71.71,0,0,0,.35-.62.7.7,0,0,0-.36-.62l-5.46-3.15a1.4,1.4,0,0,0-1.45,0l-3.61,2.13-1.13-.65a3.08,3.08,0,0,0-3.17,0l-9.14,5.4a4.17,4.17,0,0,0-1.32.5l-38,22.4a2,2,0,0,0-1,1.79,2,2,0,0,0,1,1.79l15.7,9a4,4,0,0,0,4.12,0l38-22.41a2,2,0,0,0,1-1.79,2,2,0,0,0-1-1.77l-1.68-1,7.41-4.37a1.58,1.58,0,0,0,0-2.72Z"/><polygon class="cls-9" points="131.53 75.02 126.18 84.91 131.53 87.5 136.88 77.62 131.53 75.02"/><polygon class="cls-4" points="137.58 76.33 132.05 86.45 133.25 88.67 138.52 78.94 137.58 76.33"/><polygon class="cls-9" points="146.48 47.19 145.17 47.49 146.97 50.55 142.01 62.38 142.86 63.07 148.3 50.74 146.48 47.19"/><polygon class="cls-9" points="150.09 48.37 148.78 48.66 150.57 51.72 145.61 63.56 146.46 64.25 151.91 51.92 150.09 48.37"/><polygon class="cls-4" points="111.87 94.68 128.23 104.12 128.23 112.18 111.88 102.73 111.87 94.68"/><polygon class="cls-5" points="110.27 95.86 92.54 115.8 104.84 122.98 122.58 103.04 110.27 95.86"/><polygon class="cls-9" points="124.9 100.44 106.62 120.86 109 126.99 126.49 107.36 124.9 100.44"/><path class="cls-4" d="M134.82,95.35l-12.72,5c-1.31.51-.47,1.76.23,3l4.63,8.1,1.41.79,6.44-5.16Z"/><path class="cls-9" d="M136.14,96l-12.72,5c-1.31.51-.47,1.76.23,3l4.72,8.22,7.77-4.49Z"/><polygon class="cls-9" points="106 90.32 122.36 99.76 122.35 101.48 106 92.03 106 90.32"/><polygon class="cls-5" points="137.65 94.48 122.35 99.76 122.35 101.48 137.64 96.18 137.65 94.48"/><polygon class="cls-6" points="106 90.32 122.36 99.76 137.64 94.46 121.37 85.33 106 90.32"/><path class="cls-18" d="M127.15,77c1.44-9.78,1.7-13.65,3.14-16.78.5-1.09,2.53-8.42,5.8-9.63,1-.38,2.6.33,3.22.68l11.14,6.23c2.54,1.41,1.32,13,.78,14.63-.91,2.86-2.68,6-7.76,13.6-1,1.55-4.57,1.89-5.86,1.16l-9-5.76C127.09,80.16,126.9,78.69,127.15,77Z"/><path class="cls-19" d="M124.78,76.43c1.44-9.78,1.7-13.65,3.14-16.77.67-1.47,6.53-10.35,9-9l11.13,6.23c2.54,1.42,1.32,13,.78,14.63-.91,2.86-2.9,6.31-8,13.92-.77,1.15-2.31,2.12-3.6,1.38l-11.06-6.3C124.65,79.67,124.53,78.14,124.78,76.43Z"/><path class="cls-20" d="M127.91,74.51c1.08-7.3,1.27-10.2,2.35-12.53.5-1.09,4.87-7.73,6.74-6.69l8.32,4.65c1.89,1.06,1,9.68.58,10.93-.68,2.14-2.17,4.71-6,10.4-.57.85-1.72,1.58-2.68,1L129,77.59C127.81,76.93,127.72,75.79,127.91,74.51Z"/><path class="cls-18" d="M142.56,49.92c.17-1.13-.44-6.7,2.21-7.68.4-.15.44-.71.68-.57,2.4.18,5.77,1.68,6.81,3.37,1.7,2.79-.92,6.25-2.95,8.41-.53.56-2.36.41-2.86.13a6.12,6.12,0,0,0-3.33-2.07C142.36,51.33,142.47,50.58,142.56,49.92Z"/><path class="cls-19" d="M141.65,49.71c.87-5.87,2-8.41,3.93-8a9,9,0,0,1,5.08,2.77c2,2.46-.73,6-2.82,8.73a1.58,1.58,0,0,1-2.08.06,6,6,0,0,0-3.3-1.88C141.48,51.14,141.56,50.37,141.65,49.71Z"/><path class="cls-4" d="M102.09,109.45c-9.07-5.15-10,2.41-11.79,13L105,131l9-14.72Z"/><path class="cls-9" d="M119.25,119.93c-9.41-8.14-11.51-4.74-14.22,11l14.22-8.22Z"/><path class="cls-18" d="M106.55,111.92l15.57-12.71.26-.08,15.29-5.23a1.32,1.32,0,0,0,.9-1.19h0v-3l-3.13-.7L124,82.78c-1.94-1-3.68-1.81-5.4-1.22l-12.88,4.38-3.44-.78V87.5L87,102l-3.37,1c.18,1.13.16,3,1.3,3.93l11.11,5.87A9.32,9.32,0,0,0,106.55,111.92Z"/><path class="cls-19" d="M122.38,96.35l15.29-5.23a1.34,1.34,0,0,0,.91-1.36,2.29,2.29,0,0,0-.91-1.78L124,80a5.66,5.66,0,0,0-5.4-1.22L103.23,84a1.34,1.34,0,0,0-.91,1.37,2.3,2.3,0,0,0,.92,1.78l13.78,8C118.9,96.25,120.67,96.94,122.38,96.35Z"/><path class="cls-19" d="M106.48,109.14l15.33-12.51c.46-.38.91-.7.91-1.37a2.29,2.29,0,0,0-.91-1.77l-13.63-8a5.69,5.69,0,0,0-5.4-1.22L87.33,96.83c-.91.73-5.69,5.53-2.77,7.66l11.1,5.86C100,112.65,105.11,110.25,106.48,109.14Z"/><path class="cls-20" d="M122.72,93.48l11.08-3.79a1,1,0,0,0,.66-1,1.68,1.68,0,0,0-.66-1.29l-10.58-5.53a4.1,4.1,0,0,0-3.91-.89L108.14,84.8a1,1,0,0,0-.66,1,1.65,1.65,0,0,0,.67,1.29l10.68,5.54C120.24,93.34,121.48,93.91,122.72,93.48Z"/><path class="cls-20" d="M105.75,104.43l10.38-8.38a1.59,1.59,0,0,0,.72-1.24,1.4,1.4,0,0,0-.72-1.24l-8.75-5a4.19,4.19,0,0,0-4.27,0L92.63,97c-.8.65-4.5,5.4-2.19,6.55l6.75,3.81C100.25,109.05,104.54,105.41,105.75,104.43Z"/><path class="cls-4" d="M118.26,123.23c-6.59-5.69-8.4-3.85-10.27,6l10.27-5.93Z"/><path class="cls-9" d="M117.19,123.94c-2.87-2.48-4.79-3.45-6.19-2.89-1.18,1.2-2,3.87-2.75,8Z"/><polygon class="cls-3" points="156.88 117.58 181.23 131.59 199.7 120.92 175.41 106.87 156.88 117.58"/><path class="cls-21" d="M179.93,129.12l2.21-4.07-1.16-.63h0l-.09-.06c-.71-.36-1.75.27-2.34,1.41s-.48,2.34.22,2.71h0Z"/><path class="cls-22" d="M182.34,127.76c.59-1.14.48-2.36-.22-2.72s-1.75.27-2.34,1.41-.48,2.35.23,2.71S181.76,128.9,182.34,127.76Z"/><path class="cls-9" d="M182.09,127.63c.47-.91.38-1.89-.18-2.18s-1.41.22-1.87,1.13-.39,1.89.18,2.18S181.62,128.54,182.09,127.63Z"/><path class="cls-10" d="M181.7,127.42a1.62,1.62,0,0,0,0-1.85c-.5-.14-1.17.3-1.55,1.06a1.62,1.62,0,0,0,0,1.85C180.65,128.61,181.32,128.17,181.7,127.42Z"/><path class="cls-21" d="M194.94,120.43l2.21-4.06-1.15-.64h0l-.09-.06c-.71-.36-1.75.27-2.33,1.41s-.48,2.34.21,2.71h0Z"/><path class="cls-22" d="M197.36,119.07c.58-1.14.48-2.36-.23-2.72s-1.75.27-2.33,1.41-.48,2.35.22,2.72S196.78,120.21,197.36,119.07Z"/><path class="cls-9" d="M197.1,118.94c.47-.91.39-1.89-.18-2.18s-1.4.22-1.87,1.13-.38,1.89.18,2.18S196.64,119.85,197.1,118.94Z"/><path class="cls-10" d="M196.71,118.73a1.61,1.61,0,0,0,0-1.85c-.5-.14-1.16.3-1.55,1.06a1.62,1.62,0,0,0,0,1.85C195.67,119.92,196.33,119.48,196.71,118.73Z"/><path class="cls-21" d="M159.84,117.55l2.22-4.06-1.16-.63h0l-.09,0c-.71-.36-1.76.27-2.34,1.41s-.48,2.33.22,2.7h0Z"/><path class="cls-22" d="M162.26,116.19c.58-1.13.48-2.35-.22-2.71s-1.76.27-2.34,1.41-.48,2.35.23,2.71S161.68,117.33,162.26,116.19Z"/><path class="cls-9" d="M162,116.06c.46-.91.38-1.88-.18-2.17s-1.41.21-1.87,1.13-.39,1.88.18,2.17S161.54,117,162,116.06Z"/><path class="cls-10" d="M161.62,115.86a1.66,1.66,0,0,0,0-1.86c-.5-.13-1.17.31-1.55,1.06a1.6,1.6,0,0,0,0,1.85C160.57,117.05,161.23,116.61,161.62,115.86Z"/><polygon class="cls-9" points="157.88 112.06 181.11 125.42 181.11 126.65 157.91 113.28 157.88 112.06"/><polygon class="cls-5" points="198.71 115.24 181.09 125.43 181.09 126.66 198.71 116.5 198.71 115.24"/><polygon class="cls-12" points="157.87 112.06 181.09 125.42 198.71 115.24 175.54 101.85 157.87 112.06"/><path class="cls-8" d="M181,124.49a.41.41,0,0,1-.41-.41V99.85a.42.42,0,0,1,.83,0v24.23A.41.41,0,0,1,181,124.49Z"/><path class="cls-8" d="M197.11,115.2a.41.41,0,0,1-.41-.41V91a.41.41,0,0,1,.82,0v23.84A.41.41,0,0,1,197.11,115.2Z"/><path class="cls-8" d="M159.86,112.3a.42.42,0,0,1-.42-.41V87.16a.42.42,0,0,1,.42-.41.41.41,0,0,1,.41.41v24.73A.41.41,0,0,1,159.86,112.3Z"/><path class="cls-8" d="M175.93,103a.42.42,0,0,1-.41-.42V78.51a.42.42,0,0,1,.83,0v24.08A.42.42,0,0,1,175.93,103Z"/><polygon class="cls-9" points="157.88 87.83 181.11 101.2 181.11 102.43 157.91 89.05 157.88 87.83"/><polygon class="cls-5" points="198.71 91.02 181.09 101.2 181.09 102.44 198.71 92.27 198.71 91.02"/><polygon class="cls-12" points="157.87 87.83 181.09 101.2 198.71 91.01 175.54 77.62 157.87 87.83"/><path class="cls-3" d="M153.19,122.1c6.41,0,11.61,2.75,11.61,6.15s-5.2,6.16-11.61,6.16-11.61-2.76-11.61-6.16S146.78,122.1,153.19,122.1Z"/><path class="cls-21" d="M160.54,125.45l2.21-4.06-1.16-.63h0l-.09-.06c-.71-.36-1.75.27-2.33,1.41s-.49,2.34.21,2.71h0Z"/><path class="cls-22" d="M163,124.09c.59-1.14.48-2.35-.22-2.72s-1.75.27-2.33,1.41-.49,2.36.22,2.72S162.37,125.23,163,124.09Z"/><path class="cls-9" d="M162.7,124c.47-.91.39-1.89-.18-2.18s-1.41.22-1.87,1.13-.39,1.89.18,2.18S162.23,124.87,162.7,124Z"/><path class="cls-10" d="M162.31,123.75a1.61,1.61,0,0,0,0-1.85c-.5-.14-1.16.31-1.55,1.06a1.64,1.64,0,0,0,0,1.85C161.26,125,161.93,124.5,162.31,123.75Z"/><path class="cls-21" d="M145.14,134.42l2.21-4.07-1.15-.63h0l-.09-.05c-.71-.36-1.75.27-2.33,1.41s-.48,2.33.21,2.7h0Z"/><path class="cls-22" d="M147.56,133.06c.58-1.14.48-2.36-.23-2.72s-1.75.27-2.33,1.41-.48,2.35.22,2.71S147,134.19,147.56,133.06Z"/><path class="cls-9" d="M147.3,132.93c.47-.92.39-1.89-.18-2.18s-1.4.21-1.87,1.13-.38,1.88.18,2.17S146.84,133.84,147.3,132.93Z"/><path class="cls-10" d="M146.91,132.72a1.6,1.6,0,0,0,0-1.85c-.5-.14-1.16.3-1.55,1a1.62,1.62,0,0,0,0,1.85C145.87,133.91,146.53,133.47,146.91,132.72Z"/><polygon class="cls-12" points="161.77 118.69 152.74 122.39 144.51 128.67 144.51 130.58 144.82 130.76 144.82 128.85 154.69 123.47 162.07 118.87 161.77 118.69"/><polygon class="cls-9" points="162.07 118.87 154.69 123.47 144.82 128.85 144.82 130.76 154.71 125.55 162.07 120.78 162.07 118.87"/><path class="cls-21" d="M146.19,125.45,144,121.39l1.16-.63h0l.09-.06c.71-.36,1.76.27,2.34,1.41s.48,2.34-.22,2.71h0Z"/><path class="cls-22" d="M143.77,124.09c-.58-1.14-.48-2.35.23-2.72s1.75.27,2.33,1.41.48,2.36-.23,2.72S144.35,125.23,143.77,124.09Z"/><path class="cls-9" d="M144,124c-.46-.91-.38-1.89.18-2.18s1.41.22,1.87,1.13.39,1.89-.18,2.18S144.49,124.87,144,124Z"/><path class="cls-10" d="M144.41,123.75a1.64,1.64,0,0,1,0-1.85c.5-.14,1.17.31,1.55,1.06a1.61,1.61,0,0,1,0,1.85C145.46,125,144.8,124.5,144.41,123.75Z"/><path class="cls-21" d="M161.58,134.42l-2.21-4.07,1.16-.63h0l.09-.05c.71-.36,1.75.27,2.33,1.41s.49,2.33-.21,2.7h0Z"/><path class="cls-22" d="M159.17,133.06c-.59-1.14-.48-2.36.22-2.72s1.75.27,2.34,1.41.48,2.35-.23,2.71S159.75,134.19,159.17,133.06Z"/><path class="cls-9" d="M159.42,132.93c-.47-.92-.39-1.89.18-2.18s1.41.21,1.87,1.13.39,1.88-.18,2.17S159.89,133.84,159.42,132.93Z"/><path class="cls-10" d="M159.81,132.72a1.6,1.6,0,0,1,0-1.85c.5-.14,1.17.3,1.55,1a1.64,1.64,0,0,1,0,1.85C160.86,133.91,160.19,133.47,159.81,132.72Z"/><polygon class="cls-12" points="144.96 118.69 153.99 122.39 162.21 128.67 162.21 130.58 161.91 130.76 161.91 128.85 153.36 124.2 152.03 124.03 151.28 123.51 151.64 123.23 144.65 118.87 144.96 118.69"/><path class="cls-4" d="M144.65,118.87l7,4.36-1.47,1.12-5.52-3.57v-1.91Zm8.71,5.33,8.55,4.65v1.91l-8.55-4.5Z"/><path class="cls-10" d="M153.36,103.27h0a1.07,1.07,0,0,0-1,1.11v18.34c0,.93,2,.91,2,0V104.38A1.07,1.07,0,0,0,153.36,103.27Z"/><path class="cls-18" d="M141.35,105.45v-4.07h24l0,4.18C165.38,115.51,141.35,115.4,141.35,105.45Z"/><path class="cls-19" d="M153.34,108.82c-6.61,0-12-3.34-12-7.44s5.38-7.45,12-7.45,12,3.34,12,7.45S159.94,108.82,153.34,108.82Z"/><path class="cls-20" d="M153.34,107.1c-5.08,0-9.22-2.57-9.22-5.72s4.14-5.73,9.22-5.73,9.21,2.57,9.21,5.73S158.41,107.1,153.34,107.1Z"/><polygon class="cls-3" points="199.65 136.89 221.15 149.26 240.12 138.47 218.6 126.37 199.65 136.89"/><path class="cls-21" d="M222,146.15l2.28-4.17-1.19-.65h0l-.1-.06c-.72-.37-1.8.28-2.39,1.45s-.5,2.4.22,2.78h0Z"/><path class="cls-22" d="M224.52,144.76c.6-1.17.49-2.42-.23-2.79s-1.8.28-2.4,1.44-.49,2.42.23,2.79S223.92,145.93,224.52,144.76Z"/><path class="cls-23" d="M224.26,144.62c.48-.93.39-1.93-.19-2.23s-1.44.22-1.92,1.16-.4,1.93.19,2.23S223.78,145.56,224.26,144.62Z"/><path class="cls-10" d="M223.86,144.41a1.67,1.67,0,0,0,0-1.9c-.51-.14-1.19.31-1.59,1.08a1.68,1.68,0,0,0,0,1.91C222.78,145.64,223.46,145.18,223.86,144.41Z"/><path class="cls-21" d="M235.57,138.57l2.27-4.17-1.19-.64h0l-.09-.06c-.73-.37-1.8.28-2.4,1.45s-.49,2.4.22,2.78h0Z"/><path class="cls-22" d="M238.05,137.18c.6-1.17.49-2.42-.23-2.79s-1.8.28-2.4,1.44-.49,2.42.24,2.79S237.45,138.35,238.05,137.18Z"/><path class="cls-23" d="M237.79,137c.48-.93.4-1.93-.19-2.23s-1.44.22-1.92,1.16-.39,1.94.19,2.23S237.31,138,237.79,137Z"/><path class="cls-10" d="M237.39,136.83a1.67,1.67,0,0,0,0-1.9c-.51-.14-1.2.31-1.59,1.09a1.65,1.65,0,0,0,0,1.9C236.31,138.06,237,137.6,237.39,136.83Z"/><path class="cls-21" d="M205.34,136.47l2.28-4.18-1.19-.64h0l-.09-.06c-.73-.37-1.8.28-2.4,1.45s-.49,2.4.22,2.78h0Z"/><path class="cls-22" d="M207.82,135.07c.6-1.17.5-2.42-.23-2.79s-1.8.28-2.39,1.45-.5,2.41.23,2.78S207.23,136.24,207.82,135.07Z"/><path class="cls-23" d="M207.56,134.94c.48-.94.4-1.94-.18-2.24s-1.44.22-1.92,1.16-.4,1.94.18,2.23S207.09,135.87,207.56,134.94Z"/><path class="cls-10" d="M207.16,134.72a1.65,1.65,0,0,0,0-1.9c-.51-.14-1.19.32-1.59,1.09a1.67,1.67,0,0,0,0,1.9C206.09,136,206.77,135.49,207.16,134.72Z"/><polygon class="cls-6" points="202.55 55.01 220.16 65.14 220.16 143.7 219.61 144 202.58 134.06 202.55 55.01"/><polygon class="cls-5" points="238.24 54.84 220.15 65.14 220.15 143.72 238.24 133.42 238.24 54.84"/><polygon class="cls-6" points="202.54 55.01 220.15 65.14 238.24 54.84 220.61 44.95 202.54 55.01"/><polygon class="cls-9" points="202.57 55.74 202.56 134.16 219.61 144 219.61 65.58 202.57 55.74"/><polygon class="cls-24" points="204.47 61.76 204.47 130.34 217.71 137.99 217.71 69.39 204.47 61.76"/><polygon class="cls-25" points="205.08 62.11 205.08 129.97 217.71 137.26 217.71 69.39 205.08 62.11"/><polygon class="cls-5" points="205.08 121.99 217.71 128.97 217.71 115.57 214.66 113.81 205.08 118.81 205.08 121.99"/><polygon class="cls-24" points="205.08 121.04 217.71 128.02 217.71 111.31 205.08 118.69 205.08 121.04"/><path class="cls-26" d="M203.48,105.7c-.63,0-1.14-.48-1.42-1.34-.56-1.75-.14-4.63,1.22-5.59a.29.29,0,0,1,.41.08.28.28,0,0,1-.07.41c-1.11.78-1.48,3.4-1,4.92.13.42.39.93.85.93h0a.29.29,0,0,1,.29.29A.29.29,0,0,1,203.48,105.7Z"/><polygon class="cls-5" points="205.08 106.69 217.71 113.67 217.71 100.27 214.66 98.51 205.08 103.52 205.08 106.69"/><polygon class="cls-24" points="205.08 105.74 217.71 112.72 217.71 96.02 205.08 103.39 205.08 105.74"/><polygon class="cls-5" points="205.08 91.39 217.71 98.38 217.71 84.97 214.66 83.22 205.08 88.22 205.08 91.39"/><polygon class="cls-24" points="205.08 90.44 217.71 97.43 217.71 80.72 205.08 88.09 205.08 90.44"/><polygon class="cls-5" points="205.08 76.1 217.71 83.08 217.71 69.68 214.66 67.92 205.08 72.92 205.08 76.1"/><polygon class="cls-24" points="205.08 75.15 217.71 82.13 217.71 69.39 214.29 67.42 205.08 72.8 205.08 75.15"/><path class="cls-3" d="M92.9,159.37c-10.65,0-19.28,4.57-19.28,10.21S82.25,179.8,92.9,179.8s19.27-4.57,19.27-10.22S103.54,159.37,92.9,159.37Z"/><path class="cls-27" d="M99.79,116c.85,3.79,1.9,12.32-.14,25.76-.26,1.7-3.39,1.19-5.4-.66-.26-2.44-4.07-18.54-2.26-19.72S97.58,111.79,99.79,116Z"/><path class="cls-28" d="M97.81,121.2s-.58,4.88-3.66,6.91c-.15,7.72-3.54,16.6-4.31,19.64-.72,1.56-4.23,2.47-5.4-.18,2.78-9.08-6-19.89,1.29-29.78C87.62,116.73,96.48,116.64,97.81,121.2Z"/><path class="cls-29" d="M82.9,169.74c-.12.81,2.1,1.66,2.77,2.22,2.15,1.78,5.6,3.1,7.61,1.37.22-.2.22-.63-.32-1.15C91,171.79,84,164.91,82.9,169.74Z"/><path class="cls-30" d="M83.71,165.74c-.1,1.16-1,2.35-.58,3.51.34.87,1.46,1,2.47,1.73s1.39,1.19,1.81,1.49c.66.47,4.33,2,5.88.34.66-.72-2.72-2.26-3.44-2.88-1.81-1.56-3-2.92-2.8-3.71C86.15,163.83,83.72,165.62,83.71,165.74Z"/><path class="cls-28" d="M84.44,147.56a19.31,19.31,0,0,0-1.55,6.08c-.11,3.27.8,8.51.82,12.55.16,1.83,2.94,1.46,3.14.22.33-3.7,2.43-14.93,3.26-19.62,0-.58-.54-.65-1.09-.83C86.2,145.93,86,144.94,84.44,147.56Z"/><path class="cls-29" d="M93.53,162.47c-.12.81,2.33,1.62,3,2.18,2.26,1.91,5.37,3.14,7.38,1.41.23-.2.22-.63-.32-1.15C101.62,164.52,94.64,157.64,93.53,162.47Z"/><path class="cls-30" d="M94.53,158.91c0,.89-1.2,2.22-.77,3.07s2.15,1.31,3.16,2a14.68,14.68,0,0,1,1.48,1.4c.67.48,4,1.83,5.52.13.66-.72-2.69-2.3-3.44-2.88-2.09-1.63-3.34-2.52-3.13-3.59C96.45,156.68,94.55,158.78,94.53,158.91Z"/><path class="cls-27" d="M94,139.58a6.28,6.28,0,0,1,0,3.19c-2.19,7,.45,11,.41,16.59,0,1.64,3,1.52,3,0a147.85,147.85,0,0,1,2.32-17.63Z"/><path class="cls-31" d="M93.42,103.9c2.44-1.07,10.28-.88,13.49-2,2-.66.81,3-.16,3.61A27.94,27.94,0,0,1,96.26,108C91.3,109.34,89.61,105.56,93.42,103.9Z"/><path class="cls-31" d="M96.09,94.56a48.84,48.84,0,0,0,2.06,8.28c0,3.31-3.44,2.4-3.82,1.94a18.17,18.17,0,0,1-3.42-13c-.46-3.88,1.63-3.37,3.37-3.48C96.39,89.07,95.62,90.68,96.09,94.56Z"/><path class="cls-30" d="M82.21,95.74A13.46,13.46,0,0,1,88,90.21a14.54,14.54,0,0,1,6.49-.73c1.17.43,3.18,8.12,4.66,9.69a6,6,0,0,1-.92,4.74c-1.41,1.75-1.08,5.44.64,8.93,1,2.9,1.58,23.61,1.39,24.76-2.86,5.61-10.09,11.46-17.21,6.75.44-5.67-1.46-17.76.27-23.7,1.13-3.89,2.36-8.44,2-12.85C84.65,104.73,81.69,97.37,82.21,95.74Z"/><path class="cls-12" d="M89.77,89.7a15.76,15.76,0,0,1,4.68-.22c1.17.43,3.77,8.23,4.66,9.69a5.25,5.25,0,0,1-.92,4.74c-1.41,1.75-.61,5.87.64,8.93,3.83,9.34,1.64,23.2,1.39,24.76a18.28,18.28,0,0,1-5.2,6.11c.94-10.53-.07-20.08.82-25,.5-2.72-.59-6.07-.86-7.08-1-5.42,3.17-8.8-1-13Z"/><path class="cls-28" d="M87.79,83.35s-.68-1.81-1.34-.95.61,4.55,1.13,3.85A3.53,3.53,0,0,0,87.79,83.35Z"/><path class="cls-29" d="M86.19,91.71c-.17,1.59.64,2.62,1.37,3.74l1.52-.88-.32,1.21L95,100l-.75-7.13-1.36-.48L94,91.75a4.74,4.74,0,0,0-2.85-2.43C88.49,88.5,86.38,90,86.19,91.71Z"/><path class="cls-28" d="M92.17,90.43C93.5,92.57,94.38,96.74,95,100a49.18,49.18,0,0,1-7.25-7.68C89.44,92.1,90.45,90.64,92.17,90.43Z"/><path class="cls-27" d="M92.45,87.92a17.07,17.07,0,0,1-.28,5.29c-1.25,1.53-5.64-.1-4.81-3.08.51-1.77-.08-4.24.27-4.59C88.75,84.39,91.47,86.29,92.45,87.92Z"/><path class="cls-28" d="M90.88,75.39c2.37.21,4.88,1.49,5.26,5.85.11,1.28-.54,1.45-.12,3.66.22,1.18-.81,2.58-1.19,3.7-.22.66-.21.85-1,1a4.81,4.81,0,0,1-2-.22,8.09,8.09,0,0,1-3.45-1.55c-1-1-1.13-2.39-1.41-3.63C84.84,78.51,86.37,75.09,90.88,75.39Z"/><path class="cls-29" d="M108.25,105.27a5.52,5.52,0,0,1-1.5.29,2.43,2.43,0,0,1,0-3.6c.42,0,.83-.26,1.23-.3C108.59,101.87,109.54,103.39,108.25,105.27Z"/><path class="cls-32" d="M108.25,105.27c-2-.33-1.18-3.53-.31-3.61C108.59,101.87,109.54,103.39,108.25,105.27Z"/><path class="cls-27" d="M107.63,102.06a6.63,6.63,0,0,1,1.38-.81,10.21,10.21,0,0,1,3.28-.13c.44,0,0,2.54-.39,2.85-1,0-2.67.53-3.07.42-.6-.17-.7-.39-1-.28S106.73,102.64,107.63,102.06Z"/><path class="cls-27" d="M112.11,103.32l1.68.39c.42.1.25.54-.19.48l-1.67-.22C111.51,103.91,111.66,103.22,112.11,103.32Z"/><path class="cls-27" d="M111.75,102.94h0a.4.4,0,0,1,.46-.29l2,.32c.51.08.4.61-.11.56l-2-.17A.37.37,0,0,1,111.75,102.94Z"/><path class="cls-27" d="M111.81,102.26h0a.41.41,0,0,1,.49-.29l2.19.46c.55.12.44.69-.12.6l-2.2-.35A.4.4,0,0,1,111.81,102.26Z"/><path class="cls-27" d="M112.36,101.11l2,.43c.51.11.39.68-.12.6l-2-.32A.36.36,0,1,1,112.36,101.11Z"/><path class="cls-28" d="M108,102.08a1.82,1.82,0,0,1,.84-1.12c.48-.33.69-.5.9-.62A5.22,5.22,0,0,1,111,99.9c.1.63-.5,1.07-1.1,1.27C109.73,102.78,108,102.75,108,102.08Z"/><path class="cls-27" d="M93.13,122.28a1.87,1.87,0,0,1,1.4.49c.48.38,1,.88,1.14,1,.48.45.35.49.82.94-.24.29-.65.58-1.43-.29-.23-.1-.39,0-.9-.69C92.48,124.09,92.44,122.41,93.13,122.28Z"/><path class="cls-28" d="M93,121.85c.54.4,1,.46,1.33.87a12.18,12.18,0,0,1,1.23,3.42c.14.44-2.74.85-3.17.59a7.36,7.36,0,0,1-1.35-2.94,4.81,4.81,0,0,0,0-1.1C91,122.54,91,120.41,93,121.85Z"/><path class="cls-28" d="M93.11,126.77l.09,1.82c0,.46-.51.44-.58,0l-.28-1.76C92.27,126.37,93.08,126.29,93.11,126.77Z"/><path class="cls-28" d="M93.41,126.28h0a.41.41,0,0,1,.46.36l.28,2.13c.08.54-.54.61-.65.08l-.45-2.1A.41.41,0,0,1,93.41,126.28Z"/><path class="cls-28" d="M94.18,126.11h0a.43.43,0,0,1,.47.39l.18,2.36c0,.59-.61.67-.69.08l-.31-2.33A.44.44,0,0,1,94.18,126.11Z"/><path class="cls-28" d="M95.61,126.26l.16,2.16c0,.55-.63.62-.7.08l-.28-2.13A.41.41,0,0,1,95.61,126.26Z"/><path class="cls-12" d="M83.47,111.9c2.28,1.38,6.69,7.1,9,9,.78,1.31-1.7,3.06-2.61,2.59-1.6-.85-4.88-3.75-8.51-6.81C77.42,113.43,79.91,109.74,83.47,111.9Z"/><path class="cls-29" d="M89.7,123.49l1,1a2.44,2.44,0,0,0,2.56-2.53l-.78-1v0a2.49,2.49,0,0,1-2.61,2.59Z"/><path class="cls-12" d="M85.31,108.74c2-3.83,2.7-8.07.5-12.38a2.4,2.4,0,0,0-3.54-.73l-.06.11c-.52,1.63,2.44,9,3,12.06C85.28,108.11,85.3,108.43,85.31,108.74Z"/><path class="cls-30" d="M80.7,98.3a67.92,67.92,0,0,0-1.43,13.11c-.66,5,4.31,2.66,4.67.13.59-4.11,5.15-14.2,1.84-16.31C84.3,94.29,81.59,95,80.7,98.3Z"/><path class="cls-30" d="M96,84.26c.23.72.27,4.39-1.46,5.37-1.25.72-6.83-1.23-7.22-3,1.36.19,1.93-1.15,1-2.26C91.49,85.84,95.68,85.93,96,84.26Z"/><path class="cls-33" d="M89.38,74.71a5.33,5.33,0,0,0-4.67,2.81c-1.07,2.11-1.37,6-.38,7.72.62,1.1,2,2,4.4,2.27-2.66-3.71,1.24-2.86,1.34-6.2.06-2.25,4.3-3.73,5.64-2.22C95.48,76.55,92,74.56,89.38,74.71Z"/><path class="cls-32" d="M96.21,80.3c-2.64,3-10.12,3.65-12.37,1.3-.16-2.58.23-2.38.07-5,.91-3.19,7.89-4.14,10.85-1.54C95.57,77.45,95.92,77.63,96.21,80.3Z"/><path class="cls-29" d="M94.27,75.18c.45.65-1.54,1.94-4.09,2.36s-5.81,0-5.68-.86C85,73.52,92.71,72.94,94.27,75.18Z"/><path class="cls-3" d="M131.71,173.77c-12.54,0-22.7,5.39-22.7,12s10.16,12,22.7,12,22.71-5.39,22.71-12S144.25,173.77,131.71,173.77Z"/><path class="cls-34" d="M132.61,181.08c-1.23.87-.48,3.49.82,3.93,3,1,5.19,2.25,7.14,2.88.69.22,2.34.43,3-.85.17-.5-.92-2.32-.92-2.32C139.21,185.1,134.15,180.23,132.61,181.08Z"/><path class="cls-35" d="M136.71,181.29c-1.57.08-2.81-.68-3.31-.6a1.42,1.42,0,0,0-1.09,1.11,2.45,2.45,0,0,0,1.33,2.58c1,.5,2.17.27,3.88,1,.95.38,3.25,1.73,4.12,1.74a1.64,1.64,0,0,0,1.7-1.2A4.89,4.89,0,0,0,136.71,181.29Z"/><path class="cls-36" d="M143.09,184.26c-2.23,2.09-6,.73-7.33-2.25,0-4.73-1.64-13.31-3.27-19.4-1-3.75,5.69-5.44,7.78-.58C142.86,167.44,142.83,182.06,143.09,184.26Z"/><path class="cls-37" d="M126.93,91.93a18.8,18.8,0,0,0-1,2.34,1.58,1.58,0,0,0,0,1.26c.29.8.49,1-.13,1.57s0,2.62.24,3.55c.17.74.24,1.6.87,2.07,1.58,1.18,3.45.63,5.13.13s5.09-4.45,5.67-5.78c.52-2.76-.07-5.2-4.61-7.15C131.16,89.08,127.77,90,126.93,91.93Z"/><path class="cls-38" d="M128.53,99.79s-.61,4.78.74,8.17c.19.43,7.9-1.32,7.74-2.51a12.84,12.84,0,0,1-1-7.32C136.19,96.94,128.9,96.37,128.53,99.79Z"/><path class="cls-39" d="M134.48,102.68c-2.61.57-7.47,4-7.16,5.48s3.86.75,6.48.18,4.47-2.26,4.16-3.77S137.09,102.11,134.48,102.68Z"/><path class="cls-34" d="M120.56,184.5c-1.31.93-.51,3.7.87,4.16,3.12,1.06,5.48,2.37,7.54,3,.74.24,2.48.46,3.21-.9.18-.52-1-2.45-1-2.45C127.54,188.75,122.19,183.61,120.56,184.5Z"/><path class="cls-35" d="M124.84,184.73c-1.67.08-3-.73-3.53-.65a1.52,1.52,0,0,0-1.15,1.19,2.6,2.6,0,0,0,1.41,2.75c1.08.54,2.31.29,4.14,1,1,.41,3.47,1.84,4.39,1.85a1.73,1.73,0,0,0,1.81-1.28A5.22,5.22,0,0,0,124.84,184.73Z"/><path class="cls-40" d="M131.94,188.38c-2.45,1.83-6,.06-7-3,.47-4.71-.16-13.41-1.11-19.64-.53-3.84,6.25-4.79,7.79.28C132.55,170.71,131.92,186.17,131.94,188.38Z"/><path class="cls-41" d="M127.6,96c.1.35.31.61-.32,1.58s-.44,1.39.95,1.15c.34-.19.25-1.54.41-1.63.8-.5,1.48,1.59,2.24,3.2,1.19,2.52,4.85,1.7,5.1,1.53,1.77-2.09,3-6.62,1.4-8.57,0-1.44-2.67-6-11.19-2.87C123.78,93.1,127,94.06,127.6,96Z"/><path class="cls-37" d="M130.18,98.34c-.19,1-1,2.33-1.37,2.22-1-.44-.49-1.12-.3-2.1s0-1.6.39-1.66A1.18,1.18,0,0,1,130.18,98.34Z"/><path class="cls-42" d="M149.71,121.36c.13,4.09-5.21,4.67-6.94,1.61-1.83-3.25-2.62-6.77-4.7-10-3.85-6.07-2.75-8-.87-9,3.37-1.86,6-.61,7.62,2.34C148,111.94,149.71,121.36,149.71,121.36Z"/><path class="cls-42" d="M149.58,123.2c-1.14,3.62-5.87,13.59-7.17,14.94-1,.48-3,.24-3.31-1A109.24,109.24,0,0,0,142.78,123C143.37,119.55,150.92,118.92,149.58,123.2Z"/><path class="cls-36" d="M132.71,163.4a22.83,22.83,0,0,1-.81-3.65c-2.45-12.6-2.75-17.87-1.21-25.69,2.68-.88,8.75,1.8,11.26-.55,3.44,3.68,1.94,9.05-.09,12.88.09,8.14-1.51,8-1.59,15.64C139.1,163.81,134.91,165.44,132.71,163.4Z"/><path class="cls-40" d="M123.92,166.5a23.09,23.09,0,0,1-.41-3.71c-1-12.8-.33-19.77,2.06-27.38,2.76-.58,10.47,1.76,13.23-.3,3,4,2.08,8.28-1.65,12.38-1.27,6.93-5.2,10.5-5.57,18.49C130.22,167.62,125.88,168.77,123.92,166.5Z"/><path class="cls-43" d="M123.75,117c.32,6.49-.93,21,.58,22.15,1.61,7.52,17.64-2.71,18.83-4.74.72-.56.69-6.31.79-6.94.67-4.2,2.78-9.47,2.41-13.33-.4-4.18-2.61-9.72-7.44-10.92-2.53-.13-5.85.4-12.6,4.88C122.53,110.62,123.52,112.37,123.75,117Z"/><path class="cls-27" d="M113.52,141.14c.54-.4-1.22-2.44-2.06-1.85-1.18,1.35-2.19,1-2.8,1.59a14.24,14.24,0,0,0-2.09,3.69c-.26.48,3,1.54,3.51,1.32a8.5,8.5,0,0,0,2.15-3.1C112.48,141.58,112.31,142.05,113.52,141.14Z"/><path class="cls-27" d="M109.28,145.8l-.48,2.07c-.12.53.5.61.68.1l.68-2C110.33,145.51,109.4,145.25,109.28,145.8Z"/><path class="cls-27" d="M109,145.18h0a.49.49,0,0,0-.61.31l-.75,2.4c-.19.6.5.81.74.22l.93-2.33A.46.46,0,0,0,109,145.18Z"/><path class="cls-27" d="M108.17,144.82h0a.51.51,0,0,0-.62.36l-.68,2.67c-.17.67.57.9.78.24l.82-2.62A.5.5,0,0,0,108.17,144.82Z"/><path class="cls-27" d="M106.5,144.71l-.62,2.45c-.16.62.6.84.79.23l.75-2.39A.48.48,0,0,0,106.5,144.71Z"/><path class="cls-27" d="M110.15,140.63a2.14,2.14,0,0,0-1.7.28c-.63.34-1.28.82-1.53,1-.64.42-.5.49-1.13.91.21.38.64.8,1.7,0,.29-.06.45.1,1.18-.61C110.54,142.84,110.92,140.92,110.15,140.63Z"/><path class="cls-44" d="M127.09,132.66c-2.85,2.51-12.07,8.57-13.88,9.05-1.07-.09-2.67-1.34-2.32-2.55a108.44,108.44,0,0,0,10.51-10.22C123.68,126.32,130.46,129.71,127.09,132.66Z"/><path class="cls-44" d="M128.16,131.16c-2,3.56-6.87,1.29-6.76-2.23.12-3.73,1.27-7.14,1.19-11-.14-7.18,1.78-8.23,3.93-8.14,3.85.16,5.42,2.58,5.29,6C131.58,122.22,128.16,131.16,128.16,131.16Z"/><path class="cls-42" d="M124.33,139.16c5.09,3,11.76-.29,18.83-4.74a1.31,1.31,0,0,0,0,.63c0,1.38-3.92,4.74-8.69,6.31S122.9,142.59,124.33,139.16Z"/></g></g></svg>