<svg xmlns="http://www.w3.org/2000/svg" viewBox="0 0 254.92 200.72"><defs><style>.cls-1{fill:#57b273;}.cls-1,.cls-10,.cls-11,.cls-12,.cls-14,.cls-15,.cls-16,.cls-17,.cls-18,.cls-19,.cls-2,.cls-20,.cls-21,.cls-22,.cls-23,.cls-25,.cls-28,.cls-29,.cls-3,.cls-30,.cls-31,.cls-32,.cls-34,.cls-35,.cls-36,.cls-37,.cls-38,.cls-39,.cls-4,.cls-41,.cls-42,.cls-43,.cls-44,.cls-45,.cls-5,.cls-6,.cls-7,.cls-8,.cls-9{fill-rule:evenodd;}.cls-2{fill:#1d7734;}.cls-3{fill:#379953;}.cls-4{fill:#565d71;}.cls-5{fill:#393b4e;}.cls-6{fill:#b5beda;}.cls-26,.cls-7{fill:#8590b1;}.cls-8{fill:#f2f4fa;}.cls-27,.cls-9{fill:#d3daed;}.cls-10,.cls-24{fill:#bcc5e0;}.cls-11{fill:#9dadcc;}.cls-12,.cls-13{fill:#53688f;}.cls-14{fill:#eda070;}.cls-15{fill:#fcc39a;}.cls-16{fill:#1fd6ff;}.cls-17{fill:#fff;}.cls-18{fill:#d7e3fa;}.cls-19{fill:#ebf2ff;}.cls-20{fill:#04a3c8;}.cls-21{fill:#3f210a;}.cls-22{fill:#333;}.cls-23{fill:#9da9cc;}.cls-25{fill:#536997;}.cls-28,.cls-40{fill:#dadae4;}.cls-29{fill:#9d9d9c;}.cls-30{fill:#3c3c3b;}.cls-31{fill:#323c3e;}.cls-32{fill:#c6c6c6;}.cls-33{fill:#1d1d1b;}.cls-34{fill:#7f7f7f;}.cls-35{fill:#eeecf3;}.cls-36{fill:#475053;}.cls-37{fill:#0e47a1;}.cls-38{fill:#e6dadc;}.cls-39{fill:#0d3c87;}.cls-41{fill:#eaeef3;}.cls-42{fill:#9d3ebd;}.cls-43{fill:#57367a;}.cls-44{fill:#40235e;}.cls-45{fill:#331a06;}</style></defs><title>isometrico_dentist_4</title><g id="Layer_2" data-name="Layer 2"><g id="_1" data-name="1"><polygon class="cls-1" points="0 120.64 127.48 194.45 254.92 120.88 127.42 47.07 0 120.64"/><polygon class="cls-2" points="254.92 120.88 127.48 194.45 127.48 200.72 254.9 127.16 254.92 120.88"/><polygon class="cls-3" points="0 120.64 127.48 194.45 127.48 200.72 0.07 127.05 0 120.64"/><polygon class="cls-3" points="106.11 91.95 76.03 109.17 57.06 98.39 87.15 81.42 106.11 91.95"/><path class="cls-4" d="M73.88,106.49l-2.28-4.17,1.19-.64h0l.1-.06c.72-.37,1.8.28,2.39,1.45s.5,2.4-.22,2.78h0Z"/><path class="cls-5" d="M71.39,105.1c-.59-1.17-.49-2.42.24-2.79s1.79.28,2.39,1.44.49,2.42-.23,2.79S72,106.27,71.39,105.1Z"/><path class="cls-6" d="M71.65,105c-.48-.93-.39-1.93.19-2.23s1.44.22,1.92,1.16.4,1.94-.19,2.23S72.13,105.9,71.65,105Z"/><path class="cls-7" d="M72.05,104.75a1.67,1.67,0,0,1,0-1.9c.51-.14,1.19.31,1.59,1.09a1.67,1.67,0,0,1,0,1.9C73.13,106,72.45,105.52,72.05,104.75Z"/><path class="cls-4" d="M60.34,98.92l-2.27-4.18,1.19-.64h0l.09-.06c.73-.37,1.8.28,2.4,1.45s.49,2.4-.22,2.78h0Z"/><path class="cls-5" d="M57.86,97.52c-.6-1.17-.49-2.42.23-2.79s1.8.28,2.4,1.45S61,98.59,60.26,99,58.46,98.69,57.86,97.52Z"/><path class="cls-6" d="M58.12,97.39c-.48-.94-.39-1.94.19-2.24s1.44.22,1.92,1.16.39,1.94-.19,2.23S58.6,98.32,58.12,97.39Z"/><path class="cls-7" d="M58.52,97.17a1.69,1.69,0,0,1,0-1.9c.52-.14,1.2.32,1.59,1.09a1.65,1.65,0,0,1,0,1.9C59.6,98.4,58.91,97.94,58.52,97.17Z"/><path class="cls-4" d="M100.42,91.52l-2.28-4.17,1.19-.65h0a.31.31,0,0,1,.1,0c.72-.37,1.8.27,2.39,1.44s.5,2.4-.22,2.78h0Z"/><path class="cls-5" d="M97.93,90.12c-.59-1.17-.49-2.41.24-2.78s1.79.27,2.39,1.44.49,2.42-.23,2.79S98.53,91.29,97.93,90.12Z"/><path class="cls-6" d="M98.19,90c-.48-.94-.39-1.94.19-2.24s1.44.23,1.92,1.16.4,1.94-.19,2.24S98.67,90.93,98.19,90Z"/><path class="cls-7" d="M98.59,89.78a1.66,1.66,0,0,1,0-1.9c.51-.14,1.19.31,1.59,1.08a1.67,1.67,0,0,1,0,1.9C99.67,91,99,90.55,98.59,89.78Z"/><polygon class="cls-8" points="103.21 10.06 76 25.65 76 104.21 76.55 104.5 103.18 89.12 103.21 10.06"/><polygon class="cls-9" points="57.93 15.35 76.02 25.65 76.02 104.22 57.93 93.93 57.93 15.35"/><polygon class="cls-8" points="103.22 10.06 76.02 25.65 57.93 15.35 85.15 0 103.22 10.06"/><polygon class="cls-10" points="103.18 10.8 103.19 62.31 76.55 77.6 76.55 26.09 103.18 10.8"/><polygon class="cls-11" points="101.28 16.81 101.29 60.61 78.45 73.71 78.45 29.91 101.28 16.81"/><polygon class="cls-12" points="100.67 17.16 100.68 60.24 78.45 72.98 78.45 29.91 100.67 17.16"/><polygon class="cls-11" points="100.68 60.2 78.45 72.98 78.45 57.77 88.05 52.55 100.68 59.93 100.68 60.2"/><polygon class="cls-9" points="100.68 46.45 78.45 58.97 78.45 45.31 91.1 38.27 100.68 43.27 100.68 46.45"/><polygon class="cls-11" points="100.68 45.5 78.45 58.02 78.45 42.05 88.05 35.77 100.68 43.15 100.68 45.5"/><polygon class="cls-9" points="100.68 31.15 78.45 43.59 78.45 30.19 91.1 22.97 100.68 27.98 100.68 31.15"/><polygon class="cls-11" points="100.68 30.2 78.45 42.64 78.45 29.91 91.47 22.47 100.68 27.85 100.68 30.2"/><path class="cls-13" d="M102.28,44h0a.29.29,0,0,1-.3-.3.31.31,0,0,1,.3-.29h0c.45,0,.71-.51.85-.93.49-1.52.12-4.14-1-4.92a.3.3,0,0,1-.08-.42.31.31,0,0,1,.42-.07c1.36,1,1.77,3.84,1.21,5.59C103.41,43.52,102.91,44,102.28,44Z"/><polygon class="cls-10" points="103.18 62.91 103.19 89.21 76.55 104.51 76.55 78.2 103.18 62.91"/><path class="cls-13" d="M102.28,77.82h0a.3.3,0,1,1,0-.59h0c.45,0,.71-.51.85-.94.49-1.51.12-4.13-1-4.92a.29.29,0,0,1-.08-.41.31.31,0,0,1,.42-.07c1.36,1,1.77,3.84,1.21,5.58C103.41,77.34,102.91,77.82,102.28,77.82Z"/><polygon class="cls-3" points="76.14 109.13 46.07 126.36 27.1 115.57 57.19 98.6 76.14 109.13"/><path class="cls-4" d="M43.91,123.68l-2.27-4.18,1.19-.64h0l.09-.06c.73-.37,1.8.28,2.4,1.45s.49,2.4-.22,2.78h0Z"/><path class="cls-5" d="M41.43,122.28c-.6-1.17-.49-2.42.23-2.79s1.8.28,2.4,1.45.49,2.41-.24,2.78S42,123.45,41.43,122.28Z"/><path class="cls-6" d="M41.69,122.15c-.48-.94-.4-1.94.19-2.24s1.44.22,1.92,1.16.39,1.94-.19,2.23S42.17,123.08,41.69,122.15Z"/><path class="cls-7" d="M42.09,121.93a1.67,1.67,0,0,1,0-1.9c.51-.14,1.2.31,1.59,1.09a1.67,1.67,0,0,1,0,1.9C43.17,123.16,42.48,122.7,42.09,121.93Z"/><path class="cls-4" d="M30.38,116.1l-2.27-4.18,1.18-.64h0l.09-.06c.73-.37,1.8.28,2.4,1.45s.49,2.4-.22,2.78h0Z"/><path class="cls-5" d="M27.9,114.7c-.6-1.17-.5-2.42.23-2.79s1.8.28,2.39,1.45.5,2.41-.23,2.78S28.49,115.87,27.9,114.7Z"/><path class="cls-6" d="M28.16,114.57c-.48-.94-.4-1.94.18-2.24s1.44.22,1.92,1.16.4,1.94-.18,2.23S28.64,115.5,28.16,114.57Z"/><path class="cls-7" d="M28.56,114.35a1.65,1.65,0,0,1,0-1.9c.51-.14,1.19.32,1.59,1.09a1.69,1.69,0,0,1,0,1.9C29.63,115.58,29,115.12,28.56,114.35Z"/><path class="cls-4" d="M70.45,108.7l-2.27-4.17,1.19-.65h0l.09,0c.73-.37,1.8.27,2.4,1.44s.49,2.4-.22,2.78h0Z"/><path class="cls-5" d="M68,107.3c-.6-1.17-.49-2.41.23-2.78s1.8.27,2.4,1.44.49,2.42-.24,2.79S68.57,108.47,68,107.3Z"/><path class="cls-6" d="M68.23,107.17c-.48-.94-.4-1.94.19-2.24s1.44.23,1.92,1.16.39,1.94-.19,2.24S68.71,108.11,68.23,107.17Z"/><path class="cls-7" d="M68.63,107a1.67,1.67,0,0,1,0-1.9c.51-.14,1.2.31,1.59,1.08a1.67,1.67,0,0,1,0,1.9C69.71,108.18,69,107.73,68.63,107Z"/><polygon class="cls-8" points="73.24 27.24 46.04 42.83 46.04 121.39 46.59 121.69 73.22 106.3 73.24 27.24"/><polygon class="cls-9" points="27.96 32.53 46.05 42.83 46.05 121.41 27.96 111.11 27.96 32.53"/><polygon class="cls-8" points="73.26 27.24 46.05 42.83 27.96 32.53 55.18 17.18 73.26 27.24"/><polygon class="cls-10" points="73.22 27.98 73.23 79.49 46.59 94.78 46.59 43.27 73.22 27.98"/><polygon class="cls-11" points="71.32 33.99 71.33 77.79 48.49 90.89 48.49 47.09 71.32 33.99"/><polygon class="cls-12" points="70.71 34.34 70.72 77.42 48.49 90.16 48.49 47.09 70.71 34.34"/><polygon class="cls-11" points="70.71 77.38 48.49 90.16 48.49 74.95 58.09 69.73 70.71 77.11 70.71 77.38"/><polygon class="cls-9" points="70.71 63.63 48.49 76.15 48.49 62.49 61.13 55.45 70.71 60.45 70.71 63.63"/><polygon class="cls-11" points="70.71 62.68 48.49 75.2 48.49 59.23 58.09 52.95 70.71 60.33 70.71 62.68"/><polygon class="cls-9" points="70.71 48.33 48.49 60.77 48.49 47.37 61.13 40.15 70.71 45.16 70.71 48.33"/><polygon class="cls-11" points="70.71 47.38 48.49 59.82 48.49 47.09 61.51 39.65 70.71 45.03 70.71 47.38"/><path class="cls-13" d="M72.31,61.18h0a.3.3,0,0,1,0-.59h0c.46,0,.72-.51.86-.93.48-1.52.11-4.14-1-4.92a.3.3,0,0,1-.07-.41.29.29,0,0,1,.41-.08c1.36,1,1.78,3.84,1.22,5.59C73.45,60.7,73,61.18,72.31,61.18Z"/><polygon class="cls-10" points="73.22 80.09 73.23 106.39 46.59 121.69 46.59 95.38 73.22 80.09"/><path class="cls-13" d="M72.31,95h0a.3.3,0,0,1-.29-.3.29.29,0,0,1,.3-.29h0c.46,0,.72-.51.86-.94.48-1.51.11-4.13-1-4.92a.29.29,0,0,1,.34-.48c1.36,1,1.78,3.84,1.22,5.58C73.45,94.52,73,95,72.31,95Z"/><path class="cls-3" d="M92.79,136.17c-10.64,0-19.27,4.58-19.27,10.22s8.63,10.22,19.27,10.22,19.28-4.58,19.28-10.22S103.44,136.17,92.79,136.17Z"/><path class="cls-14" d="M99.69,92.79c.85,3.8,1.89,12.32-.14,25.76-.26,1.7-3.4,1.2-5.4-.66-.26-2.43-4.08-18.53-2.26-19.71S97.48,88.59,99.69,92.79Z"/><path class="cls-15" d="M97.71,98s-.58,4.88-3.67,6.91c-.14,7.73-3.53,16.61-4.3,19.65-.73,1.56-4.24,2.46-5.4-.19,2.77-9.07-6-19.88,1.28-29.78C87.52,93.54,96.38,93.45,97.71,98Z"/><path class="cls-16" d="M82.8,146.55c-.12.8,2.09,1.66,2.77,2.21,2.15,1.78,5.6,3.11,7.61,1.37.22-.2.22-.62-.32-1.14C90.89,148.6,83.9,141.72,82.8,146.55Z"/><path class="cls-17" d="M83.6,142.55c-.09,1.16-1,2.34-.57,3.5.34.87,1.46,1,2.47,1.74s1.39,1.19,1.8,1.48c.67.48,4.34,2,5.89.35.65-.73-2.72-2.27-3.44-2.88-1.82-1.56-3-2.92-2.8-3.72C86.05,140.64,83.62,142.42,83.6,142.55Z"/><path class="cls-15" d="M84.34,124.37a19.25,19.25,0,0,0-1.56,6.07c-.1,3.27.8,8.52.83,12.56.16,1.83,2.94,1.45,3.14.21.33-3.7,2.43-14.93,3.26-19.61,0-.58-.54-.66-1.09-.83C86.1,122.74,85.89,121.74,84.34,124.37Z"/><path class="cls-16" d="M93.43,139.28c-.12.8,2.32,1.61,3,2.18,2.27,1.9,5.38,3.14,7.39,1.4.22-.19.22-.62-.32-1.14C101.52,141.33,94.53,134.45,93.43,139.28Z"/><path class="cls-17" d="M94.43,135.71c0,.9-1.21,2.22-.77,3.08s2.15,1.31,3.16,2a17.07,17.07,0,0,1,1.48,1.41c.66.47,4,1.83,5.52.13.66-.73-2.69-2.3-3.44-2.88-2.09-1.64-3.35-2.53-3.13-3.6C96.35,133.49,94.45,135.58,94.43,135.71Z"/><path class="cls-14" d="M93.9,116.39a6.27,6.27,0,0,1,0,3.19c-2.2,7,.45,11,.41,16.59,0,1.64,3,1.51,3,0a147.85,147.85,0,0,1,2.32-17.63Z"/><path class="cls-18" d="M93.32,80.7c2.44-1.06,10.27-.87,13.49-2,2-.66.8,3-.16,3.61a27.7,27.7,0,0,1-10.49,2.48C91.19,86.15,89.5,82.37,93.32,80.7Z"/><path class="cls-18" d="M96,71.36a47.69,47.69,0,0,0,2.06,8.28c0,3.32-3.44,2.41-3.82,1.94a18,18,0,0,1-3.42-13c-.47-3.87,1.62-3.37,3.37-3.47C96.29,65.88,95.52,67.49,96,71.36Z"/><path class="cls-17" d="M82.11,72.55A13.4,13.4,0,0,1,87.86,67a14.68,14.68,0,0,1,6.48-.74c1.17.44,3.18,8.12,4.67,9.7a6,6,0,0,1-.92,4.73c-1.41,1.76-1.08,5.45.64,8.93,1,2.91,1.57,23.62,1.38,24.77C97.25,120,90,125.86,82.9,121.16c.45-5.67-1.45-17.76.28-23.71,1.13-3.89,2.36-8.44,2-12.84C84.54,81.53,81.59,74.17,82.11,72.55Z"/><path class="cls-19" d="M89.67,66.51a16,16,0,0,1,4.67-.23c1.17.44,3.78,8.24,4.67,9.7a5.22,5.22,0,0,1-.92,4.73c-1.41,1.76-.62,5.88.64,8.93,3.83,9.34,1.64,23.2,1.38,24.77a18.05,18.05,0,0,1-5.2,6.11c1-10.53-.06-20.09.83-25,.49-2.73-.59-6.08-.86-7.08-1-5.42,3.17-8.81-1-13Z"/><path class="cls-15" d="M87.68,60.16s-.67-1.82-1.33-.95.61,4.54,1.13,3.84A3.46,3.46,0,0,0,87.68,60.16Z"/><path class="cls-16" d="M86.09,68.51c-.17,1.6.63,2.63,1.37,3.75L89,71.37l-.32,1.22,6.22,4.21-.75-7.13-1.36-.49,1.08-.62A4.75,4.75,0,0,0,91,66.13C88.39,65.31,86.28,66.79,86.09,68.51Z"/><path class="cls-15" d="M92.06,67.24c1.33,2.14,2.22,6.3,2.82,9.56a48.75,48.75,0,0,1-7.25-7.69C89.34,68.9,90.35,67.44,92.06,67.24Z"/><path class="cls-14" d="M92.35,64.73A17.38,17.38,0,0,1,92.07,70c-1.25,1.52-5.64-.1-4.81-3.08.5-1.78-.08-4.25.26-4.6C88.65,61.2,91.37,63.1,92.35,64.73Z"/><path class="cls-15" d="M90.77,52.2c2.38.2,4.89,1.49,5.27,5.84.11,1.29-.54,1.46-.12,3.67.22,1.17-.81,2.58-1.19,3.69-.23.66-.21.85-1,1a4.6,4.6,0,0,1-2-.22,8.19,8.19,0,0,1-3.46-1.55c-.95-1-1.12-2.39-1.4-3.62C84.74,55.32,86.27,51.9,90.77,52.2Z"/><path class="cls-16" d="M108.15,82.07a4.91,4.91,0,0,1-1.5.29,2.42,2.42,0,0,1,0-3.6c.42-.05.83-.25,1.23-.29C108.49,78.68,109.43,80.2,108.15,82.07Z"/><path class="cls-20" d="M108.15,82.07c-2-.32-1.18-3.53-.31-3.6C108.49,78.68,109.43,80.2,108.15,82.07Z"/><path class="cls-14" d="M107.53,78.87a6.3,6.3,0,0,1,1.38-.82,10.5,10.5,0,0,1,3.28-.13c.44,0,0,2.54-.39,2.85-1,0-2.67.54-3.07.43-.6-.17-.7-.4-1-.29S106.63,79.45,107.53,78.87Z"/><path class="cls-14" d="M112,80.13l1.68.39c.43.1.25.54-.18.48l-1.68-.22C111.4,80.72,111.56,80,112,80.13Z"/><path class="cls-14" d="M111.65,79.75h0a.38.38,0,0,1,.45-.29l2,.32c.5.08.4.6-.12.56l-2-.18A.35.35,0,0,1,111.65,79.75Z"/><path class="cls-14" d="M111.71,79.06h0a.41.41,0,0,1,.49-.28l2.19.46c.55.11.43.68-.12.59l-2.2-.35A.38.38,0,0,1,111.71,79.06Z"/><path class="cls-14" d="M112.26,77.92l2,.43c.5.1.38.68-.13.6l-2-.32A.36.36,0,1,1,112.26,77.92Z"/><path class="cls-14" d="M93,99.08a1.89,1.89,0,0,1,1.39.49,14.08,14.08,0,0,1,1.15,1.06c.48.45.35.48.82.93-.24.29-.66.58-1.43-.29-.24-.09-.39,0-.91-.68C92.38,100.89,92.34,99.21,93,99.08Z"/><path class="cls-15" d="M92.92,98.66c.54.39,1,.45,1.33.86a12.3,12.3,0,0,1,1.22,3.42c.15.45-2.74.86-3.16.59A7.14,7.14,0,0,1,91,100.6a4.87,4.87,0,0,0,0-1.11C90.88,99.34,90.94,97.21,92.92,98.66Z"/><path class="cls-15" d="M93,103.57l.1,1.82c0,.47-.51.44-.59,0l-.28-1.76C92.16,103.18,93,103.09,93,103.57Z"/><path class="cls-15" d="M93.31,103.09h0a.41.41,0,0,1,.46.35l.28,2.13c.07.54-.54.62-.65.09L93,103.55A.4.4,0,0,1,93.31,103.09Z"/><path class="cls-15" d="M94.08,102.91h0a.44.44,0,0,1,.47.4l.18,2.35c0,.59-.61.68-.69.09l-.31-2.34A.44.44,0,0,1,94.08,102.91Z"/><path class="cls-15" d="M95.51,103.07l.16,2.16c0,.54-.63.62-.7.08l-.28-2.14A.41.41,0,0,1,95.51,103.07Z"/><path class="cls-19" d="M83.37,88.71c2.27,1.38,6.69,7.1,9,9.05.77,1.31-1.71,3.06-2.61,2.58-1.6-.84-4.89-3.75-8.52-6.8C77.32,90.23,79.81,86.55,83.37,88.71Z"/><path class="cls-16" d="M89.6,100.3l1,1a2.44,2.44,0,0,0,2.55-2.54l-.77-1v0a2.48,2.48,0,0,1-2.61,2.58Z"/><path class="cls-19" d="M85.21,85.54c2-3.83,2.7-8.07.49-12.38a2.4,2.4,0,0,0-3.53-.73l-.06.12c-.52,1.62,2.43,9,3,12.06C85.18,84.92,85.19,85.23,85.21,85.54Z"/><path class="cls-17" d="M80.6,75.11a67.8,67.8,0,0,0-1.44,13.1c-.65,5.06,4.32,2.67,4.68.14C84.43,84.23,89,74.15,85.68,72,84.2,71.09,81.48,71.78,80.6,75.11Z"/><path class="cls-17" d="M95.86,61.06c.23.72.27,4.39-1.46,5.38-1.26.72-6.83-1.23-7.22-3,1.36.19,1.93-1.15,1-2.25C91.39,62.64,95.58,62.73,95.86,61.06Z"/><path class="cls-21" d="M89.27,51.52a5.35,5.35,0,0,0-4.67,2.8c-1.06,2.12-1.36,6-.38,7.72.63,1.1,2,2,4.41,2.28C86,60.61,89.87,61.46,90,58.12c.07-2.25,4.3-3.74,5.65-2.23C95.37,53.36,91.92,51.36,89.27,51.52Z"/><path class="cls-20" d="M96.11,57.1c-2.64,3-10.12,3.66-12.37,1.31-.16-2.59.22-2.39.06-5,.92-3.18,7.9-4.13,10.85-1.54C95.46,54.25,95.82,54.44,96.11,57.1Z"/><path class="cls-16" d="M94.17,52c.45.65-1.54,1.94-4.09,2.36s-5.81,0-5.69-.86C84.87,50.32,92.61,49.75,94.17,52Z"/><polygon class="cls-22" points="110.16 87.44 124.02 79.44 124 63.45 110.14 71.45 110.16 87.44"/><path class="cls-15" d="M107.94,78.89a1.84,1.84,0,0,1,.84-1.13c.48-.33.69-.49.9-.61a4.48,4.48,0,0,1,1.25-.44c.09.63-.5,1.06-1.1,1.27C109.63,79.58,107.87,79.55,107.94,78.89Z"/><polygon class="cls-8" points="211.69 21.91 222.56 28.18 224.66 26.98 213.8 20.71 211.69 21.91"/><polygon class="cls-23" points="222.58 42.99 222.56 28.18 224.64 27 224.58 41.84 222.58 42.99"/><polygon class="cls-9" points="211.69 21.91 222.56 28.18 222.58 42.99 211.97 36.65 211.69 21.91"/><path class="cls-24" d="M220.55,24.61c0,1.67-3.4,1.67-3.44,0V7.05h3.44V24.61Zm0-17.57Z"/><polygon class="cls-3" points="207.02 111.38 183.64 124.77 166.25 114.78 189.58 101.36 207.02 111.38"/><polygon class="cls-23" points="168.6 17.89 186.32 28.12 186.33 39.96 168.6 29.71 168.6 17.89"/><polygon class="cls-9" points="187.65 27.35 186.32 28.12 186.33 39.96 187.64 39.17 187.65 27.35"/><polygon class="cls-8" points="168.6 17.89 186.32 28.12 187.65 27.35 169.68 17.27 168.6 17.89"/><polygon class="cls-25" points="169.31 18.77 185.61 28.18 185.63 39.08 169.31 29.65 169.31 18.77"/><path class="cls-26" d="M191.34,33.46a.6.6,0,0,1-.29-.08L186.84,31a.58.58,0,0,1-.22-.8.57.57,0,0,1,.8-.22l4.22,2.4a.59.59,0,0,1-.3,1.11Z"/><polygon class="cls-10" points="189.95 77.48 189.94 119.56 204.34 111.23 204.35 69.14 189.95 77.48"/><polygon class="cls-9" points="175.87 65.97 189.92 74.04 189.94 119.56 175.87 111.4 175.87 65.97"/><polygon class="cls-8" points="204.35 69.14 192.84 75.78 175.87 65.97 187.25 59.69 204.35 69.14"/><path class="cls-24" d="M215.56,17.05h4.76a4.83,4.83,0,0,1-.64,2.39h0a4.69,4.69,0,0,1-1.74,1.74h0a4.65,4.65,0,0,1-2.36.64V17.05Zm0,0h0v4.76h0V17.07h0Zm0,0Zm0,0Zm0,4.76h0V17.07h0Zm0-4.76h0v4.74h0ZM194.5,65.79a1,1,0,0,1,0,.25V10.3h0V5.53h0a4.7,4.7,0,0,1,2.38.66l18.66,10.86v4.77a4.66,4.66,0,0,1-2.38-.65L194.5,10.3h0Zm0,.25c-.28,2.06-4.7,2-4.75-.25V10.31a4.78,4.78,0,0,1,.63-2.38,4.71,4.71,0,0,1,1.75-1.74l.18-.1a4.69,4.69,0,0,1,2.19-.56v4.76h0Z"/><path class="cls-27" d="M193.72,7.86a1.19,1.19,0,0,1,1.19-2.06l18.71,10.8a1.19,1.19,0,0,1-1.19,2Z"/><polygon class="cls-19" points="178.17 73.44 188.33 79.24 188.32 112.1 178.17 106.22 178.17 73.44"/><polygon class="cls-9" points="177.88 73.64 188.05 79.44 188.04 112.31 177.89 106.42 177.88 73.64"/><path class="cls-3" d="M216.91,110.84c-12.31,0-22.29,5.29-22.29,11.82s10,11.82,22.29,11.82,22.29-5.29,22.29-11.82S229.22,110.84,216.91,110.84Z"/><path class="cls-14" d="M205.78,55.47a2.22,2.22,0,0,0-.89-1.44c-.55-.44-1.23-.85-1.47-1-.62-.43-.63-.27-1.26-.69-.26.34-.48.88.69,1.53.16.24.07.44,1,.84C203.92,56.65,205.8,56.27,205.78,55.47Z"/><path class="cls-28" d="M201.75,64.61c6.95-.27,9.85-3.86,13.16-5.28.61-2.33,1.21-4.66,1.82-7-4.8,1.48-10.09,4.84-14.88,6.32Q201.79,61.62,201.75,64.61Z"/><path class="cls-29" d="M216.09,116.45c-1.28.9-.5,3.62.85,4.08,3.07,1,5.38,2.33,7.41,3,.72.23,2.43.44,3.15-.89.18-.51-.95-2.4-.95-2.4C222.94,120.62,217.69,115.57,216.09,116.45Z"/><path class="cls-30" d="M220.3,116.67c-1.59.4-2.94-.72-3.47-.63a1.47,1.47,0,0,0-1.13,1.16,2.54,2.54,0,0,0,1.39,2.7c1.06.53,2.26.29,4.06,1,1,.4,3.4,1.81,4.31,1.82a1.71,1.71,0,0,0,1.78-1.26C227.17,117.37,223.34,115.9,220.3,116.67Z"/><path class="cls-31" d="M217.3,99.44a41,41,0,0,1-1.16-4.81c-2.4-12.37-2.83-16.27-1.32-23.95,2.63-.86,8.59,1.77,11.05-.54,4.46,4.78-2.7,22-1.64,28C223.08,99.89,219.46,101.44,217.3,99.44Z"/><path class="cls-31" d="M227,120.06c-2.19,2.06-4.49,1.38-5.81-1.54,0-4.65-2.45-13.56-4-19.53-.93-3.69,5-5.62,7-.85C226.77,103.45,226.79,117.91,227,120.06Z"/><polygon class="cls-32" points="209.07 32.66 209.61 35.54 212.23 34.97 211.59 32.01 209.07 32.66"/><path class="cls-33" d="M210.66,35.08l1.3-.28-.54-2.51c-.25,0-.5.07-.76.13v-.48c.37-.09.74-.14,1.1-.21.25,1.14.5,2.28.74,3.42l-1.84.39ZM209.35,33a7.53,7.53,0,0,0,.44,2.31l.87-.19v.46l-1.11.24a14.84,14.84,0,0,1-.72-3.16,7.3,7.3,0,0,1,1.83-.68v.48A4.66,4.66,0,0,0,209.35,33Z"/><path class="cls-34" d="M210.54,36.21a1.37,1.37,0,0,0-.72,1.32c.12,3.49,2.2,6,3.28,2.6.45-1.46,1.52-2.7.11-3.75A3.22,3.22,0,0,0,210.54,36.21Z"/><path class="cls-15" d="M211.13,29.33a18.14,18.14,0,0,0-.93,2.3,1.55,1.55,0,0,0,0,1.23c.3.79.49,1-.12,1.55s0,2.56.23,3.48c.17.73.24,1.57.86,2,1.55,1.16,3.39.62,5,.13s5-4.37,5.57-5.67c.51-2.71-.06-5.11-4.52-7C215.28,26.53,212,27.44,211.13,29.33Z"/><path class="cls-14" d="M212.7,37s-.59,4.69.73,8c.18.43,7.76-1.29,7.59-2.46a12.63,12.63,0,0,1-1-7.18C220.22,34.25,213.06,33.69,212.7,37Z"/><path class="cls-35" d="M218.54,39.88c-2.56.56-7.33,3.9-7,5.39s3.8.73,6.36.17,4.4-2.22,4.09-3.7S221.11,39.32,218.54,39.88Z"/><path class="cls-29" d="M204.88,120.2c-1.28.91-.51,3.62.85,4.08,3.07,1,5.38,2.33,7.41,3,.71.23,2.42.44,3.15-.89.18-.51-.95-2.4-.95-2.4C211.73,124.37,206.47,119.32,204.88,120.2Z"/><path class="cls-30" d="M209.08,120.42c-1.59.37-2.93-.72-3.47-.63a1.5,1.5,0,0,0-1.13,1.16,2.58,2.58,0,0,0,1.39,2.71c1.06.52,2.27.28,4.07,1,1,.4,3.4,1.81,4.31,1.82a1.69,1.69,0,0,0,1.77-1.26C216,121.13,212.63,119.61,209.08,120.42Z"/><path class="cls-36" d="M208.18,102.53a21.32,21.32,0,0,1-.4-3.65c-1-12.56-.33-19.4,2-26.87,2.7-.57,10.28,1.73,13-.3,5.13,6.87-8,21.52-7.08,30.31C214.36,103.63,210.1,104.76,208.18,102.53Z"/><path class="cls-37" d="M208,54c.31,6.37-7.28,12.47.57,21.74,1.58,7.38,18.43-1.34,18.43-4-.09-1,1.38-1.17,1.35-2.75,0-1.35-.83-2.81-.53-4.69.67-4.11,2.74-9.29,2.38-13.08-.4-4.1-2.34-10-7.25-10.28-2.49-.12-5.8,0-12.43,4.35C206.81,47.67,207.79,49.4,208,54Z"/><path class="cls-36" d="M215.9,124.1c-2.4,1.81-4.36.51-5.35-2.54.46-4.62-1.57-13.71-2.5-19.82-.52-3.77,6.13-4.7,7.65.28C216.65,106.66,215.89,121.94,215.9,124.1Z"/><path class="cls-38" d="M211.79,33.36c.1.34.59.86-.31,1.55-1.29.93-.12,3.54.73,2.43.4-.53.32-2.61.58-2.77.79-.49,1.48,1.43,2.22,3,1.16,2.47,4.58,1.62,4.83,1.46a5.11,5.11,0,0,0,2.58-3.77,4.54,4.54,0,0,0-.55-2.55c-.31,2.42-5,1.54-8.05-.93C213,31.15,211.23,31.42,211.79,33.36Z"/><polygon class="cls-22" points="214.01 34.59 208.95 32.63 209.12 33.51 213.93 35.18 214.26 36.94 215.23 37.27 214.01 34.59"/><path class="cls-15" d="M214.32,35.62c-.19,1-.93,2.29-1.34,2.18-1-.43-.48-1.1-.3-2.06s0-1.57.39-1.63A1.16,1.16,0,0,1,214.32,35.62Z"/><path class="cls-39" d="M208.58,75.69c5,2.92,11.6-.19,18.54-4.55a.89.89,0,0,0-.11.52c0,1.36-4.87,4.57-9.55,6.11S207.18,79.06,208.58,75.69Z"/><ellipse class="cls-40" cx="211.4" cy="52.3" rx="4.57" ry="7.63"/><path class="cls-14" d="M203.64,53.33c-.41.44-1.29.31-2,.63-.25.29,0,.65-.73.84-.29.07.6.46-.54.77-.44.12.24.6-.83.9l2.32,2.17,2.75-3.85Z"/><path class="cls-35" d="M203.8,64.11c-3.48,2-6.46-2.33-4.62-5.25,2-3.1,4.63-5.42,6.49-8.74,3.45-6.15,5.6-6.08,7.37-4.94a5.94,5.94,0,0,1,1.84,8.47C211.45,59,203.8,64.11,203.8,64.11Z"/><path class="cls-15" d="M199.39,56.6h0a.43.43,0,0,1,.6-.05L201.53,58c.4.35-.07.77-.49.46l-1.65-1.22A.42.42,0,0,1,199.39,56.6Z"/><path class="cls-15" d="M200.07,55.74h0a.47.47,0,0,1,.67,0l1.82,1.66c.46.42,0,.94-.51.55l-2-1.51A.46.46,0,0,1,200.07,55.74Z"/><path class="cls-15" d="M200.76,54.85h0a.5.5,0,0,1,.7,0l1.89,1.93c.48.49,0,1-.54.59l-2-1.82A.51.51,0,0,1,200.76,54.85Z"/><path class="cls-15" d="M201.46,54h0a.47.47,0,0,1,.67,0l1.74,1.77c.43.44-.1,1-.56.59l-1.82-1.67A.46.46,0,0,1,201.46,54Z"/><polygon class="cls-8" points="198.09 30.15 208.95 36.43 211.06 35.23 200.19 28.95 198.09 30.15"/><polygon class="cls-23" points="208.98 51.24 208.95 36.43 211.03 35.24 210.98 50.08 208.98 51.24"/><polygon class="cls-9" points="198.09 30.15 208.95 36.43 208.98 51.24 198.36 44.9 198.09 30.15"/><path class="cls-24" d="M206.94,32.85c.05,1.67-3.39,1.67-3.43,0V15.29h3.43V32.85Zm0-17.57h0Z"/><polygon class="cls-23" points="238.7 16.57 221.17 26.7 221.15 30.6 238.68 20.48 238.7 16.57"/><polygon class="cls-9" points="200.45 14.78 221.17 26.7 221.15 30.56 200.45 18.51 200.45 14.78"/><polygon class="cls-8" points="238.7 16.58 221.17 26.7 200.45 14.78 217.88 5.07 238.7 16.58"/><polygon class="cls-10" points="192.84 75.78 184.45 82.55 184.41 83.6 192.84 78.73 192.84 75.78"/><polygon class="cls-9" points="167.11 72.53 184.45 82.55 184.41 83.6 167.08 73.58 167.11 72.53"/><polygon class="cls-19" points="192.84 75.78 184.45 82.55 167.11 72.53 175.69 65.87 192.84 75.78"/><polygon class="cls-9" points="190.02 75.44 183.47 80.72 169.93 72.9 176.63 67.69 190.02 75.44"/><path class="cls-3" d="M128.56,149.51c-12.16,0-22,5.23-22,11.68s9.87,11.67,22,11.67,22-5.22,22-11.67S140.72,149.51,128.56,149.51Z"/><path class="cls-41" d="M127.27,155.06c-1.09.77-.42,3.08.73,3.46,2.6.89,4.57,2,6.29,2.54.61.2,2.06.38,2.68-.75.15-.44-.81-2-.81-2C133.09,158.6,128.63,154.31,127.27,155.06Z"/><path class="cls-42" d="M131.39,155.77c-1.37.23-3-1.13-3.49-1.06a1.25,1.25,0,0,0-1,1,2.16,2.16,0,0,0,1.18,2.3c.9.45,1.93.25,3.45.86.84.34,2.89,1.53,3.66,1.54a1.43,1.43,0,0,0,1.51-1.07C136.69,155.84,134.18,155.3,131.39,155.77Z"/><path class="cls-41" d="M121.62,161.79c-1.09.77-.43,3.07.72,3.46,2.61.88,4.58,2,6.3,2.54.61.2,2.06.38,2.67-.75.15-.44-.8-2-.8-2C127.44,165.33,123,161,121.62,161.79Z"/><path class="cls-42" d="M125.54,162.3c-1.38.23-2.84-.93-3.29-.86a1.25,1.25,0,0,0-1,1,2.16,2.16,0,0,0,1.18,2.3c.9.45,1.92.24,3.45.86.84.34,2.89,1.53,3.66,1.54a1.45,1.45,0,0,0,1.51-1.07C131,162.57,128.32,161.83,125.54,162.3Z"/><path class="cls-15" d="M121.37,125.89c-.11,7.59,2.93,16.41,3.58,19.42.66,1.55,4.07,2.56,5.3,0-2.42-9,6.53-19.31-.28-29.25C123.26,112,122.12,117.46,121.37,125.89Z"/><path class="cls-15" d="M130.25,145.3a19.07,19.07,0,0,1,1.33,6c0,3.21-1.07,8.33-1.22,12.29-.1,1.77-2.35,1.19-3.09.11-.21-3.64-1.9-14.73-2.55-19.35,0-.57.55-.63,1.09-.78C128.58,143.64,128.82,142.68,130.25,145.3Z"/><path class="cls-14" d="M130.52,114.23c-1.36,3.79-1.21,19.37.75,26.13.25,1.66,2.72.33,4.69-1.49-.39-3.48,2-18.38,1.62-19.9C135.8,117.8,132.69,110.11,130.52,114.23Z"/><path class="cls-14" d="M136,137.48a7.69,7.69,0,0,0,.26,3c2.16,6.9-.44,10.82-.4,16.29,0,1.61-2.9,1.49-2.9,0,0-8.15-2-12.1-1.63-17.1Z"/><path class="cls-43" d="M137,110.75c3.58,6.41-1.08,10.39.4,21.5-3.95,4.56-13.83,8.54-14.93,5.22-2.87-11.72-1.86-23,1-29.37C128.42,110.56,132,108.28,137,110.75Z"/><path class="cls-44" d="M135.22,110.59c1.6,4.85.73,8.79-2.69,12.8-2.93,3.44-2.22,8.06-2.69,14a21.82,21.82,0,0,0,7.55-5.17c-1.48-11.11,3.14-14.73-.4-21.5C136.35,110.43,135.82,110.79,135.22,110.59Z"/><path class="cls-14" d="M134.23,92.64a47.42,47.42,0,0,1-1.24,8.29c.35,3.23,3.59,2,3.92,1.53,2.08-3.06,5.54-20.75-1.33-17.41C133.15,86.23,134.32,88.81,134.23,92.64Z"/><path class="cls-15" d="M130.5,71.35c-2.33.2-4.43.94-4.8,5.21-.11,1.27.53,1.43.12,3.6-.22,1.15.79,2.53,1.16,3.63.22.64.21.83.94.94a4.62,4.62,0,0,0,2-.22A8,8,0,0,0,133.27,83c.94-.94,1.1-2.34,1.38-3.56C136.79,73.89,134.93,71.06,130.5,71.35Z"/><path class="cls-14" d="M129.32,83.12a17.09,17.09,0,0,0,.27,5.2c1.23,1.49,5.54-.1,4.72-3-.49-1.74.2-5.05-.13-5.39C133.07,78.77,130,76.59,129.32,83.12Z"/><path class="cls-21" d="M131.37,71.11A5.37,5.37,0,0,1,136,74.17c1.07,2.51.88,5.43-1.87,7.3-.23.27-2.11.87-2.33.59-1-1.24-.55-2.5-2.83-2.94-1.67-.33-1.45-4.2-2.89-4.67C126.35,72,128.77,71,131.37,71.11Z"/><path class="cls-15" d="M129,79.83s.66-1.78,1.3-.93-.59,4.46-1.1,3.77A3.38,3.38,0,0,1,129,79.83Z"/><path class="cls-42" d="M138.48,86.31c-.87-1.62-3.36-1.28-5-.88-4.43,1.09-6.44,2.18-7.91,3.59-1.11,1.06-1.34,3.6-2.8,5.15a5.86,5.86,0,0,0,.9,4.65c1.94,2.4-1.39,12.07-2.08,14.77.43,1.64,1.24,2,3,2.67,3.72,1.54,11.46-.47,13-4.29-.82-4.13-2.69-4.92-1.74-9.72C136.39,99.23,141.48,91.89,138.48,86.31Z"/><path class="cls-45" d="M135.11,79.05c1.62,2.91-3.07,6.57-.87,12,.39.95,2.31,1.74,2.93,1.35.44-3.8,2.18-15.31-.95-15.73C135.62,75.76,134.17,77.35,135.11,79.05Z"/><path class="cls-15" d="M130.52,93.37c.12,3.2-1.39,8.68-1.62,12.34-.1,1.63-.28,4.24-1.38,3.57-.59-.7-2.43.67-3-1.17.38-4.06-1.79-17.49,1.84-18.79C128,88.74,130.4,90,130.52,93.37Z"/><path class="cls-21" d="M125,76.35A2.06,2.06,0,0,0,127,77.64a4.15,4.15,0,0,1-.77-3.33C125.68,74,125,74.94,125,76.35Z"/><path class="cls-15" d="M124.52,107.74c-1.52,2.13-3.46,10.59-5.09,13.49-1.09,1.72,2.15,2,2.1,1,.67-.9,6.34-9.08,6.53-12.86C128.05,106.67,126.9,104.42,124.52,107.74Z"/><path class="cls-15" d="M119.35,121.77a1.82,1.82,0,0,0-1.07,1c-.29.53-.53,1.16-.63,1.39-.25.59-.12.57-.38,1.17.33.16.82.26,1.18-.82.18-.18.36-.13.55-1C120.63,123.15,120,121.62,119.35,121.77Z"/><path class="cls-15" d="M119.28,121.34c-.34.56-.77.81-.86,1.29a12,12,0,0,0,.21,3.56c.05.46,2.81-.28,3.09-.69a7,7,0,0,0,.08-3.17c-.24-.6-.37-.7-.4-1C121.39,121.17,120.51,119.27,119.28,121.34Z"/><path class="cls-15" d="M121.11,125.81l.61,1.68c.16.42.64.19.53-.25l-.43-1.69C121.71,125.12,120.94,125.36,121.11,125.81Z"/><path class="cls-15" d="M120.65,125.49h0a.41.41,0,0,0-.28.5l.58,2c.14.51.72.34.62-.18l-.42-2.07A.39.39,0,0,0,120.65,125.49Z"/><path class="cls-15" d="M119.88,125.63h0a.42.42,0,0,0-.27.53l.75,2.2c.19.55.81.37.66-.19l-.63-2.23A.43.43,0,0,0,119.88,125.63Z"/><path class="cls-15" d="M118.65,126.32l.69,2c.18.51.81.32.66-.2l-.57-2A.41.41,0,0,0,118.65,126.32Z"/><path class="cls-3" d="M160.3,118.49c10.64,0,19.27,4.58,19.27,10.22s-8.63,10.22-19.27,10.22S141,134.35,141,128.71,149.66,118.49,160.3,118.49Z"/><path class="cls-14" d="M156.74,80.39a1.87,1.87,0,0,1,1,1.06c.26.55.46,1.21.55,1.45.23.62.1.59.32,1.21-.34.15-.85.22-1.15-.9-.17-.19-.36-.16-.5-1C155.35,81.72,156.06,80.2,156.74,80.39Z"/><path class="cls-14" d="M156.83,80c.31.59.73.87.8,1.36a12,12,0,0,1-.43,3.61c-.07.46-2.83-.45-3.09-.88a7.22,7.22,0,0,1,.1-3.23c.28-.6.42-.7.46-1S155.7,77.78,156.83,80Z"/><path class="cls-14" d="M154.71,84.39,154,86.07c-.19.42-.66.16-.52-.28l.53-1.7C154.14,83.66,154.9,84,154.71,84.39Z"/><path class="cls-14" d="M155.2,84.09h0a.42.42,0,0,1,.26.53l-.7,2c-.18.52-.76.31-.63-.22l.55-2.08A.4.4,0,0,1,155.2,84.09Z"/><path class="cls-14" d="M156,84.28h0a.43.43,0,0,1,.24.56L155.32,87c-.22.55-.85.33-.65-.23l.76-2.22A.44.44,0,0,1,156,84.28Z"/><path class="cls-14" d="M157.18,85.06l-.82,2c-.21.51-.84.28-.66-.24l.7-2A.41.41,0,0,1,157.18,85.06Z"/><path class="cls-18" d="M149.22,53.84A67.54,67.54,0,0,0,148.16,67c-.06,1.89,4.22.84,4.68,0,.43-4.13,4.74-14.34,1.37-16.35C152.7,49.72,150,50.49,149.22,53.84Z"/><path class="cls-18" d="M152.73,66.79c1.42,2.25,2.81,9.34,4,12.12.11,1.52-2.89,2-3.49,1.15-1-1.47-2.7-5.54-4.58-9.89C146.63,65.45,150.51,63.27,152.73,66.79Z"/><path class="cls-16" d="M153.13,80c.17.44.32.88.47,1.29A2.44,2.44,0,0,0,157,80.11c-.09-.41-.18-.82-.26-1.21h0a2.49,2.49,0,0,1-3.49,1.15Z"/><path class="cls-16" d="M161.81,122.07c1.11.79.44,3.14-.73,3.53-2.66.9-4.66,2-6.41,2.59-.63.2-2.1.38-2.73-.77-.15-.44.82-2.08.82-2.08C155.88,125.68,160.43,121.31,161.81,122.07Z"/><path class="cls-17" d="M157.62,122.8c1.4.23,3.1-1.16,3.56-1.08a1.29,1.29,0,0,1,1,1,2.21,2.21,0,0,1-1.21,2.34c-.92.46-2,.25-3.51.87-.86.35-2.95,1.57-3.74,1.58a1.48,1.48,0,0,1-1.53-1.09C152.22,122.87,154.78,122.32,157.62,122.8Z"/><path class="cls-16" d="M167.57,128.93c1.11.78.44,3.13-.73,3.53-2.66.9-4.66,2-6.42,2.58-.62.2-2.1.39-2.72-.76-.16-.45.82-2.08.82-2.08C161.64,132.53,166.19,128.16,167.57,128.93Z"/><path class="cls-17" d="M163.58,129.44c1.4.24,2.9-.94,3.35-.87a1.27,1.27,0,0,1,1,1,2.22,2.22,0,0,1-1.2,2.35c-.92.45-2,.24-3.51.87-.86.34-2.95,1.56-3.74,1.57a1.46,1.46,0,0,1-1.53-1.09C158,129.73,160.74,129,163.58,129.44Z"/><path class="cls-15" d="M167.83,92.36c.12,7.73-3,16.72-3.65,19.78-.67,1.58-4.15,2.61-5.4,0,2.47-9.16-6.65-19.67.29-29.8C165.9,78.2,167.07,83.77,167.83,92.36Z"/><path class="cls-15" d="M158.78,112.13a19.49,19.49,0,0,0-1.35,6.12c0,3.28,1.08,8.49,1.24,12.53.1,1.8,2.39,1.21,3.15.11.21-3.72,1.93-15,2.6-19.72,0-.58-.56-.64-1.12-.79C160.49,110.44,160.24,109.46,158.78,112.13Z"/><path class="cls-14" d="M158.51,80.48c1.38,3.86,1.23,19.73-.77,26.62-.26,1.69-2.76.34-4.77-1.52.4-3.55-2.09-18.72-1.66-20.27C153.13,84.12,156.3,76.28,158.51,80.48Z"/><path class="cls-14" d="M153,104.17a7.77,7.77,0,0,1-.26,3.1c-2.2,7,.45,11,.41,16.59,0,1.63,3,1.51,3,0,0-8.31,2-12.33,1.66-17.42Z"/><path class="cls-16" d="M168.64,95.82v.06c-.11.58-.85,3.86-1.93,8.27-1.12,3.39-11.17-.67-15.2-5.31.07-.52.12-1,.17-1.52C156,101.73,165,105.41,167,103,168.05,98.24,168.55,96.12,168.64,95.82Z"/><path class="cls-19" d="M151.92,76.93a10.56,10.56,0,0,0-1.38,6.24c.28,1.68.63,3.51.82,5.64a33.88,33.88,0,0,1,.32,8.51C156,101.73,165,105.41,167,103c2.58-11.51,1.52-22.5-1.29-28.73C160.65,76.74,157,74.42,151.92,76.93Z"/><path class="cls-20" d="M159.08,102.26c0,.6.07,1.22.12,1.85a22.31,22.31,0,0,1-7.69-5.27c.07-.52.12-1,.17-1.52A24.4,24.4,0,0,0,159.08,102.26Z"/><path class="cls-19" d="M154.17,77.32c-2.18,4.89-1.2,8.4,2.28,12.49,2.68,3.14,2.38,7.25,2.63,12.45a24.4,24.4,0,0,1-7.4-4.94,33.25,33.25,0,0,0-.31-8.44c-.19-2.13-.54-3.95-.82-5.63a11.39,11.39,0,0,1,1.37-6.32C152.56,76.61,153.56,77.52,154.17,77.32Z"/><path class="cls-15" d="M158.53,36.8c2.37.2,4.51,1,4.89,5.31.11,1.28-.54,1.45-.12,3.66.22,1.18-.81,2.58-1.19,3.7-.22.65-.21.85-1,1a4.47,4.47,0,0,1-2-.22,8.2,8.2,0,0,1-3.45-1.54c-1-1-1.13-2.39-1.41-3.63C152.12,39.38,154,36.5,158.53,36.8Z"/><path class="cls-14" d="M159.73,48.79a17.07,17.07,0,0,1-.28,5.29c-1.25,1.53-5.64-.1-4.81-3.08.5-1.78-.2-5.15.14-5.5C155.91,44.36,159,42.14,159.73,48.79Z"/><path class="cls-15" d="M160,45.44s-.68-1.82-1.33-.95.6,4.54,1.13,3.84A3.5,3.5,0,0,0,160,45.44Z"/><path class="cls-19" d="M150.39,52c.89-1.65,3.43-1.31,5.09-.9,4.52,1.11,6.56,2.22,8.06,3.65,1.13,1.09,2.19,3.78,2.85,5.25a6,6,0,0,1-.92,4.74c-2,2.45.85,10.73,1.55,13.49.49,1.85.6,3.46-1.05,4.26-4.08,2-13.07-.46-14.62-4.35.82-2.76,1.26-3.51.42-8.43C151.25,66.66,147.34,57.72,150.39,52Z"/><path class="cls-21" d="M164.16,41.89a2.08,2.08,0,0,1-2.1,1.31,4.23,4.23,0,0,0,.79-3.39C163.44,39.46,164.1,40.45,164.16,41.89Z"/><path class="cls-19" d="M163.46,45.8,158.53,45a10.59,10.59,0,0,1,2.18.8c1.8,1.33,1.33,3.07.28,3.2s-2-.94-3-1.6A4,4,0,0,0,161,50.57C162.11,51.16,164.18,48.17,163.46,45.8Z"/><path class="cls-21" d="M157.64,36.55c-2.06.12-4.33,1.23-4.75,3.11-.83,3.72-1.35,6.4.59,8.06.24.28,2,1.73,7.07.82-1.35-.81-2-2.31-.52-3.1s2.53-3.86,3-5.48C162.76,37.42,160.29,36.39,157.64,36.55Z"/><path class="cls-20" d="M163.89,40.22c-1.88,3.56-9,5.89-11.74,4.12-.75-2.48-.33-2.37-1.08-4.86.16-3.31,6.73-5.84,10.2-4C162.6,37.6,163,37.7,163.89,40.22Z"/><path class="cls-16" d="M160.82,35.7c.59.52-1,2.24-3.43,3.23s-5.67,1.3-5.74.47C151.39,36.21,158.79,33.87,160.82,35.7Z"/><path class="cls-17" d="M158.54,59.21A68,68,0,0,0,160,72.31c.86,6.27,5,.14,5.25-.76-.37-4.14,1.25-15.12-2.45-16.45C161.17,54.5,158.67,55.77,158.54,59.21Z"/><path class="cls-16" d="M154.59,49.49l-1.06,1.33c3,3.23,6.25,1.89,9.08,3.19a10.36,10.36,0,0,0-2.06-1.82C158.19,51.46,156.17,51.4,154.59,49.49Z"/><path class="cls-14" d="M176,70.31a1.9,1.9,0,0,1,1.26-.77c.6-.14,1.29-.19,1.54-.23.65-.08.6,0,1.25,0,.07.37,0,.88-1.13.94-.22.12-.23.31-1.1.26C177,72,175.7,70.93,176,70.31Z"/><path class="cls-15" d="M175.64,70.13c.64-.17,1-.52,1.5-.49a12.72,12.72,0,0,1,3.43,1.2c.44.17-1.06,2.67-1.53,2.83a7.24,7.24,0,0,1-3.13-.79c-.53-.4-.59-.56-.88-.67S173.26,70.76,175.64,70.13Z"/><path class="cls-15" d="M179.51,73.16,181,74.23c.38.27,0,.68-.38.45l-1.55-.89C178.67,73.56,179.12,72.88,179.51,73.16Z"/><path class="cls-15" d="M179.32,72.62h0a.42.42,0,0,1,.57-.14l1.83,1.13c.46.28.14.8-.35.56l-1.91-1A.4.4,0,0,1,179.32,72.62Z"/><path class="cls-15" d="M179.67,71.91h0a.43.43,0,0,1,.6-.12l1.94,1.35c.49.33.14.9-.36.59l-2-1.23A.44.44,0,0,1,179.67,71.91Z"/><path class="cls-15" d="M180.69,70.9l1.78,1.23c.45.31.08.88-.38.6l-1.83-1.13A.41.41,0,0,1,180.69,70.9Z"/><path class="cls-17" d="M162.89,71c2.5-.9,8.73-.46,11.7-1,1.51.22,1.31,3.25.37,3.65-1.66.71-6,1.43-10.65,2.33C160.15,76.82,159,72.43,162.89,71Z"/><path class="cls-16" d="M174.82,73.74l1.36-.18a2.42,2.42,0,0,0-.36-3.58h-1.24v0a2.48,2.48,0,0,1,.37,3.65Z"/></g></g></svg>