<svg xmlns="http://www.w3.org/2000/svg" viewBox="0 0 254.92 184.65"><defs><style>.cls-1{fill:#da9;}.cls-1,.cls-10,.cls-11,.cls-12,.cls-13,.cls-14,.cls-15,.cls-16,.cls-18,.cls-19,.cls-2,.cls-20,.cls-21,.cls-22,.cls-23,.cls-24,.cls-25,.cls-26,.cls-27,.cls-28,.cls-29,.cls-3,.cls-30,.cls-31,.cls-32,.cls-33,.cls-34,.cls-35,.cls-36,.cls-37,.cls-38,.cls-39,.cls-4,.cls-40,.cls-41,.cls-42,.cls-43,.cls-44,.cls-45,.cls-46,.cls-47,.cls-48,.cls-49,.cls-5,.cls-50,.cls-6,.cls-7,.cls-8,.cls-9{fill-rule:evenodd;}.cls-2{fill:#ce8d7c;}.cls-3{fill:#b2695b;}.cls-4{fill:#c4cfdb;}.cls-5{fill:#04a3c8;}.cls-6{fill:#0284a1;}.cls-7{fill:#eda070;}.cls-8{fill:#bbcef0;}.cls-9{fill:#ebf2ff;}.cls-10{fill:#d7e3fa;}.cls-11{fill:#fcc39a;}.cls-12{fill:#1fd6ff;}.cls-13{fill:#3f210a;}.cls-14{fill:#dae2eb;}.cls-15{fill:#9eb0c4;}.cls-16,.cls-17{fill:#fff;}.cls-18{fill:#ccdfed;}.cls-19{fill:#dfebf5;}.cls-20{fill:#f2f8fc;}.cls-21{fill:#7f7f7f;}.cls-22{fill:#e8e2da;}.cls-23{fill:#7b7977;}.cls-24{fill:#d1c8be;}.cls-25{fill:#333;}.cls-26{fill:#878787;}.cls-27{fill:#f1ece6;}.cls-28{fill:#2160c4;}.cls-29{fill:#4f8ae8;}.cls-30{fill:#b6c3d1;}.cls-31{fill:#e9edf2;}.cls-32{fill:#2e2111;}.cls-33{fill:#4f2b0c;}.cls-34{fill:#181d2e;}.cls-35{fill:#262c42;}.cls-36{fill:#2e1703;}.cls-37{fill:#3b1e05;}.cls-38{fill:#d8e0ea;}.cls-39{fill:#0d3c87;}.cls-40{fill:#221f1f;}.cls-41{fill:#d64304;}.cls-42{fill:#389438;}.cls-43{fill:#9d9d9c;}.cls-44{fill:#3c3c3b;}.cls-45{fill:#6b3517;}.cls-46{fill:#eeecf3;}.cls-47{fill:#804525;}.cls-48{fill:#4da34d;}.cls-49{fill:#4c4c4c;}.cls-50{fill:#64b864;}</style></defs><title>isometrico_dentist</title><g id="Layer_2" data-name="Layer 2"><g id="_1" data-name="1"><polygon class="cls-1" points="254.92 104.57 127.45 178.38 0 104.81 127.51 31 254.92 104.57"/><polygon class="cls-2" points="0 104.81 127.45 178.38 127.44 184.65 0.02 111.08 0 104.81"/><polygon class="cls-3" points="254.92 104.57 127.45 178.38 127.44 184.65 254.85 110.98 254.92 104.57"/><path class="cls-2" d="M112,64.86c16.89,28.19,49.05,45.42,93.87,53.56l32-18.5c-42.92-11-74.81-28.5-93.39-53.82Z"/><path class="cls-4" d="M207.83,46.31q0-7.28,0-14.56A6.5,6.5,0,0,0,206,27.2c-3.67-4-8.79-6.94-14.71-9.3a2,2,0,0,0-1.73.07l-1.7.79c2.29,2.54.7,11.66.7,15A6.79,6.79,0,0,0,192.84,40a37,37,0,0,1,11.36,7.48L205,48.9l1.64-.77A2,2,0,0,0,207.83,46.31Z"/><path class="cls-5" d="M207.3,46.59V32a6.55,6.55,0,0,0-1.81-4.55c-3.68-4-8.8-6.94-14.72-9.3a2,2,0,0,0-1.72.07l-1.7.79c2.29,2.54.69,11.66.7,15a6.78,6.78,0,0,0,4.27,6.26,37,37,0,0,1,11.36,7.48l.75,1.42,1.65-.77A2,2,0,0,0,207.3,46.59Z"/><path class="cls-6" d="M205.51,47.43q0-7.27,0-14.56a6.57,6.57,0,0,0-1.81-4.55c-3.68-4-8.79-6.94-14.72-9.3a2,2,0,0,0-1.88.16,1.88,1.88,0,0,0-.86,1.64q0,7,0,14a6.78,6.78,0,0,0,4.27,6.26A37,37,0,0,1,202,48.76a2.14,2.14,0,0,0,2.24.49A1.89,1.89,0,0,0,205.51,47.43Z"/><path class="cls-7" d="M182.8,42.39c-.85,3.8-1.89,12.33.15,25.77.25,1.69,3.39,1.19,5.39-.66.26-2.44,4.08-18.54,2.26-19.72S185,38.19,182.8,42.39Z"/><path class="cls-8" d="M185.2,20.32a51,51,0,0,1-4.39,7.7c-.89,3.19,1.49,4.67,2,4.33.83-.56,6.91-6,8.16-13.27,1.53-3.58-.61-3.69-2.26-4.28C186.45,15,186.74,16.74,185.2,20.32Z"/><path class="cls-9" d="M200.38,22.15a13.46,13.46,0,0,0-5.75-5.53,14.68,14.68,0,0,0-6.48-.74c-1.17.44-3.18,8.12-4.67,9.7a6,6,0,0,0,.92,4.74c1.41,1.75,1.08,5.44-.64,8.93-1,2.9-1.57,23.61-1.38,24.76,2.86,5.61,10.08,11.45,17.21,6.75-.45-5.67,1.45-17.76-.28-23.7-1.13-3.89-2.36-8.44-2-12.85C198,31.14,200.9,23.78,200.38,22.15Z"/><path class="cls-10" d="M192.82,16.11a16,16,0,0,0-4.67-.23c-1.17.44-3.78,8.24-4.67,9.7a5.25,5.25,0,0,0,.92,4.74c1.41,1.75.62,5.87-.64,8.93-3.83,9.34-1.64,23.2-1.38,24.76a18.05,18.05,0,0,0,5.2,6.11c-1-10.53.06-20.08-.83-25-.49-2.72.59-6.07.86-7.08,1-5.42-3.17-8.8,1-13Z"/><path class="cls-11" d="M194.81,9.76s.68-1.82,1.33-.95-.61,4.55-1.13,3.84A3.46,3.46,0,0,1,194.81,9.76Z"/><path class="cls-12" d="M196.4,18.12c.17,1.59-.63,2.62-1.36,3.74L193.51,21l.32,1.21-6.22,4.21.76-7.13,1.35-.48-1.08-.63a4.75,4.75,0,0,1,2.86-2.43C194.1,14.91,196.21,16.39,196.4,18.12Z"/><path class="cls-11" d="M190.43,16.84c-1.33,2.14-2.22,6.3-2.82,9.56a48.75,48.75,0,0,0,7.25-7.69C193.15,18.51,192.14,17.05,190.43,16.84Z"/><path class="cls-7" d="M190.14,14.33a17.38,17.38,0,0,0,.28,5.29c1.25,1.53,5.64-.1,4.81-3.08-.5-1.78.08-4.25-.26-4.59C193.84,10.8,191.12,12.7,190.14,14.33Z"/><path class="cls-11" d="M191.72,1.8c-2.38.21-4.89,1.49-5.27,5.85-.11,1.28.54,1.45.12,3.66-.22,1.18.81,2.58,1.19,3.69.23.66.21.85,1,1a4.46,4.46,0,0,0,2-.22,8.24,8.24,0,0,0,3.46-1.54c1-1,1.12-2.39,1.4-3.63C197.76,4.92,196.22,1.5,191.72,1.8Z"/><path class="cls-13" d="M193.22,1.12a5.34,5.34,0,0,1,4.67,2.81c1.06,2.11,1.36,6,.38,7.71-.63,1.11-2,2-4.41,2.28,2.66-3.71-1.24-2.86-1.33-6.2-.07-2.25-4.3-3.73-5.65-2.22C187.12,3,190.57,1,193.22,1.12Z"/><path class="cls-5" d="M186.38,6.71c2.64,3,10.12,3.65,12.37,1.3.16-2.59-.22-2.38-.06-5-.92-3.19-7.9-4.14-10.85-1.54C187,3.86,186.67,4,186.38,6.71Z"/><path class="cls-12" d="M188.32,1.59c-.45.65,1.54,1.94,4.09,2.36s5.81,0,5.69-.86C197.62-.07,189.88-.65,188.32,1.59Z"/><polygon class="cls-4" points="200.45 115.44 200.46 83.24 223.14 70.15 223.1 102.29 200.45 115.44"/><path class="cls-14" d="M115.45,34.85c10.16,23.77,45.57,43.31,85,48.46l22.68-13.16-78.9-51.92Z"/><path class="cls-15" d="M223.14,70.21,128.25,27.84,117,34c15.74,27.59,60.94,44.19,86.54,47.57Z"/><path class="cls-5" d="M112,26C128.84,54.15,161,71.38,205.82,79.52l32-18.49V58.34c-41-7.08-75.18-26.32-93.39-51.13L112,23.28Z"/><path class="cls-14" d="M112,23.28C128.84,51.47,161,68.69,205.82,76.84l32-18.5c-42.92-11-74.81-28.5-93.39-53.82Z"/><path class="cls-5" d="M200.46,83.31v32.13c-39.38-7.55-72.53-27.81-85-49.3V34.85C127.11,58.24,165.28,78.22,200.46,83.31Z"/><polygon class="cls-16" points="147.74 44.14 163.27 35.28 174.26 41.63 158.81 50.53 147.74 44.14"/><polygon class="cls-16" points="160.14 51.39 175.68 42.53 186.66 48.88 171.21 57.78 160.14 51.39"/><path class="cls-17" d="M139.16,64.31a7.22,7.22,0,0,1,2.61,3,10.08,10.08,0,0,1,.74,4c0,1.28,0,2.57,0,3.85V79c0,1.8-.27,2.92-.81,3.34s-1.36.2-2.55-.62V80.08a1.32,1.32,0,0,0,.62.22c.48,0,.72-.78.72-2.33v-8a7.52,7.52,0,0,0-.38-2.62,3.31,3.31,0,0,0-1-1.34V64.31Zm5.94,3.87c1.71,1,3.43,2,5.14,3v1.73c-1-.59-2.08-1.19-3.12-1.81v6c1,.58,2,1.16,2.95,1.72v1.73l-2.95-1.73v6.44c1.06.62,2.11,1.24,3.16,1.84v1.73q-2.58-1.5-5.18-3.1V68.18ZM158,75.3l1.78.85V93.69L158.25,93c-.65-2.31-1.29-4.64-1.93-7s-1.29-4.68-1.94-7l.06,2.25.06,2.26v7.65c-.62-.33-1.24-.65-1.86-1V72.55l1.52.82q1,3.52,2,7t2,7c0-.86-.07-1.73-.11-2.59L158,82.18V75.3Zm3.47,1.62q2.84,1.23,5.67,2.3V80.9l-1.77-.65V95.86q-1-.35-2-.72V79.44q-.94-.39-1.89-.81Zm-25.6-15c1.07.78,2.15,1.57,3.23,2.31l.11.08V66l-.29-.23-1-.74V79.11l1,.77c.1.08.2.14.29.2v1.67l-.18-.13c-1-.78-2.11-1.6-3.16-2.42V61.92Z"/><path class="cls-6" d="M168.11,88.85c0,6.47,3.24,12.71,7.25,13.93s7.25-3,7.25-9.52-3.25-12.72-7.25-13.93S168.11,82.37,168.11,88.85Z"/><path class="cls-18" d="M170.26,85.07c-1.72,1.23-.47,4.63-.32,5.66,1.1,7.49,2.1,8.79,2.62,9.47.2.26,1.11.48,1-.25-.39-2.59.09-4.1.66-5s.76,4,1.32,5.92c.68,2.36,1.9.77,2.08-.36.1-.63.5-4.58.64-4.56a7,7,0,0,1,.39,3.09c0,1,.64,2,1.31.73.81-1.57.56-3.62.82-5.9a25.65,25.65,0,0,1,.83-3.38c.37-1.62.5-2.72-.13-3.39-1-1.12-1.95-.78-3-1.31s-1.62-1.68-2.43-1.8c-1.94-.29-1.8.87-2.79,1.13C172.66,85.3,171.32,84.31,170.26,85.07Z"/><path class="cls-19" d="M170.18,85.51c-1.27,1.12.22,4.32.19,5.11-.14,2.89,1.3,7.78,2.38,9.17.14.18.58.43.47-.37-.18-1.3-.39-4.4.72-5.32.37-.73-.29-1.62-.35-2-.29-2.08,1,.88,1.49,2.78.44,1.69.33,4.39.83,6,.45,1.44,1.19.49,1.25-.31.25-2.07.38-3.64.59-4.53.33-2.12,1.63-5.06,1.59-4.19s-1.24,2.37-.89,3.2A8.23,8.23,0,0,1,179,97.3c0,1.85.4,2.34.69,2.14.88-.62.62-5,.78-6.41a12.72,12.72,0,0,1,.77-2.73c.43-1.55.73-2.76-.19-3.33s-1.4-.28-2.31-.61-1.78-2.21-2.94-2.23c-1.82,0-.87,1.67-2.61,1.23C172.56,85.18,171.2,84.6,170.18,85.51Z"/><path class="cls-20" d="M170.36,85.59c-1.09,1.19.38,3.89.55,4.85a19.4,19.4,0,0,1,0,2.79,14.11,14.11,0,0,0,1.65,5.29c.1.19.4-.15-.07-1.2-.42-1.66.41-2.5.56-3.8.21-1.78-.08-3.68.58-2.87a7.54,7.54,0,0,1,1.72,3.67c.26,1.45.29,3.42.56,4.3,1.05,3.37.66-6.82.76-7.72.14-1.27,2.78-.61,3.82-1.14a1.62,1.62,0,0,0,.17-2.69c-1.06-.54-1.7-.25-2.58-.57s-1.22-2.06-2.29-2.09a1.15,1.15,0,0,0-.9,1.93c.59.51,1.86,1,2.39.78,1.43-.67-.54.81,1.07,1.74.27.15,2.69.17,1.29.46s-3.32-.71-4.67-1.87c-.66-.57-.87-1.61-1.6-1.87S171,84.83,170.36,85.59Z"/><path class="cls-16" d="M170.92,85.59c2.8-.49,3,1.46,4.05,2.37.41.34,2.57,1.32,2.28,1.71-.52.68-1,.08-1.1,1.26-.08.95-.6.94-1.37.49s-1.11-1.68-1.8-2.25-1.65.84-2.26-2C170.65,86.85,170.35,85.69,170.92,85.59Z"/><path class="cls-16" d="M180.18,87.24c-.52-.07-1.25-.23-1.58.11-.16.15-.51.28-.34.64.31.66,1.36.56,1.9.28S181,87.36,180.18,87.24Z"/><path class="cls-16" d="M175.45,84.62c-.68.07-.69.5-.56,1.11.09.4.92.79,1.24.83s1-.08,1.06-.24-.39-.56-.48-.73C176.34,84.92,176.15,84.5,175.45,84.62Z"/><path class="cls-7" d="M185.32,39.46a1.93,1.93,0,0,0-1.32-.67c-.61-.08-1.3-.08-1.55-.09-.66,0-.6.09-1.25,0,0,.38,0,.88,1.2.84.23.1.26.29,1.12.17C184.46,41.18,185.7,40.05,185.32,39.46Z"/><path class="cls-11" d="M185.7,39.24c-.66-.11-1-.43-1.54-.35a12.15,12.15,0,0,0-3.32,1.48c-.42.21,1.28,2.57,1.77,2.69a7,7,0,0,0,3-1.06c.49-.44.54-.6.82-.74S188.11,39.68,185.7,39.24Z"/><path class="cls-11" d="M182.1,42.59l-1.38,1.19c-.36.3,0,.68.42.41l1.46-1C183,42.92,182.46,42.28,182.1,42.59Z"/><path class="cls-11" d="M182.24,42h0a.41.41,0,0,0-.58-.08l-1.73,1.27c-.44.32-.07.82.39.53l1.83-1.14A.41.41,0,0,0,182.24,42Z"/><path class="cls-11" d="M181.83,41.36h0a.43.43,0,0,0-.61-.07l-1.82,1.5c-.46.38-.07.91.41.56l1.9-1.39A.44.44,0,0,0,181.83,41.36Z"/><path class="cls-11" d="M180.73,40.43l-1.67,1.38c-.42.35,0,.89.43.56l1.73-1.27C181.67,40.77,181.14,40.1,180.73,40.43Z"/><path class="cls-16" d="M199.56,38.83c-2.57-.68-9.29.16-12.83.18-1.49.35-1,3.35-.06,3.67,1.71.57,7.66,1,12.38,1.52C204.15,44.74,203.58,39.9,199.56,38.83Z"/><path class="cls-12" d="M186.81,42.78l-1.37-.07a2.44,2.44,0,0,1,.06-3.6l1.24-.11h0a2.48,2.48,0,0,0-.06,3.67Z"/><path class="cls-16" d="M201.89,24.71c.84,3.16,1.9,11.41,1.5,15.19-.81,7.67-4.73,2.1-5.09-.43-.59-4.11-4.8-15.72-1.49-17.83C198.29,20.7,201,21.38,201.89,24.71Z"/><path class="cls-9" d="M182.25,28c-2.64-.37-10.53,2.9-13.91,2.73-2.08-.1,0,3.15,1.13,3.43,1.27.33,6.82-.27,11.5-1C184.17,32.71,184.79,28.77,182.25,28Z"/><path class="cls-12" d="M168,34.27a5,5,0,0,0,1.52-.13,2.43,2.43,0,0,0-.93-3.47c-.42.06-.87,0-1.27,0C166.7,31.1,166.2,32.82,168,34.27Z"/><path class="cls-5" d="M168,34.27c1.79-.84.18-3.72-.68-3.56C166.7,31.1,166.2,32.82,168,34.27Z"/><path class="cls-7" d="M167.68,31a6.4,6.4,0,0,0-1.55-.41,10.55,10.55,0,0,0-3.19.76c-.43.11.7,2.44,1.14,2.64.93-.22,2.71-.21,3.07-.43.54-.32.57-.56.9-.54S168.7,31.33,167.68,31Z"/><path class="cls-7" d="M163.71,33.44l-1.51.83c-.39.21-.1.59.31.42l1.55-.67C164.45,33.85,164.11,33.22,163.71,33.44Z"/><path class="cls-7" d="M164,33h0a.39.39,0,0,0-.52-.16l-1.85.86c-.47.21-.22.69.26.51l1.91-.72A.37.37,0,0,0,164,33Z"/><path class="cls-7" d="M163.7,32.34h0a.42.42,0,0,0-.55-.15l-2,1c-.49.26-.23.78.28.54l2-.93A.38.38,0,0,0,163.7,32.34Z"/><path class="cls-7" d="M162.87,31.39l-1.82,1c-.45.24-.18.76.29.54l1.85-.85A.36.36,0,1,0,162.87,31.39Z"/><path class="cls-11" d="M167.28,31.15a1.77,1.77,0,0,0-1.11-.86c-.55-.18-.79-.29-1-.34a4.75,4.75,0,0,0-1.32-.09c.08.63.77.89,1.4.92C165.85,32.27,167.54,31.77,167.28,31.15Z"/><path class="cls-15" d="M138.32,28.61l9.88,5.49a.62.62,0,0,0,.63,0l12.81-7.52a.32.32,0,0,0,.16-.27.33.33,0,0,0-.15-.27l-9.77-5.47a.62.62,0,0,0-.63,0l-12.93,7.53a.34.34,0,0,0-.17.29C138.15,28.49,138.23,28.55,138.32,28.61Z"/><path class="cls-21" d="M138.75,28.16l9.47,5.25a.58.58,0,0,0,.61,0L161.46,26c.27-.17.23-.56.23-.67,0-.46-8.83-4.74-9.83-5.34a.62.62,0,0,0-.63,0l-13,7.43A.92.92,0,0,0,138.75,28.16Z"/><path class="cls-22" d="M138.43,27.6,148.22,33a.62.62,0,0,0,.62,0l12.7-7.46a.31.31,0,0,0,.15-.26.29.29,0,0,0-.15-.27l-9.68-5.42a.6.6,0,0,0-.62,0l-12.81,7.46a.34.34,0,0,0-.17.28A.25.25,0,0,0,138.43,27.6Z"/><path class="cls-23" d="M149,28.72l2.69,1.5a.63.63,0,0,0,.65,0l4.1-2.38a.27.27,0,0,0,.14-.25.26.26,0,0,0-.15-.24l-2.68-1.51a.63.63,0,0,0-.65,0L149,28.23a.29.29,0,0,0-.14.25A.27.27,0,0,0,149,28.72Z"/><path class="cls-24" d="M149,9.73l2.36,9.11a.64.64,0,0,1-.31.55l-12.64,7.66a.58.58,0,0,1-.57-.48l-2.38-10.88a.83.83,0,0,1,.42-.83L148.1,7.75a.86.86,0,0,1,1,0V9.39A.79.79,0,0,1,149,9.73Z"/><path class="cls-25" d="M138.14,26.75l-2.38-11.1a.51.51,0,0,1,.3-.53l12.73-7.4c.22-.13.41,0,.46.26l2.39,11a.54.54,0,0,1-.29.61L138.56,27C138.34,27.14,138.19,27,138.14,26.75Z"/><polygon class="cls-24" points="153.72 29.75 154.07 29.96 156.1 28.77 155.75 28.57 153.72 29.75"/><path class="cls-23" d="M140.73,25.75l.49.28a.39.39,0,0,0,.38,0l7.74-4.55a.19.19,0,0,0,0-.32L149,21Z"/><path class="cls-24" d="M140.81,25.7l.45.25a.33.33,0,0,0,.36,0l7.57-4.44a.19.19,0,0,0,.09-.15.17.17,0,0,0-.09-.16l-.33-.18Z"/><path class="cls-24" d="M149.18,28.69l2.5,1.4a.6.6,0,0,0,.62,0l3.86-2.24a.25.25,0,0,0,.14-.23.3.3,0,0,0-.14-.23L153.65,26a.61.61,0,0,0-.61,0l-3.87,2.26a.26.26,0,0,0-.13.23A.25.25,0,0,0,149.18,28.69Z"/><path class="cls-26" d="M153.22,21.57l-.53.31a.07.07,0,0,0,0,.05.07.07,0,0,0,0,.06l1.28.72a.15.15,0,0,0,.16,0l.53-.31a.05.05,0,0,0,0,0,.06.06,0,0,0,0-.06l-1.29-.72A.14.14,0,0,0,153.22,21.57Z"/><path class="cls-26" d="M152.47,21.15l-.53.31a.05.05,0,0,0,0,.05.06.06,0,0,0,0,.06l.54.3a.14.14,0,0,0,.15,0l.53-.31a.07.07,0,0,0,0-.06.07.07,0,0,0,0-.05l-.54-.3A.14.14,0,0,0,152.47,21.15Z"/><path class="cls-26" d="M151.73,21.58l-1.27.74a.05.05,0,0,0,0,.05.06.06,0,0,0,0,.06l.54.3a.15.15,0,0,0,.16,0l1.27-.74a.06.06,0,0,0,0-.06.05.05,0,0,0,0-.05l-.54-.3A.15.15,0,0,0,151.73,21.58Z"/><path class="cls-26" d="M150.25,22.44l-.53.31a.05.05,0,0,0,0,.05.06.06,0,0,0,0,.06c.25.14.29.15.54.3a.15.15,0,0,0,.16,0l.53-.31a.05.05,0,0,0,0-.05.06.06,0,0,0,0-.06l-.54-.3A.15.15,0,0,0,150.25,22.44Z"/><path class="cls-26" d="M149.52,22.87l-.53.31a.07.07,0,0,0,0,.05.07.07,0,0,0,0,.06l.54.3a.14.14,0,0,0,.15,0l.53-.31a.05.05,0,0,0,0-.05.06.06,0,0,0,0-.06l-.54-.3A.14.14,0,0,0,149.52,22.87Z"/><path class="cls-26" d="M148.78,23.3l-.53.31a.05.05,0,0,0,0,.05.06.06,0,0,0,0,.06l.54.3a.14.14,0,0,0,.15,0l.53-.31a.05.05,0,0,0,0-.05.06.06,0,0,0,0-.06l-.54-.3A.14.14,0,0,0,148.78,23.3Z"/><path class="cls-26" d="M148,23.73l-.53.31a.05.05,0,0,0,0,.05.06.06,0,0,0,0,.06l.54.3a.15.15,0,0,0,.16,0l.53-.31a.09.09,0,0,0,0-.05.06.06,0,0,0,0-.06c-.25-.14-.29-.15-.54-.3A.15.15,0,0,0,148,23.73Z"/><path class="cls-26" d="M147.3,24.16l-.53.31a.05.05,0,0,0,0,.05.06.06,0,0,0,0,.06l.54.3a.15.15,0,0,0,.16,0l.53-.31a.05.05,0,0,0,0-.05.06.06,0,0,0,0-.06l-.54-.3A.15.15,0,0,0,147.3,24.16Z"/><path class="cls-26" d="M146.56,24.59l-.53.31a.06.06,0,0,0,0,.06.05.05,0,0,0,0,.05c.25.14.29.15.54.3a.15.15,0,0,0,.16,0l.53-.31a.05.05,0,0,0,0-.05.06.06,0,0,0,0-.06l-.54-.3A.15.15,0,0,0,146.56,24.59Z"/><path class="cls-26" d="M145.83,25l-.53.31a.06.06,0,0,0,0,.11l.55.3a.14.14,0,0,0,.15,0l.53-.31a.05.05,0,0,0,0-.05.06.06,0,0,0,0-.06L146,25A.14.14,0,0,0,145.83,25Z"/><path class="cls-26" d="M145.09,25.45l-.53.31a.07.07,0,0,0,0,.06.07.07,0,0,0,0,.05l.54.3a.14.14,0,0,0,.15,0l.53-.31a.05.05,0,0,0,0-.05.06.06,0,0,0,0-.06l-.54-.3A.14.14,0,0,0,145.09,25.45Z"/><path class="cls-26" d="M144.35,25.88l-.53.31a.06.06,0,0,0,0,.06.05.05,0,0,0,0,.05l.54.3a.15.15,0,0,0,.16,0l.52-.31a.07.07,0,0,0,0-.05.07.07,0,0,0,0-.06l-.54-.3A.14.14,0,0,0,144.35,25.88Z"/><path class="cls-26" d="M143.61,26.31l-.53.31a.06.06,0,0,0,0,.06.05.05,0,0,0,0,.05l.54.3a.15.15,0,0,0,.16,0l.53-.31a.05.05,0,0,0,0,0,.06.06,0,0,0,0-.06l-.54-.3A.15.15,0,0,0,143.61,26.31Z"/><path class="cls-26" d="M142.87,26.74c-.17.11-.35.21-.53.31a.06.06,0,0,0,0,.06.05.05,0,0,0,0,.05l.54.3a.15.15,0,0,0,.16,0l.53-.31a.05.05,0,0,0,0,0,.06.06,0,0,0,0-.06l-.54-.3A.15.15,0,0,0,142.87,26.74Z"/><path class="cls-26" d="M142.13,27.17c-.17.11-.35.21-.53.31a.06.06,0,0,0,0,.06.05.05,0,0,0,0,.05c.25.14.29.15.54.3a.15.15,0,0,0,.16,0l.53-.31a.05.05,0,0,0,0,0,.07.07,0,0,0,0-.06l-.54-.3A.15.15,0,0,0,142.13,27.17Z"/><path class="cls-26" d="M141.4,27.6l-.53.31a.07.07,0,0,0,0,.06.07.07,0,0,0,0,.05l.54.3a.14.14,0,0,0,.15,0c.18-.1.36-.2.53-.31a.05.05,0,0,0,0-.05.09.09,0,0,0,0-.06l-.54-.3A.14.14,0,0,0,141.4,27.6Z"/><path class="cls-26" d="M152.48,22l-.53.31a.05.05,0,0,0,0,.05.06.06,0,0,0,0,.06l.54.3a.14.14,0,0,0,.15,0l.53-.31a.05.05,0,0,0,0-.05.06.06,0,0,0,0-.06l-.54-.3A.14.14,0,0,0,152.48,22Z"/><path class="cls-26" d="M151.74,22.43l-.53.31a.05.05,0,0,0,0,.05.06.06,0,0,0,0,.06l.54.3a.15.15,0,0,0,.16,0l.52-.31a.07.07,0,0,0,0-.05.06.06,0,0,0,0-.06l-.55-.3A.14.14,0,0,0,151.74,22.43Z"/><path class="cls-26" d="M149.1,24l-.53.31a.07.07,0,0,0,0,.05.07.07,0,0,0,0,.06l.54.3a.14.14,0,0,0,.15,0l.53-.31a.05.05,0,0,0,0-.05.06.06,0,0,0,0-.06l-.54-.3A.14.14,0,0,0,149.1,24Z"/><path class="cls-26" d="M148.36,24.39l-.53.31a.05.05,0,0,0,0,.05.06.06,0,0,0,0,.06l.54.3a.14.14,0,0,0,.15,0l.53-.31a.07.07,0,0,0,0-.05.07.07,0,0,0,0-.06l-.54-.3A.14.14,0,0,0,148.36,24.39Z"/><path class="cls-26" d="M147.62,24.82l-.53.31a.05.05,0,0,0,0,.05.06.06,0,0,0,0,.06l.54.3a.15.15,0,0,0,.16,0l.53-.31a.05.05,0,0,0,0-.05.06.06,0,0,0,0-.06l-.54-.3A.15.15,0,0,0,147.62,24.82Z"/><path class="cls-26" d="M146.88,25.25l-.53.31a.05.05,0,0,0,0,.05.06.06,0,0,0,0,.06l.54.3a.15.15,0,0,0,.16,0l.53-.31a.05.05,0,0,0,0-.05.06.06,0,0,0,0-.06l-.54-.3A.15.15,0,0,0,146.88,25.25Z"/><path class="cls-26" d="M146.14,25.68l-.53.31a.06.06,0,0,0,0,.06.05.05,0,0,0,0,.05c.25.14.29.15.54.3a.15.15,0,0,0,.16,0l.53-.31a.05.05,0,0,0,0-.05.06.06,0,0,0,0-.06l-.54-.3A.15.15,0,0,0,146.14,25.68Z"/><path class="cls-26" d="M145.41,26.11l-.53.31a.07.07,0,0,0,0,.06.05.05,0,0,0,0,.05l.54.3a.14.14,0,0,0,.15,0l.53-.31a.05.05,0,0,0,0-.05.06.06,0,0,0,0-.06l-.54-.3A.14.14,0,0,0,145.41,26.11Z"/><path class="cls-26" d="M144.67,26.54l-.53.31a.06.06,0,0,0,0,.06.05.05,0,0,0,0,.05l.54.3a.14.14,0,0,0,.15,0l.53-.31a.05.05,0,0,0,0-.05.06.06,0,0,0,0-.06l-.54-.3A.14.14,0,0,0,144.67,26.54Z"/><path class="cls-26" d="M143.93,27l-.53.31a.06.06,0,0,0,0,.06.05.05,0,0,0,0,.05l.54.3a.15.15,0,0,0,.16,0l.52-.31a.07.07,0,0,0,0-.05.06.06,0,0,0,0-.06c-.25-.14-.29-.15-.54-.3A.15.15,0,0,0,143.93,27Z"/><path class="cls-26" d="M143.19,27.4c-.17.11-.35.21-.53.31a.06.06,0,0,0,0,.06.05.05,0,0,0,0,.05l.54.3a.15.15,0,0,0,.16,0l.53-.31a.05.05,0,0,0,0,0,.06.06,0,0,0,0-.06l-.54-.3A.15.15,0,0,0,143.19,27.4Z"/><path class="cls-26" d="M142.42,27.85l-.81.48a.09.09,0,0,0,0,.06.05.05,0,0,0,0,.05l.54.3a.15.15,0,0,0,.16,0l.81-.48a.07.07,0,0,0,0-.06.05.05,0,0,0,0-.05l-.54-.3A.15.15,0,0,0,142.42,27.85Z"/><path class="cls-26" d="M153.22,22.42c-.17.11-1.09.64-1.26.74a.07.07,0,0,0,0,.06.07.07,0,0,0,0,.05l.54.3a.14.14,0,0,0,.15,0l1.27-.74a.05.05,0,0,0,0,0,.06.06,0,0,0,0-.06l-.54-.3A.15.15,0,0,0,153.22,22.42Z"/><path class="cls-26" d="M151.75,23.28l-1.66,1a.07.07,0,0,0,0,.05.07.07,0,0,0,0,.06l.54.3a.14.14,0,0,0,.15,0c.18-.11,1.49-.85,1.66-1a.07.07,0,0,0,0-.05s0,0,0-.06l-.54-.3A.14.14,0,0,0,151.75,23.28Z"/><path class="cls-26" d="M149.84,24.38c-.17.11-.35.21-.53.31a.06.06,0,0,0,0,.06.05.05,0,0,0,0,.05c.25.14.29.15.54.3a.15.15,0,0,0,.16,0l.53-.31a.05.05,0,0,0,0-.05.06.06,0,0,0,0-.06l-.54-.3A.15.15,0,0,0,149.84,24.38Z"/><path class="cls-26" d="M149.11,24.81l-.53.31a.07.07,0,0,0,0,.06.05.05,0,0,0,0,.05l.55.3a.14.14,0,0,0,.15,0l.53-.31a.05.05,0,0,0,0,0,.06.06,0,0,0,0-.06l-.54-.3A.14.14,0,0,0,149.11,24.81Z"/><path class="cls-26" d="M148.37,25.24l-.53.31a.06.06,0,0,0,0,.06.05.05,0,0,0,0,.05l.54.3a.14.14,0,0,0,.15,0l.53-.31a.05.05,0,0,0,0,0,.06.06,0,0,0,0-.06l-.54-.3A.14.14,0,0,0,148.37,25.24Z"/><path class="cls-26" d="M147.63,25.67l-.53.31a.06.06,0,0,0,0,.06.05.05,0,0,0,0,.05l.54.3a.15.15,0,0,0,.16,0l.52-.31a.07.07,0,0,0,0,0,.06.06,0,0,0,0-.06l-.55-.3A.14.14,0,0,0,147.63,25.67Z"/><path class="cls-26" d="M146.89,26.1c-.17.11-.35.21-.53.31a.06.06,0,0,0,0,.06.05.05,0,0,0,0,.05l.54.3a.15.15,0,0,0,.16,0l.53-.31a.05.05,0,0,0,0-.05.09.09,0,0,0,0-.06l-.54-.3A.15.15,0,0,0,146.89,26.1Z"/><path class="cls-26" d="M146.15,26.53c-.17.11-.35.21-.53.31a.06.06,0,0,0,0,.06.05.05,0,0,0,0,.05l.54.3a.15.15,0,0,0,.16,0l.53-.31a.05.05,0,0,0,0-.05.09.09,0,0,0,0-.06l-.54-.3A.15.15,0,0,0,146.15,26.53Z"/><path class="cls-26" d="M145.41,27c-.17.11-.35.21-.53.31a.06.06,0,0,0,0,.06.05.05,0,0,0,0,.05l.55.3a.14.14,0,0,0,.15,0l.53-.31a.05.05,0,0,0,0-.05.09.09,0,0,0,0-.06l-.54-.3A.15.15,0,0,0,145.41,27Z"/><path class="cls-26" d="M144.68,27.39l-.53.31a.07.07,0,0,0,0,.06.07.07,0,0,0,0,0l.54.3a.14.14,0,0,0,.15,0c.18-.1.36-.2.53-.31a.05.05,0,0,0,0-.05.09.09,0,0,0,0-.06l-.54-.3A.14.14,0,0,0,144.68,27.39Z"/><path class="cls-26" d="M143.94,27.82l-.53.31a.06.06,0,0,0,0,.06.05.05,0,0,0,0,0l.54.3a.14.14,0,0,0,.15,0c.18-.1.36-.2.53-.31a.07.07,0,0,0,0-.05s0,0,0-.06l-.54-.3A.16.16,0,0,0,143.94,27.82Z"/><path class="cls-26" d="M143.19,28.27l-.83.48a.09.09,0,0,0,0,.06.05.05,0,0,0,0,.05l.54.3a.15.15,0,0,0,.16,0l.82-.48a.07.07,0,0,0,0-.06.09.09,0,0,0,0-.05l-.55-.3A.14.14,0,0,0,143.19,28.27Z"/><path class="cls-26" d="M153.23,23.27c-.17.11-.35.21-.53.31a.06.06,0,0,0,0,.06.05.05,0,0,0,0,.05l.54.3a.15.15,0,0,0,.16,0l.53-.31a.05.05,0,0,0,0-.05.09.09,0,0,0,0-.06l-.54-.3A.15.15,0,0,0,153.23,23.27Z"/><path class="cls-26" d="M152.5,23.7,152,24a.07.07,0,0,0,0,.06.05.05,0,0,0,0,.05l.55.3a.14.14,0,0,0,.15,0l.53-.31a.06.06,0,0,0,0-.1l-.54-.31A.16.16,0,0,0,152.5,23.7Z"/><path class="cls-26" d="M151.76,24.13l-.53.31a.07.07,0,0,0,0,.06.05.05,0,0,0,0,.05l.54.3a.14.14,0,0,0,.15,0c.18-.1.36-.2.53-.31a.06.06,0,0,0,0-.1l-.54-.31A.19.19,0,0,0,151.76,24.13Z"/><path class="cls-26" d="M151,24.57l-.53.3a.09.09,0,0,0,0,.06.05.05,0,0,0,0,.05l.54.3a.15.15,0,0,0,.16,0l.52-.31a.07.07,0,0,0,0,0,.09.09,0,0,0,0-.05l-.55-.31A.16.16,0,0,0,151,24.57Z"/><path class="cls-26" d="M150.28,25l-.53.3a.09.09,0,0,0,0,.06.05.05,0,0,0,0,.05l.54.3a.15.15,0,0,0,.16,0l.53-.31a.06.06,0,0,0,0-.1l-.54-.31A.18.18,0,0,0,150.28,25Z"/><path class="cls-26" d="M149.54,25.43l-.53.3a.09.09,0,0,0,0,.06.05.05,0,0,0,0,.05l.54.3a.15.15,0,0,0,.16,0l.53-.31a.06.06,0,0,0,0-.1l-.54-.31A.18.18,0,0,0,149.54,25.43Z"/><path class="cls-26" d="M148.8,25.86l-.53.3a.09.09,0,0,0,0,.06.05.05,0,0,0,0,.05l.55.3a.14.14,0,0,0,.15,0l.53-.3a.09.09,0,0,0,0-.06.05.05,0,0,0,0-.05l-.54-.31A.18.18,0,0,0,148.8,25.86Z"/><path class="cls-26" d="M148.07,26.29l-.53.3s0,0,0,.06a.07.07,0,0,0,0,.05l.54.3a.14.14,0,0,0,.15,0l.53-.3a.09.09,0,0,0,0-.06.05.05,0,0,0,0-.05l-.54-.31A.16.16,0,0,0,148.07,26.29Z"/><path class="cls-26" d="M147.33,26.72l-.53.31a.06.06,0,0,0,0,.1l.54.3a.14.14,0,0,0,.15,0l.53-.3s0,0,0-.06a.07.07,0,0,0,0-.05l-.54-.31A.16.16,0,0,0,147.33,26.72Z"/><path class="cls-26" d="M146.59,27.15l-.53.31a.06.06,0,0,0,0,.1l.54.3a.15.15,0,0,0,.16,0l.53-.3a.09.09,0,0,0,0-.06.05.05,0,0,0,0-.05l-.54-.31A.18.18,0,0,0,146.59,27.15Z"/><path class="cls-26" d="M145.85,27.58l-.53.31a.06.06,0,0,0,0,.1l.54.31a.18.18,0,0,0,.16,0l.53-.3a.09.09,0,0,0,0-.06.05.05,0,0,0,0-.05l-.54-.31A.18.18,0,0,0,145.85,27.58Z"/><path class="cls-26" d="M145.11,28l-.53.31a.06.06,0,0,0,0,.1l.54.31a.18.18,0,0,0,.16,0l.53-.3a.09.09,0,0,0,0-.06.05.05,0,0,0,0-.05l-.54-.3A.15.15,0,0,0,145.11,28Z"/><path class="cls-26" d="M144.38,28.43l-1.27.75a.06.06,0,0,0,0,.1l.54.31a.16.16,0,0,0,.15,0l1.28-.74a.06.06,0,0,0,0-.06.05.05,0,0,0,0-.05l-.54-.3A.15.15,0,0,0,144.38,28.43Z"/><path class="cls-26" d="M154.71,22.41l-.53.31a.06.06,0,0,0,0,.06.05.05,0,0,0,0,0l1.29.72a.14.14,0,0,0,.15,0c.18-.1.36-.2.53-.31a.06.06,0,0,0,0-.1l-1.28-.73A.15.15,0,0,0,154.71,22.41Z"/><path class="cls-26" d="M154.1,23.63l-.65.37a.09.09,0,0,0,0,.06.05.05,0,0,0,0,.05l.54.3a.15.15,0,0,0,.16,0l1-.57h0l0,0h0l0,0h0l0,0h0l-.06,0h0l-1.11-.63a.15.15,0,0,0-.16,0c-.17.11-.35.21-.53.31a.06.06,0,0,0,0,.06.05.05,0,0,0,0,.05l.66.37Z"/><path class="cls-26" d="M153.24,24.13l-.53.3a.09.09,0,0,0,0,.06.05.05,0,0,0,0,.05l.54.3a.15.15,0,0,0,.16,0l.53-.3a.09.09,0,0,0,0-.06.05.05,0,0,0,0-.05l-.54-.31A.18.18,0,0,0,153.24,24.13Z"/><path class="cls-26" d="M152.5,24.56c-.17.1-5.52,3.21-5.69,3.32a.05.05,0,0,0,0,.05.09.09,0,0,0,0,.06l.54.3a.16.16,0,0,0,.15,0L153.2,25a.09.09,0,0,0,0-.06.05.05,0,0,0,0-.05l-.54-.31A.18.18,0,0,0,152.5,24.56Z"/><path class="cls-26" d="M146.6,28l-.53.31a.05.05,0,0,0,0,.05.09.09,0,0,0,0,.06l.54.3a.22.22,0,0,0,.16,0l.52-.31a.07.07,0,0,0,0-.06.05.05,0,0,0,0-.05l-.55-.3A.14.14,0,0,0,146.6,28Z"/><path class="cls-26" d="M145.86,28.43l-.53.31a.05.05,0,0,0,0,.05.09.09,0,0,0,0,.06l.54.3a.22.22,0,0,0,.16,0c.17-.11.35-.21.53-.31a.06.06,0,0,0,0-.06.05.05,0,0,0,0-.05l-.54-.3A.15.15,0,0,0,145.86,28.43Z"/><path class="cls-26" d="M145.12,28.86l-.53.31a.05.05,0,0,0,0,0,.07.07,0,0,0,0,.06c.25.14.29.15.54.3a.18.18,0,0,0,.16,0l.53-.31a.06.06,0,0,0,0-.06.05.05,0,0,0,0-.05l-.54-.3A.15.15,0,0,0,145.12,28.86Z"/><path class="cls-26" d="M144.38,29.29l-.53.31a.05.05,0,0,0,0,0,.06.06,0,0,0,0,.06l.55.3a.14.14,0,0,0,.15,0l.53-.31a.06.06,0,0,0,0-.06.05.05,0,0,0,0-.05l-.54-.3A.15.15,0,0,0,144.38,29.29Z"/><path class="cls-26" d="M140.68,27.48l-.31.18s0,0,0,0,0,0,0,0l.32.18a.08.08,0,0,0,.09,0l.32-.19s0,0,0,0,0,0,0,0l-.32-.18A.09.09,0,0,0,140.68,27.48Z"/><path class="cls-26" d="M141.18,27.19l-.32.19s0,0,0,0,0,0,0,0l.32.18a.09.09,0,0,0,.1,0l.31-.18s0,0,0,0,0,0,0,0l-.32-.18A.1.1,0,0,0,141.18,27.19Z"/><path class="cls-26" d="M141.67,26.91l-.32.18a0,0,0,0,0,0,0s0,0,0,0l.33.18a.07.07,0,0,0,.09,0l.32-.18,0,0a.05.05,0,0,0,0,0l-.33-.18A.1.1,0,0,0,141.67,26.91Z"/><path class="cls-26" d="M142.16,26.62l-.31.18,0,0a.05.05,0,0,0,0,0l.32.18h.09l.32-.19s0,0,0,0,0,0,0,0l-.32-.18A.09.09,0,0,0,142.16,26.62Z"/><path class="cls-26" d="M142.66,26.33l-.32.18a.05.05,0,0,0,0,0l0,0,.33.18a.07.07,0,0,0,.09,0l.31-.19s0,0,0,0,0,0,0,0l-.32-.18A.08.08,0,0,0,142.66,26.33Z"/><path class="cls-26" d="M143.15,26l-.31.19s0,0,0,0,0,0,0,0,.16.09.32.18a.07.07,0,0,0,.09,0l.32-.18a.05.05,0,0,0,0,0s0,0,0,0l-.32-.18A.09.09,0,0,0,143.15,26Z"/><path class="cls-26" d="M143.65,25.75l-.32.19,0,0s0,0,0,0l.32.18a.09.09,0,0,0,.1,0l.31-.18s0,0,0,0a.05.05,0,0,0,0,0l-.32-.18A.14.14,0,0,0,143.65,25.75Z"/><path class="cls-26" d="M144.14,25.47l-.32.18,0,0a.05.05,0,0,0,0,0l.33.18a.14.14,0,0,0,.09,0l.32-.19a0,0,0,0,0,0,0s0,0,0,0l-.33-.18A.08.08,0,0,0,144.14,25.47Z"/><path class="cls-26" d="M144.63,25.18l-.31.18s0,0,0,0,0,0,0,0l.32.18a.08.08,0,0,0,.09,0l.32-.19s0,0,0,0,0,0,0,0l-.32-.18A.09.09,0,0,0,144.63,25.18Z"/><path class="cls-26" d="M145.13,24.89l-.32.19s0,0,0,0,0,0,0,0l.32.18a.09.09,0,0,0,.1,0l.31-.18s0,0,0,0,0,0,0,0l-.32-.18A.08.08,0,0,0,145.13,24.89Z"/><path class="cls-26" d="M145.62,24.6a3.37,3.37,0,0,1-.32.19,0,0,0,0,0,0,0s0,0,0,0l.33.18a.08.08,0,0,0,.09,0l.32-.18,0,0a.05.05,0,0,0,0,0l-.33-.18A.14.14,0,0,0,145.62,24.6Z"/><path class="cls-26" d="M146.11,24.32l-.31.18s0,0,0,0a.05.05,0,0,0,0,0l.32.18a.14.14,0,0,0,.09,0l.32-.19,0,0s0,0,0,0l-.32-.18A.09.09,0,0,0,146.11,24.32Z"/><path class="cls-26" d="M146.61,24l-.32.18a.05.05,0,0,0,0,0s0,0,0,0l.32.18a.09.09,0,0,0,.1,0l.31-.19s0,0,0,0,0,0,0,0-.16-.09-.32-.18A.08.08,0,0,0,146.61,24Z"/><path class="cls-26" d="M147.1,23.74l-.31.19s0,0,0,0,0,0,0,0,.16.09.32.18a.08.08,0,0,0,.09,0l.32-.18a.05.05,0,0,0,0,0l0,0-.32-.18A.09.09,0,0,0,147.1,23.74Z"/><path class="cls-26" d="M147.6,23.45l-.32.19s0,0,0,0,0,0,0,0l.32.18a.09.09,0,0,0,.1,0l.31-.18,0,0a.05.05,0,0,0,0,0l-.32-.18Z"/><path class="cls-26" d="M148.09,23.17l-.32.18,0,0a.05.05,0,0,0,0,0l.33.18h.09a3.37,3.37,0,0,1,.32-.19,0,0,0,0,0,0,0s0,0,0,0l-.33-.18A.08.08,0,0,0,148.09,23.17Z"/><path class="cls-26" d="M148.58,22.88l-.31.18s0,0,0,0,0,0,0,0l.32.18a.1.1,0,0,0,.09,0l.32-.19s0,0,0,0,0,0,0,0l-.32-.18A.09.09,0,0,0,148.58,22.88Z"/><path class="cls-26" d="M149.08,22.59l-.32.19s0,0,0,0,0,0,0,0l.32.18a.09.09,0,0,0,.1,0l.31-.18a.05.05,0,0,0,0,0s0,0,0,0l-.32-.18A.08.08,0,0,0,149.08,22.59Z"/><path class="cls-26" d="M149.57,22.3a3.37,3.37,0,0,1-.32.19,0,0,0,0,0,0,0s0,0,0,0l.33.18a.08.08,0,0,0,.09,0l.32-.18s0,0,0,0a.05.05,0,0,0,0,0l-.33-.18A.14.14,0,0,0,149.57,22.3Z"/><path class="cls-26" d="M150.06,22l-.31.18s0,0,0,0a.05.05,0,0,0,0,0l.32.18a.1.1,0,0,0,.09,0l.32-.18,0,0s0,0,0,0l-.32-.18A.09.09,0,0,0,150.06,22Z"/><path class="cls-26" d="M150.56,21.73l-.32.18a.05.05,0,0,0,0,0s0,0,0,0l.32.18a.12.12,0,0,0,.1,0L151,22s0,0,0,0,0,0,0,0a2.43,2.43,0,0,0-.32-.18A.07.07,0,0,0,150.56,21.73Z"/><path class="cls-26" d="M151.05,21.44l-.31.19s0,0,0,0a0,0,0,0,0,0,0l.33.18a.08.08,0,0,0,.09,0l.32-.18a.05.05,0,0,0,0,0l0,0-.32-.18A.09.09,0,0,0,151.05,21.44Z"/><path class="cls-26" d="M151.55,21.15l-.32.19s0,0,0,0,0,0,0,0l.32.18a.09.09,0,0,0,.1,0l.31-.18,0,0a.05.05,0,0,0,0,0l-.32-.18Z"/><path class="cls-26" d="M152,20.87l-.32.18,0,0a.05.05,0,0,0,0,0l.33.18a.1.1,0,0,0,.09,0l.32-.18a0,0,0,0,0,0,0s0,0,0,0l-.33-.19A.1.1,0,0,0,152,20.87Z"/><path class="cls-26" d="M151,22.88l-.9.52a.09.09,0,0,0,0,.06.07.07,0,0,0,0,.05l.54.3a.14.14,0,0,0,.15,0l.91-.52a.07.07,0,0,0,0-.06.05.05,0,0,0,0-.05l-.54-.3A.15.15,0,0,0,151,22.88Z"/><path class="cls-26" d="M149.86,23.52l-.53.31a.06.06,0,0,0,0,.06.05.05,0,0,0,0,.05l.54.3a.15.15,0,0,0,.16,0l.52-.31a.07.07,0,0,0,0-.05s0,0,0-.06l-.55-.3A.14.14,0,0,0,149.86,23.52Z"/><path class="cls-27" d="M151,22.8l-.91.53a.05.05,0,0,0,0,.05.09.09,0,0,0,0,.06c.25.14.29.15.54.3a.22.22,0,0,0,.16,0l.91-.53a.05.05,0,0,0,0-.05.06.06,0,0,0,0-.06l-.54-.3A.15.15,0,0,0,151,22.8Z"/><path class="cls-27" d="M149.88,23.45l-.56.33a.06.06,0,0,0,0,.1l.54.31a.18.18,0,0,0,.16,0l.56-.32a.06.06,0,0,0,0-.06.05.05,0,0,0,0-.05l-.54-.3A.15.15,0,0,0,149.88,23.45Z"/><path class="cls-27" d="M153.21,21.51l-.53.31a.06.06,0,0,0,0,.1l1.29.73a.22.22,0,0,0,.16,0c.17-.11.35-.21.53-.31a.06.06,0,0,0,0-.06.05.05,0,0,0,0-.05l-1.29-.73A.18.18,0,0,0,153.21,21.51Z"/><path class="cls-27" d="M152.47,21.09l-.53.3a.09.09,0,0,0,0,.06.05.05,0,0,0,0,.05l.54.3a.14.14,0,0,0,.15,0c.18-.1.36-.2.53-.31a.06.06,0,0,0,0-.1l-.54-.31A.16.16,0,0,0,152.47,21.09Z"/><path class="cls-27" d="M151.73,21.52l-1.27.73a.09.09,0,0,0,0,.06.05.05,0,0,0,0,.05l.54.3a.15.15,0,0,0,.16,0c.17-.1,1.09-.63,1.26-.74a.07.07,0,0,0,0-.05.05.05,0,0,0,0-.05l-.54-.31A.18.18,0,0,0,151.73,21.52Z"/><path class="cls-27" d="M150.25,22.38l-.53.3a.09.09,0,0,0,0,.06.05.05,0,0,0,0,.05l.54.3a.15.15,0,0,0,.16,0l.53-.3a.09.09,0,0,0,0-.06.05.05,0,0,0,0-.05l-.54-.31A.18.18,0,0,0,150.25,22.38Z"/><path class="cls-27" d="M149.51,22.81l-.53.31a.06.06,0,0,0,0,.1l.55.3a.14.14,0,0,0,.15,0l.53-.3a.09.09,0,0,0,0-.06.05.05,0,0,0,0-.05l-.54-.31A.18.18,0,0,0,149.51,22.81Z"/><path class="cls-27" d="M148.78,23.24c-.18.1-.36.2-.53.31a.05.05,0,0,0,0,.1l.54.31a.16.16,0,0,0,.15,0l.53-.3a.09.09,0,0,0,0-.06.05.05,0,0,0,0-.05l-.54-.31A.16.16,0,0,0,148.78,23.24Z"/><path class="cls-27" d="M148,23.67l-.53.31a.06.06,0,0,0,0,.1l.54.31a.16.16,0,0,0,.15,0l.53-.3s0,0,0-.06a.07.07,0,0,0,0-.05l-.54-.3A.14.14,0,0,0,148,23.67Z"/><path class="cls-27" d="M147.3,24.1l-.53.31a.06.06,0,0,0,0,.1l.54.31a.18.18,0,0,0,.16,0l.53-.3a.09.09,0,0,0,0-.06.05.05,0,0,0,0-.05l-.54-.3A.15.15,0,0,0,147.3,24.1Z"/><path class="cls-27" d="M146.56,24.53l-.53.31a.06.06,0,0,0,0,.1l.54.31a.18.18,0,0,0,.16,0l.53-.3a.06.06,0,0,0,0-.06.05.05,0,0,0,0-.05l-.54-.3A.15.15,0,0,0,146.56,24.53Z"/><path class="cls-27" d="M145.82,25l-.53.31a.05.05,0,0,0,0,.05.09.09,0,0,0,0,.06c.25.14.29.15.54.3a.18.18,0,0,0,.16,0l.53-.3a.06.06,0,0,0,0-.06.05.05,0,0,0,0,0L146,25A.15.15,0,0,0,145.82,25Z"/><path class="cls-27" d="M145.09,25.39c-.18.1-.36.2-.53.31a.07.07,0,0,0,0,.05s0,0,0,.06l.54.3a.19.19,0,0,0,.15,0l.53-.31a.06.06,0,0,0,0-.06.05.05,0,0,0,0,0l-.54-.3A.14.14,0,0,0,145.09,25.39Z"/><path class="cls-27" d="M144.35,25.82l-.53.31a.05.05,0,0,0,0,.05.09.09,0,0,0,0,.06l.54.3a.2.2,0,0,0,.15,0l.53-.31a.06.06,0,0,0,0-.06.05.05,0,0,0,0-.05l-.54-.3A.14.14,0,0,0,144.35,25.82Z"/><path class="cls-27" d="M143.61,26.25l-.53.31a.05.05,0,0,0,0,.05.07.07,0,0,0,0,.06l.54.3a.18.18,0,0,0,.16,0c.17-.11.35-.21.53-.31a.09.09,0,0,0,0-.06.05.05,0,0,0,0-.05l-.54-.3A.15.15,0,0,0,143.61,26.25Z"/><path class="cls-27" d="M142.87,26.68l-.53.31a.05.05,0,0,0,0,.05.07.07,0,0,0,0,.06l.54.3a.18.18,0,0,0,.16,0c.17-.11.35-.21.53-.31a.06.06,0,0,0,0-.06.05.05,0,0,0,0-.05l-.54-.3A.15.15,0,0,0,142.87,26.68Z"/><path class="cls-27" d="M142.13,27.11l-.53.31a.05.05,0,0,0,0,0,.06.06,0,0,0,0,.06c.25.14.29.15.54.3a.18.18,0,0,0,.16,0l.53-.31a.06.06,0,0,0,0-.06.05.05,0,0,0,0-.05l-.54-.3A.15.15,0,0,0,142.13,27.11Z"/><path class="cls-27" d="M141.4,27.54l-.54.31a.05.05,0,0,0,0,0,.06.06,0,0,0,0,.06l.55.3a.14.14,0,0,0,.15,0l.53-.31a.06.06,0,0,0,0-.06.05.05,0,0,0,0-.05l-.54-.3A.14.14,0,0,0,141.4,27.54Z"/><path class="cls-27" d="M152.48,21.94c-.18.1-.36.2-.53.31a.05.05,0,0,0,0,.1l.54.31a.16.16,0,0,0,.15,0l.53-.3a.09.09,0,0,0,0-.06.05.05,0,0,0,0-.05l-.54-.31A.16.16,0,0,0,152.48,21.94Z"/><path class="cls-27" d="M151.74,22.37l-.53.31a.06.06,0,0,0,0,.1l.54.31a.16.16,0,0,0,.15,0l.53-.3s0,0,0-.06a.07.07,0,0,0,0,0l-.54-.3A.14.14,0,0,0,151.74,22.37Z"/><path class="cls-27" d="M149.1,23.9l-.53.3a.09.09,0,0,0,0,.06.05.05,0,0,0,0,0l.54.3a.14.14,0,0,0,.15,0l.53-.3s0,0,0-.06a.07.07,0,0,0,0-.05l-.54-.31A.16.16,0,0,0,149.1,23.9Z"/><path class="cls-27" d="M148.36,24.33l-.53.31a.06.06,0,0,0,0,.1l.54.3a.15.15,0,0,0,.16,0l.53-.3a.09.09,0,0,0,0-.06.05.05,0,0,0,0-.05l-.54-.31A.18.18,0,0,0,148.36,24.33Z"/><path class="cls-27" d="M147.62,24.76l-.53.31a.06.06,0,0,0,0,.1l.54.3a.15.15,0,0,0,.16,0l.53-.3a.09.09,0,0,0,0-.06.05.05,0,0,0,0-.05l-.54-.31A.18.18,0,0,0,147.62,24.76Z"/><path class="cls-27" d="M146.88,25.19l-.53.31a.06.06,0,0,0,0,.1l.54.31a.18.18,0,0,0,.16,0l.53-.3a.09.09,0,0,0,0-.06.05.05,0,0,0,0-.05l-.54-.31A.18.18,0,0,0,146.88,25.19Z"/><path class="cls-27" d="M146.15,25.62c-.18.1-.36.2-.53.31a.07.07,0,0,0,0,.05.05.05,0,0,0,0,.05l.54.31a.16.16,0,0,0,.15,0l.53-.3a.09.09,0,0,0,0-.06.05.05,0,0,0,0,0l-.54-.31A.16.16,0,0,0,146.15,25.62Z"/><path class="cls-27" d="M145.41,26.05c-.18.1-.36.2-.53.31a.06.06,0,0,0,0,.1l.54.31a.16.16,0,0,0,.15,0l.53-.3a.09.09,0,0,0,0-.06.05.05,0,0,0,0,0l-.54-.3A.14.14,0,0,0,145.41,26.05Z"/><path class="cls-27" d="M144.67,26.48l-.53.31a.06.06,0,0,0,0,.1l.54.31a.18.18,0,0,0,.16,0l.52-.3s0,0,0-.06a.05.05,0,0,0,0,0l-.55-.3A.14.14,0,0,0,144.67,26.48Z"/><path class="cls-27" d="M143.93,26.91l-.53.31a.05.05,0,0,0,0,.05.09.09,0,0,0,0,.06l.54.3a.18.18,0,0,0,.16,0l.53-.3a.06.06,0,0,0,0-.06.05.05,0,0,0,0-.05l-.54-.3A.15.15,0,0,0,143.93,26.91Z"/><path class="cls-27" d="M143.19,27.34l-.53.31a.05.05,0,0,0,0,.05.09.09,0,0,0,0,.06c.25.14.29.15.54.3a.22.22,0,0,0,.16,0l.53-.31a.06.06,0,0,0,0-.06.05.05,0,0,0,0-.05l-.54-.3A.15.15,0,0,0,143.19,27.34Z"/><path class="cls-27" d="M142.44,27.78l-.83.49a.05.05,0,0,0,0,.05.06.06,0,0,0,0,.06l.54.3a.15.15,0,0,0,.16,0l.83-.49a.05.05,0,0,0,0-.05.06.06,0,0,0,0-.06l-.54-.3A.15.15,0,0,0,142.44,27.78Z"/><path class="cls-27" d="M153.22,22.36c-.17.1-1.09.63-1.26.74a.05.05,0,0,0,0,0,.07.07,0,0,0,0,.06l.55.3a.16.16,0,0,0,.15,0l1.27-.74a.06.06,0,0,0,0-.06.05.05,0,0,0,0-.05l-.54-.3A.15.15,0,0,0,153.22,22.36Z"/><path class="cls-27" d="M151.73,23.22l-1.67,1a.05.05,0,0,0,0,0,.06.06,0,0,0,0,.06l.54.3a.14.14,0,0,0,.15,0l1.68-1a.09.09,0,0,0,0-.05.06.06,0,0,0,0-.06c-.25-.14-.29-.15-.54-.3A.15.15,0,0,0,151.73,23.22Z"/><path class="cls-27" d="M149.85,24.32c-.18.1-.36.2-.53.31a.07.07,0,0,0,0,.05.05.05,0,0,0,0,.05l.55.31a.16.16,0,0,0,.15,0l.53-.3a.07.07,0,0,0,0-.06.05.05,0,0,0,0-.05l-.54-.3A.14.14,0,0,0,149.85,24.32Z"/><path class="cls-27" d="M149.11,24.75c-.18.1-.36.2-.53.31a.05.05,0,0,0,0,.05.09.09,0,0,0,0,.06l.54.3a.16.16,0,0,0,.15,0l.53-.3a.06.06,0,0,0,0-.06.05.05,0,0,0,0-.05l-.54-.3A.14.14,0,0,0,149.11,24.75Z"/><path class="cls-27" d="M148.37,25.18l-.53.31a.05.05,0,0,0,0,.05.09.09,0,0,0,0,.06l.54.3a.18.18,0,0,0,.16,0l.52-.3a.07.07,0,0,0,0-.06.05.05,0,0,0,0-.05l-.55-.3A.14.14,0,0,0,148.37,25.18Z"/><path class="cls-27" d="M147.63,25.61l-.53.31a.05.05,0,0,0,0,0,.09.09,0,0,0,0,.06l.54.3a.22.22,0,0,0,.16,0c.17-.11.35-.21.53-.31a.06.06,0,0,0,0-.06.05.05,0,0,0,0-.05l-.54-.3A.15.15,0,0,0,147.63,25.61Z"/><path class="cls-27" d="M146.89,26l-.53.31a.05.05,0,0,0,0,0,.09.09,0,0,0,0,.06c.25.14.29.15.54.3a.22.22,0,0,0,.16,0l.53-.31a.06.06,0,0,0,0-.06.05.05,0,0,0,0-.05l-.54-.3A.15.15,0,0,0,146.89,26Z"/><path class="cls-27" d="M146.15,26.47l-.53.31a.05.05,0,0,0,0,0,.07.07,0,0,0,0,.06l.55.3a.16.16,0,0,0,.15,0l.53-.31a.06.06,0,0,0,0-.06.05.05,0,0,0,0-.05l-.54-.3A.15.15,0,0,0,146.15,26.47Z"/><path class="cls-27" d="M145.42,26.9c-.18.1-.36.2-.53.31a.07.07,0,0,0,0,.05s0,0,0,.06l.54.3a.14.14,0,0,0,.15,0l.53-.31a.06.06,0,0,0,0-.06.05.05,0,0,0,0-.05l-.54-.3A.14.14,0,0,0,145.42,26.9Z"/><path class="cls-27" d="M144.68,27.33l-.53.31a.05.05,0,0,0,0,.05.06.06,0,0,0,0,.06l.54.3a.14.14,0,0,0,.15,0l.53-.31a.07.07,0,0,0,0-.06.07.07,0,0,0,0-.05l-.54-.3A.14.14,0,0,0,144.68,27.33Z"/><path class="cls-27" d="M143.94,27.76l-.53.31a.05.05,0,0,0,0,.05.06.06,0,0,0,0,.06l.54.3a.15.15,0,0,0,.16,0c.17-.11.35-.21.53-.31a.06.06,0,0,0,0-.06.05.05,0,0,0,0-.05l-.54-.3A.15.15,0,0,0,143.94,27.76Z"/><path class="cls-27" d="M143.19,28.21l-.83.48a.06.06,0,0,0,0,.06.05.05,0,0,0,0,.05l.54.3a.15.15,0,0,0,.16,0l.83-.49a.06.06,0,0,0,0-.1l-.54-.31A.18.18,0,0,0,143.19,28.21Z"/><path class="cls-27" d="M153.23,23.21l-.53.31a.05.05,0,0,0,0,.05.06.06,0,0,0,0,.06c.25.14.29.15.54.3a.15.15,0,0,0,.16,0l.53-.31a.06.06,0,0,0,0-.06.05.05,0,0,0,0,0l-.54-.3A.15.15,0,0,0,153.23,23.21Z"/><path class="cls-27" d="M152.49,23.64,152,24a.05.05,0,0,0,0,.05.06.06,0,0,0,0,.06c.25.14.29.15.54.3a.15.15,0,0,0,.16,0l.53-.31a.05.05,0,0,0,0-.05.06.06,0,0,0,0-.06l-.54-.3A.15.15,0,0,0,152.49,23.64Z"/><path class="cls-27" d="M151.76,24.07l-.53.31a.07.07,0,0,0,0,.05.07.07,0,0,0,0,.06l.54.3a.14.14,0,0,0,.15,0l.53-.31a.05.05,0,0,0,0-.05.06.06,0,0,0,0-.06l-.54-.3A.14.14,0,0,0,151.76,24.07Z"/><path class="cls-27" d="M151,24.5l-.53.31a.05.05,0,0,0,0,.05.06.06,0,0,0,0,.06l.54.3a.14.14,0,0,0,.15,0l.53-.31a.07.07,0,0,0,0-.05.07.07,0,0,0,0-.06l-.54-.3A.14.14,0,0,0,151,24.5Z"/><path class="cls-27" d="M150.28,24.93l-.53.31a.05.05,0,0,0,0,.05.06.06,0,0,0,0,.06l.54.3a.15.15,0,0,0,.16,0l.53-.31a.05.05,0,0,0,0-.05.06.06,0,0,0,0-.06l-.54-.3A.15.15,0,0,0,150.28,24.93Z"/><path class="cls-27" d="M149.54,25.36l-.53.31a.05.05,0,0,0,0,0,.06.06,0,0,0,0,.06l.54.3a.15.15,0,0,0,.16,0l.53-.31a.05.05,0,0,0,0-.05.06.06,0,0,0,0-.06l-.54-.3A.15.15,0,0,0,149.54,25.36Z"/><path class="cls-27" d="M148.8,25.79l-.53.31a.06.06,0,0,0,0,.06.05.05,0,0,0,0,.05c.25.14.29.15.54.3a.15.15,0,0,0,.16,0l.53-.31a.05.05,0,0,0,0-.05.06.06,0,0,0,0-.06l-.54-.3A.15.15,0,0,0,148.8,25.79Z"/><path class="cls-27" d="M148.07,26.22l-.53.31a.07.07,0,0,0,0,.06.05.05,0,0,0,0,.05l.55.3a.14.14,0,0,0,.15,0l.53-.31a.05.05,0,0,0,0-.05.06.06,0,0,0,0-.06l-.54-.3A.14.14,0,0,0,148.07,26.22Z"/><path class="cls-27" d="M147.33,26.65l-.53.31a.06.06,0,0,0,0,.06.05.05,0,0,0,0,.05l.54.3a.14.14,0,0,0,.15,0l.53-.31a.05.05,0,0,0,0,0,.06.06,0,0,0,0-.06l-.54-.3A.14.14,0,0,0,147.33,26.65Z"/><path class="cls-27" d="M146.59,27.08l-.53.31a.06.06,0,0,0,0,.06.05.05,0,0,0,0,.05l.54.3a.15.15,0,0,0,.16,0l.52-.31a.07.07,0,0,0,0,0,.09.09,0,0,0,0-.06l-.55-.3A.14.14,0,0,0,146.59,27.08Z"/><path class="cls-27" d="M145.85,27.51c-.17.11-.35.21-.53.31a.06.06,0,0,0,0,.06.05.05,0,0,0,0,.05l.54.3a.15.15,0,0,0,.16,0l.53-.31a.05.05,0,0,0,0-.05.06.06,0,0,0,0-.06l-.54-.3A.15.15,0,0,0,145.85,27.51Z"/><path class="cls-27" d="M145.11,27.94c-.17.11-.35.21-.53.31a.06.06,0,0,0,0,.06.05.05,0,0,0,0,.05c.25.14.29.15.54.3a.15.15,0,0,0,.16,0l.53-.31a.05.05,0,0,0,0-.05.07.07,0,0,0,0-.06l-.54-.3A.15.15,0,0,0,145.11,27.94Z"/><path class="cls-27" d="M144.38,28.36l-1.27.75a.07.07,0,0,0,0,.06.07.07,0,0,0,0,0l.54.3a.14.14,0,0,0,.15,0l1.27-.75a.07.07,0,0,0,0-.05s0,0,0-.06l-.54-.3A.14.14,0,0,0,144.38,28.36Z"/><path class="cls-27" d="M154.71,22.35l-.53.31a.05.05,0,0,0,0,.05.06.06,0,0,0,0,.06l1.29.72a.14.14,0,0,0,.15,0l.53-.31a.05.05,0,0,0,0-.05.06.06,0,0,0,0-.06l-1.29-.72A.14.14,0,0,0,154.71,22.35Z"/><path class="cls-27" d="M154.1,23.56l-.65.38a.05.05,0,0,0,0,0,.06.06,0,0,0,0,.06l.54.3a.15.15,0,0,0,.16,0l1-.58h.13l0,0h0l0,0h0l-.06,0h0l-1.11-.62a.15.15,0,0,0-.16,0l-.53.31a.05.05,0,0,0,0,.05.06.06,0,0,0,0,.06l.66.36Z"/><path class="cls-27" d="M153.24,24.06l-.53.31a.06.06,0,0,0,0,.06.05.05,0,0,0,0,.05l.54.3a.15.15,0,0,0,.16,0l.53-.31a.05.05,0,0,0,0,0,.06.06,0,0,0,0-.06l-.54-.3A.15.15,0,0,0,153.24,24.06Z"/><path class="cls-27" d="M152.5,24.49l-5.69,3.32a.07.07,0,0,0,0,.06.07.07,0,0,0,0,.05l.54.3a.14.14,0,0,0,.15,0l5.7-3.32a.05.05,0,0,0,0,0,.06.06,0,0,0,0-.06l-.54-.3A.15.15,0,0,0,152.5,24.49Z"/><path class="cls-27" d="M146.6,27.93l-.53.31a.06.06,0,0,0,0,.06.05.05,0,0,0,0,.05l.54.3a.14.14,0,0,0,.15,0c.18-.1.36-.2.53-.31a.07.07,0,0,0,0-.05s0,0,0-.06l-.54-.3A.16.16,0,0,0,146.6,27.93Z"/><path class="cls-27" d="M145.86,28.36l-.53.31a.06.06,0,0,0,0,.06.05.05,0,0,0,0,.05l.54.3a.15.15,0,0,0,.16,0l.53-.31a.06.06,0,0,0,0-.1l-.54-.31A.18.18,0,0,0,145.86,28.36Z"/><path class="cls-27" d="M145.12,28.79c-.17.11-.35.21-.53.31a.06.06,0,0,0,0,.06.05.05,0,0,0,0,.05l.54.3a.15.15,0,0,0,.16,0l.53-.31a.06.06,0,0,0,0-.1l-.54-.31A.18.18,0,0,0,145.12,28.79Z"/><path class="cls-27" d="M144.38,29.22c-.17.11-.35.21-.53.31a.09.09,0,0,0,0,.06.05.05,0,0,0,0,.05l.54.3a.15.15,0,0,0,.16,0l.53-.31a.06.06,0,0,0,0-.1l-.54-.31A.22.22,0,0,0,144.38,29.22Z"/><path class="cls-27" d="M140.68,27.42l-.31.18s0,0,0,0,0,0,0,0l.32.18a.1.1,0,0,0,.09,0l.32-.18s0,0,0,0,0,0,0,0l-.32-.19A.12.12,0,0,0,140.68,27.42Z"/><path class="cls-27" d="M141.18,27.13l-.32.18a.05.05,0,0,0,0,0l0,0,.32.18a.12.12,0,0,0,.1,0l.31-.19s0,0,0,0,0,0,0,0l-.32-.18A.07.07,0,0,0,141.18,27.13Z"/><path class="cls-27" d="M141.67,26.84l-.32.19s0,0,0,0,0,0,0,0l.33.18a.07.07,0,0,0,.09,0l.32-.18s0,0,0,0a0,0,0,0,0,0,0l-.33-.18A.07.07,0,0,0,141.67,26.84Z"/><path class="cls-27" d="M142.16,26.55l-.31.19s0,0,0,0,0,0,0,0l.32.18a.07.07,0,0,0,.09,0l.32-.18s0,0,0,0a.05.05,0,0,0,0,0l-.32-.18A.17.17,0,0,0,142.16,26.55Z"/><path class="cls-27" d="M142.66,26.27l-.32.18s0,0,0,0a.05.05,0,0,0,0,0l.32.18a.12.12,0,0,0,.1,0l.31-.18s0,0,0,0,0,0,0,0l-.32-.19A.1.1,0,0,0,142.66,26.27Z"/><path class="cls-27" d="M143.15,26l-.32.18s0,0,0,0a0,0,0,0,0,0,0l.33.18a.14.14,0,0,0,.09,0l.32-.19s0,0,0,0,0,0,0,0l-.33-.18A.08.08,0,0,0,143.15,26Z"/><path class="cls-27" d="M143.65,25.69a3.37,3.37,0,0,0-.32.19s0,0,0,0,0,0,0,0l.32.18a.07.07,0,0,0,.09,0l.32-.18a.05.05,0,0,0,0,0l0,0-.32-.18A.07.07,0,0,0,143.65,25.69Z"/><path class="cls-27" d="M144.14,25.4l-.32.19s0,0,0,0,0,0,0,0l.33.18a.07.07,0,0,0,.09,0l.31-.18s0,0,0,0,0,0,0,0l-.32-.18Z"/><path class="cls-27" d="M144.63,25.12l-.31.18s0,0,0,0,0,0,0,0l.32.17a.07.07,0,0,0,.09,0l.32-.18s0,0,0,0,0,0,0,0l-.32-.19A.12.12,0,0,0,144.63,25.12Z"/><path class="cls-27" d="M145.13,24.83l-.32.18a.05.05,0,0,0,0,0l0,0,.32.18h.1l.31-.19s0,0,0,0,0,0,0,0l-.32-.18A.08.08,0,0,0,145.13,24.83Z"/><path class="cls-27" d="M145.62,24.54l-.32.18a.05.05,0,0,0,0,0l0,0,.33.18a.08.08,0,0,0,.09,0l.32-.19s0,0,0,0a0,0,0,0,0,0,0l-.33-.18A.08.08,0,0,0,145.62,24.54Z"/><path class="cls-27" d="M146.11,24.25l-.31.19s0,0,0,0,0,0,0,0l.32.18a.08.08,0,0,0,.09,0l.32-.18a.05.05,0,0,0,0,0s0,0,0,0l-.32-.18A.12.12,0,0,0,146.11,24.25Z"/><path class="cls-27" d="M146.61,24l-.32.18,0,0s0,0,0,0l.32.18a.09.09,0,0,0,.1,0l.31-.18s0,0,0,0,0,0,0,0L146.7,24A.1.1,0,0,0,146.61,24Z"/><path class="cls-27" d="M147.1,23.68l-.32.18a0,0,0,0,0,0,0s0,0,0,0l.33.18a.14.14,0,0,0,.09,0l.32-.19s0,0,0,0,0,0,0,0l-.33-.18A.07.07,0,0,0,147.1,23.68Z"/><path class="cls-27" d="M147.59,23.39l-.31.18a.05.05,0,0,0,0,0s0,0,0,0l.32.18a.08.08,0,0,0,.09,0,3.37,3.37,0,0,0,.32-.19s0,0,0,0,0,0,0,0l-.32-.18A.09.09,0,0,0,147.59,23.39Z"/><path class="cls-27" d="M148.09,23.1l-.32.19s0,0,0,0,0,0,0,0l.32.18a.09.09,0,0,0,.1,0l.31-.18s0,0,0,0,0,0,0,0l-.32-.18A.07.07,0,0,0,148.09,23.1Z"/><path class="cls-27" d="M148.58,22.81l-.31.19s0,0,0,0,0,0,0,0a2.43,2.43,0,0,0,.32.18.07.07,0,0,0,.09,0l.32-.18,0,0a.05.05,0,0,0,0,0l-.32-.18Z"/><path class="cls-27" d="M149.08,22.53l-.32.18,0,0a.05.05,0,0,0,0,0l.32.18h.1l.31-.19s0,0,0,0,0,0,0,0l-.32-.18A.07.07,0,0,0,149.08,22.53Z"/><path class="cls-27" d="M149.57,22.24l-.32.18a.05.05,0,0,0,0,0l0,0,.33.18a.08.08,0,0,0,.09,0l.32-.19s0,0,0,0a0,0,0,0,0,0,0l-.33-.18A.08.08,0,0,0,149.57,22.24Z"/><path class="cls-27" d="M150.06,22l-.31.19s0,0,0,0,0,0,0,0l.32.18a.08.08,0,0,0,.09,0l.32-.18a.05.05,0,0,0,0,0s0,0,0,0l-.32-.18A.09.09,0,0,0,150.06,22Z"/><path class="cls-27" d="M150.56,21.66l-.32.19,0,0s0,0,0,0l.32.18a.09.09,0,0,0,.1,0l.31-.18s0,0,0,0,0,0,0,0l-.32-.18A.14.14,0,0,0,150.56,21.66Z"/><path class="cls-27" d="M151.05,21.38l-.32.18a0,0,0,0,0,0,0s0,0,0,0l.33.18a.14.14,0,0,0,.09,0l.32-.19s0,0,0,0,0,0,0,0l-.33-.18A.07.07,0,0,0,151.05,21.38Z"/><path class="cls-27" d="M151.54,21.09l-.31.18a.05.05,0,0,0,0,0s0,0,0,0l.32.18a.07.07,0,0,0,.09,0,3.37,3.37,0,0,0,.32-.19s0,0,0,0,0,0,0,0l-.32-.18A.09.09,0,0,0,151.54,21.09Z"/><path class="cls-27" d="M152,20.8l-.32.19s0,0,0,0,0,0,0,0l.32.18a.09.09,0,0,0,.1,0l.31-.18s0,0,0,0,0,0,0,0l-.32-.18A.08.08,0,0,0,152,20.8Z"/><polygon class="cls-28" points="138.4 26.37 136.06 15.54 148.93 8.05 151.29 18.88 138.4 26.37"/><path class="cls-29" d="M136.27,15.58,148.79,8.3l2.3,10.54C148.07,15.71,143.1,14.66,136.27,15.58Z"/><path class="cls-2" d="M96.73,89.88,39.93,122.7,6.18,103.51,62.45,71.08a1.11,1.11,0,0,1,1.14,0Z"/><path class="cls-2" d="M71.88,99.59c12.31,0,22.3,5.29,22.3,11.82s-10,11.82-22.3,11.82-22.3-5.29-22.3-11.82S59.57,99.59,71.88,99.59Z"/><polygon class="cls-15" points="88.56 57.55 54.19 38.08 54.05 79.87 80.8 95.04 88.56 57.55"/><polygon class="cls-30" points="88.55 57.6 95.3 53.78 87.41 91.3 80.8 95.04 88.55 57.6"/><polygon class="cls-31" points="95.23 53.82 88.56 57.59 54.2 38.08 60.86 34.3 95.23 53.82"/><path class="cls-4" d="M59.63,106.3V98.63C77.15,74.38,68.4,70.12,91.4,80.33q0,3.84,0,7.68Z"/><path class="cls-31" d="M59.64,98.63c10-9.2,23.17-17.55,31.76-18.3C86.32,70.82,61.05,60.67,59.62,61L27.42,80.79Z"/><path class="cls-15" d="M59.79,98.4v7.77L27.91,87.84v-7.6C42.26,86.26,52.93,90.47,59.79,98.4Z"/><path class="cls-31" d="M19.29,58.06l7.22,3.78c27.88,4,33.59-17.72,34.93-20L54.23,38.1Z"/><path class="cls-4" d="M26.51,61.84c12.5-3,27.1-11.65,34.79-19.73l3.36,20.51c-10.5,4.08-24.09,14.87-34.8,22.1Z"/><path class="cls-32" d="M67.66,109.52s.46,3.76-1.21,2.76c-.72-.43-.86,1.26-.83,1.83,0,.77,1,1.5,2,2.12a13.67,13.67,0,0,1,2.87,2.58c1.14,1,3.88,1.32,5.22,1,.77-.17,1.31-.58,1.24-1.18-.06-.21,0-.28-.26-.54s-2.06-2-2.83-2.57a7.39,7.39,0,0,1-2.67-4.34c-.12-.54-.53-2.2-.53-2.2S69.77,108.55,67.66,109.52Z"/><path class="cls-33" d="M67.29,109c0,1.73-1.43,1.24-1.42,4.29,0,1.13,2,2,2.8,2.58a5.51,5.51,0,0,1,1.69,2,3.1,3.1,0,0,0,2,1.2c2.09.55,4.63.55,4.58-1.31,0-.72-2.63-2.26-3.52-2.94-2.31-1.56-1.49-4.49-1.61-5s-1.1-.79-1.1-.79A3.39,3.39,0,0,0,67.29,109Z"/><path class="cls-32" d="M78.25,103.68s.92,3.68-.87,2.88c-.76-.34-.69,1.36-.59,1.93.13.75,1.19,1.36,2.26,1.86a13.36,13.36,0,0,1,3.17,2.21c1.25.9,4,.84,5.3.38.75-.27,1.23-.73,1.09-1.32-.09-.21,0-.29-.32-.51s-2.29-1.75-3.13-2.21a7.44,7.44,0,0,1-3.17-4c-.19-.52-.8-2.12-.8-2.12S80.23,102.47,78.25,103.68Z"/><path class="cls-33" d="M77.82,103.21c.2,1.72-1.27,1.41-.89,4.43.14,1.12,2.26,1.75,3.09,2.22A5.47,5.47,0,0,1,82,111.65a3.17,3.17,0,0,0,2.11,1c2.14.29,4.66,0,4.38-1.86-.1-.72-2.89-1.93-3.84-2.5-2.26-1.26-2.28-4.18-2.46-4.7s-1-.75-1-.75A3.37,3.37,0,0,0,77.82,103.21Z"/><path class="cls-34" d="M76.76,86.18c-1.37,8.57-.54,11.89.21,19.57,1.2,1.42,5,1.5,5.92-.63-.73-4.47,2.25-23.61-.16-24.44C80,82.74,78.07,83,76.76,86.18Z"/><path class="cls-35" d="M66,92.49c-.83,7.78-.47,11.39,0,19.15,1.75,1.8,5.23,1.69,5.71,0,0-4.41,3-23.06.64-24.13.09,1.38-1.28,1.7-3.91,2.69C67.69,90.47,67.15,92.45,66,92.49Z"/><path class="cls-34" d="M76.94,86.32c.71-.92,2.65-3,3.85-2.85,2.17.33,2.9-1.58,2.27-2.39-4-5.1-18.49-12-24.72-13.67A21,21,0,0,0,53,75.12C52.83,83.09,71.78,82.25,76.94,86.32Z"/><path class="cls-35" d="M66,92.49c1.41.09,2.29-2.08,3.26-1.7,3.23,1.24,4.24-1.09,3.4-3.22-3.39-3.92-12.78-13.77-21.31-18,0,0-3.2,1.07-6,5.4C43.39,83.63,61.81,87.52,66,92.49Z"/><path class="cls-36" d="M50.65,38.46c-3.69,1.4-1.93,5.77.47,8.12.14.1,4,14.82,9.54,18.42.43.77,4.93.62,4.32-3.79-.86-3.14-4.25-14.92-7.64-21.27C56.63,38.61,54.56,35.31,50.65,38.46Z"/><path class="cls-37" d="M45,42.67c-.41.18-4.79,3.16-6.31,5.88-1.11,2,1.13,7.58,1.26,8.09.42,1.68,2.88,9.47,3.74,11.68s.6,5.62,1.58,9.38c4.14,5.91,18-2.9,18.12-8.58-7.9-5.87-.21-23-7.23-29.93a5.79,5.79,0,0,0-4.63.19A26.38,26.38,0,0,0,45,42.67Z"/><path class="cls-33" d="M65,61.21c3.59,2.53,7.26,8,9.38,10.43.15,1.53-2,3.38-3.46,2.39a56.42,56.42,0,0,1-10.24-9C58.54,62.61,63.28,59.92,65,61.21Z"/><path class="cls-33" d="M44.41,41.81c-1.51,2.26-.3,4.48,1,6.88,3.18,5.73,7.35,8.37,11.49,13.43a36.43,36.43,0,0,0-1.55-19.45c-.81-2.28-2.68-3.14-4.92-3.49A7,7,0,0,0,44.41,41.81Z"/><path class="cls-38" d="M49,40.48S51.24,39,53,42s3.86,8.09,4,20.13c-1.86-1.81-9.1-13.62-11.19-16.26-.67-.85-2.22-2.45.32-4.38Z"/><path class="cls-39" d="M52.26,46.08a1.33,1.33,0,0,1-1.3.8,50,50,0,0,1,3.65,12.18,25.55,25.55,0,0,0,2.33,3.06c0-1.42-.06-2.74-.12-4A68.49,68.49,0,0,0,52.26,46.08Z"/><path class="cls-39" d="M49.77,45.39l.95,1.5a3.4,3.4,0,0,0,1.5-.93L52,44.12Z"/><path class="cls-16" d="M46.24,41c-1.86.87-2.66,5.28,4.06,7.26.11-.73.1-3,.21-3.74.74.29,2.37,1.82,3.1,2.11C54.21,42.06,50.56,39,46.24,41Z"/><path class="cls-7" d="M46.16,36.89c0,1.6.44,3.85-.45,5.14.62,3.15,3.73,3.69,5.66,3.1a1.61,1.61,0,0,0,1.11-2c-.07-.72-1-1.43-1.2-2.13C51,40,47,37.5,46.16,36.89Z"/><path class="cls-11" d="M55.81,31a11.46,11.46,0,0,0,.4,2.72c.26.74-.35,1.09-.37,1.78,0,.26.28.63.32,1,.14,1.28-.63,3-.86,4.09s-.25,2-1.29,2.39c-1.83.73-3.61-.86-5.41-1.56s-.91-2.9-1.43-4.41C44.74,29.81,54.18,26.16,55.81,31Z"/><path class="cls-40" d="M44.46,35.48l0,.15Z"/><path class="cls-33" d="M49.67,34.83c-.59.26-1.2,1.76-.33,3.71,0,.17-3.62-4.21-3.22-1.3a14.07,14.07,0,0,1,.13,2.92c-.57-.29-1.51-3-2-4.51-.56-2.43.17-5.22,1.31-6.14,3.31.34,4,.36,5.22,2.24A3.6,3.6,0,0,1,49.67,34.83Z"/><path class="cls-11" d="M46,36.8c.22,1,.76,1.77,1.2,1.68s.52-1,.64-1.89a1.39,1.39,0,0,0-1.41-1.8C45.94,34.9,45.75,35.79,46,36.8Z"/><path class="cls-33" d="M45.59,29.51c.86-3,6-2,9.31-.61,1.13.46,3.3-.32,3.58.26.51,1-.51,2.75-3.56,3.34-1.23-.94-2.94-.08-4.57-1C48.94,30.9,47,30.12,45.59,29.51Z"/><path class="cls-7" d="M73.9,72.14a7.5,7.5,0,0,1,1.5,1,12,12,0,0,1,1.73,3.29c.22.45-2.61,1.21-3.1,1-.51-1-1.85-2.47-1.93-2.94-.12-.69.07-.9-.2-1.17S72.87,71.5,73.9,72.14Z"/><path class="cls-7" d="M74.79,77.32l.41,1.91c.11.48-.43.52-.58,0L74,77.45C73.89,77,74.68,76.82,74.79,77.32Z"/><path class="cls-7" d="M75,76.78h0a.44.44,0,0,1,.52.32l.65,2.21c.16.56-.43.71-.63.16l-.81-2.17A.4.4,0,0,1,75,76.78Z"/><path class="cls-7" d="M75.73,76.51h0a.46.46,0,0,1,.53.36l.59,2.45c.15.62-.49.78-.67.17l-.71-2.42A.43.43,0,0,1,75.73,76.51Z"/><path class="cls-7" d="M77.16,76.51l.54,2.25c.13.57-.51.72-.68.16l-.65-2.21A.41.41,0,1,1,77.16,76.51Z"/><path class="cls-11" d="M74.08,72.57a2,2,0,0,1,1.55.31c.57.34.84.47,1.07.62a5.5,5.5,0,0,1,1,1.06c-.59.41-1.33,0-1.82-.51C74.19,74.63,73.36,72.82,74.08,72.57Z"/><polygon class="cls-41" points="26.52 61.85 19.21 58.02 22.52 78.01 29.67 81.75 26.52 61.85"/><polygon class="cls-15" points="47.3 81.16 12.93 61.69 12.79 103.48 39.54 118.65 47.3 81.16"/><polygon class="cls-30" points="47.29 81.22 54.04 77.39 46.14 114.91 39.54 118.65 47.29 81.22"/><polygon class="cls-31" points="53.96 77.43 47.3 81.21 12.93 61.69 19.6 57.92 53.96 77.43"/><path class="cls-33" d="M42.15,46.76c-5.72-2-8.88,16.57-9.53,20.41a1.51,1.51,0,0,1-.07.32c.74,3,3,2.91,5.08.85,3.09-3.42,5.64-10.29,6-11.4C44.6,54.06,45.38,47.91,42.15,46.76Z"/><path class="cls-33" d="M35.93,72.59c3.8,3.28,8.55,5.54,10.39,6.61,1.53-.2,3.74-2.83,2.68-3.69-1-1.06-8.56-7.19-10.94-9.77-1-.55-4-.3-5.1,1C32.58,67.5,31.13,68.82,35.93,72.59Z"/><path class="cls-7" d="M46.69,78c-.51-.42,1.34-2.33,2.13-1.7C49.9,77.7,50.91,77.4,51.48,78a14,14,0,0,1,1.86,3.74c.22.49-3,1.35-3.54,1.1a8.16,8.16,0,0,1-1.93-3.17C47.69,78.51,47.83,79,46.69,78Z"/><path class="cls-7" d="M50.6,82.83,51,84.9c.09.52-.53.57-.68.06l-.55-2C49.59,82.49,50.51,82.29,50.6,82.83Z"/><path class="cls-7" d="M50.88,82.24h0a.47.47,0,0,1,.58.34l.6,2.4c.16.6-.53.77-.73.18l-.79-2.35A.46.46,0,0,1,50.88,82.24Z"/><path class="cls-7" d="M51.74,81.93h0a.5.5,0,0,1,.59.39L52.85,85c.13.67-.61.85-.78.19l-.66-2.63A.51.51,0,0,1,51.74,81.93Z"/><path class="cls-7" d="M53.39,81.92l.48,2.44c.12.62-.64.8-.79.19l-.61-2.4A.47.47,0,0,1,53.39,81.92Z"/><path class="cls-7" d="M50,77.7a2.18,2.18,0,0,1,1.66.37c.6.37,1.21.88,1.45,1.05.6.45.46.51,1.06,1-.23.36-.67.75-1.68-.14-.28-.07-.44.08-1.12-.66C49.53,79.85,49.26,77.94,50,77.7Z"/><path class="cls-42" d="M109.74,61.59c-1.08.84-3.81,2.25-5-3.57.3-1.7,1.95-6.37,2.86-9.89,1.8-5.5,3.32-6.08,4.95-6.46,2.18-.51,3.92,2.71,3.26,6.15C114.58,54.26,109.74,61.59,109.74,61.59Z"/><path class="cls-2" d="M121.82,111.72c12.32,0,22.3,5.29,22.3,11.82s-10,11.82-22.3,11.82-22.29-5.29-22.29-11.82S109.51,111.72,121.82,111.72Z"/><path class="cls-43" d="M120,117c1.29.91.51,3.65-.85,4.11-3.09,1-5.42,2.34-7.46,3-.72.24-2.44.45-3.17-.89-.18-.51,1-2.42,1-2.42C113.08,121.18,118.37,116.09,120,117Z"/><path class="cls-44" d="M115.74,117.2c1.6.4,3-.72,3.49-.63a1.48,1.48,0,0,1,1.14,1.16,2.58,2.58,0,0,1-1.4,2.73c-1.07.53-2.28.29-4.09,1-1,.4-3.42,1.82-4.34,1.83a1.71,1.71,0,0,1-1.79-1.26C108.82,117.91,112.68,116.43,115.74,117.2Z"/><path class="cls-45" d="M118.72,99.85A39.53,39.53,0,0,0,120.2,95c3.23-12.45,3.91-16.38,2.89-24.11-2.58-.87-8.75,1.78-11.08-.54-4.81,4.8,1.28,22.15-.17,28.19C112.88,100.31,116.42,101.87,118.72,99.85Z"/><path class="cls-45" d="M109,120.61c2.2,2.08,4.52,1.4,5.85-1.54,0-4.68,2.47-13.65,4.07-19.67.95-3.71-5-5.65-7.09-.84C109.23,103.9,109.2,118.45,109,120.61Z"/><path class="cls-11" d="M125.55,30.08a17,17,0,0,1,.81,2.37,1.54,1.54,0,0,1,0,1.23c-.34.78-.54.94,0,1.56s-.16,2.58-.42,3.5c-.22.71-.33,1.56-1,2-1.62,1.07-3.44.42-5.07-.16s-4.77-4.67-5.27-6c-.36-2.75.35-5.13,4.94-6.8C121.54,27,124.83,28.14,125.55,30.08Z"/><path class="cls-7" d="M123.55,37.74s.33,4.75-1.19,8c-.21.41-7.72-1.74-7.49-2.9a12.73,12.73,0,0,0,1.38-7.17C116.15,34.51,123.37,34.36,123.55,37.74Z"/><path class="cls-46" d="M117,40.88c2.64,0,8.28,3.11,8.3,4.64s-3.82.7-6.46.69S114,45,114,43.44,114.35,40.88,117,40.88Z"/><path class="cls-43" d="M132.94,121.79c1.29.91.51,3.64-.85,4.1-3.09,1-5.42,2.35-7.46,3-.73.23-2.45.45-3.17-.89-.18-.52,1-2.42,1-2.42C126,126,131.33,120.9,132.94,121.79Z"/><path class="cls-44" d="M128.71,122c1.6.37,3-.71,3.49-.63a1.48,1.48,0,0,1,1.14,1.17,2.56,2.56,0,0,1-1.4,2.72c-1.07.53-2.28.29-4.09,1-1,.4-3.42,1.81-4.34,1.83a1.72,1.72,0,0,1-1.79-1.27C121.79,122.72,125.14,121.19,128.71,122Z"/><path class="cls-47" d="M128.49,103a22.59,22.59,0,0,0,.56-3.66c1.57-12.65,1.17-19.54-.88-27-2.69-.58-10.42,1.74-13-.3-5.46,6.91,7.14,21.66,5.82,30.5C122.21,104.07,126.46,105.21,128.49,103Z"/><path class="cls-48" d="M129.66,54.86c-.25,6.42-1.88,8.23-.66,18.66-4.48,7.39-18.19,2.41-18.21-.3.08-1-1.47-1.51-1.46-3.09,0-1.36.8-2.84.48-4.72-.71-4.14-2.84-9.33-2.52-13.15.36-4.13,2.25-10.09,7.2-10.42,2.5-.15,5.81-.06,12.55,4.25C130,48,129.84,50.28,129.66,54.86Z"/><path class="cls-47" d="M122,124.69c2.52,1.81,4.41.51,5.24-2.56-.72-4.66.8-13.8,1.39-20,.31-3.79-6.45-4.72-7.69.28C120.25,107.12,121.89,122.5,122,124.69Z"/><path class="cls-49" d="M124.66,34.09c-.11.34-.47.52.23,1.58-2-.35-1.49,0-2-.35-.76-.53-.9,1.29-1.74,2.83-1.31,2.42-4.7,1.38-4.93,1.2-1.34-3.05-3.88-7.66-1.68-10.31,2.64-3.18,9.28-3.23,11.9.54C127.06,30.42,125.34,32.17,124.66,34.09Z"/><path class="cls-11" d="M122,36.23c.14,1,.81,2.34,1.23,2.26,1.06-.37.55-1.08.42-2.06s.11-1.57-.3-1.66A1.18,1.18,0,0,0,122,36.23Z"/><path class="cls-42" d="M129,73.33c-3.73,6.54-13.85,3.62-18.3-.63a.89.89,0,0,1,.12.52c0,1.37,4.81,5,9.6,5.72C124.13,79.47,130.42,76.7,129,73.33Z"/><path class="cls-50" d="M104.76,58c-1.62,4.46,1.47,8.12,5,11.19.82.7,3.46-.86,2.24-2.51a29.63,29.63,0,0,1-3.15-6.59C108.1,58.31,105.39,56.3,104.76,58Z"/><path class="cls-7" d="M110.25,68.84c-.38-.36.64-2.23,1.46-1.86s1.66-.14,2.91.53a9.89,9.89,0,0,1,1.89,2A4.75,4.75,0,0,1,117,72c-.11.18-.84-.85-1,.36a3.87,3.87,0,0,0-.71.39c-.64-.38-.64-1.78-.84.36-1.4-2.15-.65-.61-1-.07-.85-.44-2.28-3-2.43-3.31A2.58,2.58,0,0,0,110.25,68.84Z"/><path class="cls-7" d="M115,70.72c.47-.45-1.5-2.24-2.25-1.56-1,1.46-2,1.22-2.55,1.89a13.87,13.87,0,0,0-1.61,3.87c-.2.5,3.1,1.15,3.6.87a8.25,8.25,0,0,0,1.73-3.3C114,71.28,113.91,71.76,115,70.72Z"/><path class="cls-7" d="M111.38,75.79l-.22,2.1c0,.53.57.53.68,0l.43-2C112.38,75.39,111.44,75.24,111.38,75.79Z"/><path class="cls-7" d="M111.06,75.22h0a.47.47,0,0,0-.55.38L110.06,78c-.12.62.58.74.75.13l.63-2.4A.45.45,0,0,0,111.06,75.22Z"/><path class="cls-7" d="M110.18,75h0a.49.49,0,0,0-.56.42l-.35,2.71c-.09.68.67.81.79.14l.5-2.67A.51.51,0,0,0,110.18,75Z"/><path class="cls-7" d="M108.53,75.06l-.32,2.48a.41.41,0,1,0,.81.13l.45-2.43A.48.48,0,0,0,108.53,75.06Z"/><path class="cls-11" d="M111.62,70.62a2.22,2.22,0,0,0-1.64.48c-.57.41-1.15,1-1.38,1.15-.57.49-.43.54-1,1,.26.34.72.71,1.67-.25.27-.1.44,0,1.08-.74C112.26,72.74,112.41,70.81,111.62,70.62Z"/><path class="cls-42" d="M125.41,67.25c-1.43,2.8-7,3.83-11.53,4.89-1,.25-2.91-2-1.18-3.15,3.1-2.34,5-3.93,7.07-5.36C121.37,62.52,127.06,64,125.41,67.25Z"/><path class="cls-11" d="M113,67.25a2.18,2.18,0,0,1,1.7.75c.27.29.75.74.78,1,0,.52.24,1,.24,1.38-.72.11-1.06-.84-1.13-1.15-.22-.09-.86-.32-.94-.5C110.71,69.3,111.51,67.05,113,67.25Z"/><path class="cls-11" d="M113.81,73.15h0a.38.38,0,0,0,.21-.5l-.56-1c-.24-.42-.7-.14-.54.32l.36,1A.37.37,0,0,0,113.81,73.15Z"/><path class="cls-11" d="M114.92,73.22h0a.43.43,0,0,0,.2-.58l-.7-1.3c-.28-.5-.84-.23-.63.31l.55,1.36A.43.43,0,0,0,114.92,73.22Z"/><path class="cls-11" d="M115.74,72.87h0a.45.45,0,0,0,.19-.62L115,70.82c-.33-.53-1-.23-.66.32l.8,1.48A.47.47,0,0,0,115.74,72.87Z"/><path class="cls-11" d="M116.86,72.36h0a.43.43,0,0,0,0-.61l-1.07-1c-.42-.39-.87,0-.5.49l.94,1.12A.42.42,0,0,0,116.86,72.36Z"/><path class="cls-50" d="M125.22,67.72c-1,1-2.89,2.07-4.83-3.54.07-1.73.82-7.71,1.25-11.32,1-5.69,2.48-6.47,4-7.06,2.09-.79,4.24,2.16,4,5.66C129.36,58,125.22,67.72,125.22,67.72Z"/></g></g></svg>