<svg height="496pt" viewBox="0 0 496 496" width="496pt" xmlns="http://www.w3.org/2000/svg"><path d="m152 440h192v48h-192zm0 0" fill="#838f9b"/><path d="m40 440c-17.679688 0-32-14.320312-32-32v-32h104l24 16h352v16c0 17.679688-14.320312 32-32 32zm0 0" fill="#969faa"/><path d="m488 152v240h-352l-24-16h-104v-224c0-17.679688 14.320312-32 32-32h52.71875c1.042969 3.121094 2.320312 6.238281 3.839844 9.199219 15.761718 31.359375 28.640625 63.921875 38.640625 97.441406 10 33.4375 17.121093 67.757813 21.199219 102.640625l1.601562 13.757812c1.121094 9.679688 9.359375 16.960938 19.039062 16.960938 8.800782 0 16.480469-6 18.5625-14.480469l22.558594-90.238281c3.441406-13.679688 15.761719-23.28125 29.839844-23.28125 7.039062 0 13.601562 2.398438 18.878906 6.480469 5.28125 4.160156 9.28125 10 10.960938 16.800781l22.558594 90.238281c2.082031 8.480469 9.761718 14.480469 18.5625 14.480469 4.878906 0 9.359374-1.839844 12.71875-4.878906 3.441406-2.960938 5.761718-7.28125 6.320312-12.082032l1.601562-13.757812c8.238282-69.679688 28.398438-137.359375 59.839844-200.082031 1.519532-2.960938 2.796875-6.078125 3.839844-9.199219h52.71875c17.679688 0 32 14.320312 32 32zm0 0" fill="#69d6f4"/><path d="m408 89.441406v3.359375c0 9.277344-1.601562 18.480469-4.71875 27.199219-1.042969 3.121094-2.320312 6.238281-3.839844 9.199219-31.441406 62.722656-51.601562 130.402343-59.839844 200.082031l-1.601562 13.757812c-.558594 4.800782-2.878906 9.121094-6.320312 12.082032-3.359376 3.039062-7.839844 4.878906-12.71875 4.878906-8.800782 0-16.480469-6-18.5625-14.480469l-22.558594-90.238281c-1.679688-6.800781-5.679688-12.640625-10.960938-16.800781-5.277344-4.082031-11.839844-6.480469-18.878906-6.480469-14.078125 0-26.398438 9.601562-29.839844 23.28125l-22.558594 90.238281c-2.082031 8.480469-9.761718 14.480469-18.5625 14.480469-9.679687 0-17.917968-7.28125-19.039062-16.960938l-1.601562-13.757812c-4.078126-34.882812-11.199219-69.203125-21.199219-102.640625-10-33.519531-22.878907-66.082031-38.640625-97.441406-1.519532-2.960938-2.796875-6.078125-3.839844-9.199219-3.117188-8.71875-4.71875-17.921875-4.71875-27.199219v-3.359375c0-22.480468 9.121094-42.882812 23.839844-57.601562s35.121094-23.839844 57.601562-23.839844c14.796875 0 29.277344 4 41.917969 11.601562l6.878906 4.160157c9.042969 5.359375 19.28125 8.238281 29.761719 8.238281s20.71875-2.878906 29.761719-8.238281l6.878906-4.160157c12.640625-7.601562 27.121094-11.601562 41.917969-11.601562 44.960937 0 81.441406 36.480469 81.441406 81.441406zm0 0" fill="#e6e9ed"/><path d="m96 400h16v16h-16zm0 0"/><path d="m64 400h16v16h-16zm0 0"/><path d="m32 400h16v16h-16zm0 0"/><path d="m456 112h-42.175781c1.390625-6.3125 2.175781-12.769531 2.175781-19.222656v-3.335938c0-49.3125-40.128906-89.441406-89.449219-89.441406-16.199219 0-32.117187 4.40625-46.015625 12.742188l-6.933594 4.167968c-15.457031 9.273438-35.753906 9.273438-51.203124 0l-6.933594-4.167968c-13.90625-8.335938-29.816406-12.742188-46.015625-12.742188-49.320313 0-89.449219 40.128906-89.449219 89.441406v3.335938c0 6.453125.785156 12.910156 2.175781 19.222656h-42.175781c-22.054688 0-40 17.945312-40 40v256c0 22.054688 17.945312 40 40 40h104v32h-32v16h272v-16h-32v-32h104c22.054688 0 40-17.945312 40-40v-256c0-22.054688-17.945312-40-40-40zm-360-22.558594c0-40.496094 32.945312-73.441406 73.449219-73.441406 13.304687 0 26.375 3.617188 37.78125 10.464844l6.9375 4.167968c20.441406 12.253907 47.230469 12.253907 67.671875 0l6.9375-4.167968c11.398437-6.847656 24.46875-10.464844 37.773437-10.464844 40.503907 0 73.449219 32.945312 73.449219 73.441406v3.335938c0 11.335937-2.679688 22.695312-7.761719 32.839844-31.863281 63.734374-52.238281 131.941406-60.566406 202.71875l-1.625 13.808593c-.65625 5.617188-5.421875 9.855469-11.085937 9.855469-5.128907 0-9.578126-3.480469-10.832032-8.457031l-22.554687-90.199219c-4.316407-17.28125-19.765625-29.34375-37.574219-29.34375s-33.257812 12.0625-37.574219 29.335938l-22.554687 90.199218c-1.253906 4.984375-5.703125 8.464844-10.832032 8.464844-5.664062 0-10.429687-4.238281-11.085937-9.855469l-1.625-13.808593c-8.328125-70.777344-28.703125-138.984376-60.566406-202.71875-5.082031-10.144532-7.761719-21.503907-7.761719-32.839844zm-56 38.558594h47.398438c.679687 1.59375 1.273437 3.222656 2.050781 4.777344 31.03125 62.070312 50.878906 128.496094 58.992187 197.429687l1.621094 13.808594c1.609375 13.671875 13.203125 23.984375 26.976562 23.984375 12.488282 0 23.320313-8.464844 26.34375-20.574219l22.554688-90.203125c2.542969-10.144531 11.605469-17.222656 22.0625-17.222656s19.519531 7.078125 22.0625 17.222656l22.554688 90.203125c3.023437 12.109375 13.863281 20.574219 26.34375 20.574219 13.773437 0 25.367187-10.3125 26.976562-23.992188l1.621094-13.808593c8.113281-68.925781 27.960937-135.351563 58.992187-197.429688.777344-1.554687 1.371094-3.183593 2.050781-4.777343h47.398438c13.230469 0 24 10.769531 24 24v232h-341.574219l-24-16h-98.425781v-215.992188c0-13.230469 10.769531-24 24-24zm416 304h-280v16h160v32h-176v-48h-120c-13.230469 0-24-10.769531-24-24v-24h93.574219l24 16h346.425781v8c0 13.230469-10.769531 24-24 24zm0 0"/><path d="m326.59375 60.527344-13.1875-9.054688-82.015625 119.296875-33.238281-39.890625-12.304688 10.242188 46.761719 56.109375zm0 0"/></svg>