<svg id="Filled" height="512" viewBox="0 0 512 512" width="512" xmlns="http://www.w3.org/2000/svg"><path d="m24 152h464v336h-464z" fill="#eba72e"/><path d="m296 360h32v48h-32z" fill="#d9c9b9"/><path d="m296 408-24 32h80l-24-32z" fill="#f0dfce"/><path d="m287.467 328-20.3-68.123a16 16 0 0 0 -15.459-11.877h-19.708l32 112h104v-16a16 16 0 0 0 -16-16z" fill="#ad6643"/><path d="m24 440h464v48h-464z" fill="#a82a27"/><path d="m56 184h144v304h-144z" fill="#95573a"/><path d="m24 24h464v128h-464z" fill="#a82a27"/><path d="m56 56h400v64h-400z" fill="#eb423f"/><path d="m200 184h-144l16-32h112z" fill="#d9c9b9"/><path d="m88 200h80v192h-80z" fill="#ad6643"/><path d="m56 184s0 32 24 32 24-32 24-32z" fill="#fbe9d8"/><path d="m104 184s0 32 24 32 24-32 24-32z" fill="#fbe9d8"/><path d="m152 184s0 32 24 32 24-32 24-32z" fill="#fbe9d8"/><path d="m88 424h80v32h-80z" fill="#ad6643"/><path d="m376 184h48v48h-48z" fill="#eb423f"/><path d="m296 184h48v48h-48z" fill="#eb423f"/><path d="m424 312h64v128h-64z" fill="#ad6643"/><g fill="#95573a"><path d="m456 152h32v176h-32z"/><path d="m408 296h80v32h-80z"/><path d="m408 328h32v112h-32z"/></g><path d="m24 496h464a8 8 0 0 0 8-8v-464a8 8 0 0 0 -8-8h-464a8 8 0 0 0 -8 8v464a8 8 0 0 0 8 8zm8-48h16v32h-16zm384-112h16v96h-16zm32 0h32v96h-32zm-32-16v-16h64v16zm48-32v-128h16v128zm-16 0h-40a8 8 0 0 0 -8 8v136h-44l-20-26.666v-37.334h15.384l17.188 42.971a8 8 0 0 0 7.428 5.029h16a8 8 0 0 0 0-16h-10.584l-12.816-32.031a7.994 7.994 0 0 0 7.4-7.969v-16a24.027 24.027 0 0 0 -24-24h-3.056l-13.789-27.578a8 8 0 0 0 -7.155-4.422h-44.1l-9.031-30.306a24.031 24.031 0 0 0 -23.161-17.694h-19.708a8 8 0 0 0 -7.692 10.2l32 112a8 8 0 0 0 7.692 5.8h24v37.334l-20 26.666h-60v-248a7.949 7.949 0 0 0 -.851-3.575h.006l-10.211-20.425h251.056zm-168.2 42.285a8 8 0 0 0 7.667 5.715h64.533a8.009 8.009 0 0 1 8 8v8h-89.966l-27.428-96h9.1a8.011 8.011 0 0 1 7.73 5.939c.02.075.041.149.062.223zm8.863-26.285h34.393l8 16h-37.625zm31.337 64v32h-16v-32zm-20 48h24l12 16h-48zm-206.491-218.809c-3.633 9.688-9.45 10.809-13.509 10.809-4 0-9.744-1.088-13.39-10.5a36.441 36.441 0 0 1 -1.616-5.5h30.014a37.151 37.151 0 0 1 -1.499 5.191zm2.491 22.284a29.5 29.5 0 0 0 8.007-7.972 28.082 28.082 0 0 0 23.993 12.497c11.446 0 19.074-5.356 24.007-12.5a29.445 29.445 0 0 0 7.993 7.909v164.591h-64zm16.994-27.475h30.014a37.151 37.151 0 0 1 -1.5 5.191c-3.632 9.688-9.449 10.809-13.508 10.809-4 0-9.744-1.088-13.39-10.5a36.441 36.441 0 0 1 -1.616-5.5zm49.616 5.5a36.441 36.441 0 0 1 -1.616-5.5h30.014a37.151 37.151 0 0 1 -1.5 5.191c-3.632 9.688-9.449 10.809-13.508 10.809-4 0-9.744-1.088-13.39-10.5zm16.446-37.5 8 16h-118.112l8-16zm-130.211 20.422h.006a7.949 7.949 0 0 0 -.851 3.578v248h-16v-272h27.056zm15.155 299.578v-260.591a28.6 28.6 0 0 0 16 4.591v168a8 8 0 0 0 8 8h80a8 8 0 0 0 8-8v-168a28.421 28.421 0 0 0 16-4.525v260.525zm144 0v-32h272v32zm272-448v112h-448v-112z"/><path d="m56 128h400a8 8 0 0 0 8-8v-64a8 8 0 0 0 -8-8h-400a8 8 0 0 0 -8 8v64a8 8 0 0 0 8 8zm8-64h384v48h-384z"/><path d="m168 416h-80a8 8 0 0 0 -8 8v32a8 8 0 0 0 8 8h80a8 8 0 0 0 8-8v-32a8 8 0 0 0 -8-8zm-8 32h-64v-16h64z"/><path d="m376 240h48a8 8 0 0 0 8-8v-48a8 8 0 0 0 -8-8h-48a8 8 0 0 0 -8 8v48a8 8 0 0 0 8 8zm19.313-16 20.687-20.687v20.687zm9.374-32-20.687 20.687v-20.687z"/><path d="m296 240h48a8 8 0 0 0 8-8v-48a8 8 0 0 0 -8-8h-48a8 8 0 0 0 -8 8v48a8 8 0 0 0 8 8zm19.313-16 20.687-20.687v20.687zm9.374-32-20.687 20.687v-20.687z"/></svg>