<svg id="Capa_1" enable-background="new 0 0 512 512" height="512" viewBox="0 0 512 512" width="512" xmlns="http://www.w3.org/2000/svg"><g><g><path d="m482 90h-226-226l-30 30v377c0 8.291 6.709 15 15 15h241 241c8.291 0 15-6.709 15-15v-377z" fill="#edf5ff"/><path d="m512 497v-377l-30-30h-226v422h241c8.291 0 15-6.709 15-15z" fill="#d5e8fe"/><path d="m497 0h-241-241c-8.291 0-15 6.709-15 15v105h256 256v-105c0-8.291-6.709-15-15-15z" fill="#47568c"/><path d="m512 15c0-8.291-6.709-15-15-15h-241v120h256z" fill="#29376d"/><g fill="#73bcff"><circle cx="436" cy="60" r="15"/><circle cx="376" cy="60" r="15"/><circle cx="316" cy="60" r="15"/></g></g><path d="m166 211c-24.901 0-45 20.099-45 45 0 24.899 20.099 45 45 45s45-20.101 45-45c0-24.901-20.099-45-45-45z" fill="#ff641a"/><path d="m236.201 334.9c-15.901-15.901-33.9-33.9-70.201-33.9s-55.8 19.499-70.499 34.499c-3.001 2.701-4.501 6.601-4.501 10.501v60c0 8.399 6.599 15 15 15h120c8.401 0 15-6.601 15-15v-60c0-3.9-2.1-8.101-4.799-11.1z" fill="#ff641a"/><g fill="#73bcff"><path d="m346 241h-60c-8.291 0-15-6.709-15-15s6.709-15 15-15h60c8.291 0 15 6.709 15 15s-6.709 15-15 15z"/><path d="m406 301h-120c-8.291 0-15-6.709-15-15s6.709-15 15-15h120c8.291 0 15 6.709 15 15s-6.709 15-15 15z"/><path d="m406 361h-120c-8.291 0-15-6.709-15-15s6.709-15 15-15h120c8.291 0 15 6.709 15 15s-6.709 15-15 15z"/><path d="m406 421h-120c-8.291 0-15-6.709-15-15s6.709-15 15-15h120c8.291 0 15 6.709 15 15s-6.709 15-15 15z"/></g><path d="m166 301v-90c24.901 0 45 20.099 45 45 0 24.899-20.099 45-45 45z" fill="#f03800"/><path d="m241 346v60c0 8.399-6.599 15-15 15h-60v-120c36.301 0 54.3 17.999 70.201 33.9 2.699 2.999 4.799 7.2 4.799 11.1z" fill="#f03800"/></g></svg>