<svg xmlns="http://www.w3.org/2000/svg" viewBox="0 0 475.61 401.89"><defs><style>.cls-1{isolation:isolate;}.cls-2{fill:#ecf3ff;}.cls-3{fill:#c8dbfb;}.cls-12,.cls-16,.cls-17,.cls-4,.cls-5,.cls-7,.cls-9{fill:none;stroke-linecap:round;stroke-linejoin:round;}.cls-17,.cls-4,.cls-5{stroke:#c8dbfb;}.cls-5{stroke-dasharray:3.99 3.99;}.cls-6{fill:#5193f4;}.cls-16,.cls-7{stroke:#0b43a4;}.cls-8{fill:#00ad9f;}.cls-12,.cls-9{stroke:#00ad9f;}.cls-13,.cls-9{mix-blend-mode:multiply;}.cls-10{fill:#0056ec;}.cls-11{fill:#52d2bc;}.cls-13{fill:#5275a0;opacity:0.2;}.cls-14{fill:#7ee8d4;}.cls-15{fill:#4a49ca;}.cls-16,.cls-17{stroke-dasharray:4;}.cls-18{fill:#0b43a4;}.cls-19{fill:#fff;}.cls-20{fill:#0c2340;}.cls-21{fill:#ef832b;}.cls-22{fill:#ffb9a3;}.cls-23{fill:#047f76;}.cls-24{fill:#009790;}.cls-25{fill:#d8742a;}</style></defs><title>software_2</title><g class="cls-1"><g id="Layer_2" data-name="Layer 2"><g id="OBJECTS"><path class="cls-2" d="M109.29,51.1c6-3.73,12.67-36.1,61-49.91C202.65-8.06,211.82,40,236.86,32.61,257.82,26.42,284,12.28,321,16c19.2,1.92,42.3,29.05,56.39,33.27,27.73,8.32,40.67-7.39,60.08,22.19,20.54,31.3-5.23,44.73,1.85,71.18,3.57,13.33,32.47,16.49,36.05,69.33,3,43.7-20.34,43.44-27.73,49.91-19.79,17.32-3.31,83.09-19.41,98-37,34.2-51.77,13.87-80.43,18.49s-36.62,20.6-93.36,23.11c-64.69,2.86-69.07-8.74-99.83-13.87-27.74-4.62-67.19,8-95.22-19.41-23.31-22.79-11.9-71.92-25.88-106.31C23.09,236.29,1.54,211.07.21,197.16-2.15,172.34,16,161.64,21.47,145.39c4.64-13.7.08-54,27.73-82.27C70.64,41.21,89.88,63.12,109.29,51.1Z"/><path class="cls-2" d="M250.61,14.18c0,3.31-5.87,6-13.12,6s-9.78-2.13-9.78-5.45,2.81-4.46,10.06-4.46S250.61,10.86,250.61,14.18Z"/><path class="cls-2" d="M391.65,32.33c0,3.7.5,7.82-5.59,7.82S369.58,36,369.58,32.33s4,1.12,10.06,1.12S391.65,28.63,391.65,32.33Z"/><path class="cls-2" d="M403.1,37.22c0,1.46-1.75,2.65-3.91,2.65s-3.91-1.19-3.91-2.65S396.47,36,398.63,36,403.1,35.75,403.1,37.22Z"/><path class="cls-2" d="M472.22,143.48c0,7.25-3.94,13.13-8.8,13.13s-4.18-11.19-11.45-15.36c-15.08-8.66,6.59-10.9,11.45-10.9S472.22,136.23,472.22,143.48Z"/><path class="cls-2" d="M316.24,391.2c0,5,20.39,11.73,27.65,4.32,7.67-7.81,21.5-8.81,21.5-13.82s-10.55-4.33-21.5-4.33S316.24,386.18,316.24,391.2Z"/><path class="cls-2" d="M175.21,394.69c0,5.78-15.25-2.1-26-2.1s-15.36,7.54-8.94-2.79c3-4.91-3.18-7.26,7.54-7.26S175.21,388.9,175.21,394.69Z"/><path class="cls-2" d="M25.52,254.91c.41,6.54-2,8.1-8.38,8.1s-6.42-2.1-6.42-8.66.1-6.82,6.42-7.82C22.23,245.72,25.09,248.09,25.52,254.91Z"/><ellipse class="cls-3" cx="172.82" cy="348.2" rx="38.65" ry="3.61"/><ellipse class="cls-3" cx="371.38" cy="348.2" rx="38.65" ry="3.61"/><path class="cls-4" d="M453,94c-.11-.68-.23-1.33-.36-2"/><path class="cls-5" d="M451.72,88.13C444.83,64.65,422.84,66.91,403,67l-352.5.73c-33.28.07-30.06,48.11-4,48.06,15,0,20.67,28.09-5.23,28.15-15.54,0-16,19.73-5.59,23.67"/><path class="cls-4" d="M37.57,168.08a11.73,11.73,0,0,0,2,.17"/><path class="cls-6" d="M43.65,167.34a4.79,4.79,0,1,1-5.52-3.92A4.77,4.77,0,0,1,43.65,167.34Z"/><path class="cls-6" d="M457.74,96.13a4.79,4.79,0,1,1-3.85-5.57A4.77,4.77,0,0,1,457.74,96.13Z"/><path class="cls-6" d="M92.47,132.36a83.44,83.44,0,0,1-2.93,11.44,194.88,194.88,0,0,1-10,23.57c-1.93,4-9.76,13.32-14,15.09a217.27,217.27,0,0,0-.69-33.33c-1.17-10.2,2.5-17.93-1.5-27.39-.51-1.21-1-2.42-1.57-3.63-2-4.5-4-9-4.58-13.87-.8-6.15,1.11-13.16,6.43-16.36,3.83-2.3,8.82-2.18,12.91-.37a24,24,0,0,1,9.86,8.83C93.4,106.7,94.66,120.08,92.47,132.36Z"/><path class="cls-7" d="M73.87,98.38c7.83,11.06,8.51,23.94,9.19,37.47a72.28,72.28,0,0,1-9.26,39"/><path class="cls-8" d="M73.54,302.36c-5.49-4.85-11-9.77-15.09-15.87-3.53-5.31-5.82-11.35-8.9-16.93-2-3.61-4.34-7.1-5.5-11.06s-.88-8.66,1.94-11.67,8-3.64,12-2,7,5,9.36,8.59a41,41,0,0,1,6,15.93c.78,5.12.58,10.36,1.38,15.48a51.77,51.77,0,0,0,4.36,13.72c1.83,4,6.48,11,7.66,15.09C83.47,315.28,75.88,304.43,73.54,302.36Z"/><path class="cls-9" d="M54.35,252.07c5.22,2.28,7.3,8.5,8.39,14.09,1.23,6.37,1,13.26,3.88,19,5.49,10.9,12.65,23.32,18,27"/><path class="cls-10" d="M46.53,287.44C42,285.64,35.9,284.9,33,288.83c-2.45,3.29-1.18,8,.51,11.69,1.42,3.16,3.23,6.37,6.24,8.08a17.82,17.82,0,0,0,6.81,1.8,162.74,162.74,0,0,0,19.74,1.14,41.32,41.32,0,0,1,23.22,7.87C81.39,304.32,61.86,293.49,46.53,287.44Z"/><path class="cls-7" d="M38.54,297.25c5.8.24,11.65.65,17.21,2.3s27.58,11.72,31,16"/><path class="cls-11" d="M96.21,256.49a38.58,38.58,0,0,0-27-17.23c-8.06-1.08-16.36.43-24.31-1.25A31,31,0,0,1,21.61,198.8c1.87-6.22,6.13-12.12,12.32-14.11a19.46,19.46,0,0,1,10.49-.11,29,29,0,0,1,8.84,3.82c6.23,3.94,11.25,10,15,16.44,3.43,5.85,11.89,15,17.65,20.89,3.38,3.46,5.83,5.83,5.83,5.83C95.72,236.47,93.87,250.63,96.21,256.49Z"/><path class="cls-12" d="M32.13,202.68c19.37,8.74,40.49,20.2,54.23,36.41"/><path class="cls-13" d="M88.21,236.91S59.35,213.52,53.26,188.4c6.23,3.94,11.25,10,15,16.44,3.43,5.85,11.89,15,17.65,20.89C86.62,228.87,87.37,232.56,88.21,236.91Z"/><path class="cls-13" d="M89.54,143.8a194.88,194.88,0,0,1-10,23.57c-1.93,4-9.76,13.32-14,15.09a217.27,217.27,0,0,0-.69-33.33c-1.17-10.2,2.5-17.93-1.5-27.39-.51-1.21-1-2.42-1.57-3.63.37.12.73.25,1.08.4,6.58,2.82,9.62,9.78,10.18,16.54.47,5.58-.54,11.17-1.29,16.72a22.09,22.09,0,0,0-.08,7.69.24.24,0,0,1,0,.08,2.88,2.88,0,0,0,5.62-.21L79.09,150c.52-2.78,1.09-5.69,3.37-7.63a4.81,4.81,0,0,1,3.24-1.21A4.44,4.44,0,0,1,89.54,143.8Z"/><path class="cls-14" d="M88.22,231.05c-4.56-23.81-7-27.48-5-33.45,2.55-7.6,1.12-15.25,3.53-22.9s4-15.89,2.1-23.67c-.61-2.46-1.86-5.15-4.81-5.25A4.82,4.82,0,0,0,80.84,147c-2.28,1.94-2.85,4.85-3.37,7.63l-1.74,9.29a2.89,2.89,0,0,1-5.63.2V164a21.84,21.84,0,0,1,.07-7.69c.75-5.55,1.76-11.14,1.29-16.73-.56-6.76-3.6-13.72-10.18-16.53a11.57,11.57,0,0,0-7.43-.59C47,124.26,45.19,131,46.2,136.71c.71,4,2.6,7.75,4.31,11.47,4.19,9.09,1.12,17.43,1.7,27.42C53.8,203.17,88.22,231.05,88.22,231.05Z"/><path class="cls-12" d="M57.56,129.7c3.39,16.94,6.82,34,13.4,50,1.93,4.68,2.87,10.85,14,23.59"/><path class="cls-6" d="M189.8,134.05c-3.51-4-6.75-8.09-10.16-12-2.21-2.55-4.49-5-7-7.4-1.23-1.18-2.5-2.32-3.84-3.43a107.83,107.83,0,0,0-26.21-16c-5.7-2.44-11.72-4.45-16.56-8.34s-8.32-10.26-6.71-16.25c1.17-4.32,4.84-7.68,9.05-9.22a24.07,24.07,0,0,1,13.23-.47C153.83,63.54,164,72.31,171,82.68l.37.56C176.4,91,180,99.61,183,108.39c1,2.82,1.93,5.66,2.86,8.49C187.3,121.11,191.6,129.86,189.8,134.05Z"/><path class="cls-7" d="M134,71.09c13.31,2.54,22.73,11.35,32.6,20.63A72.16,72.16,0,0,1,187,126.26"/><path class="cls-13" d="M179.64,122a15.75,15.75,0,0,0,.19,4.16c-3.33-.76-5.64-5.93-7.16-11.56a86.9,86.9,0,0,1-2.46-14.12,61.09,61.09,0,0,1,1.11-17.27C176.4,91,180,99.61,183,108.39q-1.59,4.73-2.72,9.56A27.79,27.79,0,0,0,179.64,122Z"/><path class="cls-11" d="M202.74,74c-1.13,5-4.15,9.3-6.8,13.67-1.4,2.31-2.71,4.68-3.93,7.08A107.53,107.53,0,0,0,183.15,119a19.62,19.62,0,0,0-.48,8.24c-6.57-1.5-9.18-20.15-9.63-25.69a60.5,60.5,0,0,1,5-29.35c1.79-4,4.11-8,7.67-10.53s8.61-3.47,12.38-1.23a10.14,10.14,0,0,1,4.44,6.14A15.27,15.27,0,0,1,202.74,74Z"/><path class="cls-12" d="M180.15,121.69c-4.08-10.25-1.6-31.94,4.94-45.57,2-4.11,4.78-8,8.72-10.25"/><path class="cls-13" d="M202.74,74c-1.13,5-4.15,9.3-6.8,13.67-1.4,2.31-2.71,4.68-3.93,7.08a23.93,23.93,0,0,1-3.36-9.84c-.55-5.81,1.67-12,6.4-15.45a17.12,17.12,0,0,1,7.51-2.91A15.27,15.27,0,0,1,202.74,74Z"/><path class="cls-8" d="M240.59,117.38a21.52,21.52,0,0,1-1.7,5.52c-2.91,6.3-9,11.7-18.17,16.1,0,0-.51-10-.62-12.63-.45-11.41-12.84-17.73-20.68-26.06-4-4.25-7-9.61-7.58-15.42s1.67-12,6.39-15.45c4-2.86,9.15-3.48,14-3.11,7.86.63,15.79,3.92,20.68,10.06a7.83,7.83,0,0,1,.57.72c3,4.09,4.54,9.07,5.66,14C241.12,99.73,242,108.67,240.59,117.38Z"/><path class="cls-9" d="M201.6,75.57c8.58,4.43,17.17,9.79,22.17,18.06,7,11.53,5.45,26.53.07,38.88"/><path class="cls-11" d="M384.08,191c5.47-9,2.68-20.58,4.58-30.93a34.12,34.12,0,0,1,12.23-20.38c4-3.16,9.57-5.42,14.06-3.05,1,.51,2.13,1.23,3.07.66a2.46,2.46,0,0,0,.92-1.69c1.14-5.59-1.55-11.7.65-17,1.18-2.84,3.63-5,6.22-6.61a34,34,0,0,1,16.77-5.26,9.49,9.49,0,0,1,4.61.7c2.54,1.28,3.7,4.44,3.36,7.27a16.07,16.07,0,0,1-3.62,7.6c-5.74,7.51-14.16,14-15.26,23.37a6.12,6.12,0,0,0,.4,3.5c.53,1,1.51,1.76,2.06,2.77,1.76,3.25-1.65,6.94-5,8.54a28.86,28.86,0,0,1-9.72,2.69c-2.31.21-4.93.27-6.5,2-2.91,3.16.43,8.21-.18,12.45-.38,2.66-2.3,4.8-4.24,6.65a75.94,75.94,0,0,1-11.69,9.23c-3.4,2.18-7,4.1-10,6.78s-5.44,6.32-5.64,10.34"/><path class="cls-12" d="M391.29,182.28c.89-4.37,2.92-8.4,4.93-12.37,3.14-6.21,6.34-12.51,11.08-17.61,3.6-3.87,8-6.92,11.65-10.73a40.34,40.34,0,0,0,6.59-9.14,30.85,30.85,0,0,1,3-5.3c1.52-1.9,3.59-3.24,5.4-4.86a23.16,23.16,0,0,0,5.72-7.89"/><path class="cls-6" d="M462.59,197.28c-1.23,4.74-3.06,9.43-6.2,13.19a28.14,28.14,0,0,1-7.82,6.31,44,44,0,0,1-4.73,2.31,56.79,56.79,0,0,1-19.77,4.38c-9.88.37-20-1.81-29.52,1a29.09,29.09,0,0,0-11.65,6.75,28.34,28.34,0,0,0-5.23,6.61l1.29-8.2c2.39-8.82,4.83-17.8,9.71-25.53a67.17,67.17,0,0,1,11.59-13.38,96.68,96.68,0,0,1,23.17-16.2c6.88-3.34,14.52-5.69,22.12-4.76s15.05,5.72,17.42,13C464.49,187.43,463.83,192.53,462.59,197.28Z"/><path class="cls-7" d="M385.42,223.39a60,60,0,0,1,30.43-23.1c7.67-2.56,15.77-3.53,23.53-5.77s15.51-6,20.06-12.72"/><path class="cls-11" d="M390.2,302.16c.44-11,6.14-21.21,13.06-29.8,5.78-7.17,12.74-13.73,21.35-17,2.7-1,5.66-1.71,8.46-1s5.34,3.08,5.39,6c0,2.43-1.59,4.55-3.31,6.28-5.66,5.66-13,9.3-19.83,13.44-11.78,7.12-23,16.62-27.65,29.57"/><path class="cls-12" d="M394.56,292.51c7.2-16.06,25.84-30.41,38.13-32.21"/><path class="cls-8" d="M385.7,310.93c-.1-1.85,5.93-6.68,7.29-7.91a69.69,69.69,0,0,1,25.92-14.81c3.83-1.2,7.89-2.07,11.71-1.15s7.34,4.06,7.71,8.18-2.32,7.92-5.74,9.86-7.44,2.23-11.26,2c-5.9-.34-11.7-1.81-17.62-1.76S389.46,306,385.7,310.93Z"/><path class="cls-9" d="M391.84,305.32c12.11-6.56,30.43-10.83,43.72-9.22"/><path class="cls-13" d="M240.59,117.38a21.52,21.52,0,0,1-1.7,5.52A96.1,96.1,0,0,1,230,87.69a19.43,19.43,0,0,1,2.93-11.3,7.83,7.83,0,0,1,.57.72c3,4.09,4.54,9.07,5.66,14C241.12,99.73,242,108.67,240.59,117.38Z"/><path class="cls-14" d="M282.48,116.87c9-3.21,18.43-5.77,26.65-10.72a23.28,23.28,0,0,0,6.65-5.54,11.18,11.18,0,0,0,2.46-8.12c-.4-2.93-2.27-5.73-1.64-8.61.41-1.9,1.84-3.38,2.93-5a16,16,0,0,0,2-13.28c-1.41-4.77-5-8.58-7-13.11a21.94,21.94,0,0,1-1.69-11.91c-7.59.11-14.51,4.25-22,5.63-5.71,1.06-11.64.49-17.3,1.79a27.3,27.3,0,0,0-20.35,21.9A15,15,0,0,0,240,74.35a19.51,19.51,0,0,0-5.21,14.26c2.33,37.43,23.76,57,23.76,57S279,118.1,282.48,116.87Z"/><path class="cls-12" d="M262.25,116.61c-.94-9.23,2.28-18.36,6-26.87,3.61-8.29,7.77-16.42,13.35-23.54s12.67-13.22,21-16.65"/><path class="cls-12" d="M270.3,55.21a74.28,74.28,0,0,0,1.86,26.15"/><path class="cls-12" d="M273.7,78.41c9.4-6,23.86-9.69,35-9"/><path class="cls-12" d="M250.71,80c11.31,4.78,11.78,21.42,12.08,26.15"/><path class="cls-12" d="M265.88,95.51c8.66-6.21,21.17-8.07,30.38-5.76"/><path class="cls-12" d="M289.5,50.94a13.67,13.67,0,0,0-3,9.67"/><path class="cls-12" d="M289,58.27c4-2.05,9.33-2.52,15-1.09"/><path class="cls-15" d="M66.32,76.37c1.06-.06,8.32-5.43,11.11-7.24a7.59,7.59,0,0,0,2.13-1.81A2.68,2.68,0,0,0,80,64.68a3.36,3.36,0,0,0-3.4-2.1c-3.61,0-4.87,1.2-6.62,3C64.13,71.6,66.32,76.37,66.32,76.37Z"/><path class="cls-15" d="M98.84,98c3.16,1.42,6.53,2.83,10,2.39,1.33-.17,2.79-.77,3.23-2a3,3,0,0,0-1-3.09,7.16,7.16,0,0,0-3.11-1.4c-4.21-1-10.11-.46-14.27.73A37.26,37.26,0,0,0,98.84,98Z"/><path class="cls-15" d="M119.64,51.39c-1.41-.89-3-2.08-3-3.75s1.74-2.94,3.41-3a7,7,0,0,1,4.48,2c5.32,4.67,4.65,10,4.65,10S121.21,52.38,119.64,51.39Z"/><path class="cls-15" d="M123.83,37.15a6.83,6.83,0,0,1-3.23-2.3,2.17,2.17,0,0,1-.34-1.87c.37-1,1-2,3.62-1.49,8.25,1.5,10.05,7.15,10.05,7.15S126,38.09,123.83,37.15Z"/><path class="cls-15" d="M148,49.65a13.06,13.06,0,0,0,8.82-4.52,8.08,8.08,0,0,0,1.77-3.28,3.25,3.25,0,0,0-5.24-3.44A8.48,8.48,0,0,0,150.59,42C149.7,43.84,148,49.65,148,49.65Z"/><path class="cls-7" d="M88.92,170.31l-24-21.19c-4.27-3.76-8.63-7.64-11.34-12.65-5.81-10.76-2.46-24.75,5.39-34.14s19.36-14.93,30.91-19,23.58-6.87,34.59-12.2c6.91-3.35,13.86-8.33,15.75-15.77a15.72,15.72,0,0,0-14.31-19.58"/><path class="cls-7" d="M153.6,42c-2.19,6.72-10.71,10.81-14.61,16.64"/><path class="cls-7" d="M123,49.7c1.68,1.77,3.69,3.24,5.16,5.19,3.1,4.13,3.35,10.84-1.23,15"/><path class="cls-7" d="M79.84,87.34a45.63,45.63,0,0,0,25.28,9.42"/><path class="cls-7" d="M63.65,97.26A25,25,0,0,1,72,70.07"/><path class="cls-15" d="M322.07,56.71a3.52,3.52,0,0,1,.51-3.54,2.61,2.61,0,0,1,2.77-.62c7,3.09,6.27,14.06,6.27,14.06S325,65.65,322.07,56.71Z"/><path class="cls-15" d="M321.9,77.25c-4.55,8.22,11.61,7.59,17.44,2.75C339.34,80,325.81,70.17,321.9,77.25Z"/><path class="cls-15" d="M342.33,57.33c-1.1-1.5-1.49-3.75-.29-5.17a4,4,0,0,1,3.8-1.13,8.9,8.9,0,0,1,4.27,2.6c5.32,6.62,2.82,13.09,2.82,13.09S344.13,59.79,342.33,57.33Z"/><path class="cls-15" d="M406.51,77.68a3.63,3.63,0,0,1,.7-3.74,3.17,3.17,0,0,1,2.36-.71A7.35,7.35,0,0,1,412,74a7.73,7.73,0,0,1,3.72,3.7c2,4.12.64,9.22.64,9.22S407.49,80.87,406.51,77.68Z"/><path class="cls-15" d="M386.32,92.76A10.38,10.38,0,0,0,375.61,91a5.46,5.46,0,0,0-2.29,1.72c-1.28,1.77-.83,4.35.49,6.08a13.38,13.38,0,0,0,5.32,3.68c3.6,1.64,9.18,2,13,2.94C392.14,105.45,392.12,97.85,386.32,92.76Z"/><path class="cls-7" d="M327.1,58.47c2.38,7.78,9.11,13.65,16.6,16.83s15.75,4,23.87,4.54,16.34.79,24.19,2.92c7.66,2.08,15.28,6.41,18.56,13.63,4,8.78.46,19.29-5.15,27.14S392,137.71,386.57,145.7c-2.5,3.66-4.58,8-4.08,12.35.68,5.88,5.62,10.2,10.22,13.91"/><path class="cls-7" d="M345.82,55.61a46.57,46.57,0,0,1,10.73,23.23"/><path class="cls-7" d="M327.73,78.61a37.09,37.09,0,0,0,9.38,1.65,14.34,14.34,0,0,0,9.16-4"/><path class="cls-7" d="M411.78,78.16a15.93,15.93,0,0,1,4.79,10.71c.15,4-2.08,8.86-4.74,11.85"/><path class="cls-7" d="M381.62,96.34a159.73,159.73,0,0,0,17.17,14.09c2.92,2,8.72,4.69,11.3,4"/><path class="cls-13" d="M448.57,216.78a44,44,0,0,1-4.73,2.31,56.79,56.79,0,0,1-19.77,4.38c-9.88.37-20-1.81-29.52,1a29.09,29.09,0,0,0-11.65,6.75c-.33.16-.66.34-1,.53-.79-6.69,15.89-15.41,21-17.68A60.43,60.43,0,0,1,432.22,209c4.38.35,8.87,1.21,12.48,3.7A13.36,13.36,0,0,1,448.57,216.78Z"/><path class="cls-11" d="M432.22,213c4.38.35,8.87,1.21,12.48,3.7s6.16,6.94,5.32,11.25c-1,5-6.17,8.29-11.25,8.91S428.62,236,423.61,235a107.93,107.93,0,0,0-33.78-1.55,19.51,19.51,0,0,0-7.92,2.31c-.79-6.7,15.89-15.41,21-17.68A60.55,60.55,0,0,1,432.22,213Z"/><path class="cls-12" d="M386.25,231.54c8.28-7.28,29.55-12.23,44.58-10.63,4.53.48,9.1,1.83,12.59,4.77"/><path class="cls-16" d="M370.77,149.74l80.89-.17a17.19,17.19,0,0,1,17.22,17.15h0a17.19,17.19,0,0,1-17.15,17.22l-55.33.12"/><path class="cls-16" d="M126,209.13l-56.57.11A9.72,9.72,0,0,0,59.78,219h0a9.71,9.71,0,0,0,9.72,9.68l16.5,0"/><path class="cls-17" d="M35.74,252.93c-19.38,0-19.78,28.95,4.88,28.9L404,281.08c15.25,0,16.86-23.83-2-23.79-37.53.08-38.78-17.82-17.94-17.86"/><path class="cls-6" d="M40.28,252.13a4.79,4.79,0,1,1-5.53-3.92A4.8,4.8,0,0,1,40.28,252.13Z"/><path class="cls-18" d="M393.36,239.56a4.79,4.79,0,1,1-5.53-3.92A4.78,4.78,0,0,1,393.36,239.56Z"/><path class="cls-13" d="M398.58,323.13l-300.89.62a7.27,7.27,0,0,1-7.29-7.26L90,117.16a7.27,7.27,0,0,1,7.26-7.28l300.89-.62a7.27,7.27,0,0,1,7.28,7.25l.41,199.33A7.27,7.27,0,0,1,398.58,323.13Z"/><path class="cls-19" d="M392.68,319.32l-300.88.62a7.27,7.27,0,0,1-7.29-7.25L84.1,113.35a7.27,7.27,0,0,1,7.25-7.28l300.89-.62a7.27,7.27,0,0,1,7.29,7.25L399.94,312A7.27,7.27,0,0,1,392.68,319.32Z"/><path class="cls-10" d="M391.75,105.45l-299.6.62A7.91,7.91,0,0,0,84.26,114v6.88l315.43-.65,0-6.88A7.92,7.92,0,0,0,391.75,105.45Z"/><path class="cls-3" d="M92.51,319.94l45.27-.09-.41-199.08-53.18.11.39,191.17A7.91,7.91,0,0,0,92.51,319.94Z"/><path class="cls-10" d="M392.33,107.45a5.28,5.28,0,0,1,5.27,5.26L398,312a5.26,5.26,0,0,1-5.26,5.28l-300.9.62a5.27,5.27,0,0,1-5.26-5.26l-.42-199.33a5.27,5.27,0,0,1,1.54-3.73,5.19,5.19,0,0,1,3.72-1.55l300.89-.62h0m0-2h0l-300.89.62a7.28,7.28,0,0,0-7.26,7.28l.42,199.34a7.26,7.26,0,0,0,7.26,7.25h0l300.89-.62A7.27,7.27,0,0,0,400,312L399.6,112.7a7.27,7.27,0,0,0-7.27-7.25Z"/><rect class="cls-19" x="92.47" y="298.84" width="40.46" height="5.92" rx="2.79" transform="translate(-0.62 0.23) rotate(-0.12)"/><rect class="cls-19" x="91.1" y="129.78" width="39.91" height="39.91" rx="5.11" transform="translate(-0.31 0.23) rotate(-0.12)"/><rect class="cls-3" x="145.97" y="251.01" width="110.76" height="7.73" rx="3.64" transform="translate(-0.53 0.42) rotate(-0.12)"/><rect class="cls-3" x="161.7" y="133.09" width="89.05" height="7.73" rx="3.64" transform="matrix(1, 0, 0, 1, -0.28, 0.43)"/><rect class="cls-3" x="263.71" y="215.82" width="116.31" height="7.73" rx="3.64" transform="translate(-0.45 0.66) rotate(-0.12)"/><rect class="cls-3" x="146.01" y="266.99" width="110.76" height="7.73" rx="3.64" transform="translate(-0.56 0.42) rotate(-0.12)"/><rect class="cls-3" x="146.04" y="282.98" width="110.76" height="7.73" rx="3.64" transform="translate(-0.59 0.42) rotate(-0.12)"/><rect class="cls-3" x="263.82" y="244.32" width="116.31" height="56.81" rx="6.01" transform="translate(-0.56 0.67) rotate(-0.12)"/><path class="cls-3" d="M101.56,113.32A2.55,2.55,0,1,1,99,110.77,2.55,2.55,0,0,1,101.56,113.32Z"/><circle class="cls-3" cx="109.8" cy="113.3" r="2.55"/><path class="cls-3" d="M123.14,113.27a2.55,2.55,0,1,1-2.55-2.54A2.56,2.56,0,0,1,123.14,113.27Z"/><circle class="cls-3" cx="150.37" cy="137.07" r="7.37" transform="translate(-1.01 273.03) rotate(-84.28)"/><rect class="cls-19" x="94" y="173.01" width="35.39" height="2.92" rx="1.37" transform="translate(-0.36 0.23) rotate(-0.12)"/><rect class="cls-19" x="94.01" y="179.24" width="35.39" height="2.92" rx="1.37" transform="translate(-0.37 0.23) rotate(-0.12)"/><path class="cls-3" d="M165.42,195.31l-9.24.09.07,38.68-8,0a5.1,5.1,0,0,1-5.11-5.08L143,157.49a5.13,5.13,0,0,1,5.13-5.15l17.15-.05Z"/><path class="cls-3" d="M225.31,152.18v1a5,5,0,0,1,5,5l.14,69.74a5,5,0,0,1-5,5l-76.27.15a5,5,0,0,1-5-5L144,158.36a5,5,0,0,1,5-5l76.26-.15v-1m0,0h0l-76.25.15a6,6,0,0,0-6,6l.14,69.74a6,6,0,0,0,6,6h0l76.25-.15a6,6,0,0,0,6-6l-.14-69.73a6,6,0,0,0-6-6Z"/><rect class="cls-3" x="250.68" y="134.94" width="116.31" height="63.93" rx="6.01" transform="translate(44.39 -63.97) rotate(12.74)"/><polygon class="cls-10" points="155.78 347.28 141.55 347.31 138.07 329.17 159.19 329.13 155.78 347.28"/><path class="cls-3" d="M142,329.16c0,1.48-.28,4,.7,4s.58-2.35,1.7-2.29c.72,0-.33,7.88,2.38,8.07,1.86.13,1.52-3.85,1.71-6.33a1.17,1.17,0,0,1,2.31-.24c0,1.24-.06,2.08,0,3.49.1,2.37,3.73,1.74,3.6-1.42s0-5.3,0-5.3Z"/><path class="cls-20" d="M138.6,340.12a3.86,3.86,0,0,1-.84-.09,3,3,0,0,1-2.19-1.64c-1.45-3.08,2.37-8.84,2.52-9.1l.2,1c0,.06-3.36,5-2,7.78a2.25,2.25,0,0,0,1.68,1.25,3.38,3.38,0,0,0,.72.07c5.13,0,13.89-9.56,14-9.67.36-.43,1,0,.79.33C153,330.56,144.11,340.1,138.6,340.12Z"/><path class="cls-13" d="M288.17,92.14c-20.23-.77-48.08,14.19-38.2,50.76-.22,3.1,1.64,5.3,3.6,4.7s.24-6.47.24-6.47c3.37-27.19,9.67-31.9,20.36-31.8l25.09,0c6.2.91,17.47,5.25,19.17,27l6.24,1.15C325.16,121.73,321.35,93.41,288.17,92.14Z"/><path class="cls-21" d="M288.17,89c-20.23-.77-48.08,14.19-38.2,50.77l3.84-1.77c3.37-27.2,9.67-31.9,20.36-31.8l25.09-.06c6.2.92,17.78,6.42,19.47,28.19h5.94C325.16,118.54,321.35,90.22,288.17,89Z"/><path class="cls-22" d="M284,89.55l-3,6.6s.36,3.72,4,3.64S289.17,98,289.17,98l.48-7.58Z"/><path class="cls-22" d="M299.47,84c-3.42,6.06-4.94,7.94-9.42,8.85-5.8,1.18-12.3-2.73-9.28-12.37,2.47-7.86,6.2-6.65,9.85-6.36S303.17,77.5,299.47,84Z"/><path class="cls-20" d="M285.86,79.26a2.46,2.46,0,0,0-2.79.68,3,3,0,0,0-.77,2.92,2.66,2.66,0,0,0-2.5,2.79c-.95-2.24-.44-4.56-.63-6.85s.07-4.77,1.55-6.52a7.62,7.62,0,0,1,2.22-1.72,11.5,11.5,0,0,1,10.32-.14,6.25,6.25,0,0,0,4.64.81c4.42-1.07,7,1.92,4.35,4.72a3.52,3.52,0,0,1,2.17,1.51.68.68,0,0,1,0,.66.71.71,0,0,1-.4.25,4.85,4.85,0,0,1-2.33.19c.3.25,1.94.35,2.43,1.3,1.32,2.54-3.9,1.26-4.69,1,.9.17,3.29,2.07,2.52,3.37-.15.26-3.36,2.14-6.75-1.79a6.11,6.11,0,0,0-2.93-2.07,4.61,4.61,0,0,0-2.76.43c-.64.24-2.29,1.24-2.77.65S286.91,79.79,285.86,79.26Z"/><path class="cls-22" d="M319.37,134.29c-.9,3.08-1.81,3.39-.72,3.88s2-1.24,2-1.24l5,1s-1.14-3.26-1.93-3.65S319.37,134.29,319.37,134.29Z"/><path class="cls-22" d="M253.81,138c.65,1.63.83,1.64,1.75,3.59,1.74,3.74-2.35,9.66-4.88,3.2a17.9,17.9,0,0,1-.71-5Z"/><path class="cls-20" d="M293,71c1.93.18,3.75-.49,5.65-.69,1.64-.18,3.58.06,4.64,1.49.25.34.8,0,.58-.34a4.61,4.61,0,0,0-4.44-2c-2.17.14-4.23,1.06-6.43.91-.37,0-.36.54,0,.58Z"/><path class="cls-20" d="M294.38,69.05c-2.17.53-4.34-.62-6.53-.39a10,10,0,0,0-5.48,2.6c-.36.32.12,1,.53.68,1.7-1.16,3.51-2.32,5.64-2.34s4,.92,6,.18a.38.38,0,0,0-.2-.73Z"/><path class="cls-20" d="M281,72.25A5.72,5.72,0,0,0,279,74.14a6.24,6.24,0,0,0-.76,2.64A12.07,12.07,0,0,0,278.5,80c.14.76.19,1.93,1.08,2.18.39.12.57-.41.26-.63a1.52,1.52,0,0,1-.4-1c-.09-.41-.18-.83-.26-1.25A10.7,10.7,0,0,1,279,76.7a5.2,5.2,0,0,1,2.29-4,.24.24,0,0,0-.24-.41Z"/><path class="cls-20" d="M306.41,77.88a4.13,4.13,0,0,0-2-1.78,3.15,3.15,0,0,0-2.73-.06.3.3,0,0,0,.15.56c.39,0,.78,0,1.17,0a3.77,3.77,0,0,1,1.11.22A3.56,3.56,0,0,1,306,78.15a.26.26,0,0,0,.45-.27Z"/><path class="cls-18" d="M195.14,230.43c10.6,3.9,19.81,16.07,17.7,24.91-2.39,10-9.28,14.3-9.28,14.3l-2.17-4s5.51-8.62,5-12.68c-.77-6.52-9-10.87-9-10.87Z"/><path class="cls-20" d="M169,343.15s-6.51,2.64-8.14,4.12l12.9,0v-4.09Z"/><path class="cls-20" d="M197.53,342.9a10.51,10.51,0,0,1,2.19,4.29l-8.8,0a10.32,10.32,0,0,1,1.64-4.3Z"/><path class="cls-23" d="M198.07,343.1h-6c.12-7.08-1.34-31.21-2.75-49.25-.83-10.58-1.65-19.08-2.13-20.8l3.22-.71,12.15-2.7C204.63,279.15,199.83,322.77,198.07,343.1Z"/><path class="cls-24" d="M176,272.67c-4.69,7.39-5.9,60.75-7.86,70.64l5.7.32a518,518,0,0,1,20.49-71.46Z"/><path class="cls-13" d="M196.71,272.17c-2.75,7.47-5.22,14.78-7.4,21.69-.83-10.58-1.65-19.08-2.13-20.8l3.22-.71Z"/><path class="cls-24" d="M176,272.67c-4.69,7.39-5.9,60.75-7.86,70.64l5.7.32a518,518,0,0,1,20.49-71.46Z"/><path class="cls-22" d="M179.56,213.11S175.91,227,185,227l-.54,3.56,6.92.75-1.5-5s1.37-8.74,1.47-10.32C191.55,213.08,183.29,207.89,179.56,213.11Z"/><rect class="cls-20" x="154.35" y="197.52" width="2.69" height="11.35" transform="translate(-0.4 0.31) rotate(-0.11)"/><rect class="cls-10" x="146.01" y="193.21" width="19.33" height="4.31" rx="1.95" transform="translate(-0.39 0.31) rotate(-0.11)"/><path class="cls-22" d="M153.61,211.83c-.07-2.57-2.19-1.9-1-6.1.73-2.59,6.09.42,5.42,2.22s-1.43,4.65-1.43,4.65Z"/><path class="cls-10" d="M185.09,229.73c-13.63.9-14.52,5.49-20.62,4.78-9-1.07-7.45-17.83-6.34-23.85h-5.39s-9.72,38.2,21,31.13c-1.18,6.7,6.46,17.62-.94,30.88,11.65,3.17,22.52,3.94,31.83-.06-1.63-2.2,3.35-24.39-6.39-40.36C196.32,229.14,186.09,229.66,185.09,229.73Z"/><path class="cls-10" d="M185.09,229.73c-13.63.9-14.52,5.49-20.62,4.78-9-1.07-7.45-17.83-6.34-23.85h-5.39s-9.72,38.2,21,31.13c-1.18,6.7,6.46,17.62-.94,30.88,11.65,3.17,22.52,3.94,31.83-.06-1.63-2.2,3.35-24.39-6.39-40.36C196.32,229.14,186.09,229.66,185.09,229.73Z"/><path class="cls-21" d="M183.22,215.77c.89.23,1.92.4,2.39,1.15a2.8,2.8,0,0,1,.26,1.67,1.41,1.41,0,0,1,1.47-1,1.35,1.35,0,0,1,1.18,1.26,2.23,2.23,0,0,1-.19.84,9.89,9.89,0,0,1-1,1.93c1.12.41,2.05,3.67,2.6,4.68,1.88-.47,6-2.08,6.41-8.71.16-3.09-.78-6.79-4.13-8.84-2.36-1.46-6.29-1.48-9-.78-2.2.56-5.7,2.75-4.07,5.32A7,7,0,0,0,183.22,215.77Z"/><path class="cls-21" d="M194.89,211.55a3.28,3.28,0,0,1,3.64.86,7.07,7.07,0,0,1,.74,2.9,2.25,2.25,0,0,0,.63,1.29,2.71,2.71,0,0,0,1.68.52,37.91,37.91,0,0,1,4.4.14,4.05,4.05,0,0,1,3.34,2.41c.22.75.1,1.57.37,2.3.41,1.1,1.58,1.73,2.61,2.37a17,17,0,0,1,5.35,5.33,9.59,9.59,0,0,1,1.6,4.42c.1,1.57,1.24,3.64.93,5.19s-2,3.93-5.21,5c-5.6,1.8-7.37,2.59-12.74-.6-.65-.39-1.92-1.7-2.5-2.17a2.82,2.82,0,0,1-.91-1.45,6.06,6.06,0,0,1,.87-4.6c.81-1.4,1.89-2.64,2.71-4a5.07,5.07,0,0,0,.85-2.72,1.51,1.51,0,0,0-.37-1,1.69,1.69,0,0,0-.87-.39c-1.18-.23-2.47,0-3.54-.51a2.51,2.51,0,0,1-1.3-2.85c.21-.72.76-1.33.92-2.07a2.83,2.83,0,0,0-1.36-2.76,8.13,8.13,0,0,0-3.16-1,3.58,3.58,0,0,1-1.56-.49,2.09,2.09,0,0,1-.79-1.74C191.24,213.75,192.93,212.2,194.89,211.55Z"/><path class="cls-21" d="M193.93,217.14a3.1,3.1,0,0,1,2.57,4c-.48,1.65-1.74,3-1.77,4.77a2.82,2.82,0,0,0,2.38,2.84,9.53,9.53,0,0,0,2.2.1,3.37,3.37,0,0,1,2.23.47c.81.68.59,1.88.26,2.75a9.78,9.78,0,0,0-1,3c0,.37.59.46.64.09.27-1.75,1.73-3.33,1.26-5.18-.43-1.7-2.23-1.84-3.69-1.79a5.18,5.18,0,0,1-2.56-.36,2.19,2.19,0,0,1-1-2.54c.37-1.83,2-3.32,1.73-5.29a3.61,3.61,0,0,0-3.28-3.13c-.23,0-.22.34,0,.36Z"/><path class="cls-21" d="M180,208.88a13.21,13.21,0,0,1,7.92-1.67,12.9,12.9,0,0,1,6.85,3.43.31.31,0,0,0,.44-.43c-3.63-4.3-11-5.24-15.38-1.55-.13.11,0,.29.17.22Z"/><polygon class="cls-22" points="354.65 225.2 352.4 229.73 357.91 231.98 358.5 226.76 354.65 225.2"/><path class="cls-22" d="M358,210.44c-12.49,5.44-7.37,18.62.23,17.07,3.7-.75,5.57-12.67,5.57-12.67Z"/><path class="cls-15" d="M362.13,208.57a6.38,6.38,0,0,0-1.48-2.12,1.88,1.88,0,0,0-2.38-.13c-.84.78-.35,2.25.5,3-.73.08-1.6-.42-2.14.08s-.27,1.06,0,1.57a7.12,7.12,0,0,0,2.56,2.93c-.63.36-1.36,1.06-1,1.68.1.17.28.29.38.46a1.35,1.35,0,0,1-.23,1.32c-.4.65-.82,1.28-1.28,1.89a1.12,1.12,0,0,1,1.79.31,1.92,1.92,0,0,1-.44,2,2,2,0,0,1-1,.64c-.34.08-1.86,4.76-.68,5.68,1.46,1.13,6.43.15,7.15-1.13a3.2,3.2,0,0,0,2.8,1.16,1.74,1.74,0,0,0,1.28-2.39,2.92,2.92,0,0,0,3.52-4.23c.61-.18.74-1,.58-1.63a3.78,3.78,0,0,0-2.58-2.66,1.27,1.27,0,0,0,1.16-1.26,2.65,2.65,0,0,0-.7-1.72,5.87,5.87,0,0,0-4.29-2.05C363.87,211.79,362.9,210,362.13,208.57Z"/><path class="cls-20" d="M350.42,342.29s-7.31,3.51-8.29,4.6c0,0,14.38.65,15.51,0s-2.3-4.58-2.3-4.58Z"/><path class="cls-20" d="M377.61,338.32s-6.42,4.95-7.15,6.22c0,0,15.16-2.25,15.16-3.24s-3.2-4-3.2-4Z"/><path class="cls-25" d="M357.49,274.53c-.27,1.48-10.28,41,18.35,64.67l8.3-1.9s-9.65-9.05-14.2-25.35c-4.31-15.4-.89-16.91,1.69-25.4,2.86-9.39.73-16.21.73-16.21Z"/><path class="cls-21" d="M343.8,274.41c-4.53,10.84-12.33,47.81,4.66,68.63l8.48,0s-6.68-7.32-7.43-24.31,3.57-24.45,6.62-30S362,273.53,362,273.53Z"/><path class="cls-18" d="M337.82,207.15c-2.25,7.95-3,22.63,8.29,28.54l7.56-1.84s-13.62-7.14-10.7-25.19Z"/><path class="cls-10" d="M317,203.09l5.86-.73s-.7,24.63,27.74,26.7c21.7,1.58,23.41,42.32,23.41,42.32-7,4.71-18.75,6.14-33.8,5.06,0,0,1-29.06-1.42-37C338.8,239.42,315.17,232,317,203.09Z"/><path class="cls-22" d="M309.84,198.62c-1,1.15,3.15,2.61,7.17,4.47l5.15-.64a19.31,19.31,0,0,0,0-2.1c-.06-1.07-.6-1.68-1.21-.76s-3.21,1.23-4.44.39S310.83,197.47,309.84,198.62Z"/><path class="cls-22" d="M337.82,207.15c-1.89-1.85-1.39-1.74-1.39-1.74l5.76,1.3s1.26-2.8,2.33-2.88-.81,1.93-.38,2.68-1.17,2.15-1.17,2.15Z"/><path class="cls-15" d="M365.36,211.28c.66.18,1.35.26,2,.49a4.06,4.06,0,0,1,1.67,1,2.43,2.43,0,0,1,.39,3c-.3.42.39,1,.73.56a3.17,3.17,0,0,0-.31-4.13,4.55,4.55,0,0,0-2-1.21,5.73,5.73,0,0,0-2.46-.25c-.28,0-.24.46,0,.52Z"/><path class="cls-15" d="M370.56,222A1.87,1.87,0,0,1,371.7,224c-.27,1-1.22,1.52-2,2.05a.34.34,0,0,0,.34.58,3.93,3.93,0,0,0,2.37-2.58,2.54,2.54,0,0,0-1.56-2.64c-.35-.18-.67.34-.31.54Z"/><path class="cls-15" d="M357.42,227.91a6.69,6.69,0,0,0,4.44,1,6.3,6.3,0,0,0,4.15-2c.24-.29-.07-.83-.44-.57a8.5,8.5,0,0,1-3.75,1.74,7.41,7.41,0,0,1-4.18-.6.22.22,0,0,0-.22.37Z"/><path class="cls-15" d="M370.9,213a2.12,2.12,0,0,1,.54,2.21,4,4,0,0,1-.61,1.22c-.28.43-.59.84-.9,1.24a.28.28,0,0,0,.39.39,4.91,4.91,0,0,0,1.84-2.84,2.28,2.28,0,0,0-1.12-2.4c-.11-.05-.24.09-.14.18Z"/><polygon class="cls-18" points="201.75 30.34 199.4 24.61 222.03 16.02 201.75 30.34"/><polygon class="cls-6" points="202.89 26.81 222.03 16.02 208.7 29.55 202.89 26.81"/><polygon class="cls-6" points="194.22 22.28 222.03 16.02 199.4 24.61 194.22 22.28"/><polygon class="cls-10" points="202.89 26.81 201.75 30.34 205.2 27.9 202.89 26.81"/><path class="cls-17" d="M199.09,29.57c-5.91-1-13.93,5-10.48,11.2,1.17,2.12,7.23,1.2,6.78-1.14-.21-1.12-1.59-1.6-2.72-1.47-6.61.76-6.87,6.29-6.58,7.7,1.52,7.28,12.67,4.82,16.42,3.79"/></g></g></g></svg>