<svg id="Layer_3" enable-background="new 0 0 64 64" height="512" viewBox="0 0 64 64" width="512" xmlns="http://www.w3.org/2000/svg"><path d="m2 2h46v50h-46z" fill="#e6e9ed"/><path d="m16.24 37.76c1.09 1.08 1.76 2.58 1.76 4.24s-.67 3.16-1.76 4.24c-1.08 1.09-2.58 1.76-4.24 1.76s-3.16-.67-4.24-1.76c-1.09-1.08-1.76-2.58-1.76-4.24 0-3.31 2.69-6 6-6 1.66 0 3.16.67 4.24 1.76z" fill="#fcd770"/><path d="m6 6h38v10h-38z" fill="#ff826e"/><path d="m16.24 21.76c1.09 1.08 1.76 2.58 1.76 4.24s-.67 3.16-1.76 4.24c-1.08 1.09-2.58 1.76-4.24 1.76s-3.16-.67-4.24-1.76c-1.09-1.08-1.76-2.58-1.76-4.24 0-3.31 2.69-6 6-6 1.66 0 3.16.67 4.24 1.76z" fill="#b4dd7f"/><path d="m51 24c1.1 0 2 .9 2 2 0 .55-.22 1.05-.59 1.41-.36.37-.86.59-1.41.59h-2-4-2c-1.1 0-2-.9-2-2 0-.55.22-1.05.59-1.41.36-.37.86-.59 1.41-.59h5z" fill="#fcd770"/><path d="m49 28v4l-.02.13c-.64-.09-1.31-.13-1.98-.13s-1.34.04-1.98.13l-.02-.13v-4z" fill="#ffeaa7"/><path d="m48.98 32.13c7.35.97 13.02 7.26 13.02 14.87 0 8.28-6.72 15-15 15-6.62 0-12.24-4.3-14.23-10.25-.5-1.49-.77-3.09-.77-4.75 0-7.61 5.67-13.9 13.02-14.87.64-.09 1.31-.13 1.98-.13s1.34.04 1.98.13z" fill="#ffeaa7"/><path d="m39.22 39.22c1.99-1.99 4.74-3.22 7.78-3.22s5.79 1.23 7.78 3.22 3.22 4.74 3.22 7.78-1.23 5.79-3.22 7.78-4.74 3.22-7.78 3.22-5.79-1.23-7.78-3.22-3.22-4.74-3.22-7.78 1.23-5.79 3.22-7.78z" fill="#69d6f4"/><path d="m50 31.292v-2.292h1c1.654 0 3-1.346 3-3s-1.346-3-3-3h-2v-22h-48v52h31v-.485c2.254 6.109 8.118 10.485 15 10.485 8.822 0 16-7.178 16-16 0-7.796-5.608-14.299-13-15.708zm-2-.241c-.332-.021-.662-.051-1-.051s-.668.03-1 .051v-2.051h2zm4-5.051c0 .551-.449 1-1 1h-8c-.551 0-1-.449-1-1s.449-1 1-1h8c.551 0 1 .449 1 1zm-49 25v-48h44v20h-4c-1.654 0-3 1.346-3 3s1.346 3 3 3h1v2.292c-7.392 1.409-13 7.912-13 15.708 0 1.383.195 2.719.527 4zm44 10c-7.72 0-14-6.28-14-14s6.28-14 14-14 14 6.28 14 14-6.28 14-14 14z"/><path d="m47 35c-6.617 0-12 5.383-12 12s5.383 12 12 12 12-5.383 12-12-5.383-12-12-12zm9.949 13c-.2 2.008-.998 3.842-2.211 5.324l-1.031-1.031-1.414 1.414 1.031 1.031c-1.482 1.213-3.316 2.011-5.324 2.211v-1.949h-2v1.949c-2.008-.2-3.842-.998-5.324-2.211l1.031-1.031-1.414-1.414-1.031 1.031c-1.213-1.482-2.011-3.316-2.211-5.324h1.949v-2h-1.949c.2-2.008.998-3.842 2.211-5.324l1.031 1.031 1.414-1.414-1.031-1.031c1.482-1.213 3.316-2.011 5.324-2.211v1.949h2v-1.949c2.008.2 3.842.998 5.324 2.211l-1.031 1.031 1.414 1.414 1.031-1.031c1.213 1.482 2.011 3.316 2.211 5.324h-1.949v2z"/><path d="m46 46.586-2.707 2.707 1.414 1.414 3.293-3.293v-6.414h-2z"/><path d="m45 5h-40v12h40zm-2 10h-36v-8h36z"/><path d="m12 35c-3.86 0-7 3.14-7 7s3.14 7 7 7 7-3.14 7-7-3.14-7-7-7zm0 12c-2.757 0-5-2.243-5-5s2.243-5 5-5 5 2.243 5 5-2.243 5-5 5z"/><path d="m21 47h8v2h-8z"/><path d="m21 43h8v2h-8z"/><path d="m21 39h8v2h-8z"/><path d="m21 35h8v2h-8z"/><path d="m12 19c-3.86 0-7 3.14-7 7s3.14 7 7 7 7-3.14 7-7-3.14-7-7-7zm0 12c-2.757 0-5-2.243-5-5s2.243-5 5-5 5 2.243 5 5-2.243 5-5 5z"/><path d="m34 31h2v2h-2z"/><path d="m21 31h11v2h-11z"/><path d="m21 27h17v2h-17z"/><path d="m25 23h13v2h-13z"/><path d="m21 23h2v2h-2z"/><path d="m21 19h17v2h-17z"/></svg>